<svg  viewBox="0 0 24 24" fill="none" xmlns="http://www.w3.org/2000/svg">
<path d="M13.9065 13.904C14.3287 15.1662 14.612 16.4708 14.7513 17.7944L14.8025 18.3096L14.9033 19.4544C13.7095 19.9194 12.4216 20.0909 11.1478 19.9544C9.87394 19.818 8.6515 19.3777 7.5833 18.6704L9.2473 17.0008L9.4441 16.8088C10.8785 15.4264 12.1721 14.5088 13.7537 13.956L13.9065 13.904ZM18.7785 13.2776L19.1097 13.28L19.8945 13.2912C19.7174 14.3744 19.3193 15.4096 18.7248 16.3323C18.1304 17.255 17.3524 18.0454 16.4393 18.6544L16.3961 18.1704C16.2521 16.5248 15.9561 15.004 15.4657 13.5192C16.3009 13.3736 17.2281 13.2968 18.2889 13.2808L18.7777 13.2776H18.7785ZM12.4833 10.7328C12.79 11.2788 13.0709 11.8388 13.3249 12.4112C11.5041 13.0272 10.0113 14.0536 8.4097 15.5848L8.1257 15.86L6.3369 17.652C4.90312 16.2155 4.06893 14.2878 4.00331 12.2592L3.99931 12L4.00251 11.8H4.87931L5.2529 11.7984C8.0905 11.7776 10.3377 11.5048 12.4033 10.7624L12.4833 10.7328ZM19.9937 11.6944L18.7817 11.6784C17.2937 11.676 16.0217 11.7776 14.8897 12C14.612 11.35 14.3014 10.7145 13.9593 10.096C15.0737 9.54003 16.1649 8.81843 17.3025 7.89603L17.6449 7.61283L18.2977 7.06723C19.2725 8.31208 19.8565 9.81786 19.9761 11.3944L19.9937 11.6944ZM8.2633 4.92643L9.2761 6.14403C10.1921 7.26243 10.9729 8.31443 11.6353 9.33203C9.8273 9.94483 7.8441 10.1736 5.3289 10.1968L4.87931 10.2H4.20411C4.46248 9.08103 4.95874 8.03078 5.65917 7.12066C6.3596 6.21055 7.24777 5.46271 8.2633 4.92643ZM15.9993 5.07203C16.4233 5.31683 16.8201 5.59763 17.1857 5.90883L16.3657 6.59443C15.2625 7.49683 14.2153 8.18883 13.1385 8.71363C12.4265 7.59523 11.5841 6.44483 10.5929 5.22723L10.2137 4.76803L9.8257 4.30083C10.8541 4.01055 11.9302 3.92924 12.9905 4.0617C14.0509 4.19415 15.0739 4.53769 15.9993 5.07203Z" fill="currentColor"/>
</svg>
