<svg viewBox="0 0 24 24" fill="none" xmlns="http://www.w3.org/2000/svg">
<path d="M7.96008 6.22202C7.95987 6.62905 7.79798 7.01933 7.51002 7.30701C7.22206 7.59468 6.83162 7.75618 6.42458 7.75597C6.01755 7.75577 5.62727 7.59388 5.33959 7.30592C5.05192 7.01796 4.89042 6.62752 4.89063 6.22048C4.89083 5.81345 5.05272 5.42316 5.34068 5.13549C5.62864 4.84782 6.01908 4.68632 6.42612 4.68652C6.83315 4.68673 7.22343 4.84862 7.51111 5.13658C7.79878 5.42454 7.96028 5.81498 7.96008 6.22202ZM8.00612 8.89244H4.93667V18.4998H8.00612V8.89244ZM12.8558 8.89244H9.80175V18.4998H12.8252V13.4582C12.8252 10.6497 16.4855 10.3888 16.4855 13.4582V18.4998H19.5166V12.4146C19.5166 7.68 14.099 7.8565 12.8252 10.1816L12.8558 8.89244Z" fill="currentColor"/>
</svg>
