<svg width="568" height="572" viewBox="0 0 568 572" fill="none" xmlns="http://www.w3.org/2000/svg">
<path d="M42.6617 171.627L46.1872 165.521L52.2937 169.046L55.8192 162.94L43.6064 155.889L40.0808 161.995L33.9744 158.47L26.9233 170.683L33.0297 174.208L36.5552 168.102L42.6617 171.627Z" fill="black"/>
<path d="M425.913 523.171L422.387 529.278L428.493 532.803L432.019 526.697L425.913 523.171Z" fill="black"/>
<path d="M407.983 32.4453L383.557 18.3431L380.031 24.4496L367.819 17.3985L364.293 23.5049L358.187 19.9794L361.712 13.8729L355.606 10.3474L352.08 16.4538L333.761 5.8772L330.235 11.9836L324.129 8.45808L320.603 14.5646L296.178 0.462349L289.126 12.6752L270.807 2.0986L267.282 8.20507L261.175 4.67952L257.65 10.786L251.543 7.26042L248.018 13.3669L254.124 16.8924L250.599 22.9989L244.492 19.4733L248.018 13.3669L235.805 6.31578L232.279 12.4222L238.386 15.9478L234.86 22.0542L228.754 18.5287L232.279 12.4222L226.173 8.89667L215.596 27.216L209.49 23.6905L213.015 17.584L206.909 14.0585L199.858 26.2714L187.645 19.2203L180.594 31.4332L174.487 27.9076L170.962 34.0141L164.855 30.4885L157.804 42.7014L151.698 39.1759L148.172 45.2824L142.066 41.7568L135.015 53.9697L128.908 50.4442L121.857 62.6571L127.964 66.1826L124.438 72.289L142.757 82.8657L139.232 88.9722L120.912 78.3955L124.438 72.289L118.332 68.7635L114.806 74.87L102.593 67.8189L99.0676 73.9253L105.174 77.4509L101.648 83.5573L95.542 80.0318L88.4909 92.2447L82.3845 88.7191L75.3333 100.932L81.4398 104.458L77.9142 110.564L84.0206 114.09L87.5462 107.983L99.7591 115.034L92.7079 127.247L86.6015 123.722L90.1271 117.615L84.0206 114.09L80.4951 120.196L74.3886 116.67L77.9142 110.564L71.8078 107.038L61.2311 125.358L55.1247 121.832L48.0736 134.045L54.18 137.571L57.7055 131.464L63.812 134.99L67.3375 128.883L73.444 132.409L76.9695 126.302L83.0759 129.828L79.5504 135.934L85.6568 139.46L89.1824 133.354L95.2888 136.879L98.8144 130.773L111.027 137.824L107.502 143.93L113.608 147.456L110.083 153.562L103.976 150.037L96.925 162.25L103.031 165.775L99.5058 171.882L93.3994 168.356L96.925 162.25L90.8186 158.724L87.293 164.83L81.1866 161.305L84.7121 155.198L78.6057 151.673L75.0801 157.779L62.8673 150.728L66.3928 144.622L78.6057 151.673L82.1313 145.566L76.0248 142.041L79.5504 135.934L73.444 132.409L69.9184 138.515L63.812 134.99L60.2864 141.096L54.18 137.571L50.6544 143.677L44.548 140.152L41.0224 146.258L65.4481 160.36L58.397 172.573L64.5034 176.099L60.9779 182.205L54.8715 178.68L58.397 172.573L52.2937 169.046L45.2395 181.261L51.3459 184.786L44.2948 196.999L32.0819 189.948L35.6075 183.841L41.7139 187.367L45.2395 181.261L33.0297 174.208L18.9244 198.635L31.1372 205.686L34.6628 199.58L40.7692 203.105L37.2437 209.212L43.3501 212.737L50.4012 200.525L62.6141 207.576L59.0885 213.682L71.3014 220.733L74.8269 214.627L68.7205 211.101L72.2461 204.995L66.1396 201.469L73.1907 189.256L79.2972 192.782L82.8227 186.675L70.6099 179.624L74.1354 173.518L68.029 169.992L71.5546 163.886L83.7674 170.937L80.2419 177.043L86.3483 180.569L89.8739 174.462L102.087 181.514L105.612 175.407L111.719 178.933L115.244 172.826L109.138 169.301L116.189 157.088L122.295 160.613L115.244 172.826L127.457 179.877L130.983 173.771L124.876 170.245L131.927 158.032L125.821 154.507L129.347 148.4L117.134 141.349L120.659 135.243L132.872 142.294L136.398 136.187L142.504 139.713L146.03 133.607L139.923 130.081L143.449 123.975L149.555 127.5L146.03 133.607L152.136 137.132L148.61 143.239L142.504 139.713L138.978 145.82L132.872 142.294L129.347 148.4L135.453 151.926L131.927 158.032L138.034 161.558L130.983 173.771L137.089 177.296L133.564 183.403L127.457 179.877L123.932 185.984L136.144 193.035L139.67 186.928L145.776 190.454L149.302 184.347L155.408 187.873L148.357 200.086L154.464 203.611L157.989 197.505L164.096 201.031L160.57 207.137L166.677 210.663L170.202 204.556L176.309 208.082L179.834 201.975L185.941 205.501L182.415 211.607L188.521 215.133L184.996 221.239L191.102 224.765L198.153 212.552L192.047 209.026L195.573 202.92L201.679 206.445L208.73 194.233L214.837 197.758L225.413 179.439L237.626 186.49L244.677 174.277L238.571 170.751L242.096 164.645L248.203 168.17L244.677 174.277L250.784 177.802L254.309 171.696L260.416 175.222L263.941 169.115L257.835 165.59L261.36 159.483L267.467 163.009L263.941 169.115L270.048 172.641L273.573 166.534L285.786 173.585L289.312 167.479L301.524 174.53L305.05 168.423L323.369 179L326.895 172.894L345.214 183.47L341.689 189.577L347.795 193.102L354.846 180.889L360.953 184.415L357.427 190.521L363.533 194.047L360.008 200.153L378.327 210.73L374.802 216.836L387.014 223.888L390.54 217.781L402.753 224.832L399.227 230.939L405.334 234.464L408.859 228.358L414.966 231.883L418.491 225.777L424.598 229.302L421.072 235.409L414.966 231.883L411.44 237.99L405.334 234.464L401.808 240.571L395.702 237.045L392.176 243.152L398.283 246.677L394.757 252.784L406.97 259.835L414.021 247.622L420.127 251.147L416.602 257.254L422.708 260.779L419.183 266.886L431.396 273.937L434.921 267.83L428.815 264.305L432.34 258.198L438.447 261.724L434.921 267.83L447.134 274.882L443.608 280.988L449.715 284.514L453.24 278.407L459.347 281.933L462.872 275.826L450.66 268.775L454.185 262.669L448.079 259.143L451.604 253.037L457.711 256.562L454.185 262.669L466.398 269.72L469.924 263.613L476.03 267.139L472.504 273.245L478.611 276.771L475.085 282.877L481.192 286.403L488.243 274.19L482.136 270.664L485.662 264.558L479.556 261.032L483.081 254.926L489.188 258.451L485.662 264.558L491.768 268.083L495.294 261.977L501.4 265.503L494.349 277.715L500.456 281.241L503.981 275.135L510.088 278.66L517.139 266.447L511.032 262.922L514.558 256.815L508.451 253.29L511.977 247.183L518.084 250.709L514.558 256.815L526.771 263.866L519.72 276.079L525.826 279.605L532.877 267.392L538.984 270.917L542.509 264.811L548.616 268.336L552.141 262.23L558.248 265.756L565.299 253.543L559.192 250.017L566.243 237.804L560.137 234.279L563.663 228.172L539.237 214.07L535.711 220.177L541.818 223.702L538.292 229.809L532.186 226.283L535.711 220.177L529.605 216.651L522.554 228.864L504.234 218.287L507.76 212.181L519.973 219.232L523.498 213.125L529.605 216.651L533.13 210.545L520.918 203.493L524.443 197.387L536.656 204.438L533.13 210.545L539.237 214.07L542.762 207.964L554.975 215.015L558.501 208.908L552.394 205.383L555.92 199.276L549.814 195.751L553.339 189.644L547.233 186.119L543.707 192.225L531.494 185.174L535.02 179.068L547.233 186.119L550.758 180.012L538.545 172.961L542.071 166.855L535.964 163.329L539.49 157.223L527.277 150.172L523.752 156.278L517.645 152.753L521.171 146.646L527.277 150.172L530.803 144.065L518.59 137.014L522.115 130.908L516.009 127.382L519.535 121.276L501.215 110.699L504.741 104.593L486.422 94.0159L489.947 87.9094L471.628 77.3328L475.153 71.2264L469.047 67.7008L465.521 73.8072L459.415 70.2817L462.941 64.1753L432.408 46.5475L425.357 58.7604L419.251 55.2349L415.725 61.3413L409.619 57.8157L416.67 45.6028L422.776 49.1284L426.302 43.022L414.089 35.9709L407.038 48.1838L400.932 44.6582L407.983 32.4453ZM63.5588 191.837L60.0332 197.944L53.9268 194.418L57.4523 188.312L63.5588 191.837ZM439.391 245.986L435.866 252.092L429.759 248.566L433.285 242.46L439.391 245.986ZM421.832 64.8668L434.045 71.9179L430.519 78.0244L418.306 70.9733L421.832 64.8668ZM393.88 56.8711L386.829 69.084L380.723 65.5585L387.774 53.3456L393.88 56.8711ZM329.291 27.7221L332.816 21.6156L338.923 25.1412L335.397 31.2477L329.291 27.7221ZM353.716 41.8243L357.242 35.7178L363.348 39.2434L359.823 45.3498L353.716 41.8243ZM365.929 48.8754L372.036 52.4009L375.561 46.2945L381.668 49.82L378.142 55.9265L372.036 52.4009L368.51 58.5074L362.404 54.9818L365.929 48.8754ZM297.814 25.8328L301.339 19.7263L307.446 23.2519L303.92 29.3584L297.814 25.8328ZM310.027 32.8839L313.552 26.7774L325.765 33.8285L322.24 39.935L310.027 32.8839ZM334.452 46.9861L337.978 40.8796L350.191 47.9307L346.665 54.0372L334.452 46.9861ZM403.259 111.138L397.153 107.612L400.678 101.506L406.785 105.031L410.31 98.9247L404.204 95.3991L407.729 89.2927L413.836 92.8182L410.31 98.9247L416.417 102.45L412.891 108.557L406.785 105.031L403.259 111.138ZM275.463 135.057L281.569 138.583L274.518 150.796L268.411 147.27L275.463 135.057ZM265.831 137.638L247.511 127.062L251.037 120.955L269.356 131.532L265.831 137.638ZM284.15 148.215L287.675 142.108L293.782 145.634L290.256 151.74L284.15 148.215ZM321.733 153.63L327.839 157.155L331.365 151.049L337.472 154.574L330.42 166.787L318.208 159.736L321.733 153.63ZM204.075 61.2738L210.181 64.7994L206.656 70.9058L200.549 67.3803L204.075 61.2738ZM194.443 63.8547L188.336 60.3292L191.862 54.2227L197.968 57.7483L194.443 63.8547ZM216.288 68.3249L222.394 71.8505L225.92 65.744L232.026 69.2696L235.552 63.1631L229.445 59.6376L232.971 53.5311L239.077 57.0567L235.552 63.1631L241.658 66.6887L238.132 72.7951L232.026 69.2696L228.5 75.376L222.394 71.8505L218.868 77.9569L224.975 81.4825L221.449 87.5889L209.236 80.5378L216.288 68.3249ZM287.237 44.1522L293.344 47.6777L289.818 53.7842L283.712 50.2586L280.186 56.365L274.08 52.8395L277.605 46.7331L283.712 50.2586L287.237 44.1522ZM295.924 57.3097L302.031 60.8352L298.505 66.9417L304.612 70.4672L297.561 82.6802L285.348 75.6291L288.873 69.5226L294.98 73.0482L298.505 66.9417L292.399 63.4162L295.924 57.3097ZM320.35 71.4119L326.457 74.9374L322.931 81.0439L316.825 77.5183L320.35 71.4119ZM401.37 142.614L395.263 139.089L402.315 126.876L408.421 130.402L401.37 142.614ZM420.634 137.453L426.74 140.978L423.215 147.085L417.108 143.559L420.634 137.453ZM357.68 133.674L351.574 130.149L348.048 136.255L354.155 139.781L347.103 151.993L340.997 148.468L348.048 136.255L341.942 132.729L345.467 126.623L351.574 130.149L355.099 124.042L361.206 127.568L357.68 133.674ZM385.631 141.67L391.738 145.195L388.212 151.302L382.106 147.776L385.631 141.67ZM381.161 163.515L384.687 157.408L390.793 160.934L387.268 167.04L381.161 163.515ZM386.323 182.779L380.216 179.253L383.742 173.147L389.848 176.672L393.374 170.566L399.48 174.091L395.955 180.198L389.848 176.672L386.323 182.779ZM328.784 141.417L322.678 137.891L326.203 131.785L332.31 135.31L328.784 141.417ZM320.097 128.259L313.99 124.734L317.516 118.627L323.622 122.153L320.097 128.259ZM315.88 93.2568L312.354 99.3633L318.461 102.889L314.935 108.995L302.722 101.944L309.773 89.7313L315.88 93.2568ZM325.512 90.6759L331.618 94.2014L328.093 100.308L321.986 96.7824L325.512 90.6759ZM330.674 109.94L336.78 113.465L340.306 107.359L346.412 110.885L342.886 116.991L336.78 113.465L333.254 119.572L327.148 116.046L330.674 109.94ZM367.312 131.093L370.838 124.987L383.051 132.038L379.525 138.144L367.312 131.093ZM386.576 125.931L380.47 122.406L383.995 116.299L390.102 119.825L386.576 125.931ZM374.363 118.88L368.257 115.355L364.731 121.461L358.625 117.936L362.15 111.829L368.257 115.355L375.308 103.142L381.414 106.667L374.363 118.88ZM365.676 105.723L359.57 102.197L363.095 96.0907L369.202 99.6163L365.676 105.723ZM353.463 98.6716L347.357 95.1461L350.882 89.0396L356.989 92.5652L353.463 98.6716ZM258.341 51.8949L254.816 58.0013L248.709 54.4758L252.235 48.3693L258.341 51.8949ZM264.448 55.4204L270.554 58.946L267.028 65.0524L273.135 68.578L266.084 80.7909L259.977 77.2653L267.028 65.0524L260.922 61.5269L264.448 55.4204ZM253.871 73.7398L247.764 70.2142L251.29 64.1078L257.396 67.6333L253.871 73.7398ZM234.607 78.9016L240.713 82.4271L233.662 94.64L227.556 91.1145L234.607 78.9016ZM255.507 99.1102L249.401 95.5847L252.926 89.4782L246.82 85.9527L250.345 79.8462L256.452 83.3718L252.926 89.4782L259.033 93.0038L255.507 99.1102L261.614 102.636L258.088 108.742L251.981 105.217L255.507 99.1102ZM273.826 109.687L267.72 106.161L278.297 87.842L284.403 91.3675L287.929 85.2611L294.035 88.7866L290.509 94.8931L284.403 91.3675L273.826 109.687L279.933 113.212L276.407 119.319L270.301 115.793L273.826 109.687ZM289.565 110.631L295.671 114.157L288.62 126.37L282.514 122.844L289.565 110.631ZM298.252 123.789L304.358 127.315L300.833 133.421L294.727 129.896L298.252 123.789ZM310.465 130.84L316.571 134.366L313.046 140.472L306.939 136.947L310.465 130.84ZM365.423 162.57L371.529 166.096L368.004 172.202L361.897 168.677L365.423 162.57ZM346.159 167.732L349.684 161.625L355.791 165.151L352.265 171.257L346.159 167.732ZM404.642 193.355L408.168 187.249L402.061 183.723L405.587 177.617L417.8 184.668L410.749 196.881L404.642 193.355ZM442.225 198.77L445.751 192.664L451.857 196.189L448.332 202.296L442.225 198.77ZM436.119 195.245L430.013 191.719L433.538 185.613L427.432 182.087L430.957 175.981L437.064 179.506L433.538 185.613L439.645 189.138L436.119 195.245ZM415.219 175.036L409.112 171.51L412.638 165.404L418.744 168.93L415.219 175.036ZM362.842 152.938L356.735 149.413L363.787 137.2L369.893 140.725L362.842 152.938ZM400.425 158.353L403.951 152.246L410.057 155.772L413.583 149.666L419.689 153.191L416.164 159.298L410.057 155.772L406.532 161.878L400.425 158.353ZM431.902 160.242L438.008 163.768L434.483 169.874L428.376 166.349L431.902 160.242ZM440.589 173.4L447.64 161.187L441.534 157.661L445.06 151.555L451.166 155.08L447.64 161.187L453.747 164.712L446.696 176.925L440.589 173.4ZM457.272 158.606L464.324 146.393L470.43 149.919L463.379 162.131L457.272 158.606ZM454.692 148.974L442.479 141.923L446.004 135.816L458.217 142.867L454.692 148.974ZM341.25 91.6205L329.037 84.5694L332.563 78.463L338.669 81.9885L342.195 75.8821L348.301 79.4076L341.25 91.6205ZM373.672 77.7714L379.778 81.2969L372.727 93.5098L366.621 89.9843L373.672 77.7714ZM351.827 73.3012L345.721 69.7756L349.246 63.6692L355.353 67.1947L351.827 73.3012ZM398.097 91.8736L391.991 88.348L384.94 100.561L378.834 97.0354L385.885 84.8225L391.991 88.348L399.042 76.1351L405.149 79.6606L398.097 91.8736ZM364.984 64.6138L371.091 68.1394L367.565 74.2458L361.459 70.7203L364.984 64.6138ZM260.231 20.418L263.756 14.3115L269.863 17.8371L266.337 23.9435L260.231 20.418ZM272.443 27.4691L275.969 21.3626L282.075 24.8882L278.55 30.9946L272.443 27.4691ZM290.763 38.0457L294.288 31.9393L300.395 35.4648L296.869 41.5713L290.763 38.0457ZM309.082 48.6224L312.608 42.5159L318.714 46.0415L315.188 52.1479L309.082 48.6224ZM324.82 49.567L330.927 53.0926L323.876 65.3054L317.769 61.7799L324.82 49.567ZM262.811 30.05L268.918 33.5755L265.392 39.682L271.499 43.2075L267.973 49.3139L261.867 45.7884L265.392 39.682L259.286 36.1564L255.76 42.2629L243.547 35.2118L247.073 29.1053L259.286 36.1564L262.811 30.05ZM233.915 37.7927L227.809 34.2671L231.335 28.1607L237.441 31.6862L233.915 37.7927L240.022 41.3182L236.496 47.4247L230.39 43.8991L233.915 37.7927ZM186.7 34.9587L190.226 28.8523L196.332 32.3778L192.807 38.4843L186.7 34.9587ZM217.232 52.5865L211.126 49.0609L214.651 42.9545L208.545 39.4289L205.019 45.5354L198.913 42.0098L202.439 35.9034L208.545 39.4289L212.071 33.3225L224.283 40.3736L217.232 52.5865L223.339 56.112L219.813 62.2185L213.707 58.6929L217.232 52.5865ZM160.385 52.3335L163.911 46.227L170.017 49.7525L173.543 43.6461L179.649 47.1716L183.175 41.0652L189.281 44.5907L185.755 50.6972L179.649 47.1716L176.123 53.2781L170.017 49.7525L166.491 55.859L160.385 52.3335ZM169.072 65.491L172.598 59.3845L178.704 62.9101L175.179 69.0165L169.072 65.491ZM181.285 72.5421L184.811 66.4356L190.917 69.9612L187.392 76.0676L181.285 72.5421ZM239.769 98.1656L245.875 101.691L238.824 113.904L244.93 117.43L241.405 123.536L235.298 120.01L238.824 113.904L232.718 110.378L239.769 98.1656ZM183.866 82.1741L196.079 89.2252L192.553 95.3316L180.341 88.2805L183.866 82.1741ZM174.234 84.755L155.915 74.1783L159.44 68.0719L177.76 78.6485L174.234 84.755ZM134.07 69.7081L137.596 63.6017L143.702 67.1272L147.228 61.0208L153.334 64.5463L149.808 70.6528L143.702 67.1272L140.176 73.2337L134.07 69.7081ZM148.864 86.3912L152.389 80.2848L158.496 83.8103L154.97 89.9168L148.864 86.3912ZM167.183 96.9679L179.396 104.019L182.921 97.9125L189.028 101.438L185.502 107.545L191.609 111.07L188.083 117.177L194.19 120.702L190.664 126.809L184.558 123.283L188.083 117.177L181.977 113.651L185.502 107.545L179.396 104.019L175.87 110.125L163.657 103.074L167.183 96.9679ZM193.245 136.441L196.77 130.334L202.877 133.86L199.351 139.966L193.245 136.441ZM183.613 139.021L177.506 135.496L181.032 129.389L187.138 132.915L183.613 139.021ZM174.926 125.864L168.819 122.338L172.345 116.232L178.451 119.757L174.926 125.864ZM162.713 118.813L156.606 115.287L160.132 109.181L166.238 112.706L162.713 118.813ZM145.338 92.4977L157.551 99.5488L154.025 105.655L147.919 102.13L144.393 108.236L150.5 111.762L146.974 117.868L140.868 114.343L144.393 108.236L138.287 104.711L145.338 92.4977ZM129.6 91.5531L135.706 95.0786L132.181 101.185L126.074 97.6595L129.6 91.5531ZM91.0718 101.877L94.5973 95.7702L100.704 99.2958L97.1782 105.402L91.0718 101.877ZM133.817 126.555L130.291 132.662L124.185 129.136L127.71 123.03L133.817 126.555ZM115.497 115.979L121.604 119.504L118.078 125.611L111.972 122.085L115.497 115.979L103.285 108.928L110.336 96.7149L104.229 93.1893L107.755 87.0829L113.861 90.6084L110.336 96.7149L116.442 100.24L112.917 106.347L119.023 109.872L122.549 103.766L134.761 110.817L131.236 116.923L119.023 109.872L115.497 115.979ZM154.717 146.764L161.768 134.551L155.662 131.026L159.187 124.919L165.294 128.445L161.768 134.551L167.874 138.077L160.823 150.29L154.717 146.764ZM166.93 153.815L173.981 141.602L180.087 145.128L173.036 157.341L166.93 153.815ZM179.143 160.866L185.249 164.392L181.723 170.498L175.617 166.973L172.091 173.079L159.879 166.028L163.404 159.922L175.617 166.973L179.143 160.866ZM140.615 171.19L147.666 158.977L141.559 155.451L145.085 149.345L151.191 152.871L147.666 158.977L153.772 162.503L146.721 174.715L140.615 171.19ZM152.828 178.241L156.353 172.135L162.46 175.66L158.934 181.767L152.828 178.241ZM180.779 186.237L186.885 189.762L183.36 195.869L177.253 192.343L180.779 186.237L174.672 182.711L167.621 194.924L161.515 191.399L168.566 179.186L174.672 182.711L178.198 176.605L184.304 180.13L180.779 186.237ZM215.781 182.02L212.256 188.126L206.149 184.601L202.624 190.707L190.411 183.656L193.936 177.549L206.149 184.601L209.675 178.494L215.781 182.02ZM203.568 174.969L191.355 167.917L194.881 161.811L207.094 168.862L203.568 174.969ZM232.464 167.226L228.939 173.332L222.832 169.807L219.307 175.913L213.2 172.388L216.726 166.281L222.832 169.807L226.358 163.7L232.464 167.226ZM208.039 153.124L214.145 156.649L210.619 162.756L204.513 159.23L208.039 153.124L201.932 149.598L198.407 155.705L192.3 152.179L195.826 146.073L201.932 149.598L205.458 143.492L211.564 147.017L208.039 153.124ZM255.254 155.958L251.728 162.064L245.622 158.538L249.147 152.432L255.254 155.958ZM239.515 155.013L233.409 151.487L229.883 157.594L217.671 150.543L224.722 138.33L218.615 134.804L225.666 122.591L219.56 119.066L223.086 112.959L210.873 105.908L207.347 112.015L213.454 115.54L206.402 127.753L200.296 124.228L207.347 112.015L201.241 108.489L204.766 102.383L198.66 98.8572L202.185 92.7507L208.292 96.2763L204.766 102.383L210.873 105.908L214.398 99.8018L226.611 106.853L223.086 112.959L229.192 116.485L225.666 122.591L231.773 126.117L224.722 138.33L230.828 141.855L227.303 147.962L233.409 151.487L240.46 139.274L234.354 135.749L237.879 129.642L243.986 133.168L240.46 139.274L246.567 142.8L239.515 155.013ZM258.779 149.851L252.673 146.326L256.199 140.219L262.305 143.745L258.779 149.851ZM298.944 164.898L292.837 161.372L299.888 149.159L305.995 152.685L298.944 164.898ZM373.165 191.466L376.691 185.36L382.797 188.885L379.272 194.992L373.165 191.466ZM391.485 202.043L395.01 195.936L401.117 199.462L397.591 205.568L391.485 202.043ZM403.698 209.094L407.223 202.987L413.33 206.513L416.855 200.406L422.961 203.932L415.91 216.145L403.698 209.094ZM476.975 251.4L473.449 257.507L461.236 250.456L464.762 244.349L476.975 251.4ZM458.655 240.824L455.13 246.93L449.023 243.405L452.549 237.298L458.655 240.824ZM496.239 246.239L492.713 252.345L486.607 248.819L490.132 242.713L496.239 246.239ZM544.399 233.334L550.505 236.86L546.979 242.966L540.873 239.441L537.347 245.547L543.454 249.073L539.928 255.179L533.822 251.653L530.296 257.76L524.19 254.234L527.715 248.128L533.822 251.653L537.347 245.547L531.241 242.021L534.767 235.915L540.873 239.441L544.399 233.334ZM505.871 243.658L499.764 240.132L503.29 234.026L509.396 237.551L505.871 243.658ZM498.128 214.762L494.602 220.868L500.709 224.394L497.183 230.5L484.97 223.449L481.445 229.555L475.338 226.03L471.813 232.136L465.706 228.611L462.181 234.717L449.968 227.666L446.443 233.773L440.336 230.247L436.811 236.354L430.704 232.828L434.23 226.722L428.123 223.196L431.649 217.09L425.542 213.564L429.068 207.458L435.174 210.983L431.649 217.09L449.968 227.666L457.019 215.453L450.913 211.928L454.438 205.821L460.545 209.347L457.019 215.453L463.126 218.979L459.6 225.085L465.706 228.611L469.232 222.504L475.338 226.03L478.864 219.923L472.758 216.398L476.283 210.291L482.39 213.817L485.915 207.711L498.128 214.762ZM477.228 194.553L483.334 198.079L479.809 204.185L473.702 200.659L477.228 194.553L471.121 191.027L467.596 197.134L461.489 193.608L465.015 187.502L471.121 191.027L474.647 184.921L480.753 188.447L477.228 194.553ZM506.124 186.81L502.598 192.917L508.705 196.442L512.23 190.336L518.337 193.861L514.811 199.968L508.705 196.442L505.179 202.549L499.073 199.023L502.598 192.917L496.492 189.391L492.966 195.498L486.86 191.972L490.385 185.866L496.492 189.391L500.017 183.285L506.124 186.81ZM497.437 173.653L491.33 170.127L487.805 176.234L481.698 172.708L485.224 166.602L479.117 163.076L482.643 156.97L488.749 160.495L485.224 166.602L491.33 170.127L494.856 164.021L500.962 167.546L497.437 173.653ZM528.913 175.542L525.388 181.649L519.281 178.123L522.807 172.017L528.913 175.542ZM520.226 162.385L513.175 174.597L507.069 171.072L514.12 158.859L520.226 162.385ZM495.8 148.282L492.275 154.389L486.168 150.863L489.694 144.757L495.8 148.282ZM477.481 137.706L473.956 143.812L467.849 140.287L471.375 134.18L477.481 137.706ZM465.268 130.655L461.743 136.761L455.636 133.236L459.162 127.129L465.268 130.655ZM434.736 113.027L440.843 116.552L433.791 128.765L421.579 121.714L425.104 115.608L431.211 119.133L434.736 113.027L428.63 109.501L432.155 103.395L438.262 106.92L441.787 100.814L447.894 104.339L444.368 110.446L438.262 106.92L434.736 113.027ZM508.958 139.595L505.432 145.701L493.219 138.65L496.745 132.544L508.958 139.595ZM488.058 119.386L484.532 125.493L478.426 121.967L481.951 115.861L488.058 119.386ZM469.738 108.81L466.213 114.916L460.106 111.391L463.632 105.284L469.738 108.81ZM439.206 91.182L435.681 97.2884L429.574 93.7628L433.1 87.6564L439.206 91.182ZM420.887 80.6053L417.361 86.7117L411.255 83.1862L414.781 77.0798L420.887 80.6053ZM408.674 73.5542L402.568 70.0287L406.093 63.9222L412.2 67.4477L408.674 73.5542ZM495.109 107.173L491.583 113.28L485.477 109.754L489.002 103.648L495.109 107.173ZM482.896 100.122L479.37 106.229L473.264 102.703L476.79 96.5968L482.896 100.122ZM474.209 86.9648L470.683 93.0712L464.577 89.5457L461.051 95.6521L454.945 92.1266L461.996 79.9137L474.209 86.9648ZM443.677 69.3371L449.783 72.8626L442.732 85.0755L436.625 81.55L443.677 69.3371ZM379.087 40.188L372.98 36.6625L376.506 30.556L382.612 34.0816L386.138 27.9751L392.244 31.5007L388.719 37.6071L382.612 34.0816L379.087 40.188Z" fill="black"/>
<path d="M482.39 213.817L478.864 219.923L484.97 223.449L488.496 217.343L482.39 213.817Z" fill="black"/>
<path d="M88.2408 149.091L84.7121 155.198L90.8186 158.724L97.8727 146.51L103.976 150.037L107.502 143.93L95.2888 136.879L91.7663 142.984L85.6568 139.46L82.1313 145.566L88.2408 149.091Z" fill="black"/>
<path d="M115.751 59.1315L112.225 65.2379L118.332 68.7635L121.857 62.6571L115.751 59.1315Z" fill="black"/>
<path d="M497.371 385.302L493.846 391.409L506.059 398.46L502.533 404.566L508.64 408.092L505.114 414.198L511.221 417.724L518.272 405.511L512.165 401.986L515.691 395.879L509.584 392.354L513.11 386.247L507.003 382.722L503.478 388.828L497.371 385.302Z" fill="black"/>
<path d="M454.626 360.624L458.152 354.517L464.258 358.043L471.31 345.83L459.097 338.779L452.046 350.992L445.939 347.466L442.414 353.573L454.626 360.624Z" fill="black"/>
<path d="M454.626 360.624L451.098 366.731L457.204 370.257L460.73 364.15L454.626 360.624Z" fill="black"/>
<path d="M138.728 202.666L135.203 208.772L141.309 212.298L137.784 218.404L143.89 221.93L140.365 228.036L146.471 231.562L142.945 237.668L149.052 241.194L156.103 228.981L149.997 225.455L153.522 219.349L147.416 215.823L150.941 209.717L144.835 206.191L148.357 200.086L136.144 193.035L132.622 199.14L138.728 202.666Z" fill="black"/>
<path d="M447.829 315.989L444.303 322.096L438.197 318.57L441.722 312.464L429.509 305.413L415.407 329.838L421.513 333.364L428.565 321.151L434.671 324.677L431.145 330.783L437.252 334.309L440.777 328.202L446.884 331.728L453.935 319.515L447.829 315.989Z" fill="black"/>
<path d="M456.513 329.148L452.987 335.254L459.097 338.779L462.619 332.674L456.513 329.148Z" fill="black"/>
<path d="M176.309 208.082L169.257 220.295L175.364 223.82L182.415 211.607L176.309 208.082Z" fill="black"/>
<path d="M154.464 203.611L150.941 209.717L157.045 213.243L160.57 207.137L154.464 203.611Z" fill="black"/>
<path d="M487.736 387.885L484.211 393.991L490.317 397.517L493.846 391.409L487.736 387.885Z" fill="black"/>
<path d="M457.204 370.257L453.679 376.363L459.785 379.889L463.311 373.782L457.204 370.257Z" fill="black"/>
<path d="M162.898 273.616L159.372 279.723L165.479 283.248L169.004 277.142L162.898 273.616Z" fill="black"/>
<path d="M84.462 212.045L90.5684 215.57L94.094 209.464L118.52 223.566L122.045 217.459L115.939 213.934L119.464 207.827L131.677 214.879L135.203 208.772L129.096 205.247L132.622 199.14L120.409 192.089L123.932 185.984L117.828 182.457L114.303 188.563L102.087 181.514L98.5642 187.619L104.671 191.144L101.145 197.251L107.252 200.776L110.777 194.67L116.884 198.195L113.358 204.302L107.252 200.776L103.726 206.883L91.5131 199.832L98.5642 187.619L86.3483 180.569L82.8227 186.675L88.9322 190.2L81.8811 202.413L75.7747 198.887L72.2461 204.995L78.3556 208.519L74.8269 214.627L80.9364 218.151L84.462 212.045Z" fill="black"/>
<path d="M45.934 222.368L42.4085 228.475L48.5149 232L59.0885 213.682L52.9851 210.155L49.4596 216.262L43.3501 212.737L39.8276 218.843L45.934 222.368Z" fill="black"/>
<path d="M19.6189 239.743L23.1445 233.636L17.0381 230.111L24.0892 217.898L36.302 224.949L39.8276 218.843L33.7212 215.317L37.2437 209.212L31.1372 205.686L27.6147 211.792L21.5083 208.266L3.88051 238.798L9.98694 242.324L13.5125 236.217L19.6189 239.743Z" fill="black"/>
<path d="M445.245 306.358L441.722 312.464L447.829 315.989L451.351 309.884L445.245 306.358Z" fill="black"/>
<path d="M410.242 310.576L406.717 316.682L412.823 320.208L416.349 314.101L410.242 310.576Z" fill="black"/>
<path d="M61.6724 223.313L54.6213 235.526L60.7277 239.051L64.2533 232.945L70.3597 236.47L73.8853 230.364L79.9917 233.889L87.0429 221.677L80.9364 218.151L77.4109 224.257L71.3014 220.733L67.7789 226.838L61.6724 223.313Z" fill="black"/>
<path d="M419.877 307.993L423.403 301.887L429.509 305.413L436.56 293.2L430.454 289.674L426.928 295.781L420.822 292.255L417.296 298.361L405.084 291.31L401.558 297.417L407.664 300.942L404.139 307.049L410.242 310.576L413.771 304.468L419.877 307.993Z" fill="black"/>
<path d="M499.514 296.978L503.04 290.872L509.146 294.397L516.197 282.184L510.088 278.66L506.565 284.765L500.456 281.241L493.408 293.453L499.514 296.978Z" fill="black"/>
<path d="M393.121 227.413L389.595 233.52L395.702 237.045L399.227 230.939L393.121 227.413Z" fill="black"/>
<path d="M468.037 295.089L475.085 282.877L468.982 279.35L465.456 285.457L459.347 281.933L455.824 288.038L468.037 295.089Z" fill="black"/>
<path d="M449.715 284.514L439.138 302.833L445.245 306.358L455.824 288.038L449.715 284.514Z" fill="black"/>
<path d="M463.564 316.935L460.038 323.042L466.145 326.567L469.67 320.461L463.564 316.935Z" fill="black"/>
<path d="M466.398 269.72L462.872 275.826L468.982 279.35L472.504 273.245L466.398 269.72Z" fill="black"/>
<path d="M149.052 241.194L145.526 247.3L151.633 250.826L148.107 256.932L154.214 260.458L161.265 248.245L149.052 241.194Z" fill="black"/>
<path d="M524.884 295.342L528.41 289.236L534.516 292.761L538.042 286.655L525.826 279.605L518.778 291.816L524.884 295.342Z" fill="black"/>
<path d="M534.516 292.761L530.988 298.869L537.094 302.394L540.62 296.288L534.516 292.761Z" fill="black"/>
<path d="M524.884 295.342L521.356 301.45L527.462 304.975L530.988 298.869L524.884 295.342Z" fill="black"/>
<path d="M498.316 369.564L492.21 366.038L495.735 359.932L489.629 356.406L486.103 362.513L473.89 355.462L470.365 361.568L464.258 358.043L460.73 364.15L466.839 367.675L463.311 373.782L469.42 377.307L465.895 383.413L472.001 386.939L468.476 393.045L474.582 396.571L481.633 384.358L475.527 380.832L479.052 374.726L472.946 371.2L476.471 365.094L488.684 372.145L481.633 384.358L487.736 387.885L491.265 381.777L497.371 385.302L500.897 379.196L494.791 375.67L498.316 369.564Z" fill="black"/>
<path d="M402.503 281.678L414.716 288.729L418.241 282.623L412.135 279.097L419.183 266.886L413.079 263.359L402.503 281.678Z" fill="black"/>
<path d="M117.572 239.306L114.046 245.412L120.153 248.938L123.678 242.831L117.572 239.306Z" fill="black"/>
<path d="M421.767 276.517L418.241 282.623L430.454 289.674L437.505 277.461L431.396 273.937L427.873 280.042L421.767 276.517Z" fill="black"/>
<path d="M487.045 346.776L483.519 352.882L489.629 356.406L493.151 350.301L487.045 346.776Z" fill="black"/>
<path d="M474.832 339.725L471.31 345.83L477.413 349.357L480.938 343.25L474.832 339.725Z" fill="black"/>
<path d="M466.145 326.567L462.619 332.674L474.832 339.725L478.358 333.618L466.145 326.567Z" fill="black"/>
<path d="M468.037 295.089L464.512 301.195L458.405 297.67L451.351 309.884L457.461 313.408L460.986 307.302L473.199 314.353L480.25 302.14L486.357 305.666L489.882 299.559L483.776 296.034L487.301 289.927L481.192 286.403L474.144 298.614L468.037 295.089Z" fill="black"/>
<path d="M51.0927 241.633L47.5671 247.74L53.6736 251.265L57.1991 245.159L51.0927 241.633Z" fill="black"/>
<path d="M541.061 394.243L537.536 400.349L543.642 403.875L550.693 391.662L532.374 381.085L528.848 387.192L541.061 394.243Z" fill="black"/>
<path d="M29.2478 237.163L25.7223 243.27L31.8287 246.795L35.3543 240.689L29.2478 237.163Z" fill="black"/>
<path d="M518.272 405.511L524.378 409.037L520.853 415.143L526.959 418.669L530.484 412.562L536.591 416.088L540.116 409.981L534.01 406.456L537.536 400.349L525.323 393.298L518.272 405.511Z" fill="black"/>
<path d="M41.4607 244.214L37.9351 250.321L44.0416 253.846L47.5671 247.74L41.4607 244.214Z" fill="black"/>
<path d="M48.5149 232L44.9863 238.108L51.0927 241.633L54.6213 235.526L48.5149 232Z" fill="black"/>
<path d="M509.328 449.202L505.802 455.309L511.909 458.834L515.434 452.728L509.328 449.202Z" fill="black"/>
<path d="M60.7277 239.051L57.1991 245.159L63.3055 248.685L66.8311 242.578L60.7277 239.051Z" fill="black"/>
<path d="M526.959 418.669L523.43 424.776L529.537 428.302L533.062 422.195L526.959 418.669Z" fill="black"/>
<path d="M130.733 230.617L123.678 242.831L129.788 246.355L133.313 240.249L139.42 243.775L142.945 237.668L136.839 234.143L140.365 228.036L134.258 224.511L137.784 218.404L131.677 214.879L124.626 227.091L130.733 230.617Z" fill="black"/>
<path d="M95.7301 234.834L101.837 238.36L105.362 232.253L117.572 239.306L124.626 227.091L118.52 223.566L114.994 229.672L90.5684 215.57L87.0429 221.677L99.2557 228.728L95.7301 234.834Z" fill="black"/>
<path d="M129.788 246.355L126.259 252.463L132.366 255.989L135.891 249.882L129.788 246.355Z" fill="black"/>
<path d="M500.641 436.045L494.534 432.519L491.009 438.626L484.902 435.1L491.953 422.887L498.06 426.413L505.114 414.198L492.898 407.149L496.424 401.042L490.317 397.517L486.792 403.623L474.582 396.571L471.053 402.678L477.16 406.204L473.634 412.31L479.741 415.836L476.215 421.942L482.321 425.468L478.796 431.574L472.689 428.049L469.164 434.155L463.057 430.63L459.532 436.736L447.319 429.685L440.268 441.898L452.481 448.949L456.006 442.843L462.113 446.368L465.638 440.262L477.851 447.313L481.377 441.206L487.483 444.732L483.958 450.838L477.851 447.313L470.8 459.526L464.694 456L468.219 449.894L462.113 446.368L458.587 452.475L452.481 448.949L448.955 455.056L455.062 458.581L451.536 464.688L445.43 461.162L448.955 455.056L436.742 448.004L440.268 441.898L434.162 438.372L441.213 426.16L447.319 429.685L450.845 423.579L463.057 430.63L466.583 424.523L472.689 428.049L476.215 421.942L470.109 418.417L473.634 412.31L467.528 408.785L471.053 402.678L464.947 399.153L468.476 393.045L462.366 389.521L465.895 383.413L459.785 379.889L449.208 398.208L461.421 405.259L457.896 411.366L464.002 414.891L460.477 420.998L454.37 417.472L457.896 411.366L445.683 404.315L442.157 410.421L448.264 413.947L444.738 420.053L438.632 416.528L442.157 410.421L436.051 406.896L439.576 400.789L445.683 404.315L449.208 398.208L443.102 394.683L453.679 376.363L447.572 372.838L451.098 366.731L432.779 356.155L439.83 343.942L445.939 347.466L452.987 335.254L446.884 331.728L443.355 337.835L437.252 334.309L433.723 340.416L421.513 333.364L417.985 339.472L411.878 335.946L415.407 329.838L403.191 322.788L406.717 316.682L400.61 313.157L393.559 325.369L399.666 328.895L389.089 347.214L395.195 350.74L402.246 338.527L408.353 342.052L401.302 354.265L395.195 350.74L391.67 356.846L385.563 353.321L382.038 359.427L375.931 355.902L372.406 362.008L378.512 365.534L374.987 371.64L381.093 375.166L377.567 381.272L371.461 377.747L374.987 371.64L368.88 368.115L358.304 386.434L364.41 389.959L360.884 396.066L366.991 399.591L374.042 387.379L380.148 390.904L383.674 384.798L389.78 388.323L393.306 382.217L387.199 378.691L390.725 372.585L384.619 369.059L388.144 362.953L394.251 366.478L390.725 372.585L396.831 376.11L407.408 357.791L425.727 368.368L429.253 362.261L441.466 369.312L437.94 375.419L425.727 368.368L422.202 374.474L428.308 378L421.257 390.212L415.151 386.687L411.625 392.793L405.519 389.268L409.044 383.161L415.151 386.687L422.202 374.474L409.989 367.423L402.938 379.636L396.831 376.11L393.306 382.217L399.412 385.742L395.887 391.849L389.78 388.323L386.255 394.43L380.148 390.904L373.097 403.117L366.991 399.591L363.465 405.698L357.359 402.172L353.833 408.279L347.727 404.753L344.201 410.86L338.095 407.334L341.62 401.228L347.727 404.753L351.252 398.647L357.359 402.172L360.884 396.066L354.778 392.54L358.304 386.434L352.197 382.908L345.146 395.121L332.933 388.07L325.882 400.283L319.776 396.758L316.25 402.864L310.144 399.338L306.618 405.445L312.724 408.97L309.199 415.077L303.092 411.551L306.618 405.445L300.512 401.919L296.986 408.026L284.773 400.975L281.248 407.081L287.354 410.607L283.828 416.713L277.722 413.188L281.248 407.081L269.035 400.03L265.509 406.136L259.403 402.611L255.877 408.717L249.771 405.192L246.245 411.298L240.139 407.773L233.088 419.986L226.981 416.46L234.032 404.247L240.139 407.773L243.664 401.666L249.771 405.192L253.296 399.085L228.871 384.983L225.345 391.09L219.239 387.564L222.764 381.458L210.551 374.407L207.026 380.513L200.919 376.987L204.445 370.881L198.338 367.355L201.864 361.249L195.758 357.723L192.232 363.83L186.126 360.304L189.651 354.198L183.545 350.672L187.07 344.566L180.964 341.04L173.913 353.253L155.593 342.677L152.068 348.783L145.961 345.258L142.436 351.364L136.329 347.838L132.804 353.945L126.698 350.419L133.749 338.206L145.961 345.258L149.487 339.151L155.593 342.677L162.645 330.464L156.538 326.938L163.589 314.725L169.696 318.251L162.645 330.464L168.751 333.989L165.225 340.096L171.332 343.621L174.857 337.515L180.964 341.04L184.489 334.934L172.277 327.883L179.328 315.67L167.115 308.619L174.166 296.406L168.06 292.88L171.585 286.774L165.479 283.248L158.428 295.461L152.321 291.936L159.372 279.723L153.266 276.197L149.74 282.304L137.527 275.253L141.053 269.146L153.266 276.197L156.791 270.091L162.898 273.616L166.423 267.51L172.53 271.035L176.055 264.929L169.949 261.403L180.526 243.084L174.419 239.559L181.47 227.346L175.364 223.82L171.838 229.927L165.732 226.401L169.257 220.295L157.045 213.243L153.522 219.349L159.625 222.875L156.103 228.981L162.206 232.507L158.681 238.614L170.894 245.665L160.317 263.984L154.214 260.458L150.685 266.565L144.578 263.04L148.107 256.932L141.998 253.408L134.947 265.621L122.734 258.57L119.208 264.676L113.102 261.15L106.051 273.363L112.157 276.889L115.683 270.782L121.789 274.308L125.315 268.202L131.421 271.727L127.895 277.834L134.002 281.359L126.951 293.572L120.844 290.046L127.895 277.834L121.789 274.308L114.738 286.521L102.525 279.47L106.051 273.363L99.9441 269.838L106.995 257.625L113.102 261.15L116.627 255.044L104.414 247.993L100.889 254.099L94.7824 250.574L98.3079 244.467L92.2015 240.942L85.1504 253.155L97.3632 260.206L93.8377 266.312L81.6248 259.261L85.1504 253.155L72.9375 246.104L65.8864 258.317L78.0993 265.368L74.5737 271.474L80.6801 275L84.2057 268.893L96.4186 275.944L92.893 282.051L98.9994 285.576L95.4739 291.683L89.3674 288.157L85.8419 294.264L79.7354 290.738L83.261 284.632L89.3674 288.157L92.893 282.051L80.6801 275L77.1546 281.106L64.9417 274.055L61.4162 280.161L67.5226 283.687L63.997 289.793L57.8906 286.268L61.4162 280.161L55.3097 276.636L58.8353 270.529L52.7289 267.004L45.6777 279.217L51.7842 282.742L48.2586 288.849L42.1522 285.323L45.6777 279.217L39.5713 275.691L32.5202 287.904L26.4138 284.379L19.3626 296.591L13.2562 293.066L20.3073 280.853L14.2009 277.327L17.7265 271.221L11.62 267.695L15.1456 261.589L21.252 265.115L17.7265 271.221L23.8329 274.747L20.3073 280.853L26.4138 284.379L33.4649 272.166L27.3585 268.64L30.884 262.534L24.7776 259.008L28.3031 252.902L22.1967 249.376L18.6712 255.483L12.5647 251.957L1.98805 270.276L8.09448 273.802L4.56892 279.908L10.6753 283.434L0.0986619 301.753L6.20509 305.279L2.67953 311.385L8.78596 314.911L5.2604 321.017L11.3668 324.543L14.8924 318.436L27.1052 325.487L23.5797 331.594L29.6861 335.119L26.1606 341.226L32.267 344.751L39.3181 332.539L51.531 339.59L48.0054 345.696L54.1118 349.222L47.0607 361.435L34.8479 354.383L31.3223 360.49L37.4287 364.015L33.9032 370.122L27.7967 366.596L31.3223 360.49L25.2159 356.964L21.6903 363.071L15.5839 359.545L12.0583 365.652L24.2712 372.703L17.2201 384.916L29.4329 391.967L32.9585 385.86L39.0649 389.386L42.5905 383.279L48.6969 386.805L52.2224 380.699L58.3289 384.224L54.8033 390.331L60.9097 393.856L57.3842 399.963L51.2778 396.437L54.8033 390.331L48.6969 386.805L45.1713 392.911L39.0649 389.386L35.5393 395.492L29.4329 391.967L25.9073 398.073L32.0138 401.599L28.4882 407.705L40.7011 414.756L37.1755 420.863L43.2819 424.388L46.8075 418.282L52.9139 421.807L49.3884 427.914L43.2819 424.388L39.7564 430.495L51.9693 437.546L48.4437 443.652L66.763 454.229L63.2374 460.335L75.4503 467.387L71.9247 473.493L90.244 484.07L86.7184 490.176L117.251 507.804L113.725 513.91L125.938 520.961L129.463 514.855L135.57 518.38L132.044 524.487L138.151 528.012L141.676 521.906L147.783 525.432L144.257 531.538L150.364 535.064L153.889 528.957L159.996 532.483L156.47 538.589L174.789 549.166L178.315 543.059L190.528 550.11L194.053 544.004L200.16 547.53L196.634 553.636L202.741 557.161L206.266 551.055L212.373 554.581L208.847 560.687L214.953 564.213L218.479 558.106L230.692 565.157L234.217 559.051L252.537 569.627L256.062 563.521L268.275 570.572L271.801 564.466L284.014 571.517L287.539 565.41L293.646 568.936L297.171 562.829L309.384 569.88L312.909 563.774L319.016 567.3L322.541 561.193L328.648 564.719L332.173 558.612L350.493 569.189L354.018 563.082L347.912 559.557L351.437 553.45L345.331 549.925L352.382 537.712L340.169 530.661L336.644 536.767L330.537 533.242L334.063 527.135L340.169 530.661L347.22 518.448L359.433 525.499L352.382 537.712L358.489 541.237L354.963 547.344L361.069 550.869L357.544 556.976L363.65 560.502L367.176 554.395L373.282 557.921L376.808 551.814L382.914 555.34L389.965 543.127L396.072 546.652L403.123 534.439L397.017 530.914L400.542 524.807L406.648 528.333L403.123 534.439L415.336 541.491L422.387 529.278L416.28 525.752L423.332 513.539L441.651 524.116L445.176 518.009L439.07 514.484L442.596 508.377L454.808 515.428L461.86 503.216L455.753 499.69L459.279 493.584L465.385 497.109L461.86 503.216L467.966 506.741L475.017 494.528L468.911 491.003L472.436 484.896L484.649 491.947L491.7 479.734L485.594 476.209L489.119 470.102L495.226 473.628L498.751 467.522L504.858 471.047L508.383 464.941L502.277 461.415L505.802 455.309L499.696 451.783L496.17 457.89L490.064 454.364L497.115 442.151L509.328 449.202L512.854 443.096L518.96 446.621L526.011 434.408L519.905 430.883L516.379 436.989L510.273 433.464L513.798 427.357L519.905 430.883L523.43 424.776L511.221 417.724L500.641 436.045ZM410.934 351.685L414.459 345.578L420.566 349.104L424.091 342.997L430.198 346.523L426.672 352.629L420.566 349.104L417.04 355.21L410.934 351.685ZM427.364 393.738L430.889 387.632L436.996 391.157L433.47 397.264L427.364 393.738ZM133.057 297.098L140.108 284.885L146.215 288.41L139.164 300.623L133.057 297.098ZM151.376 307.674L154.902 301.568L161.008 305.093L157.483 311.2L151.376 307.674ZM431.581 428.74L424.53 440.953L430.636 444.479L427.11 450.585L414.898 443.534L425.474 425.215L431.581 428.74ZM400.104 426.851L396.578 432.958L402.685 436.483L399.159 442.59L393.053 439.064L396.578 432.958L390.472 429.432L393.997 423.326L400.104 426.851ZM409.736 424.27L415.842 427.796L412.317 433.902L406.21 430.377L409.736 424.27ZM420.312 405.951L414.206 402.425L417.732 396.319L429.944 403.37L426.419 409.476L432.525 413.002L429 419.108L416.787 412.057L413.261 418.164L407.155 414.638L410.68 408.532L416.787 412.057L420.312 405.951ZM394.942 407.587L388.836 404.062L392.361 397.955L404.574 405.006L397.523 417.219L391.417 413.694L394.942 407.587ZM378.259 422.381L366.046 415.33L369.572 409.223L375.678 412.749L379.204 406.643L385.31 410.168L378.259 422.381L384.365 425.907L380.84 432.013L386.946 435.539L383.421 441.645L389.527 445.171L386.002 451.277L379.895 447.751L376.37 453.858L382.476 457.383L378.95 463.49L372.844 459.964L376.37 453.858L370.263 450.332L373.789 444.226L379.895 447.751L383.421 441.645L377.314 438.119L380.84 432.013L374.733 428.487L378.259 422.381ZM384.112 482.754L378.006 479.228L385.057 467.015L391.163 470.541L384.112 482.754ZM397.27 474.067L409.483 481.118L405.957 487.224L393.744 480.173L397.27 474.067ZM363.212 462.545L369.318 466.071L365.793 472.177L371.899 475.703L368.374 481.809L374.48 485.335L370.955 491.441L364.848 487.916L368.374 481.809L362.267 478.284L365.793 472.177L359.686 468.652L363.212 462.545L357.106 459.02L360.631 452.913L366.738 456.439L363.212 462.545ZM264.058 535.57L257.952 532.044L261.477 525.938L267.584 529.463L264.058 535.57ZM279.796 536.514L285.903 540.04L282.377 546.146L276.271 542.621L279.796 536.514ZM239.632 521.467L233.526 517.942L237.051 511.835L243.158 515.361L239.632 521.467ZM249.264 518.887L252.79 512.78L258.896 516.306L255.371 522.412L249.264 518.887ZM230.945 508.31L224.839 504.784L221.313 510.891L227.419 514.416L223.894 520.523L217.787 516.997L214.262 523.104L208.156 519.578L211.681 513.472L217.787 516.997L221.313 510.891L215.207 507.365L218.732 501.259L224.839 504.784L228.364 498.678L234.471 502.203L230.945 508.31ZM202.049 516.053L195.943 512.527L199.468 506.421L205.575 509.946L202.049 516.053ZM121.029 444.85L117.504 450.956L105.291 443.905L108.816 437.799L121.029 444.85ZM173.406 466.948L179.513 470.474L175.987 476.58L169.881 473.054L173.406 466.948ZM133.242 451.901L139.349 455.427L135.823 461.533L141.929 465.059L138.404 471.165L144.51 474.691L140.985 480.797L134.878 477.272L138.404 471.165L132.297 467.64L135.823 461.533L129.717 458.008L133.242 451.901ZM150.617 478.216L154.142 472.11L160.249 475.635L156.723 481.742L150.617 478.216ZM188.2 483.631L182.094 480.106L189.145 467.893L201.358 474.944L197.832 481.05L191.726 477.525L188.2 483.631ZM210.045 488.101L213.57 481.995L219.677 485.52L216.151 491.627L210.045 488.101ZM231.89 492.571L235.415 486.465L241.522 489.991L237.996 496.097L231.89 492.571ZM176.932 460.842L170.825 457.316L167.3 463.422L161.193 459.897L164.719 453.79L170.825 457.316L174.351 451.21L180.457 454.735L176.932 460.842ZM136.768 445.795L130.661 442.269L134.187 436.163L140.293 439.688L143.819 433.582L149.925 437.107L146.4 443.214L152.506 446.739L156.032 440.633L162.138 444.158L158.613 450.265L152.506 446.739L148.981 452.846L142.874 449.32L146.4 443.214L140.293 439.688L136.768 445.795ZM115.868 425.586L121.974 429.112L125.5 423.005L131.606 426.531L128.08 432.637L121.974 429.112L118.448 435.218L112.342 431.692L115.868 425.586ZM100.129 424.641L94.0228 421.116L97.5483 415.009L103.655 418.535L100.129 424.641ZM115.176 384.477L109.07 380.952L116.121 368.739L128.334 375.79L124.808 381.896L118.702 378.371L115.176 384.477ZM137.021 388.947L143.127 392.473L146.653 386.366L152.759 389.892L149.234 395.998L143.127 392.473L139.602 398.579L133.495 395.054L137.021 388.947ZM182.347 423.258L176.24 419.733L183.292 407.52L189.398 411.045L182.347 423.258ZM195.504 414.571L201.611 418.096L198.085 424.203L191.979 420.677L195.504 414.571ZM170.134 416.207L164.028 412.682L167.553 406.575L173.66 410.101L170.134 416.207ZM161.447 403.05L155.34 399.524L158.866 393.418L164.972 396.943L161.447 403.05ZM127.389 391.528L120.338 403.741L114.231 400.216L121.283 388.003L127.389 391.528ZM129.97 401.16L142.183 408.211L138.657 414.318L126.444 407.267L129.97 401.16ZM154.396 415.262L148.289 411.737L151.815 405.63L157.921 409.156L154.396 415.262L160.502 418.788L156.976 424.894L163.083 428.42L159.557 434.526L153.451 431.001L156.976 424.894L150.87 421.369L154.396 415.262ZM177.877 445.103L171.77 441.578L175.296 435.471L181.402 438.997L184.928 432.89L191.034 436.416L187.509 442.522L181.402 438.997L177.877 445.103ZM116.812 409.848L113.287 415.954L107.18 412.428L110.706 406.322L116.812 409.848ZM199.721 449.573L205.828 453.099L209.353 446.992L203.247 443.467L206.773 437.36L212.879 440.886L216.405 434.779L210.298 431.254L213.824 425.147L226.037 432.199L229.562 426.092L235.669 429.618L232.143 435.724L226.037 432.199L218.985 444.411L212.879 440.886L209.353 446.992L215.46 450.518L211.934 456.624L205.828 453.099L202.302 459.205L208.409 462.731L204.883 468.837L192.67 461.786L199.721 449.573ZM244.356 442.775L238.249 439.25L245.3 427.037L251.407 430.562L244.356 442.775ZM294.152 455.241L297.678 449.135L303.784 452.66L300.258 458.767L294.152 455.241ZM317.633 485.082L311.527 481.556L315.052 475.45L321.159 478.975L324.684 472.869L330.79 476.394L327.265 482.501L321.159 478.975L317.633 485.082ZM305.42 478.031L299.314 474.505L306.365 462.292L312.471 465.818L305.42 478.031ZM262.675 453.352L256.569 449.826L260.094 443.72L266.201 447.245L262.675 453.352ZM240.83 448.882L246.937 452.407L243.411 458.514L237.305 454.988L240.83 448.882ZM252.098 471.671L258.205 475.197L254.679 481.303L248.573 477.778L252.098 471.671ZM223.202 479.414L226.728 473.307L232.834 476.833L229.309 482.939L223.202 479.414ZM217.096 475.888L210.99 472.363L218.041 460.15L224.147 463.675L217.096 475.888ZM266.892 488.354L270.418 482.248L264.311 478.722L267.837 472.616L273.943 476.141L270.418 482.248L276.524 485.773L272.999 491.88L266.892 488.354ZM227.673 457.569L221.566 454.043L225.092 447.937L231.198 451.463L227.673 457.569ZM255.624 465.565L259.15 459.458L265.256 462.984L268.782 456.877L274.888 460.403L271.362 466.509L265.256 462.984L261.73 469.09L255.624 465.565ZM283.575 473.56L287.101 467.454L293.207 470.98L289.682 477.086L283.575 473.56ZM345.584 493.078L339.478 489.552L335.952 495.658L329.846 492.133L333.371 486.026L339.478 489.552L350.054 471.233L356.161 474.758L345.584 493.078ZM355.216 490.497L361.323 494.022L350.746 512.342L344.64 508.816L355.216 490.497ZM315.305 418.602L318.831 412.496L324.937 416.022L328.463 409.915L334.569 413.441L327.518 425.654L315.305 418.602ZM339.731 432.705L346.782 420.492L352.889 424.017L356.414 417.911L368.627 424.962L365.101 431.068L352.889 424.017L345.837 436.23L339.731 432.705ZM342.312 442.337L348.418 445.862L351.944 439.756L358.05 443.281L361.576 437.175L367.682 440.7L364.157 446.807L358.05 443.281L354.525 449.388L348.418 445.862L344.893 451.969L350.999 455.494L347.474 461.601L341.367 458.075L337.842 464.182L331.735 460.656L335.261 454.55L341.367 458.075L344.893 451.969L338.786 448.443L342.312 442.337ZM292.516 429.871L296.041 423.764L302.148 427.29L298.622 433.396L292.516 429.871ZM304.729 436.922L308.254 430.815L314.361 434.341L310.835 440.447L304.729 436.922ZM320.467 437.866L332.68 444.918L329.154 451.024L323.048 447.498L319.522 453.605L325.629 457.13L322.103 463.237L315.997 459.711L319.522 453.605L313.416 450.079L320.467 437.866ZM248.826 420.93L252.352 414.824L258.458 418.349L254.932 424.456L248.826 420.93ZM261.039 427.981L267.145 431.507L270.671 425.4L276.777 428.926L273.252 435.032L285.465 442.084L288.99 435.977L295.097 439.503L291.571 445.609L285.465 442.084L281.939 448.19L269.726 441.139L273.252 435.032L267.145 431.507L263.62 437.613L257.513 434.088L261.039 427.981ZM220.875 412.935L217.349 419.041L211.243 415.515L214.768 409.409L220.875 412.935ZM184.236 391.781L190.343 395.307L186.817 401.413L180.711 397.888L184.236 391.781ZM144.072 376.734L131.859 369.683L135.385 363.577L147.598 370.628L144.072 376.734ZM196.449 398.832L199.975 392.726L212.187 399.777L208.662 405.883L196.449 398.832ZM227.926 400.722L224.4 406.828L218.294 403.303L221.819 397.196L227.926 400.722ZM197.394 383.094L193.868 389.2L187.762 385.675L191.287 379.568L197.394 383.094ZM185.181 376.043L181.655 382.149L175.549 378.624L179.074 372.517L185.181 376.043ZM154.649 358.415L166.862 365.466L163.336 371.573L169.442 375.098L165.917 381.205L159.811 377.679L163.336 371.573L151.123 364.522L154.649 358.415ZM99.6909 326.685L93.5845 323.16L97.11 317.053L91.0036 313.528L94.5292 307.421L100.636 310.947L97.11 317.053L103.216 320.579L99.6909 326.685ZM83.9525 325.74L90.0589 329.266L86.5334 335.373L80.4269 331.847L83.9525 325.74L77.8461 322.215L81.3716 316.109L87.478 319.634L83.9525 325.74ZM84.8972 310.002L78.7908 306.477L82.3163 300.37L88.4227 303.896L84.8972 310.002ZM135.638 306.73L141.744 310.255L138.219 316.362L132.112 312.836L135.638 306.73ZM98.0547 301.315L101.58 295.208L107.687 298.734L104.161 304.84L98.0547 301.315ZM122.48 315.417L116.374 311.891L119.9 305.785L126.006 309.31L122.48 315.417L128.587 318.942L125.061 325.049L118.955 321.523L115.429 327.63L109.323 324.104L112.848 317.998L118.955 321.523L122.48 315.417ZM70.1035 293.319L76.2099 296.845L72.6843 302.951L66.5779 299.425L70.1035 293.319ZM54.365 292.374L60.4715 295.9L56.9459 302.006L50.8395 298.481L47.3139 304.587L41.2075 301.062L44.7331 294.955L50.8395 298.481L54.365 292.374ZM25.4691 300.117L28.9946 294.011L35.1011 297.536L31.5755 303.643L25.4691 300.117ZM18.4179 312.33L21.9435 306.223L28.0499 309.749L24.5244 315.855L18.4179 312.33ZM30.6308 319.381L37.6819 307.168L43.7884 310.694L36.7372 322.907L30.6308 319.381ZM42.8437 326.432L49.8948 314.219L56.0012 317.745L59.5268 311.638L65.6332 315.164L69.1588 309.057L75.2652 312.583L71.7396 318.689L65.6332 315.164L62.1076 321.27L56.0012 317.745L52.4757 323.851L58.5821 327.377L55.0565 333.483L42.8437 326.432ZM56.6927 358.854L60.2183 352.747L66.3247 356.273L69.8502 350.166L63.7438 346.641L67.2694 340.534L73.3758 344.06L69.8502 350.166L75.9567 353.692L79.4822 347.585L91.6951 354.637L98.7462 342.424L110.959 349.475L118.01 337.262L124.117 340.787L117.066 353L110.959 349.475L107.434 355.581L101.327 352.056L97.8015 358.162L91.6951 354.637L88.1695 360.743L75.9567 353.692L72.4311 359.798L66.3247 356.273L62.7991 362.379L56.6927 358.854ZM71.4864 375.537L65.38 372.011L68.9056 365.905L75.012 369.43L71.4864 375.537L77.5929 379.062L74.0673 385.169L67.9609 381.643L71.4864 375.537ZM40.0096 373.647L43.5351 367.541L49.6416 371.067L46.116 377.173L40.0096 373.647ZM92.3866 395.745L86.2802 392.22L100.382 367.794L106.489 371.32L92.3866 395.745L98.493 399.271L94.9675 405.377L88.861 401.852L92.3866 395.745ZM67.0162 397.382L70.5417 391.275L76.6482 394.801L73.1226 400.907L67.0162 397.382ZM75.7035 410.539L81.8099 414.065L85.3355 407.958L91.4419 411.484L87.9163 417.59L81.8099 414.065L78.2843 420.171L72.1779 416.646L75.7035 410.539ZM56.4395 415.701L59.965 409.595L66.0715 413.12L62.5459 419.227L56.4395 415.701ZM71.2332 432.384L74.7588 426.278L80.8652 429.803L77.3397 435.91L71.2332 432.384ZM95.6589 446.486L89.5525 442.961L93.0781 436.854L99.1845 440.38L95.6589 446.486L101.765 450.012L98.2398 456.118L92.1334 452.593L95.6589 446.486ZM58.0757 441.071L61.6012 434.965L67.7077 438.491L64.1821 444.597L58.0757 441.071ZM70.2885 448.123L73.8141 442.016L86.027 449.067L82.5014 455.174L70.2885 448.123ZM106.927 469.276L100.821 465.75L104.346 459.644L110.453 463.169L106.927 469.276L113.034 472.801L116.559 466.695L122.666 470.22L119.14 476.327L113.034 472.801L109.508 478.908L103.402 475.382L106.927 469.276ZM143.566 490.429L149.672 493.955L146.147 500.061L140.04 496.536L143.566 490.429ZM81.5567 470.912L85.0822 464.806L91.1887 468.331L87.6631 474.438L81.5567 470.912ZM102.457 491.121L105.982 485.014L112.089 488.54L108.563 494.646L102.457 491.121ZM126.883 505.223L130.408 499.116L124.302 495.591L127.827 489.484L133.934 493.01L130.408 499.116L136.515 502.642L132.989 508.748L126.883 505.223ZM145.202 515.8L152.253 503.587L158.359 507.112L161.885 501.006L167.991 504.531L171.517 498.425L165.41 494.899L168.936 488.793L162.83 485.267L166.355 479.161L172.462 482.686L168.936 488.793L175.043 492.318L178.568 486.212L184.674 489.738L181.149 495.844L175.043 492.318L171.517 498.425L183.73 505.476L180.204 511.582L167.991 504.531L164.466 510.638L158.359 507.112L154.834 513.219L160.94 516.744L157.415 522.851L145.202 515.8ZM216.843 532.736L229.056 539.787L225.53 545.893L213.317 538.842L216.843 532.736ZM176.679 517.689L173.153 523.795L167.047 520.27L170.572 514.163L176.679 517.689ZM181.84 536.953L175.734 533.427L179.26 527.321L185.366 530.846L181.84 536.953ZM197.579 537.898L191.472 534.372L194.998 528.266L201.104 531.791L197.579 537.898ZM269.22 554.834L265.694 560.94L259.588 557.415L263.113 551.308L269.22 554.834ZM257.007 547.783L253.481 553.889L247.375 550.363L243.849 556.47L237.743 552.944L241.269 546.838L247.375 550.363L250.901 544.257L257.007 547.783ZM248.32 534.625L242.213 531.099L238.688 537.206L232.581 533.68L236.107 527.574L242.213 531.099L245.739 524.993L251.845 528.519L248.32 534.625ZM300.697 556.723L288.484 549.672L292.009 543.565L298.116 547.091L301.641 540.984L307.748 544.51L300.697 556.723ZM333.118 542.874L326.067 555.087L319.961 551.561L327.012 539.348L333.118 542.874ZM320.905 535.823L317.38 541.929L311.273 538.404L314.799 532.297L320.905 535.823ZM302.586 525.246L299.06 531.352L292.954 527.827L296.48 521.72L302.586 525.246ZM284.267 514.669L277.216 526.882L271.109 523.357L278.16 511.144L284.267 514.669ZM265.947 504.093L262.422 510.199L256.315 506.674L259.841 500.567L265.947 504.093ZM253.735 497.042L247.628 493.516L251.154 487.41L257.26 490.935L253.735 497.042ZM327.956 523.61L324.431 529.716L318.324 526.191L321.85 520.084L327.956 523.61ZM309.637 513.033L306.112 519.14L293.899 512.088L297.424 505.982L309.637 513.033ZM285.211 498.931L288.737 492.824L282.631 489.299L286.156 483.192L292.263 486.718L288.737 492.824L294.843 496.35L291.318 502.456L285.211 498.931ZM304.475 493.769L310.582 497.295L307.056 503.401L300.95 499.876L304.475 493.769ZM319.269 510.452L313.163 506.927L316.688 500.82L322.795 504.346L326.32 498.239L332.427 501.765L328.901 507.871L322.795 504.346L319.269 510.452ZM369.065 522.918L375.172 526.444L371.646 532.55L377.753 536.076L370.701 548.289L364.595 544.763L371.646 532.55L365.54 529.025L369.065 522.918L362.959 519.393L366.484 513.286L360.378 509.761L367.429 497.548L373.536 501.073L366.484 513.286L372.591 516.812L369.065 522.918ZM382.223 514.231L388.329 517.756L384.804 523.863L378.697 520.337L382.223 514.231L376.116 510.705L379.642 504.599L385.748 508.124L382.223 514.231ZM407.593 512.595L404.068 518.701L391.855 511.65L395.38 505.543L407.593 512.595ZM383.167 498.492L377.061 494.967L380.587 488.86L386.693 492.386L383.167 498.492ZM414.644 500.382L420.751 503.907L417.225 510.014L411.119 506.488L414.644 500.382L408.538 496.856L405.012 502.963L392.799 495.911L396.325 489.805L408.538 496.856L412.063 490.75L418.17 494.275L414.644 500.382ZM427.802 491.694L433.908 495.22L430.383 501.326L424.276 497.801L427.802 491.694L415.589 484.643L419.115 478.537L431.327 485.588L427.802 491.694ZM453.172 490.058L449.647 496.164L437.434 489.113L440.959 483.007L453.172 490.058ZM416.534 468.905L413.008 475.011L406.902 471.486L410.427 465.379L416.534 468.905ZM398.214 458.328L404.321 461.854L400.795 467.96L394.689 464.435L398.214 458.328L392.108 454.803L395.634 448.696L401.74 452.222L405.266 446.115L411.372 449.641L407.846 455.747L401.74 452.222L398.214 458.328ZM466.33 481.371L462.804 487.477L444.485 476.9L448.011 470.794L466.33 481.371ZM441.904 467.268L438.379 473.375L432.272 469.849L435.798 463.743L429.691 460.217L426.166 466.324L413.953 459.273L417.478 453.166L429.691 460.217L433.217 454.111L439.323 457.636L435.798 463.743L441.904 467.268ZM479.487 472.683L475.962 478.79L463.749 471.739L467.275 465.632L479.487 472.683ZM486.538 460.47L483.013 466.577L476.907 463.051L480.432 456.945L486.538 460.47Z" fill="black"/>
<path d="M38.8798 234.582L35.3543 240.689L41.4607 244.214L44.9863 238.108L38.8798 234.582Z" fill="black"/>
<path d="M79.9917 233.889L76.4631 239.997L82.5695 243.523L86.0951 237.416L79.9917 233.889Z" fill="black"/>
<path d="M36.302 224.949L32.7734 231.057L38.8798 234.582L42.4085 228.475L36.302 224.949Z" fill="black"/>
<path d="M120.153 248.938L116.627 255.044L122.734 258.57L126.259 252.463L120.153 248.938Z" fill="black"/>
<path d="M50.1511 257.371L44.0416 253.846L40.5191 259.952L34.4126 256.426L30.884 262.534L36.9935 266.058L33.4649 272.166L39.5713 275.691L46.6255 263.477L52.7289 267.004L56.2575 260.896L62.3639 264.422L65.8864 258.317L53.6736 251.265L50.1511 257.371Z" fill="black"/>
<path d="M32.267 344.751L28.7414 350.858L34.8479 354.383L38.3734 348.277L32.267 344.751Z" fill="black"/>
<path d="M536.841 359.242L533.315 365.348L521.103 358.297L524.628 352.191L536.841 359.242L540.367 353.135L534.26 349.61L548.362 325.184L542.256 321.658L528.154 346.084L515.941 339.033L522.992 326.82L529.098 330.346L536.15 318.133L530.043 314.607L533.569 308.501L527.462 304.975L516.886 323.295L510.779 319.769L517.83 307.556L511.724 304.031L515.249 297.924L509.146 294.397L505.617 300.505L499.514 296.978L488.934 315.299L482.828 311.773L479.302 317.88L473.199 314.353L469.67 320.461L481.883 327.512L485.409 321.405L491.515 324.931L502.092 306.611L508.198 310.137L494.096 334.563L481.883 327.512L478.358 333.618L484.464 337.144L480.938 343.25L487.045 346.776L490.57 340.669L502.783 347.72L506.309 341.614L518.522 348.665L514.996 354.771L502.783 347.72L499.258 353.827L505.364 357.352L501.839 363.459L507.945 366.984L511.471 360.878L523.684 367.929L520.158 374.035L507.945 366.984L500.897 379.196L507.003 382.722L510.526 376.616L516.632 380.142L513.11 386.247L525.323 393.298L528.848 387.192L522.739 383.667L526.264 377.561L532.374 381.085L539.422 368.874L545.528 372.399L542.003 378.506L548.109 382.031L555.16 369.818L549.054 366.293L552.579 360.186L546.473 356.661L542.947 362.767L536.841 359.242ZM503.728 331.982L507.254 325.875L513.36 329.401L509.834 335.507L503.728 331.982Z" fill="black"/>
<path d="M70.3597 236.47L66.8311 242.578L72.9375 246.104L76.4631 239.997L70.3597 236.47Z" fill="black"/>
<path d="M89.6206 231.31L86.0951 237.416L92.2015 240.942L95.7301 234.834L89.6206 231.31Z" fill="black"/>
<path d="M139.42 243.775L135.891 249.882L141.998 253.408L145.526 247.3L139.42 243.775Z" fill="black"/>
<path d="M41.899 342.171L38.3734 348.277L44.4798 351.803L48.0054 345.696L41.899 342.171Z" fill="black"/>
<path d="M9.98694 242.324L6.4583 248.431L12.5647 251.957L16.0903 245.851L9.98694 242.324Z" fill="black"/>
<path d="M101.837 238.36L98.3079 244.467L104.414 247.993L107.94 241.886L101.837 238.36Z" fill="black"/>
<path d="M19.6189 239.743L16.0903 245.851L22.1967 249.376L25.7223 243.27L19.6189 239.743Z" fill="black"/>
<path d="M543.892 347.029L540.367 353.135L546.473 356.661L549.999 350.554L543.892 347.029Z" fill="black"/>
<path d="M26.667 227.531L23.1445 233.636L29.2478 237.163L32.7734 231.057L26.667 227.531Z" fill="black"/>
<path d="M538.984 270.917L535.461 277.023L541.568 280.548L538.042 286.655L550.255 293.706L543.204 305.919L537.094 302.394L533.569 308.501L545.785 315.551L549.31 309.444L555.417 312.97L548.362 325.184L554.472 328.708L547.421 340.921L553.527 344.447L549.999 350.554L556.108 354.079L563.159 341.866L557.053 338.34L567.63 320.021L561.523 316.495L565.049 310.389L552.836 303.338L559.887 291.125L547.674 284.074L554.725 271.861L548.616 268.336L545.093 274.442L538.984 270.917Z" fill="black"/>
<path d="M22.6381 347.331L26.1606 341.226L20.0572 337.699L23.5797 331.594L11.3668 324.543L7.84434 330.648L13.9508 334.174L10.4252 340.28L16.5316 343.806L13.0061 349.912L25.2159 356.964L28.7414 350.858L22.6381 347.331Z" fill="black"/>
<path d="M31.8287 246.795L28.3031 252.902L34.4126 256.426L37.9351 250.321L31.8287 246.795Z" fill="black"/>
<path d="M62.3639 264.422L58.8353 270.529L64.9417 274.055L68.4673 267.949L62.3639 264.422Z" fill="black"/>
</svg>
