<svg width="484" height="391" viewBox="0 0 484 391" fill="none" xmlns="http://www.w3.org/2000/svg">
<path d="M397.128 273.08H403.329V266.877H415.744V260.669H397.128V273.08Z" fill="black"/>
<path d="M452.97 279.288H459.177V273.08H452.97V279.288Z" fill="black"/>
<path d="M198.561 43.4478H186.152V49.6503H198.561V43.4478Z" fill="black"/>
<path d="M421.945 310.319H428.152V297.908H421.945V310.319Z" fill="black"/>
<path d="M86.872 148.951H80.6647V155.159H86.872V148.951Z" fill="black"/>
<path d="M68.2561 192.399H86.872V186.19H68.2561V192.399Z" fill="black"/>
<path d="M105.488 0H99.2805V6.20856H105.488V0Z" fill="black"/>
<path d="M43.4329 223.429H37.2257V229.638H43.4329V223.429Z" fill="black"/>
<path d="M390.921 328.939H397.128V322.73H390.921V328.939Z" fill="black"/>
<path d="M86.872 117.92H80.6647V136.54H86.872V117.92Z" fill="black"/>
<path d="M390.921 310.319H372.305V316.528H378.512V328.939H384.713V316.528H390.921V310.319Z" fill="black"/>
<path d="M179.945 55.8589H167.537V62.0614H179.945V55.8589Z" fill="black"/>
<path d="M155.128 49.6503H148.921V55.8589H155.128V49.6503Z" fill="black"/>
<path d="M142.713 62.0614H136.512V68.2699H142.713V62.0614Z" fill="black"/>
<path d="M37.2257 242.049H31.0244V235.84H37.2257V229.638H24.8171V254.46H43.4329V248.258H37.2257V242.049Z" fill="black"/>
<path d="M397.128 322.73H415.744V316.528H397.128V322.73Z" fill="black"/>
<path d="M359.896 211.018H353.689V217.221H359.896V211.018Z" fill="black"/>
<path d="M428.152 49.6503H421.945V55.8589H428.152V49.6503Z" fill="black"/>
<path d="M80.6647 217.221H68.2561V223.429H80.6647V217.221Z" fill="black"/>
<path d="M446.768 235.84H434.354V248.258H440.561V242.049H452.97V235.84H459.177V229.638H446.768V235.84Z" fill="black"/>
<path d="M192.354 359.969H198.561V353.767H192.354V359.969Z" fill="black"/>
<path d="M446.768 167.571H428.152V148.951H421.945V173.779H446.768V167.571Z" fill="black"/>
<path d="M148.921 273.08H142.713V279.288H136.512V273.08H142.713V266.877H124.098V260.669H117.896V242.049H136.512V235.84H124.098V229.638H117.896V235.84H111.689V229.638H68.2561V235.84H62.0488V242.049H86.872V235.84H93.0732V242.049H111.689V260.669H105.488V266.877H111.689V291.699H117.896V297.908H130.305V285.497H117.896V273.08H124.098V279.288H130.305V285.497H136.512V291.699H155.128V285.497H148.921V273.08Z" fill="black"/>
<path d="M415.744 105.509V111.718H428.152V105.509H415.744Z" fill="black"/>
<path d="M68.2561 229.638V223.429H49.6403V235.84H62.0488V229.638H68.2561Z" fill="black"/>
<path d="M459.177 266.877H465.384V260.669H459.177V266.877Z" fill="black"/>
<path d="M471.585 242.049V235.84H459.177V242.049H471.585Z" fill="black"/>
<path d="M347.488 31.0307H335.073V43.4478H347.488V31.0307Z" fill="black"/>
<path d="M210.97 18.6196H204.768V24.8282H210.97V18.6196Z" fill="black"/>
<path d="M260.616 55.8589H248.201V62.0614H260.616V55.8589Z" fill="black"/>
<path d="M440.561 254.46H434.354V260.669H446.768V254.46H452.97V248.258H440.561V254.46Z" fill="black"/>
<path d="M415.744 55.8589H409.537V62.0614H415.744V55.8589Z" fill="black"/>
<path d="M452.97 248.258H459.177V242.049H452.97V248.258Z" fill="black"/>
<path d="M372.305 43.4478H366.098V49.6503H372.305V43.4478Z" fill="black"/>
<path d="M421.945 266.877H428.152V273.08H434.354V260.669H421.945V266.877Z" fill="black"/>
<path d="M74.4574 43.4478H68.2561V49.6503H74.4574V43.4478Z" fill="black"/>
<path d="M173.744 328.939H167.537V347.558H173.744V328.939Z" fill="black"/>
<path d="M273.024 347.558H279.226V341.35H273.024V347.558Z" fill="black"/>
<path d="M397.128 304.11H390.921V310.319H397.128V304.11Z" fill="black"/>
<path d="M285.433 391H291.64V384.797H285.433V391Z" fill="black"/>
<path d="M297.841 341.35H285.433V347.558H297.841V341.35Z" fill="black"/>
<path d="M80.6647 173.779H68.2561V179.988H80.6647V173.779Z" fill="black"/>
<path d="M142.713 304.11H155.128V297.908H136.512V304.11H130.305V316.528H136.512V322.73H130.305V328.939H142.713V322.73H148.921V316.528H142.713V304.11Z" fill="black"/>
<path d="M297.841 359.969H291.64V366.178H297.841V359.969Z" fill="black"/>
<path d="M167.537 310.319H155.128V316.528H167.537V310.319Z" fill="black"/>
<path d="M43.4329 148.951H37.2257V155.159H43.4329V148.951Z" fill="black"/>
<path d="M43.4329 198.607H37.2257V211.018H43.4329V198.607Z" fill="black"/>
<path d="M248.201 347.558H260.616V341.35H248.201V347.558Z" fill="black"/>
<path d="M43.4329 179.988H37.2257V186.19H43.4329V179.988Z" fill="black"/>
<path d="M37.2257 211.018H31.0244V217.221H37.2257V211.018Z" fill="black"/>
<path d="M210.97 372.38H217.177V366.178H210.97V372.38Z" fill="black"/>
<path d="M62.0488 186.19H49.6403V192.399H62.0488V186.19Z" fill="black"/>
<path d="M223.384 372.38H229.585V366.178H223.384V372.38Z" fill="black"/>
<path d="M142.713 366.178H148.921V359.969H142.713V366.178Z" fill="black"/>
<path d="M173.744 378.589H179.945V372.38H173.744V378.589Z" fill="black"/>
<path d="M173.744 322.73V316.528H167.537V322.73H173.744Z" fill="black"/>
<path d="M55.8415 273.08H80.6647V266.877H55.8415V273.08Z" fill="black"/>
<path d="M24.8171 291.699H31.0244V285.497H24.8171V291.699Z" fill="black"/>
<path d="M86.872 167.571H80.6647V173.779H86.872V167.571Z" fill="black"/>
<path d="M316.457 359.969H328.872V353.767H316.457V359.969Z" fill="black"/>
<path d="M366.098 359.969H378.512V353.767H366.098V359.969Z" fill="black"/>
<path d="M99.2805 260.669V254.46H80.6647V248.258H74.4574V254.46H68.2561V248.258H55.8415V242.049H43.4329V248.258H49.6403V260.669H99.2805Z" fill="black"/>
<path d="M142.713 384.797H148.921V378.589H142.713V384.797Z" fill="black"/>
<path d="M335.073 347.558H341.281V335.147H335.073V347.558Z" fill="black"/>
<path d="M179.945 372.38H186.152V366.178H179.945V372.38Z" fill="black"/>
<path d="M316.457 372.38H322.665V366.178H316.457V372.38Z" fill="black"/>
<path d="M0 266.877H6.20125V260.669H0V266.877Z" fill="black"/>
<path d="M86.872 297.908H93.0732V291.699H86.872V297.908Z" fill="black"/>
<path d="M297.841 384.797H304.049V378.589H297.841V384.797Z" fill="black"/>
<path d="M117.896 316.528H124.098V304.11H117.896V316.528Z" fill="black"/>
<path d="M105.488 328.939H111.689V322.73H105.488V328.939Z" fill="black"/>
<path d="M24.8171 266.877H37.2257V260.669H24.8171V266.877Z" fill="black"/>
<path d="M105.488 279.288H99.2805V291.699H105.488V279.288Z" fill="black"/>
<path d="M12.4086 254.46H18.6159V242.049H12.4086V254.46Z" fill="black"/>
<path d="M428.152 136.54H415.744V142.748H428.152V136.54Z" fill="black"/>
<path d="M235.793 322.73V328.939H248.201V322.73H235.793Z" fill="black"/>
<path d="M155.126 179.985H161.331V186.192H155.126V179.985ZM173.741 266.875V260.669H161.331V248.256H167.536V242.049H173.741V248.256H179.946V235.843H173.741V223.43H161.331V229.636H155.126V217.224H161.331V211.017H167.536V217.224H173.741V211.017H192.357V204.811H198.562V217.224H204.767V211.017H217.177V204.811H210.972V192.398H198.562V186.192H192.357V198.604H161.331V192.398H186.152V186.192H167.536V179.985H173.741V173.779H142.716V179.985H148.921V192.398H155.126V211.017H124.1V217.224H117.895V223.43H130.306V217.224H148.921V229.636H142.716V235.843H148.921V248.256H155.126V273.081H167.536V266.875H173.741Z" fill="black"/>
<path d="M198.561 328.939V316.528H192.354V310.319H186.152V304.11H192.354V297.908H186.152V285.497H192.354V279.288H179.945V285.497H173.744V279.288H179.945V273.08L167.536 273.081L167.537 279.288H155.128V285.497H161.329V297.908H173.744V304.11H179.945V322.73H186.152V335.147H179.945V359.969H186.152V353.767H192.354V328.939H198.561Z" fill="black"/>
<path d="M279.226 322.73H273.024V316.528H266.817V328.939H273.024V335.147H285.433V328.939H279.226V322.73Z" fill="black"/>
<path d="M198.561 353.767H204.768V328.939H198.561V353.767Z" fill="black"/>
<path d="M235.793 291.699H229.585V297.908H235.793V291.699Z" fill="black"/>
<path d="M260.613 285.494H254.408V279.287H248.203V273.081H254.408V279.287H260.613V285.494ZM241.998 266.874V254.462H254.408V266.875L241.998 266.874ZM235.793 248.256V242.049H241.998V248.256L235.793 248.256ZM297.844 328.939V322.732H291.639V304.113H285.434V291.7H279.229V273.081H266.818V254.462H260.613V223.43H254.408V217.224H260.613V211.017H248.203V217.224H241.998V223.43H248.203V235.843H241.998V223.43H235.793V211.017H229.587V217.224H210.972V223.43H198.562V229.636H210.972V254.462H198.562V266.875H204.767V260.669H210.972V266.875L204.767 266.875V279.288H210.972V273.082H217.177V285.494H204.767V279.288L198.562 279.287V285.494L192.354 285.497V297.908L198.562 297.907L198.561 316.528L204.767 316.526V304.113H210.972V297.907H204.767V291.7H217.177V310.32H210.972V316.526L204.767 316.526L204.768 328.939H210.972V322.732H217.177V316.526H223.383V322.732H217.177V335.145H223.383V341.351H229.587V347.558H223.383V353.764H235.793V335.145H229.587V322.732L235.793 322.73V316.526H229.587L229.585 297.908L223.383 297.907V285.494H229.587V266.874H223.383V223.43H229.587V266.874L235.793 266.875V273.081H241.998V285.494H248.202V291.7H241.998V304.113H248.202L248.201 322.73L254.408 322.732V328.939H248.201L248.203 335.145H260.613V304.113H254.408V291.7H266.818V310.32H279.229L279.226 322.73L285.434 322.732L285.433 328.939H291.639V335.145H304.049V328.939H297.844Z" fill="black"/>
<path d="M322.665 279.288V285.497H328.872V279.288H322.665Z" fill="black"/>
<path d="M316.457 266.877V279.288H322.665V266.877H316.457Z" fill="black"/>
<path d="M328.872 291.699H335.073V285.497H328.872V291.699Z" fill="black"/>
<path d="M335.073 316.528V310.319H341.281V304.11H328.872V310.319H322.665V316.528H328.872V322.73H341.281V316.528H335.073Z" fill="black"/>
<path d="M248.201 192.399H254.409V173.779H242V179.988H248.201V192.399Z" fill="black"/>
<path d="M167.537 93.0981H173.744V99.3006H167.537V105.509H179.945V111.718H192.354V105.509H186.152V99.3006H179.945V86.8896H173.744V74.4785H186.152V68.2699H161.329V86.8896H167.537V93.0981Z" fill="black"/>
<path d="M192.354 99.3006H198.561V111.718H192.354V124.129H198.561V130.331H204.768V136.54H210.97V148.951H217.177V155.159H204.768V142.748H198.561V136.54H186.152V130.331H179.945V124.129H167.537V136.54H173.744V148.951H179.945V161.368H167.537V167.571H192.354V155.159H186.152V142.748H192.354V155.159H198.561V161.368H204.768V167.571H217.177V173.779H223.384V186.19H217.177L217.177 204.811L235.793 204.81V198.607H229.585V179.988H235.793V161.368H229.585V167.571H223.384V136.54H217.177V130.331H210.97V117.92H204.768V111.718H210.97V105.509H204.768V80.681H198.561V74.4785H204.768V68.2699H198.561V55.8589H186.152V68.2699H192.354V99.3006Z" fill="black"/>
<path d="M273.024 242.049H266.817V248.258H273.024V242.049Z" fill="black"/>
<path d="M136.512 198.607H130.305V192.399H124.098V179.988H111.689V192.399H117.896V198.607H49.6403V204.81H62.0488V211.018H74.4574V204.81H93.0732V211.018H105.488V204.81H142.713V198.607H148.921V192.398L136.512 192.399V198.607Z" fill="black"/>
<path d="M117.896 130.331H136.512V124.129H124.098V117.92H117.896V99.3006H111.689V86.8896H99.2805V80.681H93.0732V74.4785H80.6647V80.681H86.872V86.8896H93.0732V93.0981H99.2805V99.3006H105.488V111.718H111.689V124.129H117.896V130.331Z" fill="black"/>
<path d="M124.098 179.988H130.305V186.19H142.713L142.716 179.985L136.512 179.988V173.779H130.305V155.159H117.896V142.748H124.098V148.951H136.512V155.159H148.921V148.951H142.713V142.748H130.305V136.54H117.896V130.331H111.689V124.129H105.488V117.92H93.0732V130.331H99.2805V136.54H105.488V148.951H111.689V161.368H117.896V167.571H111.689V173.779H124.098V179.988Z" fill="black"/>
<path d="M136.512 80.681V86.8896H142.713V93.0981H155.128V99.3006H167.537V93.0981H161.329V86.8896H148.921V80.681H142.713V74.4785H130.305V80.681H136.512Z" fill="black"/>
<path d="M99.2805 68.2699H105.488V74.4785H111.689V80.681H117.896V86.8896H124.098V99.3006H136.512V105.509H142.713V111.718H148.921V117.92H155.128V124.129H167.537V117.92H161.329V111.718H155.128V105.509H148.921V99.3006H142.713V93.0981H136.512V86.8896H130.305V80.681H124.098V74.4785H130.305V68.2699H117.896V62.0614H105.488V55.8589H99.2805V49.6503H93.0732V43.4478H86.872V37.2393H80.6647V49.6503H86.872V62.0614H93.0732V74.4785H99.2805V68.2699Z" fill="black"/>
<path d="M477.793 217.221V229.638H484V217.221H477.793Z" fill="black"/>
<path d="M111.689 217.221H86.872V223.429H111.689V217.221Z" fill="black"/>
<path d="M130.305 260.669H142.713V248.258H130.305V260.669Z" fill="black"/>
<path d="M465.384 217.221H452.97V223.429H459.177V229.638H471.585V223.429H465.384V217.221Z" fill="black"/>
<path d="M378.512 248.258V242.049H366.098V248.258H378.512Z" fill="black"/>
<path d="M99.2805 161.368H93.0732V167.571H99.2805V161.368Z" fill="black"/>
<path d="M477.793 198.607H471.585V204.81H477.793V198.607Z" fill="black"/>
<path d="M341.281 74.4785V80.681H347.488V74.4785H341.281Z" fill="black"/>
<path d="M242 204.81H260.616V198.607H242V204.81Z" fill="black"/>
<path d="M459.177 211.018H471.585V204.81H459.177V211.018Z" fill="black"/>
<path d="M446.768 204.81V198.607H440.561V204.81H446.768Z" fill="black"/>
<path d="M335.073 192.399V186.19H328.872V198.607H353.689V192.399H335.073Z" fill="black"/>
<path d="M353.689 198.607V204.81H366.098V198.607H353.689Z" fill="black"/>
<path d="M384.713 204.81V198.607H378.512V204.81H366.098V211.018H390.921V204.81H384.713Z" fill="black"/>
<path d="M304.049 142.747H316.459V148.954H322.665V155.16H304.049V142.747ZM297.844 130.334V99.3024H291.639V86.8896H297.844V93.0957H304.049V86.8896H310.254V80.6829H322.665V86.8896H310.254V93.0957H304.049V105.509H310.254V111.715H304.049V130.334H297.844ZM291.639 117.921H279.229V99.3024H285.434V111.715H291.639V117.921ZM273.023 55.8578H279.229V68.2706H285.434V93.0957H279.229V68.2706H273.023L273.023 55.8578ZM273.023 93.0957H266.818V86.8896H273.023V93.0957ZM279.229 211.017H285.434V223.43H297.844V229.636H310.254V223.43H304.049V217.224H291.639V211.017H304.049V217.224H316.459V229.636H310.254V235.843H322.665V242.049H328.87V254.462H322.665V248.256H316.459V242.049H304.049V235.843H297.844V229.636H285.434V223.43H279.229V211.017ZM254.408 124.128H248.203V117.921H254.408V124.128ZM254.408 142.747H248.203V136.541H254.408V142.747ZM335.075 62.0639H347.485V68.2706H353.69V80.6829L347.488 80.681L347.485 86.8896H341.28V105.509H335.075V62.0639ZM316.459 179.985V173.779H310.254V161.366H316.459V167.573H328.869V155.16H335.075V167.573H328.869L328.869 173.779H335.075L335.073 186.19L366.1 186.192V179.985H353.69V173.779H341.28V167.573H353.69V161.366H341.28V155.16H353.69V148.954H335.075V142.747H322.665V136.541H341.28V142.747H353.69V136.541H347.485V124.128H328.869V130.334H316.459V136.541H310.254V117.921H316.459V99.3024H322.665V93.0957H328.87V99.3024H322.665V117.921H341.28V111.715H347.485V105.509H353.69V99.3024H359.896V80.6828H366.1V68.2705H359.896V62.0639H353.69V55.8578H341.28V49.6511H335.075V55.8578H328.869V49.6511H322.665V62.0639H328.87V68.2706H316.459V74.4767H310.254V62.0639H316.459V43.445H310.254V55.8578H304.049V80.6829H297.844V74.4767H291.639V55.8578H285.434V31.0322H279.229V37.2383H273.023V43.445H279.229V49.6511H273.023V43.445H266.818V80.6829H260.613V74.4767H254.408V68.2706H248.203V93.0957H260.613V111.715H266.818V117.921H273.023V124.128H291.639V136.541H285.434V130.334H273.023V136.541H279.229V142.747H285.434V148.954H297.844V161.366H304.049V179.986H285.433V173.779H279.229V186.192H273.023V173.779H279.229V148.954H273.023V136.541H266.818V124.128H260.613V111.715L254.408 111.715V99.3024H248.203V93.0957H241.998V74.4767H235.793V68.2706H229.587V86.8896H235.793V99.3024H241.998V136.541H235.793V117.921H229.587V105.509H235.793V99.3024H223.383V68.2706H229.587V62.0639H223.383V55.8578H217.177V43.445H210.972V31.0322H198.562V37.2383H204.767V49.6511H210.972V55.8578H204.767V62.0639H210.972V74.4767H217.177V80.6829H210.972L210.97 105.509L217.177 105.509V117.921H223.383V124.128H217.177L217.177 130.331L229.587 130.334V142.747H235.793V148.954H248.202V155.16H241.998V167.573H260.613V142.747H266.818V179.985H260.613L260.616 198.607L266.818 198.604V204.811H273.023V211.017H266.818V229.636H273.023V235.843H279.229V254.462H285.434V260.669H291.639V266.875H297.844V273.082H304.049V285.494H297.844V279.287H291.639V266.875L285.434 266.875V260.669H279.229V254.462H273.023V266.875H279.229V273.081H285.434V291.7H304.049V297.907H310.254V310.32H304.049V322.732H310.254V328.939H316.459V335.145H304.049L304.049 341.351H316.459V347.558H328.87V335.145H322.665V322.732H316.459V310.32L322.665 310.319V297.907H316.459V291.7H310.254V266.875H304.049V260.669H297.844V254.462H291.639V248.256H285.434V235.843H291.639V242.049H297.844V248.256H310.254V254.462H316.459V260.669H328.869V273.082H335.075L335.073 285.497L341.28 285.494V291.7L335.073 291.699L335.075 297.907H341.28L341.281 304.11L347.485 304.113V316.526H359.895V328.939H353.69V322.732L341.281 322.73L341.28 328.939H347.485V335.145H359.895V341.351H372.306V347.558H378.511V335.145H372.306V322.732H366.1V310.32H359.895V304.113H353.69V285.494H347.485V279.287H341.28V260.669H335.075V254.462H341.28V260.669H347.485V279.287L353.69 279.288V266.875H359.895V279.287L353.69 279.288V285.494H359.895V291.7H366.1V297.907H372.306V279.287H366.1V273.081H378.511V285.494H384.716V291.7H390.921V297.907H403.331V310.319H415.741V297.907H409.536V291.7H403.331V285.494H390.921V273.081H384.716V266.875H372.306V260.669H366.1V254.462H359.895V242.049H353.69V235.843H347.485V248.256H341.28V229.636H328.869V211.017H310.254V204.811H291.639V198.604H273.023V192.398H285.434V186.192H297.844V192.398H304.049V198.604H322.665V192.398H316.459V186.192L328.872 186.19L328.869 179.985H316.459Z" fill="black"/>
<path d="M359.896 229.638V235.84H384.713V229.638H359.896Z" fill="black"/>
<path d="M440.561 217.221V211.018H434.354V223.429H428.152V217.221H415.744V211.018H409.537V223.429H415.744V229.638H446.768V217.221H440.561Z" fill="black"/>
<path d="M409.537 242.049H403.329V235.84H384.713V242.049H397.128V248.258H415.744V254.46H428.152V248.258H421.945V242.049H415.744V229.638H409.537V242.049Z" fill="black"/>
<path d="M353.689 223.429V217.221H347.488V211.018H335.073V223.429H347.488V229.638H359.896V223.429H353.689Z" fill="black"/>
<path d="M390.921 223.429V229.638H409.537V223.429H397.128V211.018H390.921V217.221H359.896V223.429H390.921Z" fill="black"/>
<path d="M372.305 111.718H366.098V117.92H378.512V111.718H384.713V99.3006H372.305V111.718Z" fill="black"/>
<path d="M409.537 117.92V111.718H397.128V105.509H390.921V111.718H384.713V117.92H409.537Z" fill="black"/>
<path d="M378.512 124.129H384.713V117.92H378.512V124.129Z" fill="black"/>
<path d="M403.329 99.3006H397.128V105.509H403.329V99.3006Z" fill="black"/>
<path d="M316.457 124.129H322.665V117.921L316.459 117.921L316.457 124.129Z" fill="black"/>
<path d="M409.537 80.681V68.2699H397.128V80.681H409.537Z" fill="black"/>
<path d="M378.512 167.571V173.779H372.305V192.399H366.098V198.607H378.512V192.399H397.128V179.988H384.713V186.19H378.512V179.988H384.713V161.368H372.305V167.571H378.512Z" fill="black"/>
<path d="M397.128 204.81V211.018H409.537V204.81H397.128Z" fill="black"/>
<path d="M384.713 148.951H390.921V142.748H403.329V136.54H409.537V130.331H421.945V124.129H390.921V130.331H397.128V136.54H390.921V130.331H366.098V124.129H353.689V130.331H359.896V136.54H366.098V142.748H378.512V136.54H384.713V142.748H378.512V148.951H372.305V155.159H384.713V148.951Z" fill="black"/>
<path d="M397.128 167.571V161.368H403.329V192.399H409.537V198.607H415.744V204.81H421.945V211.018H434.354V204.81H428.152V198.607H421.945V192.399H415.744V186.19H421.945V192.399H446.768V186.19H434.354V179.988H409.537V167.571H415.744V161.368H409.537V155.159H403.329V148.951H390.921V167.571H397.128Z" fill="black"/>
<path d="M403.329 43.4478H390.921V49.6503H403.329V43.4478Z" fill="black"/>
<path d="M93.0732 24.8282H86.872V37.2393H93.0732V24.8282Z" fill="black"/>
<path d="M378.512 55.8589V62.0614H384.713V55.8589H378.512Z" fill="black"/>
<path d="M297.841 49.6503V55.8589L304.049 55.8578L304.049 49.6503H297.841Z" fill="black"/>
<path d="M99.2805 173.779V179.988H111.689V173.779H99.2805Z" fill="black"/>
<path d="M403.329 93.0981H409.537V86.8896H403.329V93.0981Z" fill="black"/>
<path d="M415.744 86.8896V80.681H409.537V86.8896H415.744Z" fill="black"/>
<path d="M421.945 68.2699H415.744V80.681H421.945V68.2699Z" fill="black"/>
<path d="M390.921 49.6503H384.713V55.8589H390.921V49.6503Z" fill="black"/>
<path d="M372.305 161.368V155.159H366.098V148.951H359.896V161.368H372.305Z" fill="black"/>
<path d="M161.329 155.159V148.951H155.128V161.368H167.537V155.159H161.329Z" fill="black"/>
<path d="M142.713 117.92H136.512V124.129H142.713V117.92Z" fill="black"/>
<path d="M124.098 105.509V111.718H130.305V105.509H124.098Z" fill="black"/>
<path d="M130.305 111.718V117.92H136.512V111.718H130.305Z" fill="black"/>
<path d="M179.945 217.221V229.638H186.152V223.429L198.562 223.43V217.224L179.945 217.221Z" fill="black"/>
<path d="M186.152 254.46L198.562 254.462L198.561 242.049H204.768V235.84H198.561L198.562 229.636L186.152 229.638V254.46Z" fill="black"/>
<path d="M186.152 117.92H179.945V124.129H186.152V117.92Z" fill="black"/>
<path d="M179.945 179.988H186.152V173.779H179.945V179.988Z" fill="black"/>
<path d="M148.921 130.331V136.54H155.128V142.748H161.329V148.951H167.537V136.54H161.329V130.331H155.128V124.129H142.713V130.331H148.921Z" fill="black"/>
<path d="M210.97 179.988H204.768V167.571H192.354V173.779H198.561L198.562 186.192L210.97 186.19V179.988Z" fill="black"/>
<path d="M366.1 68.2705L372.305 68.2699V55.8589H359.896L359.896 62.0639L366.098 62.0614L366.1 68.2705Z" fill="black"/>
<path d="M372.305 99.3006V93.0981H378.512V86.8896H372.305V80.681L366.1 80.6828L366.098 99.3006H372.305Z" fill="black"/>
<path d="M86.872 186.19H99.2805V179.988H86.872V186.19Z" fill="black"/>
<path d="M378.512 86.8896H384.713V99.3006H390.921V93.0981H397.128V80.681H390.921V68.2699H397.128V62.0614H403.329V55.8589H390.921V62.0614H384.713V68.2699H378.512V74.4785H372.305V80.681H378.512V86.8896Z" fill="black"/>
<path d="M359.896 99.3024L359.896 105.509L353.69 105.509L353.689 111.718L347.485 111.715L347.488 117.92H359.896V111.718H366.098V99.3006L359.896 99.3024Z" fill="black"/>
<path d="M291.64 155.159H285.433V167.571H291.64V155.159Z" fill="black"/>
<path d="M297.841 173.779V167.571H291.64V173.779H297.841Z" fill="black"/>
<path d="M297.841 304.11V310.319L304.049 310.32L304.049 304.11H297.841Z" fill="black"/>
<path d="M359.896 148.951V142.748L353.69 142.747L353.69 148.954L359.896 148.951Z" fill="black"/>
<path d="M192.354 260.669H186.152V254.46H179.945V273.08H192.354V279.288L198.562 279.287V266.875L192.354 266.877V260.669Z" fill="black"/>
</svg>
