<svg  viewBox="0 0 343 343" fill="none" xmlns="http://www.w3.org/2000/svg">
<path d="M0 188.65V205.8H8.575V188.65H0Z" fill="currentColor"/>
<path d="M334.425 154.35V171.5H343V154.35H334.425Z" fill="currentColor"/>
<path d="M17.15 154.35V171.5H325.85V154.35H17.15Z" fill="currentColor"/>
<path d="M0 162.925V171.5H8.575V162.925H0Z" fill="currentColor"/>
<path d="M325.85 214.375H317.275V222.95H325.85V214.375Z" fill="currentColor"/>
<path d="M17.15 188.65V205.8H325.85V188.65H17.15Z" fill="currentColor"/>
<path d="M25.725 240.1H317.275V222.95H25.725V240.1Z" fill="currentColor"/>
<path d="M325.85 145.775V137.2H317.275V145.775H325.85Z" fill="currentColor"/>
<path d="M334.425 188.65V205.8H343V188.65H334.425Z" fill="currentColor"/>
<path d="M34.3 257.25V265.825H42.875V274.4H300.125V265.825H308.7V257.25H317.275V248.675H300.125V257.25H42.875V248.675H25.725V257.25H34.3Z" fill="currentColor"/>
<path d="M77.175 317.275V325.85H102.9V334.425H111.475V325.85H145.775V317.275H77.175Z" fill="currentColor"/>
<path d="M51.45 291.55V300.125H60.025V291.55H68.6V282.975H42.875V291.55H51.45Z" fill="currentColor"/>
<path d="M197.225 325.85H265.825V317.275H197.225V325.85Z" fill="currentColor"/>
<path d="M265.825 308.7L265.825 317.275H282.975V308.7H274.4V291.55H68.6V308.7H265.825Z" fill="currentColor"/>
<path d="M282.975 300.125H291.55V291.55H300.125V282.975H274.4V291.55H282.975V300.125Z" fill="currentColor"/>
<path d="M145.775 343H197.225V325.85H145.775V343Z" fill="currentColor"/>
<path d="M77.175 17.15V25.725H85.75V17.15H77.175Z" fill="currentColor"/>
<path d="M34.3 94.325V102.9H25.725V111.475H42.875V102.9H300.125V111.475H317.275V102.9H308.7V94.325H300.125V85.75H42.875V94.325H34.3Z" fill="currentColor"/>
<path d="M300.125 77.175V68.6H291.55V60.025H282.975V68.6H274.4V77.175H300.125Z" fill="currentColor"/>
<path d="M17.15 145.775H25.725V137.2H17.15V145.775Z" fill="currentColor"/>
<path d="M274.4 68.6V51.45H68.6V68.6H274.4Z" fill="currentColor"/>
<path d="M197.225 34.3V17.15H145.775V34.3H111.475V25.725H102.9V34.3H77.175V42.875H154.35V34.3H188.65V42.875H265.825V34.3H197.225Z" fill="currentColor"/>
<path d="M60.025 60.025H51.45V68.6H42.875V77.175H68.6V68.6H60.025V60.025Z" fill="currentColor"/>
<path d="M317.275 137.2V120.05H25.725V137.2H317.275Z" fill="currentColor"/>
<path d="M162.925 0V8.575H171.5V0H162.925Z" fill="currentColor"/>
</svg>
