<svg width="385" height="385" viewBox="0 0 385 385" fill="none" xmlns="http://www.w3.org/2000/svg">
<path d="M126.176 184.412H122.94V190.883H126.176V184.412Z" fill="black"/>
<path d="M135.882 197.354H132.647V203.825H135.882V197.354Z" fill="black"/>
<path d="M126.176 200.588H119.707V203.825H126.176V200.588Z" fill="black"/>
<path d="M135.882 207.059H132.647V210.296H135.882V207.059Z" fill="black"/>
<path d="M122.94 161.766H119.707V168.237H122.94V161.766Z" fill="black"/>
<path d="M152.06 148.824H148.824V152.057H152.06V148.824Z" fill="black"/>
<path d="M155.295 142.353H152.06V148.824L155.295 148.824V142.353Z" fill="black"/>
<path d="M132.647 203.825L129.411 203.825V207.059H132.647V203.825Z" fill="black"/>
<path d="M139.118 148.824H135.882V152.057H139.118V148.824Z" fill="black"/>
<path d="M129.411 194.117H126.176V200.588L129.411 200.587V194.117Z" fill="black"/>
<path d="M139.118 155.295H135.882V158.528H139.118V155.295Z" fill="black"/>
<path d="M119.707 181.175H116.471V187.646H119.707V181.175Z" fill="black"/>
<path d="M122.94 174.704H119.707V177.941H122.94V174.704Z" fill="black"/>
<path d="M132.647 164.999H129.411V168.237H132.647V164.999Z" fill="black"/>
<path d="M142.353 161.766H139.118V164.999H142.353V161.766Z" fill="black"/>
<path d="M135.882 158.528H132.647L132.647 164.999H135.882V158.528Z" fill="black"/>
<path d="M135.883 171.471H142.351V168.237H139.117L139.118 164.999H135.882L135.883 171.471Z" fill="black"/>
<path d="M126.176 177.941H122.94V181.175H126.176V177.941Z" fill="black"/>
<path d="M122.94 194.117H116.471V197.354H122.94V194.117Z" fill="black"/>
<path d="M116.471 200.588H113.236V203.825H116.471V200.588Z" fill="black"/>
<path d="M126.176 223.234H129.41V226.473H135.883V223.234H132.649V220H126.176V223.234Z" fill="black"/>
<path d="M129.411 158.528H122.94V161.766H129.411V158.528Z" fill="black"/>
<path d="M116.471 177.941H113.236V181.175H116.471V177.941Z" fill="black"/>
<path d="M129.411 168.237H122.94V171.47H129.411L129.411 168.237Z" fill="black"/>
<path d="M132.647 181.175H126.176V184.412H132.647V181.175Z" fill="black"/>
<path d="M164.999 139.12H158.528V142.353H164.999V139.12Z" fill="black"/>
<path d="M220.001 122.94H213.53V129.411H220.001V122.94Z" fill="black"/>
<path d="M229.705 145.586H226.472V148.824H229.705V145.586Z" fill="black"/>
<path d="M249.118 145.586H245.882V148.824H249.118V145.586Z" fill="black"/>
<path d="M216.766 135.882V139.121H213.528V142.355H220V135.882H216.766Z" fill="black"/>
<path d="M232.94 142.353H229.705V145.586L232.94 145.586V142.353Z" fill="black"/>
<path d="M213.53 129.411H210.294V135.882H213.53V129.411Z" fill="black"/>
<path d="M242.648 148.823V152.057H239.409V155.296H245.882L245.882 148.824L242.648 148.823Z" fill="black"/>
<path d="M242.648 145.584H239.409V142.355H236.175V148.823H242.648V145.584Z" fill="black"/>
<path d="M232.94 132.649H229.705V135.882H232.94V132.649Z" fill="black"/>
<path d="M236.176 135.882H232.94V142.353L236.175 142.355L236.176 135.882Z" fill="black"/>
<path d="M210.294 122.94H207.059V129.411H210.294L210.294 122.94Z" fill="black"/>
<path d="M252.353 181.175H249.118V184.412H252.353V181.175Z" fill="black"/>
<path d="M232.94 152.057H229.705V155.295H232.94V152.057Z" fill="black"/>
<path d="M236.175 155.296V158.53H232.941V161.764H239.409V155.296H236.175Z" fill="black"/>
<path d="M249.118 184.412H245.882V194.117H249.118V184.412Z" fill="black"/>
<path d="M126.176 216.763H122.94V220L126.176 220L126.176 216.763Z" fill="black"/>
<path d="M236.175 148.823L232.94 148.824V152.057H236.176L236.175 148.823Z" fill="black"/>
<path d="M226.472 142.353H223.236V145.586L226.472 145.586L226.472 142.353Z" fill="black"/>
<path d="M229.705 139.12H226.472L226.472 142.353H229.705V139.12Z" fill="black"/>
<path d="M223.236 145.586L220.001 145.586V152.057H223.236V145.586Z" fill="black"/>
<path d="M226.472 152.057H223.236V155.295H226.472V152.057Z" fill="black"/>
<path d="M242.647 135.882H239.411L239.409 142.355L242.647 142.353V135.882Z" fill="black"/>
<path d="M232.94 126.178H229.705V129.411H232.94V126.178Z" fill="black"/>
<path d="M220.001 129.411L220 135.882H226.473V132.648H223.234V129.409L220.001 129.411Z" fill="black"/>
<path d="M229.705 129.411H226.472L226.473 132.648L229.705 132.649V129.411Z" fill="black"/>
<path d="M239.411 132.649H236.176V135.882H239.411L239.411 132.649Z" fill="black"/>
<path d="M236.176 129.411H232.94V132.649H236.176V129.411Z" fill="black"/>
<path d="M213.53 119.707H210.294L210.294 122.94H213.53V119.707Z" fill="black"/>
<path d="M177.941 129.411H174.706V132.649H177.941V129.411Z" fill="black"/>
<path d="M223.236 119.707H220.001V122.94H223.236V119.707Z" fill="black"/>
<path d="M181.177 132.649H177.941L177.941 139.12H181.177V132.649Z" fill="black"/>
<path d="M171.471 129.409L174.706 129.411L174.705 126.175H177.939V122.941H171.471V129.409Z" fill="black"/>
<path d="M255.589 158.528H252.353V161.766H255.589V158.528Z" fill="black"/>
<path d="M262.06 171.47H258.824V174.703H262.06V171.47Z" fill="black"/>
<path d="M265.293 174.704L262.06 174.703V177.941H265.293V174.704Z" fill="black"/>
<path d="M252.353 142.353H249.118V145.586L252.353 145.586V142.353Z" fill="black"/>
<path d="M255.589 164.998H252.355L252.353 161.766L249.116 161.764V168.237H255.589V164.998Z" fill="black"/>
<path d="M258.824 174.703L255.589 174.704V181.175H258.824V174.703Z" fill="black"/>
<path d="M258.824 168.237L255.589 168.237L255.589 171.47H258.824V168.237Z" fill="black"/>
<path d="M258.824 161.766H255.589L255.589 164.998L258.824 164.999V161.766Z" fill="black"/>
<path d="M252.353 148.824H249.118V152.057H252.353V148.824Z" fill="black"/>
<path d="M255.589 152.057H252.353V155.295H255.589V152.057Z" fill="black"/>
<path d="M252.353 155.295H249.118V158.528H252.353V155.295Z" fill="black"/>
<path d="M245.882 142.353H242.647L242.648 145.584L245.882 145.586L245.882 142.353Z" fill="black"/>
<path d="M164.999 213.53H161.764V216.763H164.999V213.53Z" fill="black"/>
<path d="M168.235 210.296H164.999V213.53H168.235V210.296Z" fill="black"/>
<path d="M168.235 190.883H164.999V194.117H168.235V190.883Z" fill="black"/>
<path d="M164.999 207.059H161.764V210.296H164.999V207.059Z" fill="black"/>
<path d="M148.824 158.528H145.589V161.766H148.824V158.528Z" fill="black"/>
<path d="M158.528 164.999H155.295V168.237H158.528V164.999Z" fill="black"/>
<path d="M168.235 184.412H164.999V187.646H168.235V184.412Z" fill="black"/>
<path d="M168.235 174.704H164.999V177.941H168.235V174.704Z" fill="black"/>
<path d="M164.999 171.47H161.764V174.703L164.999 174.704V171.47Z" fill="black"/>
<path d="M155.295 155.295H148.824L148.824 158.528H155.295V155.295Z" fill="black"/>
<path d="M168.235 158.528H161.764V161.766H168.235V158.528Z" fill="black"/>
<path d="M158.528 158.528H155.295L155.295 161.766H158.528V158.528Z" fill="black"/>
<path d="M164.999 164.999H161.764V168.237H164.999V164.999Z" fill="black"/>
<path d="M148.824 203.825H145.589V207.059H148.824V203.825Z" fill="black"/>
<path d="M155.296 187.646H161.764V184.412H158.53V181.173H155.296V187.646Z" fill="black"/>
<path d="M158.528 194.117H155.295V197.354H158.528V194.117Z" fill="black"/>
<path d="M148.824 197.354H145.589V200.587H148.824V197.354Z" fill="black"/>
<path d="M155.295 197.354H152.06V200.587H155.295V197.354Z" fill="black"/>
<path d="M152.06 194.117H148.824L148.824 197.354H152.06V194.117Z" fill="black"/>
<path d="M174.706 135.882H168.235V142.353H174.706V135.882Z" fill="black"/>
<path d="M168.235 145.586H164.999V148.824H168.235V145.586Z" fill="black"/>
<path d="M161.764 152.057V155.296H168.232V152.057H164.998L164.999 148.824L158.53 148.823V152.057H161.764Z" fill="black"/>
<path d="M145.589 187.646H142.353V190.883H145.589V187.646Z" fill="black"/>
<path d="M148.824 184.412H145.589V187.646H148.824V184.412Z" fill="black"/>
<path d="M142.353 203.825H139.118V207.059H142.353V203.825Z" fill="black"/>
<path d="M142.353 190.883H139.118V194.117H142.353L142.353 190.883Z" fill="black"/>
<path d="M155.295 207.059H152.06V210.296H155.295V207.059Z" fill="black"/>
<path d="M142.353 197.354H139.118V200.587H142.353V197.354Z" fill="black"/>
<path d="M161.764 197.354H158.528V200.587H161.764V197.354Z" fill="black"/>
<path d="M177.941 210.296H174.706V213.53H177.941V210.296Z" fill="black"/>
<path d="M171.471 242.647H168.235V245.88H171.471V242.647Z" fill="black"/>
<path d="M174.706 232.943H171.47V239.413H174.706V232.943Z" fill="black"/>
<path d="M145.589 152.057H142.353V158.528H145.589V152.057Z" fill="black"/>
<path d="M168.235 223.234H164.999V226.471H168.235V223.234Z" fill="black"/>
<path d="M158.53 236.175V242.648H155.296V245.882H161.764V236.175H158.53Z" fill="black"/>
<path d="M174.706 226.471H171.47V229.705H174.706V226.471Z" fill="black"/>
<path d="M158.528 223.234H155.295V229.705H158.528V223.234Z" fill="black"/>
<path d="M164.999 226.471H161.764V232.942H164.999V226.471Z" fill="black"/>
<path d="M174.706 220H171.47V223.234H174.706V220Z" fill="black"/>
<path d="M187.646 220H181.178V226.473H184.412V223.234H187.646V220Z" fill="black"/>
<path d="M194.117 229.705H187.648V232.943H194.117V229.705Z" fill="black"/>
<path d="M184.412 229.705H181.177V232.943H184.412V229.705Z" fill="black"/>
<path d="M177.941 158.528H174.706V161.766H177.941V158.528Z" fill="black"/>
<path d="M181.177 177.941H174.706V181.175H181.177V177.941Z" fill="black"/>
<path d="M168.235 232.943L164.999 232.942V239.413H168.235V232.943Z" fill="black"/>
<path d="M145.589 174.704H142.353V177.941H145.589V174.704Z" fill="black"/>
<path d="M158.528 216.763H155.295V220H158.528V216.763Z" fill="black"/>
<path d="M148.824 177.941H145.589V181.175H148.824V177.941Z" fill="black"/>
<path d="M148.824 164.999H145.589V168.237H148.824V164.999Z" fill="black"/>
<path d="M135.882 174.704H129.411V177.941H135.882V174.704Z" fill="black"/>
<path d="M155.295 174.704H148.824L148.824 177.941H155.295V174.704Z" fill="black"/>
<path d="M142.353 177.941H135.882V181.175H142.353V177.941Z" fill="black"/>
<path d="M152.06 220H148.824V226.471H152.06V220Z" fill="black"/>
<path d="M135.883 187.646H129.41V190.884H132.649V194.118H135.883V187.646Z" fill="black"/>
<path d="M148.824 210.296H145.589V213.53H148.824V210.296Z" fill="black"/>
<path d="M155.295 213.53H152.06V216.763H155.295V213.53Z" fill="black"/>
<path d="M145.589 220H142.353V223.234H145.589V220Z" fill="black"/>
<path d="M135.883 213.527V220H139.117V216.761H145.59L145.589 213.53L135.883 213.527Z" fill="black"/>
<path d="M177.941 168.237H174.706V171.47H177.941V168.237Z" fill="black"/>
<path d="M197.352 194.117H194.117V197.354H197.352V194.117Z" fill="black"/>
<path d="M229.705 197.354H226.472V200.587H229.705V197.354Z" fill="black"/>
<path d="M194.117 164.999H190.883V168.237H194.117V164.999Z" fill="black"/>
<path d="M190.883 155.295H187.648V158.528H190.883V155.295Z" fill="black"/>
<path d="M194.117 152.057H190.883V155.295H194.117V152.057Z" fill="black"/>
<path d="M200.588 168.237H197.352V171.47H200.588V168.237Z" fill="black"/>
<path d="M190.883 145.586H187.648V148.824H190.883V145.586Z" fill="black"/>
<path d="M194.117 177.941H190.883V181.175H194.117V177.941Z" fill="black"/>
<path d="M207.059 203.825H203.823V207.059H207.059V203.825Z" fill="black"/>
<path d="M200.588 223.234H197.352V226.471H200.588V223.234Z" fill="black"/>
<path d="M207.059 197.354H203.823V200.587H207.059V197.354Z" fill="black"/>
<path d="M213.53 207.059H210.294V210.296H213.53V207.059Z" fill="black"/>
<path d="M203.823 161.766H200.588V164.999H203.823V161.766Z" fill="black"/>
<path d="M203.823 229.705H200.588V232.943H203.823V229.705Z" fill="black"/>
<path d="M220.001 155.295H216.765V158.528H220.001V155.295Z" fill="black"/>
<path d="M223.236 158.528H220.001V161.766H223.236V158.528Z" fill="black"/>
<path d="M216.765 158.528H213.53V161.766H216.765L216.765 158.528Z" fill="black"/>
<path d="M216.765 152.057H213.53V155.295H216.765L216.765 152.057Z" fill="black"/>
<path d="M210.294 210.296H207.059V213.53H210.294L210.294 210.296Z" fill="black"/>
<path d="M229.705 177.941H226.472V181.175H229.705V177.941Z" fill="black"/>
<path d="M226.472 164.999H223.236V168.237H226.472V164.999Z" fill="black"/>
<path d="M229.705 158.528H226.472V161.766H229.705V158.528Z" fill="black"/>
<path d="M194.117 213.53H190.883V216.763H194.117V213.53Z" fill="black"/>
<path d="M194.117 220H190.883V223.234H194.117V220Z" fill="black"/>
<path d="M190.883 194.117H187.648V197.354H190.883V194.117Z" fill="black"/>
<path d="M190.883 174.704H187.648V177.941H190.883V174.704Z" fill="black"/>
<path d="M210.294 223.234H207.059V226.471H210.294V223.234Z" fill="black"/>
<path d="M210.294 229.705H207.059V232.943H210.294V229.705Z" fill="black"/>
<path d="M207.059 220H203.823V223.234H207.059V220Z" fill="black"/>
<path d="M197.352 145.586H194.117V148.824H197.352V145.586Z" fill="black"/>
<path d="M184.412 161.766H181.177V164.999H184.412V161.766Z" fill="black"/>
<path d="M184.412 142.353H181.177V148.824H184.412V142.353Z" fill="black"/>
<path d="M184.412 152.057H181.177V155.295H184.412V152.057Z" fill="black"/>
<path d="M187.648 135.882H184.412V139.12H187.648V135.882Z" fill="black"/>
<path d="M194.117 139.12H187.648L187.648 142.353H194.117V139.12Z" fill="black"/>
<path d="M203.826 135.882V139.121H207.06V132.648H200.587V135.882H203.826Z" fill="black"/>
<path d="M200.587 135.882L194.117 135.882V139.12H200.588L200.587 135.882Z" fill="black"/>
<path d="M174.706 145.586H171.47V148.824H174.706V145.586Z" fill="black"/>
<path d="M184.412 168.237H181.177V171.47H184.412V168.237Z" fill="black"/>
<path d="M210.294 181.175H207.059V184.412H210.294V181.175Z" fill="black"/>
<path d="M174.706 200.588H171.47V203.825H174.706V200.588Z" fill="black"/>
<path d="M203.823 142.353H200.588V145.586H203.823V142.353Z" fill="black"/>
<path d="M184.412 213.53H181.177V216.763H184.412V213.53Z" fill="black"/>
<path d="M184.412 207.059H181.177V210.296H184.412V207.059Z" fill="black"/>
<path d="M177.941 152.057H174.706V155.295H177.941V152.057Z" fill="black"/>
<path d="M216.765 190.883H213.53V194.117H216.765V190.883Z" fill="black"/>
<path d="M220.001 207.059H216.765V210.296H220.001V207.059Z" fill="black"/>
<path d="M210.294 142.353H207.059V145.586H210.294V142.353Z" fill="black"/>
<path d="M216.765 174.704H213.53V177.941H216.765V174.704Z" fill="black"/>
<path d="M213.53 168.237H207.059V171.47H213.53V168.237Z" fill="black"/>
<path d="M210.294 158.528H207.059V161.766H210.294V158.528Z" fill="black"/>
<path d="M220.001 177.941H216.765L216.765 181.175H220.001V177.941Z" fill="black"/>
<path d="M203.826 148.823V152.057H207.06V155.296H210.294V148.823H203.826Z" fill="black"/>
<path d="M213.53 145.586L210.294 145.586L210.294 148.823L213.53 148.824V145.586Z" fill="black"/>
<path d="M203.826 152.057L200.588 152.057V155.295H203.823L203.826 152.057Z" fill="black"/>
<path d="M220.001 168.237H216.765V171.47H220.001V168.237Z" fill="black"/>
<path d="M197.352 242.647H194.117V249.118H197.352V242.647Z" fill="black"/>
<path d="M200.588 148.824H197.352V152.057H200.588L200.588 148.824Z" fill="black"/>
<path d="M200.588 216.763H197.352V220H200.588V216.763Z" fill="black"/>
<path d="M116.471 239.413H110V242.647H116.471V239.413Z" fill="black"/>
<path d="M110.001 148.823H113.235V145.584H116.469V142.355H110.001V148.823Z" fill="black"/>
<path d="M110 236.176H106.765V239.413H110V236.176Z" fill="black"/>
<path d="M97.0585 213.53H93.8228V220H97.0585V213.53Z" fill="black"/>
<path d="M119.707 249.118H116.471V252.351H119.707V249.118Z" fill="black"/>
<path d="M100.294 220H97.0585V223.234H100.294V220Z" fill="black"/>
<path d="M100.294 226.471H97.0585V232.942H100.294V226.471Z" fill="black"/>
<path d="M148.824 262.06H145.589V265.293H148.824V262.06Z" fill="black"/>
<path d="M142.351 265.295V262.061H139.117V258.822H135.883V265.295H142.351Z" fill="black"/>
<path d="M145.589 265.293L142.351 265.295L142.353 268.531H145.589V265.293Z" fill="black"/>
<path d="M122.942 258.822V252.35L119.707 252.351L119.708 255.588H116.469V258.822H122.942Z" fill="black"/>
<path d="M90.5875 213.53H84.1187V216.763H90.5875V213.53Z" fill="black"/>
<path d="M126.176 258.822L122.942 258.822L122.94 262.06H126.176V258.822Z" fill="black"/>
<path d="M129.411 262.06H126.176V265.293H129.411V262.06Z" fill="black"/>
<path d="M119.707 242.647H116.471V245.88H119.707V242.647Z" fill="black"/>
<path d="M93.8228 171.47H90.5875V174.703H93.8228V171.47Z" fill="black"/>
<path d="M93.8215 168.237L93.8228 171.47L97.0603 171.471V164.998H93.8215V161.764H97.0603V158.53H90.5875V155.296H87.3535V161.764H90.5875V168.237H93.8215Z" fill="black"/>
<path d="M77.6477 213.53H74.4119V216.763H77.6477V213.53Z" fill="black"/>
<path d="M100.294 155.295H97.0585L97.0603 158.53L100.294 158.528V155.295Z" fill="black"/>
<path d="M90.5875 174.703L84.1187 174.704V177.941H90.5875V174.703Z" fill="black"/>
<path d="M106.765 145.586H103.53V148.824H106.765V145.586Z" fill="black"/>
<path d="M103.53 148.824H100.294V155.295H103.53L103.53 148.824Z" fill="black"/>
<path d="M197.352 236.176H194.117V239.413H197.352V236.176Z" fill="black"/>
<path d="M80.8807 207.059H84.1195V210.298H90.5875V207.059H87.3535V203.825H84.1195V200.586H80.8807V207.059Z" fill="black"/>
<path d="M90.5875 181.175H84.1187V184.412H90.5875V181.175Z" fill="black"/>
<path d="M77.6467 210.298L77.6477 213.53H84.1187L84.1195 210.298H80.8807V207.059H77.6467V203.825H74.4127V200.586H71.1787V207.059H74.4127V210.298H77.6467Z" fill="black"/>
<path d="M90.5875 200.588H87.3518L87.3535 203.825L90.5875 203.825V200.588Z" fill="black"/>
<path d="M93.8228 197.354H90.5875V200.588L93.8228 200.587V197.354Z" fill="black"/>
<path d="M93.8228 190.883H90.5875V194.117H93.8228V190.883Z" fill="black"/>
<path d="M155.295 262.06H152.06V265.293H155.295V262.06Z" fill="black"/>
<path d="M255.589 242.647H252.353V245.88H255.589V242.647Z" fill="black"/>
<path d="M255.589 236.176H252.353V239.413H255.589V236.176Z" fill="black"/>
<path d="M262.062 229.707V226.473H258.823V232.941H265.291V229.707H262.062Z" fill="black"/>
<path d="M245.882 239.414H239.409V242.648H242.648V245.882H245.882V239.414Z" fill="black"/>
<path d="M239.411 249.118H236.176V252.351H239.411V249.118Z" fill="black"/>
<path d="M245.882 249.118H242.647V252.351H245.882V249.118Z" fill="black"/>
<path d="M249.118 252.351H245.882L245.882 255.589H249.118V252.351Z" fill="black"/>
<path d="M265.293 223.234H262.06L262.062 226.473L265.293 226.471V223.234Z" fill="black"/>
<path d="M265.293 187.646H262.06V190.883H265.293V187.646Z" fill="black"/>
<path d="M265.293 194.117H262.06V197.354H265.293V194.117Z" fill="black"/>
<path d="M239.411 258.822H232.94V262.06H239.411V258.822Z" fill="black"/>
<path d="M381.764 174.704V158.528H378.529V155.295H381.764V152.057H378.529V145.586H375.293V129.411H372.058V126.178H368.823V113.236H365.589V106.765H362.353V100.294H359.118V97.0607H355.883V90.5896H352.647V84.1186H349.412V80.8807H346.176V77.6476H342.941V71.1766H339.705V67.943H336.47V64.7056H333.234V61.4699H330.001V58.2346H326.765V55.001H323.53V51.7636H320.294V48.53H317.059V45.2947H310.588V38.8237H304.117V35.5881H300.881V32.3528H294.413V29.1169H291.177V25.8817H284.706V22.646H281.471V19.4129H271.764V16.1751H265.293V12.9421H255.589V9.70619H245.882V6.47089H232.94V3.2353H213.53V0H168.235V3.2353H164.999V0H161.764V3.2353H155.295V6.47098H152.06V3.2353H148.824V6.47098H135.882V9.70628H126.176V12.9421H119.707V16.1752H110V19.4131H103.53V22.6462H97.0585V25.882H93.8228V29.1169H87.3518V32.3527H80.8829V35.588H77.6477V38.8237H74.4119V42.059H71.1767V45.2947H64.7059V51.7636H58.2347V55.001H54.999V58.2346H51.7659V61.4699H48.5302V64.7056H45.2949V67.943H42.0592V74.4097H38.8239V77.6476H35.5882V84.1186H32.3529V87.3517H29.1171V90.5896H25.8818V97.0606H22.6461V106.765H16.1773V119.707H12.942V126.178H9.70629V135.882H6.47099V148.824H3.2353V161.766H0V164.999H3.2353V168.237H0V220H3.2353V236.176H6.47099V249.118H9.70629V255.589H12.942V268.531H16.1773V275.002H19.4108V278.235H22.6461V287.939H25.8818V291.177H29.1171V297.648H32.3529V300.881H35.5881V304.119H38.8238V310.59H42.0591V313.823H45.2948V320.294H51.7658V323.528H54.999V329.999H61.47V333.236H64.7059V339.707H71.1769V342.941H74.4121V346.178H77.6479V349.412H84.1189V352.649H90.5875V355.883H93.8227V359.116H100.294V362.354H106.765V365.587H116.471V368.824H119.707V372.058H129.411V375.295H139.118V378.529H152.06V381.766H155.295V378.529H158.529V381.766H174.706V385H177.942V381.766H184.412V385H187.648V381.766H190.883V385H194.117V381.766H197.352V385H200.588V381.766H207.059V385H210.294V381.766H229.705V378.529H242.647V375.295H252.354V372.058H262.06V368.824H268.529V365.587H275V362.354H281.471V359.116H287.941V355.883H294.412V352.649H297.648V349.412H304.117V346.178H307.352V342.941H313.823V336.47H320.294V333.236H323.53V329.999H326.765V326.765H330.001V320.294H336.47V313.823H339.705V310.59H342.941V307.352H346.176V304.119H349.412V300.881H352.647V291.177H355.883V287.939H359.118V281.473H362.354V278.235H365.589V268.531H368.823V258.822H372.058V252.351H375.294V239.414H378.529V229.705H381.764V226.471H378.529V223.234H381.764V203.825H385V200.587H381.764V197.354H385V194.116H381.764V187.646H385V184.412H381.764V177.941H385V174.704H381.764ZM12.942 216.763H9.70629V213.53H12.942V216.763ZM281.471 168.237V174.703H278.235V168.237H281.471ZM278.235 148.824V152.057H275V155.295H278.235V158.528H275V155.295H268.529V152.057H275L275 148.824H278.235ZM275 142.353V145.586H271.764V148.824H268.528V145.586H262.06V142.353H268.529L268.528 145.586H271.764L271.764 142.353H275ZM258.824 116.469H262.06V122.94H258.824V116.469ZM258.824 129.411H262.06V132.649H265.293V129.411H268.528V132.649H271.764V135.882H268.528V132.649H265.293L265.293 135.882H262.06L262.06 132.649H258.824L258.824 129.411ZM252.353 116.469V119.707H249.118V116.469H252.353ZM255.589 122.94V129.411H249.118V122.94H255.589ZM245.882 103.527H249.118V110.002H245.882V103.527ZM232.94 90.5896H236.176V93.8227H232.94V90.5896ZM232.94 100.294H236.176V97.0606H239.411V100.294H242.647V103.527H239.411V100.294L236.176 100.294V103.527H232.94V100.294ZM229.705 97.0606V100.294H226.472V97.0607L229.705 97.0606ZM223.236 90.5896H226.472V93.8227H223.236V90.5896ZM223.236 103.527H226.472V106.765H232.94V113.236H229.705V110.002H226.472V106.765H223.236V103.527ZM213.529 90.5896H216.765V93.8227H220V100.294H216.765L216.765 93.8227H213.529L213.529 90.5896ZM203.823 84.1186H207.059V90.5896H203.823V84.1186ZM203.823 97.0606V93.8227H207.059V97.0606H203.823V100.294H200.587V97.0607L203.823 97.0606ZM197.352 77.6476H200.588V80.8807H197.352V77.6476ZM194.117 87.3517V84.1186H197.352V87.3517H200.588V93.8227H197.352V97.0606H194.117V93.8227H197.352V87.3517H194.117V90.5896H190.883V87.3517H194.117ZM187.648 74.4097H190.883V77.6476H187.648V74.4097ZM184.412 84.1186H187.648V87.3517H184.412V84.1186ZM181.177 80.8807V84.1186H177.941V87.3517H181.177V90.5896H177.941V93.8227H174.706V90.5896H177.941V87.3517H174.706V84.1186H177.941V80.8807H181.177ZM171.47 71.1766H174.706V74.4097H177.941V77.6476H174.706V74.4097H171.47V71.1766ZM164.999 77.6476H168.235V80.8807H164.999V77.6476ZM164.999 90.5896V87.3517H168.235V84.1186H171.47V87.3517H168.235V93.8227H161.764V90.5896H164.999ZM158.528 87.3517V84.1186H161.764V87.3517H158.528ZM161.764 77.6476V80.8807H158.528V77.6476H161.764ZM155.295 71.1766H158.528V74.4097H155.295V71.1766ZM152.06 77.6476H155.295V80.8807H152.06V77.6476ZM145.589 87.3517H148.824V84.1186H152.06V87.3517H155.295V93.8227H152.06V87.3517H148.824V90.5896H145.589V87.3517ZM148.824 93.8227V97.0606H142.353V93.8227H148.824ZM139.118 71.1766H142.353V77.6476H139.118V71.1766ZM139.118 84.1186H142.353V90.5896H139.118V84.1186ZM129.411 77.6476H132.647V80.8807H135.882V84.1186H132.647V80.8807H129.411V77.6476ZM129.411 90.5896H135.882V93.8227H139.118V97.0606H135.882V93.8227H129.411L129.411 90.5896ZM129.411 97.0606H132.647V100.294H129.411V97.0606ZM126.176 90.5896V93.8227H122.94V90.5896H126.176ZM119.707 74.4099H122.94V77.6478H119.707V74.4099ZM119.707 84.1188H122.94V87.3519H119.707V84.1188ZM113.236 93.8229V90.5898H116.471V97.0608H110V93.8229H113.236ZM106.765 80.8809H110V84.1188H106.765V80.8809ZM110 100.294V103.527H106.765V100.294L110 100.294ZM103.529 87.3519H106.765V90.5898H103.529V87.3519ZM100.294 106.765V103.527H103.53V106.765H106.765V110.002H103.53V106.765H100.294ZM97.0585 119.707V116.469H100.294V119.707H103.53V126.178H100.294V119.707H97.0585ZM97.0585 93.8227H100.294V97.0606H103.53V100.294H100.294V97.0606L97.0585 97.0607V93.8227ZM93.8228 103.527H97.0585V110.002H93.8228V103.527ZM93.8228 132.649V122.94H97.0585V132.649H93.8228V135.882H90.5875V132.649H87.3517V129.411H90.5875V132.649H93.8228ZM90.5875 113.236V116.469H87.3517V113.236H90.5875ZM87.3517 110.002V106.765H90.5875V110.002H87.3517ZM90.5875 119.707V122.94H87.3517V119.707H90.5875ZM87.3517 77.6476H90.5875V80.8807H87.3517V77.6476ZM84.1186 84.1186H87.3517V87.3517H84.1186V84.1186ZM84.1186 97.0606H87.3517V93.8227H90.5875V97.0606H87.3517V100.294H84.1186V97.0606ZM80.8829 103.527H84.1186V106.765H80.8829V103.527ZM77.6476 110.002H84.1186V113.236H80.8829V116.469H84.1186V119.707H80.8829V116.469H77.6476V110.002ZM84.1186 122.94V129.411H80.8829V122.94H84.1186ZM77.6476 126.178V132.649H80.8829V135.882H77.6476V132.649H74.4119V135.882H71.1766V132.649H74.4119V129.411H71.1766V126.178H77.6476ZM74.4119 116.469V119.707H71.1766V116.469H74.4119ZM67.9409 97.0604H71.1766V100.294H67.9409V97.0604ZM67.9409 106.765H71.1766V110.002H67.9409V106.765ZM71.1766 142.353V145.586H64.7059V142.353H71.1766ZM61.4698 174.703V168.237H64.7059V174.703L61.4698 174.703ZM64.7055 177.941V184.412H61.4698V177.941L64.7055 177.941ZM61.4698 164.999V161.766H58.2345V158.528H54.999V155.295H58.2347L58.2345 158.528H64.7059V164.999L61.4698 164.999ZM54.999 177.941V171.47H58.2347V177.941H54.999ZM58.2347 181.175V187.646H54.999V181.175H58.2347ZM54.999 168.237V164.999H58.2347V168.237H54.999ZM58.2347 148.824V152.057H54.999V148.824H58.2347ZM54.999 142.353V139.12H58.2347V142.353H54.999ZM61.47 139.12V135.882H58.2347V132.649H61.47V135.882H64.7059V139.12H61.47ZM61.47 129.411V126.178H64.7059V129.411H61.47ZM64.7057 116.469V119.707H61.47V122.94H58.2347V119.707H61.47V116.469H64.7057ZM58.2347 103.527H61.47V106.765H58.2347V103.527ZM54.999 113.236H58.2347V116.469H54.999V113.236ZM51.7659 126.178H54.999V129.411H51.7659V126.178ZM51.7659 135.882V139.12H45.2948V135.882H51.7659ZM54.999 203.825V207.059H51.7659V203.825H48.5302V207.059H45.2949V203.825H42.0592V207.059H38.8239V203.825H42.0592V200.588H45.2949V203.825H48.5302V200.588H51.7659V203.825H54.999ZM58.2347 213.53V207.059H64.7059V213.53H58.2347ZM64.7057 216.763V220H61.47V216.763H64.7057ZM61.47 226.471V223.234H67.941V220H71.1767V223.234H67.941V226.471L61.47 226.471L61.47 229.705H64.7059V232.942H61.4702L61.47 229.705H58.2349V232.942H54.999V229.705H51.7659V226.471H54.999V229.705H58.2349L58.2347 226.471L61.47 226.471ZM80.883 229.705V232.943H74.4119V229.705H71.1767V232.943H67.941V229.705H71.1767V226.471H74.4119V229.705H80.883ZM97.0586 265.293V262.06H100.294V265.293H103.53V268.531H100.294V271.764H103.53V275.002H100.294V271.764H93.8228V275.002H90.5875V271.764H93.8228L93.8227 268.531H100.294L100.294 265.293H97.0586ZM106.765 284.706V287.939H103.53V284.706H106.765ZM97.0586 278.235V281.473H93.8228V278.235H97.0586ZM93.8228 265.293H90.5875V262.06H93.8227L93.8228 265.293ZM80.883 252.351V249.118H93.8228V252.351H80.883ZM87.3518 258.822V262.06H84.1187V258.822H87.3518ZM77.6477 265.293V258.822H80.8829V265.293H84.1187V268.531H80.8829V265.293H77.6477ZM71.1767 258.822V255.589H67.941V252.351H71.1767V255.589H74.4119V252.351H77.6477V255.589H74.4119V258.822H71.1767ZM74.4119 262.06V265.293H71.1767V262.06H74.4119ZM64.7059 242.647V239.414H67.9412V242.647H71.1769V236.176H77.6479V239.414H74.4121V242.647H71.1769V245.88H67.9412V249.118H64.7059V245.88H67.9412V242.647L64.7059 242.647ZM84.1189 245.88H77.6477V242.647H80.8829V236.176H84.1187L84.1189 245.88ZM58.2349 255.589V252.351H61.4702V255.589H64.7059V258.822H61.4702V255.589H58.2349ZM58.2349 245.88V242.647H61.4702V245.88H58.2349ZM58.2349 223.234H54.999V220H51.7659V216.763H54.999V220H58.2347L58.2349 223.234ZM51.766 213.53V210.296H54.999V213.53H51.766ZM45.2948 223.234V220H48.5301V223.234H45.2948ZM48.5301 249.118V252.351H45.2948V249.118H48.5301ZM45.2948 213.53V210.296H48.5301V213.53H45.2948ZM48.5301 242.647H51.7658V245.88H48.5301V242.647ZM48.5301 236.176V232.943H51.7658V236.176H48.5301ZM38.8238 223.234H42.0591V226.471H38.8238V223.234ZM35.5881 213.529V210.296H38.8238V213.529H35.5881ZM38.8238 220V216.763H42.0591V220L38.8238 220ZM42.0591 168.237H38.8238V164.999H42.0591V168.237ZM45.2948 177.941V181.174H42.0591V177.941H45.2948ZM42.0591 184.412V187.646H38.8238V184.412L42.0591 184.412ZM42.0591 190.883V194.116H45.2948V197.354H42.0591V194.116H38.8238V190.883L42.0591 190.883ZM45.2948 187.645V184.412H48.5301V181.174H51.7658V187.646L45.2948 187.645ZM48.5301 177.941V174.703H51.7658V177.941H48.5301ZM48.5301 168.237V171.47H45.2948V168.237H48.5301V164.999H51.7658V168.237H48.5301ZM48.5301 161.766V158.528H51.7658V161.766H48.5301ZM48.5301 152.057V148.824H45.2948V145.586H48.5301V148.824H51.7658V152.057H48.5301ZM42.0591 119.707H45.2948V122.94H42.0591V119.707ZM45.2948 155.295V161.766H42.0591V158.528H38.8238V155.295L45.2948 155.295ZM35.588 126.178H38.8237V129.411H35.588V126.178ZM35.588 145.586H38.8237V148.824H35.588V145.586ZM32.3528 164.999H35.588V168.237H32.3529L32.3528 164.999ZM32.3528 177.941H35.588V174.704H38.8237V177.941H35.588V181.175H32.3529L32.3528 177.941ZM32.3528 200.588V203.825H29.117V200.588H32.3528ZM29.117 197.354V194.117H32.3528V197.354H29.117ZM35.588 226.471V229.705H32.3529V226.471H35.588ZM32.3529 187.646V190.883H29.1171V187.646H32.3529ZM29.1171 171.47V174.704H25.8818V171.47H29.1171ZM22.6461 142.353H25.8818V145.586H22.6461V142.353ZM22.6461 152.057H25.8818V155.295H22.6461V152.057ZM22.6461 177.941H25.8818V181.175H22.6461V177.941ZM25.8818 203.825V207.059H22.6461V203.825H25.8818ZM16.1773 171.47H19.4108V174.704H16.1773V171.47ZM19.4108 223.234H16.1773V220H19.4108V223.234ZM19.4108 194.116V190.883H22.6461V194.117L19.4108 194.116ZM22.6461 220V216.763H25.8818V220L22.6461 220ZM29.1171 232.942H25.8818V229.705H29.1171V232.942ZM29.1171 210.296V207.058H32.3529V210.296H29.1171ZM35.5881 252.351H32.3529V249.118H35.5881V252.351ZM42.0591 245.88H38.8238V242.647H35.5881V239.414H38.8238V242.647L42.0591 242.647V245.88ZM42.0591 239.413V232.943H45.2948V239.414L42.0591 239.413ZM45.2948 258.822V255.589H51.7658V258.822L45.2948 258.822ZM54.999 278.235H51.7659V275.002H54.999V278.235ZM54.999 239.413V236.176H58.2347V239.414L54.999 239.413ZM58.2347 265.293V262.06H61.47V265.293H58.2347ZM64.7057 268.531V271.764H61.47V268.531H64.7057L64.7059 265.293H67.9412V268.531H64.7057ZM71.1767 291.177H67.941V287.939H71.1767V291.177ZM71.1767 278.235V275.002H74.412V278.235H71.1767ZM77.6477 287.939H74.412V284.706H77.6477V287.939ZM80.883 281.473H77.6477V278.235H80.883V281.473ZM77.6477 275.002V271.764H84.1187V275.002H77.6477ZM87.3518 297.648H84.1187V294.41H87.3518V297.648ZM87.3518 284.706V281.473H90.5875V284.706H87.3518ZM93.8228 297.648H90.5875V294.41H93.8227L93.8228 297.648ZM93.8228 287.939V291.177H90.5875V287.939H93.8228L93.8227 284.706H97.0585V287.939H93.8228ZM100.294 310.59H97.0586V307.352H100.294V310.59ZM100.294 281.473V278.235H103.53V281.473H100.294ZM106.765 294.41V297.648H103.53V294.41H106.765V291.177H110V294.41H106.765ZM110 278.235V281.473H106.765V278.235H110ZM106.765 275.002V271.764H113.236V275.002H106.765ZM113.236 304.119H110V300.881H113.236V304.119ZM113.236 284.706V287.939H110V284.706H113.236V281.473H116.471V284.706H113.236ZM122.94 287.939V284.706H126.176V287.939H122.94V291.177H116.471V287.939H122.94ZM116.471 297.648V294.41H122.94V297.648H116.471ZM119.707 304.119V300.881H122.94V304.119H119.707ZM126.176 310.59H122.94V307.352H126.176V310.59ZM129.411 304.119H126.176V300.881H129.411V304.119ZM129.411 294.41H126.176V291.177H129.411V294.41ZM129.411 284.706V281.473H132.647V278.235H139.118V287.939H135.882V281.473H132.647V284.706H129.411ZM135.882 291.177V294.41H132.647V291.177H135.882ZM135.882 310.59H132.647V307.352H135.882V310.59ZM139.118 304.119H135.882V300.881H132.647V297.648H135.882V300.881H139.118V304.119ZM148.824 320.294H145.589V317.057H148.824V320.294ZM148.824 310.59H145.589V307.352H148.824V310.59ZM148.824 291.177H145.589V297.648H148.824V300.881H145.589V304.119H142.353V300.881H145.589V297.648H142.353V294.41H139.118V291.177H145.589V287.939H142.353V284.706H145.589V287.939H148.824V291.177ZM155.295 317.057H152.06V313.823H155.295V317.057ZM158.529 310.59H155.295V307.352H152.06V304.119H155.295V307.352H158.528L158.529 310.59ZM152.06 300.881V297.648H155.295V300.881H152.06ZM158.529 300.881V297.648H161.764V300.881H158.529ZM165 307.352H161.764V304.119H165V307.352ZM165 300.881V297.648H168.235V300.881H165ZM171.471 313.823H168.235V310.59H171.47L171.471 313.823ZM177.941 310.59H174.706V307.352H177.941V310.59ZM177.941 300.881H171.47V297.648H177.941L177.941 300.881ZM184.413 304.119H181.177V297.648H184.413V304.119ZM190.883 310.59H187.648V307.352H190.883V310.59ZM194.117 297.648H190.883V300.881H194.117V304.119H190.883V300.881H187.648V297.648H190.883V291.177H194.117V297.648ZM197.352 297.648V294.41H200.588V297.648H197.352ZM203.823 310.59H200.588V304.119H203.823V310.59ZM210.294 297.648H207.059V294.41H210.294V297.648ZM216.765 300.881H213.53V297.648H216.765V300.881ZM223.236 297.648H220V294.41H223.236L223.236 297.648ZM223.236 291.177H220V287.939H216.765V291.177H213.529V287.939H216.765V284.706H220V287.939H223.236L223.236 291.177ZM223.236 284.706V281.473H220V278.235H226.471V284.706H223.236ZM229.705 291.177H226.472V287.939H229.705V291.177ZM242.647 281.473H239.411V284.706H236.176V287.939H232.94V284.706H236.176V281.473H239.411V278.235H242.647V281.473ZM232.94 278.235V275.002H236.176V278.235H232.94ZM252.353 278.235H245.882V275.002H252.353L252.353 278.235ZM258.824 265.293H255.589V268.531H252.353V262.06H258.824L258.824 265.293ZM258.824 258.822H255.589V255.589H258.825L258.824 258.822ZM268.529 255.589H265.293V258.822H262.06V255.589L265.293 255.589V252.351H268.529L268.529 255.589ZM271.764 249.118H262.06V252.351H258.824V249.118H262.06V245.88H271.764L271.764 249.118ZM265.293 242.647V239.414H268.529V242.647L265.293 242.647ZM278.235 239.413H271.764V236.176H278.235V239.413ZM284.706 216.763H278.235V213.53H284.706V216.763ZM284.706 207.059H281.471V203.825H278.235V200.588H284.706L284.706 207.059ZM284.706 194.117H281.471V187.646H284.706L284.706 194.117ZM284.706 181.175H281.471V184.412H278.235V197.354H275V187.646H271.764V190.883H265.293V194.117H271.764V200.588H275V207.059H278.235V210.296H275V207.059H271.764V213.53H275V220H278.235V223.234H275V220L271.764 220V226.471H275V232.942H271.764V226.471L265.293 226.471L265.291 229.707L268.529 229.705V232.943L265.291 232.941L265.293 236.176H262.06V239.414L255.589 239.413V242.647L258.825 242.647V245.88L255.589 245.88L255.589 249.118H252.353V245.88L245.882 245.882L245.882 249.118L249.118 249.118V252.351L252.353 252.351V258.822H245.882V255.589L242.647 255.589V252.351H239.411L239.411 258.822L242.647 258.822V262.06H245.882V271.764H242.647V275.002H239.411V271.764H242.647V262.06L239.411 262.06V265.293H232.94V262.06H226.472V265.293H229.705V268.531H236.176V271.764H229.705V275.002H226.472V271.764H220V275.002H216.765V278.235H213.529V284.706H210.294V278.235H213.529V275.002H216.765V271.764H210.294V275.002H207.059V278.235H200.588V281.473H197.352V278.235H200.588V275.002H194.117V278.235H190.883V281.473H194.117V284.706H200.588V287.939H203.823V281.473H207.059V287.939H210.294V291.177H207.059V287.939H203.823V291.177H200.588V287.939H194.117V284.706H187.648V278.235H184.412V275.002H181.177V284.706H184.412V287.939H187.648V294.41H184.412V287.939H181.177V291.177H177.941V294.41H174.706V291.177H177.941V287.939H181.177V284.706H177.941V278.235H174.706V281.473H171.47V284.706H174.706V287.939H171.47V291.177H164.999V294.41H158.528V291.177H155.295V287.939H152.06V284.706H148.824V281.473H152.06V278.235H155.295V271.764H158.528V268.531H161.764V265.293H155.295V268.531H152.06V265.293H148.824L148.824 271.764H152.06V275.002H148.824V278.235H145.589V281.473H142.353V278.235H145.589V275.002H148.824V271.764H142.353V275.002H135.882V271.764H142.353V268.531H135.882L135.883 265.295L129.411 265.293V268.531H132.647V271.764H129.411V278.235H126.176V281.473H122.94V278.235H126.176V271.764H129.411V268.531H126.176V265.293H122.94V262.06H116.471L116.469 258.822H113.236V255.589L116.469 255.588L116.471 252.351L110 252.351V258.822H106.765V262.06H113.236V265.293H119.707V268.531H122.94V275.002H119.707V278.235H116.471V271.764H119.707V268.531L113.236 268.531V265.293L106.765 265.293V262.06L103.53 262.06V258.822H106.765V252.351H103.53V255.589H97.0585V258.822H90.5875V255.589L97.0585 255.589L97.0585 252.351L103.53 252.351L103.529 245.88H100.294V249.118H97.0585V242.647H103.53L103.529 245.88H106.765V252.351L110 252.351V249.118H116.471V245.88H110V242.647H106.765V239.413L97.0585 239.414V232.942L93.8228 232.943V226.471H97.0585V223.234L93.8228 223.234V220L84.1187 220V223.234H90.5875V226.471H87.3517V232.942H90.5875V236.176H93.8227V245.88H90.5875V236.176L87.3517 236.176V232.942L84.1186 232.943L84.1187 223.234H80.8829V226.471H77.6476V223.234H80.8829V220H84.1187V216.763H77.6477V220H74.4119V216.763H67.941V213.53H74.4119L74.4127 210.298L71.1767 210.296L71.1787 207.059L67.941 207.059V203.825H64.7059V200.588L71.1787 200.586L71.1769 197.354H74.4121V194.117H77.6479V187.646H67.941V190.883H71.1768V194.117H64.7059V197.354H61.4702V200.588H58.2349V197.354H61.4702V194.117H54.999V197.354H51.7659V194.117H54.999V190.883H61.47L61.4702 194.117H64.7059V187.646H67.941L67.9412 184.412H77.648L77.6479 187.646H80.8832V194.117H77.6479L77.648 197.354H74.4121L74.4127 200.586H80.8807L80.8832 197.354H84.1189L84.1195 200.586L87.3518 200.588L87.3521 197.354H90.5875V194.117H84.1187V184.412H80.8829V181.175H84.1187V177.941H77.6477V181.175H74.4119V177.941H71.1767V181.175H67.941V174.704H74.4119V171.47H77.6477V174.704H84.1187V171.47H80.8829V168.237H77.6477V161.766H74.4119V155.295H71.1767V152.057H67.941V155.295H64.7059V148.824H71.1769L71.1767 152.057H74.4121L74.4119 155.295H77.6479L77.6477 161.766H80.8831L80.8829 168.237H84.1189L84.1187 171.47H90.5875L90.5875 168.237H87.3517L87.3535 161.764L84.1186 161.766V155.295H80.8829V152.057H77.6476V148.824H80.8829V145.586H74.4119V142.353H80.8829L80.8829 145.586H84.1187V148.824H80.8829V152.057H84.1187L84.1186 155.295L87.3535 155.296L87.3518 148.824H93.8228V152.057H90.5875V155.296L97.0585 155.295L97.0585 148.824H100.294L100.294 145.586H103.53L103.529 135.882H100.294V142.353H97.0585V145.586H90.5875V142.353H84.1187V135.882H87.3518V139.12H90.5875V142.353H97.0585L97.0585 135.882H100.294L100.294 129.411H103.529V135.882H106.765V142.353L110.001 142.355L110 139.12H113.236V135.882H110V129.411H106.765V126.178H110V119.707H113.236V116.469H116.471V122.94H113.236V126.178H110V129.411H116.471V126.178H119.707V122.94H122.94V116.469H119.707V106.765H116.471V110.002H113.236V113.236H110V116.469H103.53V113.236H110L110 110.002H113.236L113.236 106.765H116.471L116.471 103.527H119.707L119.707 106.765H122.94L122.94 116.469H126.176V113.236H129.411V110.002H126.176V103.527H122.94V97.0606H126.176V103.527H129.411V110.002H132.647V113.236H135.882V116.469H139.118V110.002H135.882V106.765H132.647V103.527H135.882V106.765H139.118V110.002H142.353V103.527H139.118V100.294H142.353V103.527L145.589 103.527V110.002L142.353 110.002V116.469H145.589V113.236H148.824V110.002H152.06V106.765H148.824V100.294H152.06V106.765H155.295V110.002H158.528V103.527H155.295V97.0606H161.764V100.294H158.528V103.527L168.235 103.527V97.0606H174.706V100.294H171.47V103.527H177.941V100.294H181.177V103.527H187.648V93.8227H184.412V97.0606H181.177V93.8227H184.412V90.5896H187.648V93.8227H190.883V103.527H194.117V100.294H197.352V103.527L194.117 103.527V110.002H197.352V106.765H200.588V103.527H207.059V100.294H210.294V97.0607H213.53V100.294H210.294V103.527L207.059 103.527V106.765H210.294V110.002H213.53V103.527H220V110.002H223.236V113.236H226.471V116.469H229.705V119.707H226.471V122.94H236.176V119.707H232.94V116.469H236.176V119.707H239.411V122.94H242.647V116.469H239.411V113.236H236.176V110.002H239.411V113.236H242.647V116.469H245.882V122.94H242.647V129.411H245.882V132.649H249.118V135.882H258.824V142.353H255.589V145.586H258.825V148.824H265.293V152.057H258.824V155.295H265.293V158.528H271.764V161.766H262.06V164.999H265.293V168.237H268.529V164.999H275V161.766H278.235V164.999L275 164.999V168.237H268.529V171.47H271.764V174.703H275V181.174H268.529V184.412H265.293V187.646H271.764L271.764 184.412H278.235L278.235 181.175H281.471V177.941H284.706L284.706 181.175ZM74.4119 164.999V168.237H67.941V164.999L74.4119 164.999ZM67.941 161.766V158.528H71.1767V161.766H67.941ZM287.942 171.47H284.706V168.237H287.942V171.47Z" fill="black"/>
<path d="M265.291 213.527V216.761H268.53V220L271.764 220V213.53L265.291 213.527Z" fill="black"/>
<path d="M271.764 200.588H268.529V207.059H271.764V200.588Z" fill="black"/>
<path d="M229.705 268.531H226.472V271.764H229.705V268.531Z" fill="black"/>
<path d="M174.705 271.763H171.471V275.002H168.232V278.236H164.998V284.704H158.53V281.475H161.764V278.236L155.295 278.235L155.296 281.475L152.06 281.473V284.706L155.296 284.704L155.295 287.939L158.53 287.938L158.528 291.177H164.999L164.998 287.938L171.47 287.939V284.706L168.232 284.704V281.475L171.47 281.473L171.471 278.236L174.706 278.235L174.705 271.763Z" fill="black"/>
<path d="M181.177 271.764H177.941V275.002H181.177V271.764Z" fill="black"/>
<path d="M190.883 275.002H187.648V278.235H190.883V275.002Z" fill="black"/>
<path d="M187.648 271.764H184.412V275.002H187.648L187.648 271.764Z" fill="black"/>
<path d="M161.764 271.764H158.528V275.002H161.764V271.764Z" fill="black"/>
<path d="M164.999 268.531H161.764L161.764 271.764H164.999V268.531Z" fill="black"/>
<path d="M194.117 271.764H190.883V275.002H194.117V271.764Z" fill="black"/>
<path d="M164.998 265.295L164.999 268.531L168.232 268.529V262.061H161.764L161.764 265.293L164.998 265.295Z" fill="black"/>
<path d="M220 265.295H213.528V268.529H216.766L216.765 271.764H220V265.295Z" fill="black"/>
<path d="M226.472 265.293H223.236V268.531H226.472V265.293Z" fill="black"/>
<path d="M207.06 271.763H203.826V265.295H200.587L200.588 275.002H207.059L207.06 271.763Z" fill="black"/>
<path d="M226.472 258.822H223.236V262.06H226.472L226.472 258.822Z" fill="black"/>
<path d="M210.294 265.293H207.059L207.06 271.763L210.294 271.764L210.294 265.293Z" fill="black"/>
<path d="M77.6477 174.704H74.4119V177.941H77.6477V174.704Z" fill="black"/>
<path d="M242.647 187.646H239.411V190.883H242.647V187.646Z" fill="black"/>
<path d="M249.118 207.059H239.411V210.296H249.118V207.059Z" fill="black"/>
<path d="M239.411 190.883H236.176V194.117H239.411L239.411 190.883Z" fill="black"/>
<path d="M236.176 194.117H232.94V197.354H236.176V194.117Z" fill="black"/>
<path d="M236.176 200.588H232.94V203.825H236.176V200.588Z" fill="black"/>
<path d="M232.94 210.296H229.705V216.763H232.94V210.296Z" fill="black"/>
<path d="M236.176 207.059H232.94V210.296H236.176V207.059Z" fill="black"/>
<path d="M265.291 181.173L258.824 181.175L258.823 184.412L252.353 184.412L252.355 187.646H262.06L262.062 184.412L265.293 184.412L265.291 181.173Z" fill="black"/>
<path d="M268.529 177.941H265.293L265.291 181.173L268.529 181.174L268.529 177.941Z" fill="black"/>
<path d="M242.647 174.704H239.411V177.941H242.647V174.704Z" fill="black"/>
<path d="M229.705 207.059H226.472V210.296H229.705V207.059Z" fill="black"/>
<path d="M271.764 174.703L268.529 174.704L268.529 177.941H271.764V174.703Z" fill="black"/>
<path d="M245.882 177.941H242.647V181.175H245.882V177.941Z" fill="black"/>
<path d="M249.116 177.944V174.705H252.355V171.471H245.882L245.882 177.941L249.116 177.944Z" fill="black"/>
<path d="M216.765 229.705H213.53V232.943H216.765V229.705Z" fill="black"/>
<path d="M213.53 236.176H207.059V239.413H213.53V236.176Z" fill="black"/>
<path d="M268.529 171.47L265.293 171.47V174.704H268.529V171.47Z" fill="black"/>
<path d="M210.294 242.647H203.823V245.88H210.294V242.647Z" fill="black"/>
<path d="M203.823 245.88H200.588V249.118H203.823V245.88Z" fill="black"/>
<path d="M200.588 239.413H197.352V242.647H200.588V239.413Z" fill="black"/>
<path d="M220.001 223.234H213.53V226.471H220.001V223.234Z" fill="black"/>
<path d="M223.236 187.646H220.001V190.883H223.236V187.646Z" fill="black"/>
<path d="M229.705 216.763H226.472V220H229.705V216.763Z" fill="black"/>
<path d="M220.001 216.763H216.765V220H220.001V216.763Z" fill="black"/>
<path d="M226.472 171.47H223.236V174.703H226.472V171.47Z" fill="black"/>
<path d="M223.236 194.117H220.001V197.354H223.236V194.117Z" fill="black"/>
<path d="M223.236 200.588H220.001V203.825H223.236V200.588Z" fill="black"/>
<path d="M223.236 213.53H220.001V216.763H223.236V213.53Z" fill="black"/>
<path d="M181.177 103.527H177.941V106.765H181.177V103.527Z" fill="black"/>
<path d="M168.232 106.767H161.764V110.001H164.998V113.235H168.232V110.001H171.471L171.47 103.527H168.235L168.232 106.767Z" fill="black"/>
<path d="M161.764 110.001L158.528 110.002V113.236H161.764L161.764 110.001Z" fill="black"/>
<path d="M116.471 132.649H113.236L113.236 135.882H116.471V132.649Z" fill="black"/>
<path d="M187.646 110.001V113.235H190.885V116.469H194.119L194.117 110.002L187.646 110.001Z" fill="black"/>
<path d="M200.588 110.002L197.352 110.002V113.236H200.588V110.002Z" fill="black"/>
<path d="M155.295 110.002L152.06 110.002V113.236H155.295V110.002Z" fill="black"/>
<path d="M190.883 103.527L187.648 103.527V106.765H190.883V103.527Z" fill="black"/>
<path d="M119.707 129.411H116.471L116.471 132.649H119.707V129.411Z" fill="black"/>
<path d="M119.707 129.411L122.942 129.409V132.648H129.41V129.409H126.176V122.941L122.94 122.94L122.942 126.175L119.707 126.178L119.707 129.411Z" fill="black"/>
<path d="M200.588 110.002L203.826 110.001V113.235H207.06V116.469H213.528V113.235H210.294L210.294 110.002L207.06 110.001L207.059 106.765L200.588 106.765L200.588 110.002Z" fill="black"/>
<path d="M152.06 113.236L148.824 113.236V116.469H152.06V113.236Z" fill="black"/>
<path d="M126.176 122.941H129.41V119.707H132.649V122.941H139.117V119.707H135.883L135.882 116.469L132.649 116.469L132.647 113.236H129.411L129.41 116.469L126.176 116.469L126.176 122.941Z" fill="black"/>
<path d="M148.824 116.469L145.589 116.469V119.707H148.824L148.824 116.469Z" fill="black"/>
<path d="M142.353 116.469L139.118 116.469L139.117 119.707L142.353 119.707L142.353 116.469Z" fill="black"/>
<path d="M258.824 155.295H255.589V158.528H258.824V155.295Z" fill="black"/>
<path d="M258.825 148.824H255.589L255.589 152.057H258.824L258.825 148.824Z" fill="black"/>
<path d="M265.293 168.237L262.06 168.237V171.47H265.293V168.237Z" fill="black"/>
<path d="M255.589 139.12H252.353V142.353H255.589L255.589 139.12Z" fill="black"/>
<path d="M213.528 113.235H216.766V116.469H213.528L213.53 119.707H220.001L220 116.469H223.234L223.236 113.236L220 113.235V110.002L213.53 110.002L213.528 113.235Z" fill="black"/>
<path d="M262.06 164.999H258.824V168.237H262.06V164.999Z" fill="black"/>
<path d="M262.06 158.528H258.824V161.766H262.06V158.528Z" fill="black"/>
<path d="M255.589 145.586L252.353 145.586V148.824H255.589L255.589 145.586Z" fill="black"/>
<path d="M249.118 135.882H245.882L245.882 142.353H249.118L249.118 135.882Z" fill="black"/>
<path d="M239.411 122.94H236.176L236.176 129.411H239.411L239.411 122.94Z" fill="black"/>
<path d="M226.471 116.469L223.234 116.469L223.236 119.707H226.471V116.469Z" fill="black"/>
<path d="M226.471 122.94H223.236L223.234 129.409L226.472 129.411L226.471 122.94Z" fill="black"/>
<path d="M132.647 229.705H129.411V232.943H132.647V229.705Z" fill="black"/>
<path d="M242.647 129.411H239.411V132.649H242.647L242.647 129.411Z" fill="black"/>
<path d="M245.882 132.649H242.647V135.882H245.882L245.882 132.649Z" fill="black"/>
<path d="M148.824 122.94H145.589V129.411H148.824V122.94Z" fill="black"/>
<path d="M155.295 122.94H152.06V126.178H155.295V122.94Z" fill="black"/>
<path d="M145.589 129.411H142.353V135.882H145.589V129.411Z" fill="black"/>
<path d="M158.528 119.707H155.295V122.94H158.528V119.707Z" fill="black"/>
<path d="M168.235 116.469H164.999V119.707H168.235V116.469Z" fill="black"/>
<path d="M161.764 116.469H158.528V119.707L161.764 119.707V116.469Z" fill="black"/>
<path d="M148.824 135.882H145.589V139.12H148.824V135.882Z" fill="black"/>
<path d="M181.177 116.469H177.941V119.707H181.177V116.469Z" fill="black"/>
<path d="M174.706 116.469H171.47V119.707H174.706V116.469Z" fill="black"/>
<path d="M164.999 119.707H161.764L161.764 122.94H164.999V119.707Z" fill="black"/>
<path d="M113.236 155.295H110V158.528H113.236V155.295Z" fill="black"/>
<path d="M164.999 122.94L164.998 129.409H161.764V132.648H168.232V122.941L164.999 122.94Z" fill="black"/>
<path d="M155.296 132.648V139.121L158.528 139.12L158.53 135.882H161.764V132.648H155.296Z" fill="black"/>
<path d="M155.296 129.409L148.824 129.411V135.882L152.058 135.882V132.648H155.296V129.409Z" fill="black"/>
<path d="M232.94 184.412H226.472V187.646H232.94V184.412Z" fill="black"/>
<path d="M122.942 142.355H126.176V139.121H129.41V135.882H122.942V142.355Z" fill="black"/>
<path d="M119.707 155.295H116.471V158.528H119.707V155.295Z" fill="black"/>
<path d="M135.882 135.882H132.647V139.12H135.882V135.882Z" fill="black"/>
<path d="M122.942 142.355L119.707 142.353V145.586H122.94L122.942 142.355Z" fill="black"/>
<path d="M132.647 139.12L129.41 139.121L129.411 142.353H132.647L132.647 139.12Z" fill="black"/>
<path d="M161.764 122.94H158.528V129.411L161.764 129.409L161.764 122.94Z" fill="black"/>
<path d="M129.411 142.353L126.176 142.355L126.176 145.586H129.411V142.353Z" fill="black"/>
<path d="M126.176 145.586H122.94V148.824H126.176V145.586Z" fill="black"/>
<path d="M142.351 142.355V148.823H145.59V145.584H148.824V142.355H142.351Z" fill="black"/>
<path d="M129.41 148.823V152.057H122.942L122.94 148.824L119.708 148.823L119.707 155.295L132.649 155.296V148.823H129.41Z" fill="black"/>
<path d="M139.118 129.411H135.882V132.649H139.118V129.411Z" fill="black"/>
<path d="M152.06 139.12H148.824L148.824 142.355L152.06 142.353V139.12Z" fill="black"/>
<path d="M142.353 139.12H135.882V142.353L142.351 142.355L142.353 139.12Z" fill="black"/>
<path d="M135.882 142.353H132.647L132.649 148.823L135.882 148.824V142.353Z" fill="black"/>
<path d="M171.47 119.707H168.235L168.232 122.941H171.471L171.47 119.707Z" fill="black"/>
<path d="M164.998 113.235L161.764 113.236V116.469H164.999L164.998 113.235Z" fill="black"/>
<path d="M145.589 119.707H142.353L142.353 122.94H145.589V119.707Z" fill="black"/>
<path d="M135.882 129.411L135.883 126.175H132.649V122.941H129.41V129.409L135.882 129.411Z" fill="black"/>
<path d="M152.06 119.707L148.824 119.707V122.94H152.06V119.707Z" fill="black"/>
<path d="M132.647 132.649L129.41 132.648V135.882L132.647 135.882L132.647 132.649Z" fill="black"/>
<path d="M158.528 113.236H155.295V116.469H158.528V113.236Z" fill="black"/>
<path d="M155.295 116.469H152.06V119.707H155.295V116.469Z" fill="black"/>
<path d="M142.353 122.94L139.117 122.941L139.118 129.411H142.353V122.94Z" fill="black"/>
<path d="M110.001 148.823L106.765 148.824V155.295H110L110.001 148.823Z" fill="black"/>
<path d="M106.765 155.295H103.53L103.53 158.528H106.765V155.295Z" fill="black"/>
<path d="M116.471 148.824L113.235 148.823L113.236 155.295H116.471V148.824Z" fill="black"/>
<path d="M119.707 135.882H116.471L116.469 142.355L119.707 142.353L119.707 135.882Z" fill="black"/>
<path d="M122.942 132.648L119.707 132.649V135.882L122.942 135.882V132.648Z" fill="black"/>
<path d="M119.707 145.586L116.469 145.584L116.471 148.824L119.708 148.823L119.707 145.586Z" fill="black"/>
<path d="M194.117 122.94H187.648V126.178H194.117V122.94Z" fill="black"/>
<path d="M194.117 129.411H187.648V132.649H194.117V129.411Z" fill="black"/>
<path d="M197.353 122.941V126.175L194.117 126.178V129.411L200.587 129.409V122.941H197.353Z" fill="black"/>
<path d="M203.823 119.707H200.588L200.587 122.941L203.823 122.94V119.707Z" fill="black"/>
<path d="M207.06 116.469L203.823 116.469V119.707L207.059 119.707L207.06 116.469Z" fill="black"/>
<path d="M187.648 126.178L184.412 126.175V122.941H181.178V129.409L187.648 129.411V126.178Z" fill="black"/>
<path d="M187.648 119.707H184.412L184.412 122.941L187.648 122.94L187.648 119.707Z" fill="black"/>
<path d="M174.706 110.002L171.471 110.001L171.47 113.236H174.706V110.002Z" fill="black"/>
<path d="M177.941 106.765H174.706V110.002H177.941L177.941 106.765Z" fill="black"/>
<path d="M181.178 110.001L177.941 110.002L177.939 113.235H181.178L181.177 116.469L187.646 116.469V113.235H184.412V110.001H187.646L187.648 106.765H181.177L181.178 110.001Z" fill="black"/>
<path d="M171.47 113.236L168.232 113.235L168.235 116.469H171.47V113.236Z" fill="black"/>
<path d="M203.826 113.235L200.588 113.236L200.588 116.469H203.823L203.826 113.235Z" fill="black"/>
<path d="M190.885 116.469H187.646L187.648 119.707L190.883 119.707L190.885 116.469Z" fill="black"/>
<path d="M194.117 122.94L197.353 122.941V119.707L200.588 119.707V116.469L194.119 116.469L194.117 122.94Z" fill="black"/>
<path d="M116.471 223.234H113.236V226.471H116.471V223.234Z" fill="black"/>
<path d="M97.0603 207.059H103.528V200.586H100.294V203.825H97.0603V207.059Z" fill="black"/>
<path d="M100.294 197.354H97.0585V200.587L100.294 200.586L100.294 197.354Z" fill="black"/>
<path d="M116.471 229.705H113.236V232.943H116.471V229.705Z" fill="black"/>
<path d="M97.0603 207.059L93.8228 207.059V210.296H97.0585L97.0603 207.059Z" fill="black"/>
<path d="M97.0585 181.175H93.8228V184.412H97.0585V181.175Z" fill="black"/>
<path d="M100.294 190.883H97.0585V194.117H100.294V190.883Z" fill="black"/>
<path d="M100.294 184.412H97.0585V187.646H100.294V184.412Z" fill="black"/>
<path d="M100.294 177.941H97.0585V181.175H100.294V177.941Z" fill="black"/>
<path d="M139.118 252.351H135.882V255.589H139.118V252.351Z" fill="black"/>
<path d="M145.589 252.351H142.353V255.589H145.589V252.351Z" fill="black"/>
<path d="M148.824 255.589L145.589 255.589V258.822H148.824V255.589Z" fill="black"/>
<path d="M132.647 252.351H129.411V255.589H132.647V252.351Z" fill="black"/>
<path d="M126.176 242.647H122.94V245.88H126.176V242.647Z" fill="black"/>
<path d="M142.353 249.118H139.118V252.351H142.353L142.353 249.118Z" fill="black"/>
<path d="M103.53 194.117H100.294V197.354H103.53V194.117Z" fill="black"/>
<path d="M155.296 239.414V232.941H152.058V236.175H148.824V239.414H155.296Z" fill="black"/>
<path d="M168.232 255.588H171.471V258.822H174.705V252.35H168.232V255.588Z" fill="black"/>
<path d="M168.235 249.118H161.764V252.351L168.232 252.35L168.235 249.118Z" fill="black"/>
<path d="M135.882 236.176H132.647V239.413H135.882V236.176Z" fill="black"/>
<path d="M142.353 232.943H135.882V236.176H142.353V232.943Z" fill="black"/>
<path d="M148.824 232.941V229.707H145.59V226.473H139.117V229.707H142.351L142.353 232.943L148.824 232.941Z" fill="black"/>
<path d="M103.53 181.175H100.294V184.412H103.53V181.175Z" fill="black"/>
<path d="M152.06 252.351H148.824L148.824 255.589L152.06 255.589V252.351Z" fill="black"/>
<path d="M106.765 207.059L103.528 207.059L103.53 210.296H106.765V207.059Z" fill="black"/>
<path d="M155.295 249.118H152.06V252.351H155.295V249.118Z" fill="black"/>
<path d="M110 158.528H106.765V161.766H110V158.528Z" fill="black"/>
<path d="M106.765 161.766H103.53V164.999H106.765V161.766Z" fill="black"/>
<path d="M103.53 164.999H100.294V168.237H103.53L103.53 164.999Z" fill="black"/>
<path d="M103.53 187.646H100.294V190.883H103.53V187.646Z" fill="black"/>
<path d="M110 190.883H106.765V194.117H110V190.883Z" fill="black"/>
<path d="M103.53 197.354L103.528 200.586H106.767L106.765 207.059L110.001 207.059V197.352L103.53 197.354Z" fill="black"/>
<path d="M113.236 194.117H110L110.001 197.352L113.236 197.354V194.117Z" fill="black"/>
<path d="M116.471 190.883H113.236L113.236 194.117H116.471V190.883Z" fill="black"/>
<path d="M119.708 213.527H132.649L132.647 210.296L122.942 210.298V207.059H119.708V213.527Z" fill="black"/>
<path d="M110.001 213.527H113.235V210.298H116.469V207.059H110.001V213.527Z" fill="black"/>
<path d="M119.707 203.825H116.471L116.469 207.059H119.708L119.707 203.825Z" fill="black"/>
<path d="M119.708 213.527L116.471 213.53V216.763H119.707L119.708 213.527Z" fill="black"/>
<path d="M110 168.237H103.53L103.53 171.47H110V168.237Z" fill="black"/>
<path d="M113.236 187.646H110V190.883H113.236L113.236 187.646Z" fill="black"/>
<path d="M110.001 174.705L119.707 174.704V168.237L116.469 168.237V171.471L110 171.47L110.001 174.705Z" fill="black"/>
<path d="M110 168.237L113.235 168.237V164.998H116.469V161.764L110 161.766L110 168.237Z" fill="black"/>
<path d="M103.528 174.705L103.53 181.175L106.767 181.173V177.944H110.001V174.705H103.528Z" fill="black"/>
<path d="M106.767 184.412L103.53 184.412V187.646H110L110.001 184.412H113.235L113.236 181.175L106.767 181.173V184.412Z" fill="black"/>
<path d="M116.471 216.763H110V220H116.471V216.763Z" fill="black"/>
<path d="M129.41 249.12H132.649L132.647 252.351H135.882L135.883 245.882H132.649L132.647 239.413L129.41 239.414V249.12Z" fill="black"/>
<path d="M126.176 236.175H122.942V239.414H129.41L129.411 232.943L126.176 232.941V236.175Z" fill="black"/>
<path d="M142.353 242.647H135.882L135.883 245.882L142.353 245.88V242.647Z" fill="black"/>
<path d="M148.824 239.414L142.353 239.413V242.647H148.824L148.824 239.414Z" fill="black"/>
<path d="M126.176 226.471H122.94V232.942L126.176 232.941L126.176 226.471Z" fill="black"/>
<path d="M152.06 242.647H148.824V245.88H152.06V242.647Z" fill="black"/>
<path d="M110.001 213.527L106.765 213.53V216.763H110L110.001 213.527Z" fill="black"/>
<path d="M103.528 220V223.234H106.767V226.473H110.001L110 220L103.528 220Z" fill="black"/>
<path d="M113.236 226.471L110.001 226.473L110 229.705L113.236 229.705V226.471Z" fill="black"/>
<path d="M122.94 220H119.707V226.471H122.94V220Z" fill="black"/>
<path d="M148.824 245.88H145.589V252.351H148.824V245.88Z" fill="black"/>
<path d="M119.707 226.471H116.471V229.705L119.707 229.705L119.707 226.471Z" fill="black"/>
<path d="M103.53 158.528H100.294V161.766H103.53V158.528Z" fill="black"/>
<path d="M177.939 113.235L174.706 113.236V116.469H177.941L177.939 113.235Z" fill="black"/>
<path d="M242.647 216.763H239.411V220H242.647V216.763Z" fill="black"/>
<path d="M239.411 213.53H236.176V216.763H239.411L239.411 213.53Z" fill="black"/>
<path d="M245.882 220H242.647V223.234H245.882V220Z" fill="black"/>
<path d="M232.94 223.234H223.236V226.471H232.94V223.234Z" fill="black"/>
<path d="M249.118 213.53H245.882V216.763H249.118V213.53Z" fill="black"/>
<path d="M232.94 232.943H229.705V236.176H232.94V232.943Z" fill="black"/>
<path d="M239.411 223.234H236.176V232.942H239.411V223.234Z" fill="black"/>
<path d="M236.176 220H232.94V223.234H236.176V220Z" fill="black"/>
<path d="M242.647 200.588H239.411V203.825H242.647V200.588Z" fill="black"/>
<path d="M258.823 194.118H255.589V190.884H252.355V197.352H258.823V194.118Z" fill="black"/>
<path d="M265.293 200.588H262.06V207.059H265.293V200.588Z" fill="black"/>
<path d="M258.824 203.825H252.353V207.059H258.824V203.825Z" fill="black"/>
<path d="M252.353 200.588H249.118V203.825H252.353V200.588Z" fill="black"/>
<path d="M249.118 197.354H242.647V200.588H249.118V197.354Z" fill="black"/>
<path d="M236.176 252.351H232.94V255.589H236.176V252.351Z" fill="black"/>
<path d="M207.059 262.06H203.823L203.826 265.295L207.059 265.293V262.06Z" fill="black"/>
<path d="M223.236 262.06H220.001L220 265.295L223.236 265.293V262.06Z" fill="black"/>
<path d="M220.001 252.351H216.765V255.589H220.001V252.351Z" fill="black"/>
<path d="M229.705 229.705H226.472V232.943H229.705V229.705Z" fill="black"/>
<path d="M216.765 255.589L213.53 255.589V258.822H216.765L216.765 255.589Z" fill="black"/>
<path d="M203.823 258.822H200.588V262.06H203.823V258.822Z" fill="black"/>
<path d="M213.53 255.589L213.528 249.12H207.06V252.35H210.294V255.588L213.53 255.589Z" fill="black"/>
<path d="M200.588 262.06H197.352V265.293L200.587 265.295L200.588 262.06Z" fill="black"/>
<path d="M223.236 255.589L220.001 255.589V258.822H223.236V255.589Z" fill="black"/>
<path d="M242.648 245.882L239.411 245.88L239.411 249.118H242.647L242.648 245.882Z" fill="black"/>
<path d="M239.409 242.648L236.176 242.647V245.88H239.411L239.409 242.648Z" fill="black"/>
<path d="M236.176 245.88H232.94V249.118H236.176V245.88Z" fill="black"/>
<path d="M255.589 226.471H252.353V232.942H255.589V226.471Z" fill="black"/>
<path d="M232.94 255.589L226.472 255.589L226.472 258.822H232.94V255.589Z" fill="black"/>
<path d="M213.53 258.822L210.294 258.822V255.588H207.06L207.059 262.06L210.294 262.061L210.294 265.293L213.528 265.295L213.53 258.822Z" fill="black"/>
<path d="M268.529 197.354H265.293V200.588H268.529L268.529 197.354Z" fill="black"/>
<path d="M262.06 197.354L258.823 197.352L258.824 200.587L262.06 200.588V197.354Z" fill="black"/>
<path d="M268.529 207.059H265.293V210.296H268.529L268.529 207.059Z" fill="black"/>
<path d="M262.06 190.883H258.824L258.823 194.118L262.06 194.117V190.883Z" fill="black"/>
<path d="M268.53 220L265.293 220V223.234H268.529L268.53 220Z" fill="black"/>
<path d="M262.06 220H258.824V223.234H262.06V220Z" fill="black"/>
<path d="M265.293 210.296H262.06V213.53L265.291 213.527L265.293 210.296Z" fill="black"/>
<path d="M265.291 216.761L262.06 216.763V220H265.293L265.291 216.761Z" fill="black"/>
<path d="M258.824 216.763H255.589V220H258.824V216.763Z" fill="black"/>
<path d="M181.178 255.588V258.822H184.412V252.35H177.939V255.588H181.178Z" fill="black"/>
<path d="M232.94 168.237H229.705V174.703H232.94V168.237Z" fill="black"/>
<path d="M239.411 181.175H236.176V184.412H239.411V181.175Z" fill="black"/>
<path d="M245.882 158.528H242.647V168.237H245.882V158.528Z" fill="black"/>
<path d="M239.411 164.999H236.176V171.47H239.411V164.999Z" fill="black"/>
<path d="M236.176 177.941H232.94V181.175H236.176V177.941Z" fill="black"/>
<path d="M252.353 216.763H249.118V220H252.353V216.763Z" fill="black"/>
<path d="M255.589 220H252.353V223.234H255.589L255.589 220Z" fill="black"/>
<path d="M258.824 223.234H255.589V226.471L258.823 226.473L258.824 223.234Z" fill="black"/>
<path d="M262.06 213.53H258.824V216.763H262.06V213.53Z" fill="black"/>
<path d="M262.06 207.059H258.824V210.296H262.06V207.059Z" fill="black"/>
<path d="M249.116 232.941V226.473L252.353 226.471V223.234H245.882L245.882 232.941H249.116Z" fill="black"/>
<path d="M255.589 216.763L255.589 213.527L258.824 213.53V210.296L252.355 210.298L252.353 216.763H255.589Z" fill="black"/>
<path d="M252.353 239.413H249.118V242.647H252.353V239.413Z" fill="black"/>
<path d="M252.353 232.942L249.116 232.941L249.118 236.176H252.353V232.942Z" fill="black"/>
<path d="M245.882 232.941L239.411 232.942L239.411 236.176H245.882L245.882 232.941Z" fill="black"/>
<path d="M258.823 232.941L255.589 232.942V236.176H258.824L258.823 232.941Z" fill="black"/>
<path d="M249.118 236.176H245.882L245.882 239.414L249.118 239.413V236.176Z" fill="black"/>
<path d="M239.411 236.176H232.94V239.413L239.409 239.414L239.411 236.176Z" fill="black"/>
<path d="M190.883 249.118H187.648V252.351H190.883V249.118Z" fill="black"/>
<path d="M122.942 239.414L119.707 239.413L119.707 242.647H122.94L122.942 239.414Z" fill="black"/>
<path d="M129.411 255.589L126.176 255.589V258.822H129.411V255.589Z" fill="black"/>
<path d="M129.41 249.12L122.94 249.118L122.942 252.35L129.411 252.351L129.41 249.12Z" fill="black"/>
<path d="M122.94 245.88H119.707V249.118H122.94V245.88Z" fill="black"/>
<path d="M110 229.705L106.767 229.707V226.473H103.528V232.941H110.001L110 229.705Z" fill="black"/>
<path d="M113.236 232.943L110.001 232.941L110 236.176H113.236L113.236 232.943Z" fill="black"/>
<path d="M119.707 239.413L119.708 236.175H122.942L122.94 232.942L116.471 232.943V239.413H119.707Z" fill="black"/>
<path d="M135.882 255.589H132.647L132.647 258.822L135.883 258.822L135.882 255.589Z" fill="black"/>
<path d="M145.589 258.822H142.353L142.351 262.061L145.589 262.06V258.822Z" fill="black"/>
<path d="M132.647 258.822H129.411V262.06H132.647L132.647 258.822Z" fill="black"/>
<path d="M155.295 255.589L152.06 255.589V258.822H155.295V255.589Z" fill="black"/>
<path d="M152.06 258.822H148.824V262.06H152.06V258.822Z" fill="black"/>
<path d="M103.528 232.941L100.294 232.942V236.176H103.53L103.528 232.941Z" fill="black"/>
<path d="M142.353 255.589H139.118L139.117 258.822L142.353 258.822V255.589Z" fill="black"/>
<path d="M161.764 252.351H155.295V255.589L161.764 255.589L161.764 252.351Z" fill="black"/>
<path d="M93.8228 184.412H90.5875V187.646H93.8228L93.8228 184.412Z" fill="black"/>
<path d="M90.5875 187.646H87.3518V190.883H90.5875V187.646Z" fill="black"/>
<path d="M93.8228 177.941H90.5875V181.175H93.8228L93.8228 177.941Z" fill="black"/>
<path d="M103.53 171.47L97.0603 171.471L97.0585 174.703L103.528 174.705L103.53 171.47Z" fill="black"/>
<path d="M97.0585 174.703H93.8228V177.941H97.0585V174.703Z" fill="black"/>
<path d="M97.0585 187.646H93.8228V190.883H97.0585V187.646Z" fill="black"/>
<path d="M97.0585 194.117H93.8228V197.354H97.0585V194.117Z" fill="black"/>
<path d="M100.294 210.296H97.0585V213.53H100.294V210.296Z" fill="black"/>
<path d="M103.528 223.234L100.294 223.234V226.471L103.528 226.473V223.234Z" fill="black"/>
<path d="M220.001 258.822H216.765L216.765 262.06H220.001V258.822Z" fill="black"/>
<path d="M93.8228 210.296L90.5875 210.298L90.5875 213.53H93.8228V210.296Z" fill="black"/>
<path d="M97.0585 200.587H93.8228L93.8228 203.825L97.0603 203.825L97.0585 200.587Z" fill="black"/>
<path d="M93.8228 203.825H90.5875L90.5875 207.059L93.8228 207.059V203.825Z" fill="black"/>
<path d="M103.53 213.53H100.294V220L103.528 220L103.53 213.53Z" fill="black"/>
<path d="M187.646 265.295L187.648 271.764H190.883L190.885 268.529H194.119L194.117 271.764L197.353 271.763L197.352 265.293L187.646 265.295Z" fill="black"/>
<path d="M200.587 255.588H203.826V252.35H197.353V258.822L200.588 258.822L200.587 255.588Z" fill="black"/>
<path d="M168.232 255.588L161.764 255.589L161.764 258.822H168.235L168.232 255.588Z" fill="black"/>
<path d="M168.235 271.764H164.999V275.002L168.232 275.002L168.235 271.764Z" fill="black"/>
<path d="M232.94 242.647H226.472V245.88H232.94V242.647Z" fill="black"/>
<path d="M171.471 268.531L168.232 268.529L168.235 271.764L171.471 271.763L171.471 268.531Z" fill="black"/>
<path d="M177.941 268.531H174.706L174.705 271.763L177.941 271.764L177.941 268.531Z" fill="black"/>
<path d="M184.412 265.293H181.177V271.764H184.412V265.293Z" fill="black"/>
<path d="M232.94 249.118H226.472V252.351H232.94V249.118Z" fill="black"/>
<path d="M226.472 236.176H223.236V239.413H226.472V236.176Z" fill="black"/>
<path d="M226.472 245.88L223.234 245.882L223.236 239.413L220 239.414V249.12L226.472 249.118V245.88Z" fill="black"/>
<path d="M226.472 252.351H223.236V255.589H226.472V252.351Z" fill="black"/>
<path d="M220.001 236.176H216.765V239.413L220 239.414L220.001 236.176Z" fill="black"/>
<path d="M223.236 232.943H220.001V236.176H223.236V232.943Z" fill="black"/>
<path d="M216.765 245.88H213.53L213.528 249.12L216.765 249.118V245.88Z" fill="black"/>
<path d="M184.412 236.176H181.177V239.413H184.412V236.176Z" fill="black"/>
<path d="M187.648 239.413H184.412V242.647H187.648V239.413Z" fill="black"/>
<path d="M184.412 242.647L174.705 242.648V249.12H177.939V245.882H184.412L184.412 242.647Z" fill="black"/>
<path d="M171.471 258.822L168.235 258.822L168.232 262.061L171.471 262.06L171.471 258.822Z" fill="black"/>
<path d="M161.764 258.822H158.528V262.06L161.764 262.061L161.764 258.822Z" fill="black"/>
<path d="M187.648 245.88L184.412 245.882L184.412 249.118H187.648L187.648 245.88Z" fill="black"/>
<path d="M164.999 275.002H161.764L161.764 278.236H164.998L164.999 275.002Z" fill="black"/>
<path d="M181.177 262.06H174.706V265.293H181.177V262.06Z" fill="black"/>
<path d="M174.706 265.293H171.47L171.471 268.531H174.706V265.293Z" fill="black"/>
<path d="M187.648 262.06H184.412V265.293L187.646 265.295L187.648 262.06Z" fill="black"/>
<path d="M100.294 161.766L97.0603 161.764V164.998L100.294 164.999V161.766Z" fill="black"/>
<path d="M194.119 262.061V258.822H190.885V255.588H187.646L187.648 262.06L194.119 262.061Z" fill="black"/>
<path d="M194.117 252.351H190.883L190.885 255.588L194.117 255.589V252.351Z" fill="black"/>
</svg>
