<svg width="43" height="14" viewBox="0 0 43 14" fill="none" xmlns="http://www.w3.org/2000/svg">
<path d="M0.386 13V0.399999H2.33L6.632 9.346L10.916 0.399999H12.86V13H11.546V1.984L6.614 12.1L1.682 2.002V13H0.386ZM19.6042 13.162C18.7402 13.162 17.9542 12.958 17.2462 12.55C16.5502 12.13 15.9922 11.566 15.5722 10.858C15.1642 10.15 14.9602 9.358 14.9602 8.482C14.9602 7.618 15.1582 6.838 15.5542 6.142C15.9502 5.434 16.4842 4.876 17.1562 4.468C17.8282 4.048 18.5782 3.838 19.4062 3.838C20.2102 3.838 20.9302 4.048 21.5662 4.468C22.2142 4.876 22.7242 5.434 23.0962 6.142C23.4802 6.838 23.6722 7.618 23.6722 8.482V8.896H16.2742C16.3462 9.484 16.5322 10.012 16.8322 10.48C17.1442 10.948 17.5462 11.32 18.0382 11.596C18.5302 11.86 19.0702 11.992 19.6582 11.992C20.1262 11.992 20.5822 11.92 21.0262 11.776C21.4702 11.632 21.8422 11.428 22.1422 11.164L22.9702 12.046C22.4662 12.418 21.9382 12.7 21.3862 12.892C20.8462 13.072 20.2522 13.162 19.6042 13.162ZM16.3102 7.834H22.3402C22.2682 7.294 22.0882 6.814 21.8002 6.394C21.5242 5.962 21.1762 5.626 20.7562 5.386C20.3362 5.134 19.8742 5.008 19.3702 5.008C18.8542 5.008 18.3802 5.128 17.9482 5.368C17.5162 5.608 17.1562 5.944 16.8682 6.376C16.5802 6.796 16.3942 7.282 16.3102 7.834ZM25.5344 13V3.982H26.8664V5.044C27.5744 4.216 28.5224 3.802 29.7104 3.802C30.3944 3.802 30.9944 3.952 31.5104 4.252C32.0384 4.54 32.4464 4.948 32.7344 5.476C33.0344 5.992 33.1844 6.598 33.1844 7.294V13H31.8704V7.564C31.8704 6.76 31.6424 6.13 31.1864 5.674C30.7424 5.206 30.1304 4.972 29.3504 4.972C28.8104 4.972 28.3304 5.092 27.9104 5.332C27.4904 5.572 27.1424 5.914 26.8664 6.358V13H25.5344ZM38.7814 13.18C38.0974 13.18 37.4914 13.036 36.9634 12.748C36.4354 12.448 36.0214 12.04 35.7214 11.524C35.4334 10.996 35.2894 10.384 35.2894 9.688V3.982H36.6034V9.418C36.6034 10.222 36.8314 10.858 37.2874 11.326C37.7434 11.782 38.3554 12.01 39.1234 12.01C39.6634 12.01 40.1434 11.89 40.5634 11.65C40.9954 11.398 41.3434 11.05 41.6074 10.606V3.982H42.9394V13H41.6074V11.956C40.8994 12.772 39.9574 13.18 38.7814 13.18Z" fill="#1F1F1F"/>
</svg>
