<svg width="864" height="658" viewBox="0 0 864 658" fill="none" xmlns="http://www.w3.org/2000/svg">
<path d="M41.1465 349.564H51.43V359.844H41.1465V349.564Z" fill="#DAFF8C"/>
<path d="M617.144 30.8439H627.427V41.124H617.144V30.8439Z" fill="#DAFF8C"/>
<path d="M72.0036 349.564H82.2881V359.844H72.0036V349.564Z" fill="#DAFF8C"/>
<path d="M648.001 0H658.285V10.2791H648.001V0Z" fill="#DAFF8C"/>
<path d="M658.285 10.2791H668.574V20.5591H658.285L658.285 10.2791Z" fill="#DAFF8C"/>
<path d="M627.427 20.5591H637.717V30.8439H627.427V20.5591Z" fill="#DAFF8C"/>
<path d="M493.717 616.874H504.002V637.439H493.717V616.874Z" fill="#DAFF8C"/>
<path d="M72.0036 370.123H82.2881V390.688H72.0036V370.123Z" fill="#DAFF8C"/>
<path d="M617.144 92.5278H627.427V102.813H617.144V92.5278Z" fill="#DAFF8C"/>
<path d="M627.427 82.2479H637.717V92.5279L627.427 92.5278V82.2479Z" fill="#DAFF8C"/>
<path d="M576.001 51.4039H586.286V61.6887H576.001V51.4039Z" fill="#DAFF8C"/>
<path d="M30.8621 267.31H41.1465V277.595H30.8621V267.31Z" fill="#DAFF8C"/>
<path d="M586.286 30.8439H596.575V41.124H586.286V30.8439Z" fill="#DAFF8C"/>
<path d="M534.86 647.719H545.144V657.998H534.86V647.719Z" fill="#DAFF8C"/>
<path d="M586.286 10.2791H596.575V20.5591H586.286V10.2791Z" fill="#DAFF8C"/>
<path d="M545.149 596.305H565.712V606.593H576.005V616.87H555.431V606.593H545.149V596.305Z" fill="#DAFF8C"/>
<path d="M41.1465 257.03H51.43V267.31L41.1465 267.31V257.03Z" fill="#DAFF8C"/>
<path d="M596.575 71.9688H617.144V82.2479H596.575V71.9688Z" fill="#DAFF8C"/>
<path d="M617.144 61.6887H627.427V71.9688H617.144V61.6887Z" fill="#DAFF8C"/>
<path d="M606.859 51.4039H617.144V61.6887H606.859V51.4039Z" fill="#DAFF8C"/>
<path d="M586.286 92.5278H606.859V102.813H586.286V92.5278Z" fill="#DAFF8C"/>
<path d="M41.1465 328.999H51.43V339.279H41.1465V328.999Z" fill="#DAFF8C"/>
<path d="M504.002 637.439H524.575V647.719H504.002V637.439Z" fill="#DAFF8C"/>
<path d="M493.717 647.719L504.002 647.719V657.998H493.717V647.719Z" fill="#DAFF8C"/>
<path d="M41.1465 308.434H51.43V318.719H41.1465V308.434Z" fill="#DAFF8C"/>
<path d="M596.575 41.124L606.859 41.1239L606.859 51.4039H596.575V41.124Z" fill="#DAFF8C"/>
<path d="M442.286 637.439H483.428V647.719H442.286V637.439Z" fill="#DAFF8C"/>
<path d="M92.5772 349.564H102.862V359.844H92.5772V349.564Z" fill="#DAFF8C"/>
<path d="M92.5772 370.123H102.862V390.688H92.5772V370.123Z" fill="#DAFF8C"/>
<path d="M545.149 616.87V637.435H534.857V627.158H524.575V616.87H545.149Z" fill="#DAFF8C"/>
<path d="M853.716 164.497H864V174.781H853.716V164.497Z" fill="#DAFF8C"/>
<path d="M668.574 71.9688H678.859V82.2479H668.574V71.9688Z" fill="#DAFF8C"/>
<path d="M843.426 267.31H853.716V277.595H843.426V267.31Z" fill="#DAFF8C"/>
<path d="M92.5772 400.968H102.862V411.248H92.5772V400.968Z" fill="#DAFF8C"/>
<path d="M668.574 92.5278H678.859V102.813H668.574V92.5278Z" fill="#DAFF8C"/>
<path d="M853.716 92.5278H864V102.813H853.716V92.5278Z" fill="#DAFF8C"/>
<path d="M82.2882 328.999H92.5772V349.564H82.2881L82.2882 328.999Z" fill="#DAFF8C"/>
<path d="M833.143 133.658H843.426V143.938H833.143V133.658Z" fill="#DAFF8C"/>
<path d="M534.86 575.75H545.144V586.029H534.86V575.75Z" fill="#DAFF8C"/>
<path d="M524.575 555.185H534.86V575.75H524.575V555.185Z" fill="#DAFF8C"/>
<path d="M61.7193 390.688H72.0036L72.0037 400.968H61.7193V390.688Z" fill="#DAFF8C"/>
<path d="M833.143 185.061H853.716V195.342H833.143V185.061Z" fill="#DAFF8C"/>
<path d="M853.716 61.6887H864V71.9688H853.716V61.6887Z" fill="#DAFF8C"/>
<path d="M668.574 51.4039H678.859V61.6887H668.574V51.4039Z" fill="#DAFF8C"/>
<path d="M648.001 51.4039H658.285V61.6887H648.001V51.4039Z" fill="#DAFF8C"/>
<path d="M51.43 421.533H61.7193V431.813H51.43V421.533Z" fill="#DAFF8C"/>
<path d="M596.575 431.812H606.859V442.092H596.575V431.812Z" fill="#DAFF8C"/>
<path d="M658.285 41.1239H668.574V51.4039H658.285L658.285 41.1239Z" fill="#DAFF8C"/>
<path d="M51.43 400.968H61.7193V411.248H51.43V400.968Z" fill="#DAFF8C"/>
<path d="M648.001 30.8439H658.285L658.285 41.1239L648.001 41.124V30.8439Z" fill="#DAFF8C"/>
<path d="M853.716 328.999H864V339.279H853.716V328.999Z" fill="#DAFF8C"/>
<path d="M0.00402832 472.937H10.2885V483.217H0.00402832V472.937Z" fill="#DAFF8C"/>
<path d="M853.716 277.595H864V287.875H853.716V277.595Z" fill="#DAFF8C"/>
<path d="M648.001 92.5278H658.285V113.093H648.001V92.5278Z" fill="#DAFF8C"/>
<path d="M92.5772 431.812H102.862V442.092H92.5772V431.812Z" fill="#DAFF8C"/>
<path d="M853.716 308.434H864V318.719H853.716V308.434Z" fill="#DAFF8C"/>
<path d="M648.001 71.9688H658.285V82.2479H648.001V71.9688Z" fill="#DAFF8C"/>
<path d="M72.0032 421.529H82.2849V411.252L92.5772 411.248V431.812L72.0032 431.817V421.529Z" fill="#DAFF8C"/>
<path d="M658.285 113.093H668.574V123.373H658.285L658.285 113.093Z" fill="#DAFF8C"/>
<path d="M606.859 10.2791H617.144V20.5591H606.859V10.2791Z" fill="#DAFF8C"/>
<path d="M699.427 524.34H709.716V534.625H699.427V524.34Z" fill="#DAFF8C"/>
<path d="M483.427 71.9657H473.146V82.2428H442.29V61.6885H452.572V71.9657H462.864V61.6885H483.427V71.9657Z" fill="#DAFF8C"/>
<path d="M102.862 390.688H113.146V400.968H102.862V390.688Z" fill="#DAFF8C"/>
<path d="M493.717 0H504.002V10.2791H493.717V0Z" fill="#DAFF8C"/>
<path d="M493.717 41.1239H504.002V71.9687H493.717V41.1239Z" fill="#DAFF8C"/>
<path d="M102.862 411.248H113.146V431.813L102.862 431.812V411.248Z" fill="#DAFF8C"/>
<path d="M740.574 472.937H750.859V493.501H740.574V472.937Z" fill="#DAFF8C"/>
<path d="M432.002 41.1239H442.286L442.29 61.6885L432.002 61.6887V41.1239Z" fill="#DAFF8C"/>
<path d="M678.863 524.343V514.055H699.426L699.427 524.34L689.145 524.343V534.62H668.571V524.343H678.863Z" fill="#DAFF8C"/>
<path d="M113.146 349.564H123.43V359.844H113.146V349.564Z" fill="#DAFF8C"/>
<path d="M504.002 10.2791H514.286V20.5591H504.002L504.002 10.2791Z" fill="#DAFF8C"/>
<path d="M637.717 606.594H648.001V616.874H637.717V606.594Z" fill="#DAFF8C"/>
<path d="M730.285 452.372H740.574V472.937H730.285V452.372Z" fill="#DAFF8C"/>
<path d="M102.862 359.844H113.146V370.123L102.862 370.123V359.844Z" fill="#DAFF8C"/>
<path d="M452.575 41.1239H473.145V51.4039H452.575V41.1239Z" fill="#DAFF8C"/>
<path d="M504.001 30.8463H493.72L493.717 41.1239L483.427 41.1234V20.5584L504.002 20.5591L504.001 30.8463Z" fill="#DAFF8C"/>
<path d="M699.427 472.937H720.001V483.217H699.427V472.937Z" fill="#DAFF8C"/>
<path d="M709.716 493.501H730.285V514.06H709.716V493.501Z" fill="#DAFF8C"/>
<path d="M678.859 462.656H689.144V472.937H678.859V462.656Z" fill="#DAFF8C"/>
<path d="M380.576 10.2791H390.86V20.5591H380.576V10.2791Z" fill="#DAFF8C"/>
<path d="M390.86 20.5591H411.428V30.8439H390.86V20.5591Z" fill="#DAFF8C"/>
<path d="M627.427 493.501H637.717V503.781H627.427V493.501Z" fill="#DAFF8C"/>
<path d="M617.144 483.216H627.427V493.501H617.144V483.216Z" fill="#DAFF8C"/>
<path d="M185.144 123.373V133.661H174.862V113.096H195.425V123.373H185.144Z" fill="#DAFF8C"/>
<path d="M390.86 0H401.145V10.2791H390.86L390.86 0Z" fill="#DAFF8C"/>
<path d="M565.717 41.1239H576.001V51.4039H565.717V41.1239Z" fill="#DAFF8C"/>
<path d="M678.859 483.216L699.427 483.217V493.501H678.859V483.216Z" fill="#DAFF8C"/>
<path d="M524.575 92.5278H534.86V102.813H524.575V92.5278Z" fill="#DAFF8C"/>
<path d="M442.286 20.5591H452.575V30.8439H442.286V20.5591Z" fill="#DAFF8C"/>
<path d="M452.575 10.2791H473.145V20.5591H452.575V10.2791Z" fill="#DAFF8C"/>
<path d="M668.574 472.937H678.859L678.859 483.216L668.574 483.217V472.937Z" fill="#DAFF8C"/>
<path d="M102.862 483.216H113.146V493.501H102.862V483.216Z" fill="#DAFF8C"/>
<path d="M421.716 20.5584V10.2812H431.998V0.00409749H442.29L442.286 20.5591L421.716 20.5584Z" fill="#DAFF8C"/>
<path d="M411.428 30.8439H421.718V51.4039H411.428V30.8439Z" fill="#DAFF8C"/>
<path d="M61.7193 298.154H72.0037V308.434H61.7193V298.154Z" fill="#DAFF8C"/>
<path d="M833.143 421.533H843.426V431.813H833.143V421.533Z" fill="#DAFF8C"/>
<path d="M576.001 71.9688H586.286V82.2479H576.001V71.9688Z" fill="#DAFF8C"/>
<path d="M565.717 82.2479H576.001V92.5279H565.717V82.2479Z" fill="#DAFF8C"/>
<path d="M555.428 637.439H576.001V647.719H555.428V637.439Z" fill="#DAFF8C"/>
<path d="M555.428 61.6887H565.717V71.9688H555.428V61.6887Z" fill="#DAFF8C"/>
<path d="M82.2882 298.154H92.5772V308.434H82.2882V298.154Z" fill="#DAFF8C"/>
<path d="M586.286 637.439H606.859V647.719H586.286V637.439Z" fill="#DAFF8C"/>
<path d="M843.426 411.248H853.716V421.533H843.426V411.248Z" fill="#DAFF8C"/>
<path d="M576.005 616.87L596.575 616.874V627.154H576.001L576.005 616.87Z" fill="#DAFF8C"/>
<path d="M565.717 20.5591H576.001V30.8439H565.717V20.5591Z" fill="#DAFF8C"/>
<path d="M545.144 92.5278L565.717 92.5279L565.717 102.813H545.144V92.5278Z" fill="#DAFF8C"/>
<path d="M41.1465 277.595H51.43V287.875H41.1465V277.595Z" fill="#DAFF8C"/>
<path d="M51.43 287.875H61.7193V298.154H51.43V287.875Z" fill="#DAFF8C"/>
<path d="M565.717 0H576.001V10.2791H565.717V0Z" fill="#DAFF8C"/>
<path d="M606.859 627.154H627.427V637.439H606.859V627.154Z" fill="#DAFF8C"/>
<path d="M504.002 82.2479H524.575V92.5278L504.002 92.5279V82.2479Z" fill="#DAFF8C"/>
<path d="M545.144 20.5591H555.428V41.124H545.144V20.5591Z" fill="#DAFF8C"/>
<path d="M617.144 575.75H637.717V586.029H617.144V575.75Z" fill="#DAFF8C"/>
<path d="M92.5772 328.999V308.434L102.859 308.437V318.714H113.151V329.002L92.5772 328.999Z" fill="#DAFF8C"/>
<path d="M524.575 10.2791H534.86V20.5591H524.575V10.2791Z" fill="#DAFF8C"/>
<path d="M637.717 586.029L648.001 586.029V596.309H637.717V586.029Z" fill="#DAFF8C"/>
<path d="M514.286 30.8439H524.575V41.124H514.286V30.8439Z" fill="#DAFF8C"/>
<path d="M102.862 339.279H113.146V349.564H102.862V339.279Z" fill="#DAFF8C"/>
<path d="M102.862 298.154H113.146V308.434L102.859 308.437L102.862 298.154Z" fill="#DAFF8C"/>
<path d="M606.859 596.309H627.427V616.874H606.859V596.309Z" fill="#DAFF8C"/>
<path d="M740.574 514.06H750.859V524.34H740.574V514.06Z" fill="#DAFF8C"/>
<path d="M545.144 51.4039H555.428V61.6887H545.144V51.4039Z" fill="#DAFF8C"/>
<path d="M545.149 71.9657H524.575V51.4006H534.857V61.6885L545.144 61.6887L545.149 71.9657Z" fill="#DAFF8C"/>
<path d="M720.001 524.34L740.574 524.34V534.625H720.001V524.34Z" fill="#DAFF8C"/>
<path d="M545.149 71.9657L555.428 71.9688V82.2479H545.144L545.149 71.9657Z" fill="#DAFF8C"/>
<path d="M113.146 308.434L123.43 308.434V318.719L113.151 318.714L113.146 308.434Z" fill="#DAFF8C"/>
<path d="M555.428 472.937H565.717V483.217H555.428V472.937Z" fill="#DAFF8C"/>
<path d="M802.285 236.465H812.574V246.75H802.285V236.465Z" fill="#DAFF8C"/>
<path d="M483.427 483.213H493.72V493.501H504.001V503.778H493.72V514.055H483.427V483.213Z" fill="#DAFF8C"/>
<path d="M822.858 287.875H833.143V298.154H822.858V287.875Z" fill="#DAFF8C"/>
<path d="M360.002 10.2791H370.287V20.5591H360.002V10.2791Z" fill="#DAFF8C"/>
<path d="M668.574 442.092H678.859V462.656H668.574V442.092Z" fill="#DAFF8C"/>
<path d="M812.574 226.185H822.858V236.465H812.574V226.185Z" fill="#DAFF8C"/>
<path d="M689.144 10.2791H699.427V20.5591H689.144V10.2791Z" fill="#DAFF8C"/>
<path d="M390.86 41.1239H401.145V51.4039H390.86V41.1239Z" fill="#DAFF8C"/>
<path d="M493.72 483.213V472.936H483.427V483.213H462.864V472.936H473.146V462.659H483.427V452.371H493.72V462.659H504.001V483.213H493.72Z" fill="#DAFF8C"/>
<path d="M833.143 298.154H843.426V308.434H833.143V298.154Z" fill="#DAFF8C"/>
<path d="M82.2882 226.185H92.5772V236.465H82.2882V226.185Z" fill="#DAFF8C"/>
<path d="M113.146 174.781H123.43V185.061H113.146V174.781Z" fill="#DAFF8C"/>
<path d="M154.288 123.373H164.577V143.938H154.288V123.373Z" fill="#DAFF8C"/>
<path d="M205.719 113.093H216.003V123.373H205.719V113.093Z" fill="#DAFF8C"/>
<path d="M720.001 0H730.285V10.2791H720.001V0Z" fill="#DAFF8C"/>
<path d="M473.145 92.5278H483.428V102.813H473.145V92.5278Z" fill="#DAFF8C"/>
<path d="M226.287 41.1239H236.576V51.4039H226.287V41.1239Z" fill="#DAFF8C"/>
<path d="M802.285 257.03H812.574V267.31H802.285V257.03Z" fill="#DAFF8C"/>
<path d="M720 185.057H699.426V174.78H709.719V154.215H720V185.057Z" fill="#DAFF8C"/>
<path d="M720.001 143.938H730.285V154.217L720 154.215L720.001 143.938Z" fill="#DAFF8C"/>
<path d="M730.285 61.6887H740.574V71.9688H730.285V61.6887Z" fill="#DAFF8C"/>
<path d="M792 287.875H802.285V298.154H792V287.875Z" fill="#DAFF8C"/>
<path d="M730.285 154.217L740.574 154.217V164.497H730.285V154.217Z" fill="#DAFF8C"/>
<path d="M802.285 328.999H812.574V339.279H802.285V328.999Z" fill="#DAFF8C"/>
<path d="M792 339.279H802.285V349.564H792V339.279Z" fill="#DAFF8C"/>
<path d="M689.144 164.497H699.427L699.426 174.78L689.144 174.781V164.497Z" fill="#DAFF8C"/>
<path d="M658.285 133.658H678.859V143.938H658.285V133.658Z" fill="#DAFF8C"/>
<path d="M678.859 113.093H689.144V133.658H678.859V113.093Z" fill="#DAFF8C"/>
<path d="M483.428 82.2479H493.717V92.5279L483.428 92.5278V82.2479Z" fill="#DAFF8C"/>
<path d="M689.144 133.658H709.716V143.938H689.144V133.658Z" fill="#DAFF8C"/>
<path d="M802.285 298.154H812.574V318.719H802.285V298.154Z" fill="#DAFF8C"/>
<path d="M740.574 164.497H750.859V185.061H740.574V164.497Z" fill="#DAFF8C"/>
<path d="M606.859 154.217H617.144V164.497H606.859V154.217Z" fill="#DAFF8C"/>
<path d="M781.716 236.465H792V246.75H781.716V236.465Z" fill="#DAFF8C"/>
<path d="M586.286 493.501H596.575V514.06H586.286V493.501Z" fill="#DAFF8C"/>
<path d="M781.716 215.906H792V226.185H781.716V215.906Z" fill="#DAFF8C"/>
<path d="M761.143 236.465H771.427V246.75H761.143V236.465Z" fill="#DAFF8C"/>
<path d="M771.427 226.185H781.716V236.465H771.427V226.185Z" fill="#DAFF8C"/>
<path d="M740.574 102.813H750.859V113.093H740.574V102.813Z" fill="#DAFF8C"/>
<path d="M442.286 442.092H452.575V452.372H442.286V442.092Z" fill="#DAFF8C"/>
<path d="M822.858 359.844H833.143V370.123H822.858V359.844Z" fill="#DAFF8C"/>
<path d="M586.286 472.936L565.717 472.937L565.712 452.371H576.005V462.659H586.286V452.371H606.86V462.659H596.578V472.936H606.86V493.501L596.575 493.501L596.578 483.213H586.286V472.936Z" fill="#DAFF8C"/>
<path d="M812.574 370.123L822.858 370.123L822.858 380.403H812.574V370.123Z" fill="#DAFF8C"/>
<path d="M802.285 195.341H812.574V205.626H802.285V195.341Z" fill="#DAFF8C"/>
<path d="M802.285 349.564H812.574V359.844H802.285V349.564Z" fill="#DAFF8C"/>
<path d="M761.143 51.4039H771.427V61.6887H761.143V51.4039Z" fill="#DAFF8C"/>
<path d="M678.859 82.2479H689.144V92.5279L678.859 92.5278V82.2479Z" fill="#DAFF8C"/>
<path d="M771.427 205.626H781.716L781.716 215.906L771.427 215.906V205.626Z" fill="#DAFF8C"/>
<path d="M761.143 20.5591H771.427V30.8439H761.143V20.5591Z" fill="#DAFF8C"/>
<path d="M792 205.626L802.285 205.626V215.906L792 215.906V205.626Z" fill="#DAFF8C"/>
<path d="M730.285 41.1239H740.574V51.4039H730.285V41.1239Z" fill="#DAFF8C"/>
<path d="M534.86 503.781H545.144V514.06H534.86V503.781Z" fill="#DAFF8C"/>
<path d="M740.574 10.2791H750.859V20.5591H740.574V10.2791Z" fill="#DAFF8C"/>
<path d="M822.858 246.75H833.143V257.03H822.858V246.75Z" fill="#DAFF8C"/>
<path d="M843.426 246.75H853.716V257.03H843.426V246.75Z" fill="#DAFF8C"/>
<path d="M524.575 472.936H534.857V462.659H545.149V452.371H555.431L555.428 472.937L545.149 472.936V493.501H534.857V483.213H524.575V472.936Z" fill="#DAFF8C"/>
<path d="M822.858 267.31H833.143V277.595H822.858V267.31Z" fill="#DAFF8C"/>
<path d="M812.574 277.595H822.858V287.875H812.574V277.595Z" fill="#DAFF8C"/>
<path d="M545.149 493.501L555.428 493.501V503.781H545.144L545.149 493.501Z" fill="#DAFF8C"/>
<path d="M792 380.403H812.574V390.688H792V380.403Z" fill="#DAFF8C"/>
<path d="M740.574 30.8439H750.859V41.124L740.574 41.1239V30.8439Z" fill="#DAFF8C"/>
<path d="M822.859 349.567V339.279H833.141V318.714H843.422V349.567H822.859Z" fill="#DAFF8C"/>
<path d="M843.422 349.567L853.716 349.564V359.844H843.426L843.422 349.567Z" fill="#DAFF8C"/>
<path d="M730.285 82.2479H740.574V102.813L730.285 102.813V82.2479Z" fill="#DAFF8C"/>
<path d="M843.422 205.622H853.714V226.187H833.141V215.91H843.422V205.622Z" fill="#DAFF8C"/>
<path d="M843.426 370.123H853.716V400.968H843.426V370.123Z" fill="#DAFF8C"/>
<path d="M61.7193 328.999H72.0037V339.279H61.7193V328.999Z" fill="#DAFF8C"/>
<path d="M606.859 544.905H637.717V555.185H606.859V544.905Z" fill="#DAFF8C"/>
<path d="M802.285 20.5591H812.574V30.8439H802.285V20.5591Z" fill="#DAFF8C"/>
<path d="M792 51.4039H802.285V61.6887H792V51.4039Z" fill="#DAFF8C"/>
<path d="M576.001 442.092H586.286L586.286 452.371H576.005L576.001 442.092Z" fill="#DAFF8C"/>
<path d="M802.285 92.5278H812.574V102.813H802.285V92.5278Z" fill="#DAFF8C"/>
<path d="M689.144 442.092H699.427V452.372H689.144V442.092Z" fill="#DAFF8C"/>
<path d="M545.144 544.905H555.428V565.47H545.144V544.905Z" fill="#DAFF8C"/>
<path d="M699.427 30.8439H709.716V41.124H699.427V30.8439Z" fill="#DAFF8C"/>
<path d="M72.0037 400.968H82.2881L82.2849 411.252L72.0036 411.248L72.0037 400.968Z" fill="#DAFF8C"/>
<path d="M648.001 462.656H658.285V472.937H648.001V462.656Z" fill="#DAFF8C"/>
<path d="M771.427 82.2479H792V92.5279H771.427V82.2479Z" fill="#DAFF8C"/>
<path d="M761.143 102.813H771.427V123.373H761.143V102.813Z" fill="#DAFF8C"/>
<path d="M781.716 41.1239H792V51.4039H781.716V41.1239Z" fill="#DAFF8C"/>
<path d="M61.7193 411.248H72.0036L72.0032 421.529L61.7193 421.533V411.248Z" fill="#DAFF8C"/>
<path d="M637.717 534.625H648.001V544.905L637.717 544.905V534.625Z" fill="#DAFF8C"/>
<path d="M606.86 493.501L617.144 493.501L617.142 503.778L627.427 503.781L627.423 514.055H606.86V493.501Z" fill="#DAFF8C"/>
<path d="M648.001 524.34H658.285V534.625L648.001 534.625V524.34Z" fill="#DAFF8C"/>
<path d="M82.2881 390.688H92.5772V400.968H82.2881V390.688Z" fill="#DAFF8C"/>
<path d="M596.575 565.47H606.859V575.75H596.575V565.47Z" fill="#DAFF8C"/>
<path d="M833.143 82.2479H843.426V92.5279H833.143V82.2479Z" fill="#DAFF8C"/>
<path d="M72.0037 308.434H82.2882V328.999H72.0037V308.434Z" fill="#DAFF8C"/>
<path d="M833.143 113.093H843.426V123.373H833.143V113.093Z" fill="#DAFF8C"/>
<path d="M524.575 596.305V616.87H514.283V606.593H504.001V596.305H524.575Z" fill="#DAFF8C"/>
<path d="M586.286 555.185H596.575V565.47H586.286V555.185Z" fill="#DAFF8C"/>
<path d="M833.143 30.8439H843.426V41.124H833.143V30.8439Z" fill="#DAFF8C"/>
<path d="M555.428 565.47H565.717V575.75H555.428V565.47Z" fill="#DAFF8C"/>
<path d="M802.285 113.093H812.574V123.373H802.285V113.093Z" fill="#DAFF8C"/>
<path d="M565.717 555.185H576.001V565.47H565.717L565.717 555.185Z" fill="#DAFF8C"/>
<path d="M586.286 565.47L586.286 586.028H596.578V596.305H576.005L576.001 565.47H586.286Z" fill="#DAFF8C"/>
<path d="M82.2881 359.844H92.5772V370.123H82.2881V359.844Z" fill="#DAFF8C"/>
<path d="M812.574 143.938H822.858V154.217H812.574V143.938Z" fill="#DAFF8C"/>
<path d="M822.858 164.497H833.143V174.781H822.858V164.497Z" fill="#DAFF8C"/>
<path d="M689.144 185.061L699.426 185.057L699.427 195.342H689.144V185.061Z" fill="#DAFF8C"/>
<path d="M771.427 257.03H792V267.31H771.427V257.03Z" fill="#DAFF8C"/>
<path d="M771.427 390.688H781.716V400.968H771.427V390.688Z" fill="#DAFF8C"/>
<path d="M750.859 277.595H771.427V287.875H750.859V277.595Z" fill="#DAFF8C"/>
<path d="M761.143 298.154H781.716V308.434H761.143V298.154Z" fill="#DAFF8C"/>
<path d="M781.716 102.813H792V113.093H781.716V102.813Z" fill="#DAFF8C"/>
<path d="M740.574 143.938H750.859V154.217L740.574 154.217V143.938Z" fill="#DAFF8C"/>
<path d="M781.716 400.968H792V411.248H781.716L781.716 400.968Z" fill="#DAFF8C"/>
<path d="M720.001 123.373H740.574V133.658H720.001V123.373Z" fill="#DAFF8C"/>
<path d="M781.716 308.434L792 308.434V328.999H781.716L781.716 308.434Z" fill="#DAFF8C"/>
<path d="M781.716 359.844H802.285V370.123H781.716V359.844Z" fill="#DAFF8C"/>
<path d="M678.859 174.781H689.144V185.061H678.859V174.781Z" fill="#DAFF8C"/>
<path d="M792 411.248H802.285V421.533H792V411.248Z" fill="#DAFF8C"/>
<path d="M771.427 339.279H781.716V359.844H771.427V339.279Z" fill="#DAFF8C"/>
<path d="M658.285 164.497H668.574V174.781H658.285V164.497Z" fill="#DAFF8C"/>
<path d="M668.574 154.217H689.144V164.497H668.574V154.217Z" fill="#DAFF8C"/>
<path d="M709.716 113.093H720.001V123.373H709.716V113.093Z" fill="#DAFF8C"/>
<path d="M51.43 318.719L61.7193 318.719V328.999H51.43V318.719Z" fill="#DAFF8C"/>
<path d="M102.859 452.371L102.862 483.216L92.5772 483.213V472.936H82.2849V462.659H92.5772V452.371H102.859Z" fill="#DAFF8C"/>
<path d="M781.716 164.497H792V174.781H781.716V164.497Z" fill="#DAFF8C"/>
<path d="M51.43 339.279H61.7193V349.564H51.43V339.279Z" fill="#DAFF8C"/>
<path d="M524.575 586.029L534.86 586.029V596.309L524.575 596.305V586.029Z" fill="#DAFF8C"/>
<path d="M761.143 143.938H771.427V164.497H761.143V143.938Z" fill="#DAFF8C"/>
<path d="M709.716 442.092H720.001V452.372H709.716V442.092Z" fill="#DAFF8C"/>
<path d="M689.144 41.1239L699.427 41.124V51.4039H689.144V41.1239Z" fill="#DAFF8C"/>
<path d="M699.427 82.2479H709.716V102.813H699.427V82.2479Z" fill="#DAFF8C"/>
<path d="M771.427 421.533H781.716V431.813H771.427V421.533Z" fill="#DAFF8C"/>
<path d="M802.285 421.533H812.574V431.813H802.285V421.533Z" fill="#DAFF8C"/>
<path d="M771.427 185.061H781.716V195.342H771.427V185.061Z" fill="#DAFF8C"/>
<path d="M781.716 133.658H792V143.938H781.716V133.658Z" fill="#DAFF8C"/>
<path d="M792 174.781H802.285V185.061H792V174.781Z" fill="#DAFF8C"/>
<path d="M699.427 51.4039H709.716V61.6887H699.427V51.4039Z" fill="#DAFF8C"/>
<path d="M812.577 400.964H822.859V390.686H833.141V411.252H822.859V421.529L812.574 421.533L812.577 400.964Z" fill="#DAFF8C"/>
<path d="M144.003 185.061H154.288V195.342H144.003V185.061Z" fill="#DAFF8C"/>
<path d="M298.284 20.5584H277.721V0.00409749H288.002V10.2812H298.284V20.5584Z" fill="#DAFF8C"/>
<path d="M339.429 0H349.718V20.559H339.429V0Z" fill="#DAFF8C"/>
<path d="M308.576 10.2791H318.861V20.5591H308.576V10.2791Z" fill="#DAFF8C"/>
<path d="M349.718 20.559L360.002 20.5591V41.124H349.718L349.718 20.559Z" fill="#DAFF8C"/>
<path d="M689.144 390.688H709.716V400.968H689.144V390.688Z" fill="#DAFF8C"/>
<path d="M318.861 20.5591L339.429 20.559V30.8439H318.861L318.861 20.5591Z" fill="#DAFF8C"/>
<path d="M380.579 123.373H370.287V133.661H380.579V143.938H390.861V154.215H401.143V164.492H380.579V154.215H360.006V164.492H349.713V143.938H360.006V123.373H349.713V113.096H339.432V102.808H360.006V113.096H380.579V123.373Z" fill="#DAFF8C"/>
<path d="M360.002 82.2479H370.287V102.813L360.006 102.808L360.002 82.2479Z" fill="#DAFF8C"/>
<path d="M380.576 51.4039H390.86L390.86 61.6887H380.576V51.4039Z" fill="#DAFF8C"/>
<path d="M370.287 51.4006V61.6885H360.006L360.002 41.124L370.287 41.1234V30.8463H380.579L380.576 51.4039L370.287 51.4006Z" fill="#DAFF8C"/>
<path d="M370.287 61.6885L380.576 61.6887V82.2478L370.287 82.2479L370.287 61.6885Z" fill="#DAFF8C"/>
<path d="M226.287 20.5591H246.861V30.8439H226.287V20.5591Z" fill="#DAFF8C"/>
<path d="M236.576 71.9688H246.861V82.2479H236.576V71.9688Z" fill="#DAFF8C"/>
<path d="M236.576 51.4039H257.146V61.6887H236.576V51.4039Z" fill="#DAFF8C"/>
<path d="M267.429 20.5591L277.721 20.5584L277.718 30.8439H267.429V20.5591Z" fill="#DAFF8C"/>
<path d="M226.287 82.2479H236.576V102.813H226.287V82.2479Z" fill="#DAFF8C"/>
<path d="M257.147 102.808V113.096H246.865V123.373H236.573L236.576 102.813L257.147 102.808Z" fill="#DAFF8C"/>
<path d="M226.287 61.6887H236.576V71.9688H226.287V61.6887Z" fill="#DAFF8C"/>
<path d="M380.576 102.813H390.86V113.093L380.579 113.096L380.576 102.813Z" fill="#DAFF8C"/>
<path d="M257.146 41.1239H267.429V51.4039H257.146V41.1239Z" fill="#DAFF8C"/>
<path d="M246.861 20.5591L246.865 0.00409749H257.147V10.2812H267.428L267.429 20.5591H246.861Z" fill="#DAFF8C"/>
<path d="M246.865 133.661V123.373H257.147V113.096H267.428V133.661H246.865Z" fill="#DAFF8C"/>
<path d="M246.861 30.8439H257.146V41.1239L246.861 41.124V30.8439Z" fill="#DAFF8C"/>
<path d="M627.423 143.938V123.373H647.997V133.661H637.715V143.938H627.423Z" fill="#DAFF8C"/>
<path d="M637.715 154.215V143.938L658.285 143.938L658.289 154.215H647.997V164.492H627.423V154.215H637.715Z" fill="#DAFF8C"/>
<path d="M606.859 113.093H627.427L627.423 123.373L606.859 123.373V113.093Z" fill="#DAFF8C"/>
<path d="M586.286 113.093H596.575V123.373H586.286V113.093Z" fill="#DAFF8C"/>
<path d="M586.286 143.938H565.712V133.661H576.005V123.373L586.286 123.373L586.286 143.938Z" fill="#DAFF8C"/>
<path d="M596.575 123.373H606.859L606.86 133.661H617.142V143.938H596.578L596.575 123.373Z" fill="#DAFF8C"/>
<path d="M586.286 164.497H596.575V185.061H586.286V164.497Z" fill="#DAFF8C"/>
<path d="M617.142 143.938H627.423V154.215L617.144 154.217L617.142 143.938Z" fill="#DAFF8C"/>
<path d="M565.717 154.217H586.286V164.497H565.717V154.217Z" fill="#DAFF8C"/>
<path d="M586.286 143.938H596.578L596.575 154.217L586.286 154.217L586.286 143.938Z" fill="#DAFF8C"/>
<path d="M565.717 113.093H576.001L576.005 123.373L565.717 123.373V113.093Z" fill="#DAFF8C"/>
<path d="M401.145 61.6887H421.718V82.2478H401.145V61.6887Z" fill="#DAFF8C"/>
<path d="M432.002 92.5278H442.286V102.813H432.002V92.5278Z" fill="#DAFF8C"/>
<path d="M462.864 123.373V113.096H452.572V123.373H462.864V133.661H442.29V143.938H421.716V133.661H431.998V123.373H442.29L442.286 102.813H473.145L473.146 123.373H462.864Z" fill="#DAFF8C"/>
<path d="M390.86 82.2479L401.145 82.2478V102.813L390.86 102.813L390.86 82.2479Z" fill="#DAFF8C"/>
<path d="M473.146 123.373L483.428 123.373V133.658H473.145L473.146 123.373Z" fill="#DAFF8C"/>
<path d="M421.718 82.2478L432.002 82.2479V92.5278L421.718 92.5279V82.2478Z" fill="#DAFF8C"/>
<path d="M555.428 123.373H565.717L565.712 133.661L555.428 133.658V123.373Z" fill="#DAFF8C"/>
<path d="M514.286 123.373H524.575V133.658H514.286V123.373Z" fill="#DAFF8C"/>
<path d="M555.431 143.938H534.857V123.373L524.575 123.373V113.096H545.149V133.661L555.428 133.658L555.431 143.938Z" fill="#DAFF8C"/>
<path d="M483.428 113.093H493.717V123.373H483.428V113.093Z" fill="#DAFF8C"/>
<path d="M504.001 123.373V113.096L493.717 113.093L493.72 102.808H514.283L514.286 123.373L504.001 123.373Z" fill="#DAFF8C"/>
<path d="M431.998 185.057V174.78H442.29V164.492H452.572V174.78H462.864V185.057H431.998Z" fill="#DAFF8C"/>
<path d="M514.286 164.497H524.575V185.061H514.286V164.497Z" fill="#DAFF8C"/>
<path d="M493.717 205.626H504.002V215.906H493.717V205.626Z" fill="#DAFF8C"/>
<path d="M493.717 164.497H504.002V185.061H493.717V164.497Z" fill="#DAFF8C"/>
<path d="M565.717 195.341H576.001V205.626H565.717V195.341Z" fill="#DAFF8C"/>
<path d="M545.144 195.341H555.428V205.626H545.144V195.341Z" fill="#DAFF8C"/>
<path d="M545.144 174.781H555.428V185.061H545.144V174.781Z" fill="#DAFF8C"/>
<path d="M596.575 185.061H606.859V195.342H596.575V185.061Z" fill="#DAFF8C"/>
<path d="M421.716 195.345V185.057H431.998V205.622H421.716V215.91H411.424V195.345H421.716Z" fill="#DAFF8C"/>
<path d="M483.428 195.341H493.717V205.626L483.428 205.626V195.341Z" fill="#DAFF8C"/>
<path d="M483.428 154.217H493.717V164.497H483.428V154.217Z" fill="#DAFF8C"/>
<path d="M452.572 164.492V154.215H442.29V143.938H462.864V154.215H473.146V164.492H452.572Z" fill="#DAFF8C"/>
<path d="M627.427 215.906H637.717V226.185H627.427V215.906Z" fill="#DAFF8C"/>
<path d="M648.001 328.999H658.285V339.279H648.001V328.999Z" fill="#DAFF8C"/>
<path d="M648.001 308.434H658.285V318.719H648.001V308.434Z" fill="#DAFF8C"/>
<path d="M586.286 195.341L596.575 195.342V205.626H586.286V195.341Z" fill="#DAFF8C"/>
<path d="M668.571 380.399H678.863V370.121H689.145L689.144 390.688L668.571 390.686V380.399Z" fill="#DAFF8C"/>
<path d="M648.001 287.875H658.285V298.154H648.001V287.875Z" fill="#DAFF8C"/>
<path d="M648.001 359.844H658.285V370.123H648.001V359.844Z" fill="#DAFF8C"/>
<path d="M401.143 164.492H431.998V174.78H421.716V185.057H411.424V174.78H401.143V164.492Z" fill="#DAFF8C"/>
<path d="M627.427 236.465H648.001V246.75H627.427V236.465Z" fill="#DAFF8C"/>
<path d="M648.001 246.75L668.571 246.753V267.307H658.289V257.03H647.997L648.001 246.75Z" fill="#DAFF8C"/>
<path d="M648.001 267.31L658.289 267.307L658.285 277.595H648.001V267.31Z" fill="#DAFF8C"/>
<path d="M329.15 92.5307H318.858V102.808H308.576V82.2428H329.15V92.5307Z" fill="#DAFF8C"/>
<path d="M298.287 71.9688H308.576V82.2428L298.287 82.2479V71.9688Z" fill="#DAFF8C"/>
<path d="M267.429 102.813H277.718V113.093L267.428 113.096L267.429 102.813Z" fill="#DAFF8C"/>
<path d="M288.002 71.9657V82.2428H277.721V61.6885H298.284L298.287 71.9688L288.002 71.9657Z" fill="#DAFF8C"/>
<path d="M267.429 51.4039H277.718L277.721 61.6885L267.429 61.6887V51.4039Z" fill="#DAFF8C"/>
<path d="M257.146 61.6887H267.429V82.2478H257.146V61.6887Z" fill="#DAFF8C"/>
<path d="M339.429 82.2479H349.718V92.5279H339.429V82.2479Z" fill="#DAFF8C"/>
<path d="M277.718 92.5278H288.003V102.813H277.718V92.5278Z" fill="#DAFF8C"/>
<path d="M318.858 102.808H329.15V113.096H339.432V123.373H318.858V102.808Z" fill="#DAFF8C"/>
<path d="M360.006 164.492H380.579V174.78H370.287V185.057H360.006V164.492Z" fill="#DAFF8C"/>
<path d="M329.145 71.9688H339.429V82.2479L329.15 82.2428L329.145 71.9688Z" fill="#DAFF8C"/>
<path d="M246.861 82.2479L257.146 82.2478V92.5279H246.861V82.2479Z" fill="#DAFF8C"/>
<path d="M329.15 92.5307L339.429 92.5279L339.432 102.808H329.15V92.5307Z" fill="#DAFF8C"/>
<path d="M257.146 92.5279L267.429 92.5278V102.813L257.147 102.808L257.146 92.5279Z" fill="#DAFF8C"/>
<path d="M288.003 41.1239H298.287V51.4039H288.003V41.1239Z" fill="#DAFF8C"/>
<path d="M349.718 61.6887L360.006 61.6885L360.002 82.2479H349.718L349.718 61.6887Z" fill="#DAFF8C"/>
<path d="M277.718 30.8439H288.003L288.003 41.1239L277.718 41.124V30.8439Z" fill="#DAFF8C"/>
<path d="M308.576 51.4039H318.861V61.6887H308.576V51.4039Z" fill="#DAFF8C"/>
<path d="M298.287 30.8439H318.861L318.861 41.124L298.287 41.1239V30.8439Z" fill="#DAFF8C"/>
<path d="M288.002 82.2428L298.287 82.2479L298.287 92.5279L288.003 92.5278L288.002 82.2428Z" fill="#DAFF8C"/>
<path d="M329.15 51.4006L318.861 51.4039V41.124L339.432 41.1234V61.6885H329.15V51.4006Z" fill="#DAFF8C"/>
<path d="M267.429 82.2478L277.721 82.2428L277.718 92.5278H267.429V82.2478Z" fill="#DAFF8C"/>
<path d="M318.861 61.6887L329.15 61.6885L329.145 71.9688H318.861V61.6887Z" fill="#DAFF8C"/>
<path d="M298.287 0H308.576V10.2791L298.284 10.2812L298.287 0Z" fill="#DAFF8C"/>
<path d="M339.429 637.439H349.718V647.719H339.429V637.439Z" fill="#DAFF8C"/>
<path d="M329.145 627.154H339.429V637.439H329.145V627.154Z" fill="#DAFF8C"/>
<path d="M246.861 637.439H257.146V647.719H246.861V637.439Z" fill="#DAFF8C"/>
<path d="M360.002 637.439H370.287V647.719H360.002V637.439Z" fill="#DAFF8C"/>
<path d="M370.287 627.158H360.006V616.87H380.579V637.435L370.287 637.439L370.287 627.158Z" fill="#DAFF8C"/>
<path d="M318.861 637.439H329.145V647.719H318.861V637.439Z" fill="#DAFF8C"/>
<path d="M257.146 647.719L267.429 647.719V657.998H257.146V647.719Z" fill="#DAFF8C"/>
<path d="M267.429 637.439H277.718V647.719L267.429 647.719V637.439Z" fill="#DAFF8C"/>
<path d="M277.721 616.87H267.428V606.593H257.147V596.305H277.721V606.593H288.002V616.87H298.284V637.435H308.576V647.723H288.002V637.435L277.718 637.439L277.721 616.87Z" fill="#DAFF8C"/>
<path d="M380.579 637.435L390.86 637.439V647.719H380.576L380.579 637.435Z" fill="#DAFF8C"/>
<path d="M308.576 616.874H318.861V637.439L308.576 637.435V616.874Z" fill="#DAFF8C"/>
<path d="M349.718 647.719H360.002V657.998H349.718L349.718 647.719Z" fill="#DAFF8C"/>
<path d="M493.717 586.029H504.002L504.001 596.305L493.717 596.309V586.029Z" fill="#DAFF8C"/>
<path d="M483.428 596.309H493.717V606.594H483.428V596.309Z" fill="#DAFF8C"/>
<path d="M606.859 174.781H627.427V185.061H606.859V174.781Z" fill="#DAFF8C"/>
<path d="M483.428 555.185H493.717V565.47H483.428V555.185Z" fill="#DAFF8C"/>
<path d="M493.717 565.47H504.002V575.75H493.717V565.47Z" fill="#DAFF8C"/>
<path d="M493.717 544.905H514.286V555.185H493.717V544.905Z" fill="#DAFF8C"/>
<path d="M431.998 637.435V658H421.716V647.723H411.424V637.435H431.998Z" fill="#DAFF8C"/>
<path d="M432.002 627.154H442.286V637.439L431.998 637.435L432.002 627.154Z" fill="#DAFF8C"/>
<path d="M442.286 616.874H462.86V627.154H442.286L442.286 616.874Z" fill="#DAFF8C"/>
<path d="M462.864 606.593L483.428 606.594L483.427 627.158H473.146V616.87L462.86 616.874L462.864 606.593Z" fill="#DAFF8C"/>
<path d="M504.002 575.75H514.286V586.029L504.002 586.029V575.75Z" fill="#DAFF8C"/>
<path d="M20.5775 400.968H30.8621V411.248H20.5775V400.968Z" fill="#DAFF8C"/>
<path d="M41.1478 442.094V452.371H51.4294V462.659H30.8663V472.936H20.5739V462.659H10.2924V452.371H30.8663V442.094H41.1478Z" fill="#DAFF8C"/>
<path d="M20.5739 349.567H30.8663V370.121H20.5739V380.399H30.8663V390.686H20.5739L20.5775 400.968L10.2924 400.964V339.279H20.5739V349.567Z" fill="#DAFF8C"/>
<path d="M20.5739 431.817H0V421.529H10.2924V411.252L20.5775 411.248L20.5739 431.817Z" fill="#DAFF8C"/>
<path d="M20.5739 431.817L30.8621 431.812L30.8663 442.094L20.5775 442.092L20.5739 431.817Z" fill="#DAFF8C"/>
<path d="M20.5775 328.999H30.8621V339.279L20.5739 339.279L20.5775 328.999Z" fill="#DAFF8C"/>
<path d="M92.5772 257.03H102.862V267.31H92.5772V257.03Z" fill="#DAFF8C"/>
<path d="M0.00402832 277.595H10.2885V287.875H0.00402832V277.595Z" fill="#DAFF8C"/>
<path d="M10.2885 287.875H20.5775V308.434H10.2885V287.875Z" fill="#DAFF8C"/>
<path d="M10.2885 318.719H20.5775V328.999L10.2885 328.999V318.719Z" fill="#DAFF8C"/>
<path d="M20.5775 308.434H30.8621V318.719L20.5775 318.719V308.434Z" fill="#DAFF8C"/>
<path d="M61.7217 472.936V483.213H72.0032V493.501H82.2849V514.055H72.0032V503.778H61.7217V493.501H51.4294V483.213H41.1478V493.501H30.8663V472.936H61.7217Z" fill="#DAFF8C"/>
<path d="M92.5772 616.87H113.151V627.158H102.859V637.435H92.5772V616.87Z" fill="#DAFF8C"/>
<path d="M113.151 637.435V627.158H133.714V637.435H144.007V658H133.714V647.723H102.859V637.435H113.151Z" fill="#DAFF8C"/>
<path d="M236.576 627.154H246.861V637.439H236.576V627.154Z" fill="#DAFF8C"/>
<path d="M185.144 637.435V616.87H174.862V596.305H185.144V606.593H195.425V596.305H205.717V606.593H215.999V627.158H205.717V616.87H195.425V637.435H215.999V627.158H226.291V637.435L236.576 637.439L236.573 647.723H185.144V658H174.862V647.723H154.288V637.435H185.144Z" fill="#DAFF8C"/>
<path d="M41.1478 637.435H51.4294V627.158H41.1478V616.87H51.4294V606.593H72.0032V616.87H61.7217V637.435H72.0032V616.87H82.2849V637.435H92.5772V658H82.2849V647.723H41.1478V637.435Z" fill="#DAFF8C"/>
<path d="M144.007 627.158H133.714V616.87H113.151V606.593H133.714V596.305H154.288V606.593H144.007V616.87H154.288V637.435H144.007V627.158Z" fill="#DAFF8C"/>
<path d="M30.8663 544.908V534.62H41.1478V544.908H51.4294V555.185H30.8663V565.473H20.5739V586.028H30.8663V596.305H20.5739V616.87H30.8663V627.158H20.5739V637.435H10.2924V555.185H20.5739V544.908H30.8663Z" fill="#DAFF8C"/>
<path d="M30.8663 503.778H20.5739V514.055H30.8663V534.62H20.5739V544.908H10.2924L10.2885 483.217L20.5739 483.213V493.501H30.8663V503.778Z" fill="#DAFF8C"/>
<path d="M30.8621 647.719L41.1478 647.723L41.1465 657.998H30.8621V647.719Z" fill="#DAFF8C"/>
<path d="M20.5739 637.435L30.8621 637.439V647.719L20.5775 647.719L20.5739 637.435Z" fill="#DAFF8C"/>
<path d="M390.861 616.87H401.143V627.158H411.424V637.435L390.86 637.439L390.861 616.87Z" fill="#DAFF8C"/>
<path d="M740.574 246.75H750.859V257.03H740.574V246.75Z" fill="#DAFF8C"/>
<path d="M750.859 257.03H761.143V267.31H750.859V257.03Z" fill="#DAFF8C"/>
<path d="M750.859 205.626H761.143V215.906H750.859V205.626Z" fill="#DAFF8C"/>
<path d="M740.574 215.906L750.859 215.906V236.465H740.574V215.906Z" fill="#DAFF8C"/>
<path d="M730.285 236.465L740.574 236.465V246.75H730.285V236.465Z" fill="#DAFF8C"/>
<path d="M740.574 267.31L750.859 267.31L750.859 277.595H740.574V267.31Z" fill="#DAFF8C"/>
<path d="M740.574 349.567V339.279H730.282V329.002H750.856V349.567H740.574Z" fill="#DAFF8C"/>
<path d="M730.285 277.595H740.574V298.154H730.285V277.595Z" fill="#DAFF8C"/>
<path d="M750.859 318.719H771.427V328.999L750.856 329.002L750.859 318.719Z" fill="#DAFF8C"/>
<path d="M730.285 308.434H750.859L750.859 318.719L730.285 318.719V308.434Z" fill="#DAFF8C"/>
<path d="M720.001 298.154L730.285 298.154V308.434L720.001 308.434V298.154Z" fill="#DAFF8C"/>
<path d="M637.715 195.345V205.622H627.423L627.427 185.061L637.715 185.057V174.78H647.997V195.345H637.715Z" fill="#DAFF8C"/>
<path d="M658.285 185.061H668.574V195.342H658.285V185.061Z" fill="#DAFF8C"/>
<path d="M668.574 195.342L678.859 195.341V205.626H668.574V195.342Z" fill="#DAFF8C"/>
<path d="M689.145 215.91V226.187H668.571V215.91H678.863L678.859 205.626L699.426 205.622V215.91H689.145Z" fill="#DAFF8C"/>
<path d="M647.997 195.345L658.285 195.342L658.285 205.626H648.001L647.997 195.345Z" fill="#DAFF8C"/>
<path d="M750.856 349.567L761.143 349.564V359.844H750.859L750.856 349.567Z" fill="#DAFF8C"/>
<path d="M740.574 195.341H750.859V205.626L740.574 205.626V195.341Z" fill="#DAFF8C"/>
<path d="M699.426 215.91L709.716 215.906V226.185H699.427L699.426 215.91Z" fill="#DAFF8C"/>
<path d="M730.282 226.187H720V205.622H709.719V195.345H730.282V226.187Z" fill="#DAFF8C"/>
<path d="M730.285 185.061H740.574V195.341L730.282 195.345L730.285 185.061Z" fill="#DAFF8C"/>
<path d="M709.716 226.185L720 226.187L720.001 246.75H709.716V226.185Z" fill="#DAFF8C"/>
<path d="M524.575 524.343H514.283V534.62H483.427L483.428 555.185L462.864 555.185V534.62H473.146V514.055H483.427V524.343H493.72V514.055H514.283V493.501H504.001V483.213H524.575V493.501H534.857L534.86 503.781L524.575 503.778V514.055L534.86 514.06L534.857 534.62H524.575V524.343Z" fill="#DAFF8C"/>
<path d="M606.86 462.659L627.427 462.656V472.937L606.86 472.936V462.659Z" fill="#DAFF8C"/>
<path d="M627.427 452.372H637.717V462.656H627.427V452.372Z" fill="#DAFF8C"/>
<path d="M380.576 431.812H390.86V442.092H380.576V431.812Z" fill="#DAFF8C"/>
<path d="M637.717 493.501L637.715 483.213L627.427 483.216V472.937H648.001L647.997 493.501L637.717 493.501Z" fill="#DAFF8C"/>
<path d="M390.861 472.936H401.143V462.659H411.424V483.213H390.861V472.936Z" fill="#DAFF8C"/>
<path d="M606.86 452.371L606.859 442.092H617.144V431.812H606.859V421.533H596.575V431.812H576.001V421.533H565.717V431.812H576.001L576.001 442.092H565.717L565.712 452.371H555.431L555.428 431.812H514.286V421.533H504.001V431.812H514.286V452.372H524.575V442.092H545.144L545.149 452.371L534.86 452.372L534.857 462.659L524.575 462.656V472.936L514.286 472.937V462.656L504.001 462.659V442.091H483.427V452.371L462.859 452.371V442.092H473.144V431.812H483.427V421.533H493.717V411.248H483.427V421.533H473.144V431.812H462.859V442.092H452.575L452.575 431.812H442.286L442.286 442.092H432.001V431.812H421.717V421.533H411.428V431.812H421.717L421.718 442.092H432.001L432.002 452.372H442.286L442.286 462.656H452.575V452.372L462.859 452.371L462.864 472.936L452.575 472.937V483.217H442.286V472.937H432.002V493.502H452.576L452.575 483.217L462.864 483.213L462.86 493.501H473.145L473.146 514.055L462.86 514.06V503.781H452.576V514.06H432.002V524.34H421.718V534.625H411.428V544.905H401.145V534.625H380.576V544.905H370.287V534.625H360.002V544.905H349.718V534.625H339.429V524.34H329.145V514.06H318.861V534.625L339.429 534.625V544.905H318.861V555.185H308.576V524.34H298.287V555.185H277.718V544.905H288.002V534.625H277.718L277.718 544.905H267.429V534.625H257.145V544.905H246.861V555.185H236.576V534.625H216.002V544.905H195.428V534.625H174.86V555.185H154.286V534.625H144.002V555.185H133.718V544.905H123.428V534.625H133.718V524.341H144.003V514.061H133.719L133.718 524.341H123.43V514.061H113.146V493.501L123.43 493.501V483.216H133.719V493.501H144.003V483.216H133.719V472.936H123.43V483.216L113.146 483.216V431.813L133.719 431.812V421.533H144.003V442.092H154.288V421.533H144.003L144.004 411.248H133.719L133.719 421.533H123.43V411.248H113.146V400.968H123.43V390.688H113.146V370.123L123.43 370.123L123.43 359.844L133.719 359.844V349.564L123.43 349.564L123.43 339.279L113.146 339.279L113.151 329.002L123.43 328.999L123.43 318.719L133.719 318.719V328.999H144.003V318.719H154.288V308.434H144.004L144.003 318.719H133.719V298.154H123.43V287.875H102.862V277.595H113.147V246.75H133.719V257.03H144.003V277.595H133.719V267.311H123.43V277.595L133.719 277.595V287.875H144.003V277.595L154.288 277.595V257.03L144.003 257.03L144.004 246.75L133.719 246.75L133.719 236.465H144.003V226.185H133.719L133.719 236.465L113.146 236.465L113.147 246.75H92.5772V236.465H102.862V226.185H123.43V215.906H144.004V205.626H154.288V246.75H174.862V226.185H185.146V236.465H195.43V246.75H185.146V257.03H195.43V246.75H216.004V257.03H205.719V277.595H216.004V287.875H205.719V298.154H195.43V318.719H205.719V339.279H216.003V318.719L205.719 318.719L205.719 298.154L216.003 298.154V308.434H226.287V298.154H216.003L216.004 287.875L226.287 287.875V277.595H236.576V267.31H226.287V277.595L216.004 277.595V257.03L226.287 257.03V246.75H236.576V236.465H226.287V246.75L216.004 246.75L216.003 236.465L195.43 236.465L195.429 226.185L185.146 226.185L185.146 215.906H205.719V226.185H216.003V215.906H226.287V226.185H236.576V215.906H246.861V226.185H267.429V236.465H277.718V226.185H267.429V205.626H257.146V215.906H246.861V205.626H236.576V195.341H226.287V185.061H236.576V174.781H216.003V164.497H236.576V154.217H226.287V133.658H216.003V123.373L236.573 123.373L236.577 143.938H267.429L267.428 133.661L277.718 133.658V113.093L288.002 113.093L288.003 102.813L298.287 102.813V113.093H308.576V123.373H318.858L318.861 133.658H339.429L339.432 123.373H349.713V143.938H318.861V154.217H339.429V164.497L349.713 164.492L349.718 174.782H339.429V185.062H318.861V195.342H308.576V174.781H329.145V164.497H308.576V174.781H298.287V164.497H288.002V143.938H277.718V164.497H267.429V174.781H257.145V164.497H246.861V185.062H267.429L267.429 174.781L277.718 174.782L277.718 164.497H288.002V174.781H298.287V195.341L308.576 195.342V205.626H318.861V195.342L339.429 195.341V185.062L360.006 185.057L360.003 195.341H370.287V185.057L380.576 185.061V205.627H390.861V185.061H380.576L380.579 174.78H401.143L401.145 185.061L411.424 185.057V195.345L401.145 195.341V226.185H421.718L421.716 215.91L432.002 215.906V226.185H452.576V236.465H473.145V246.75H462.86V257.03H473.145V246.75H483.428V236.465H473.145V226.185H452.576L452.575 215.906H432.002L431.998 205.622L442.286 205.626V195.341H462.86L462.864 185.057L473.144 185.061L473.146 164.492L483.428 164.497V195.341L473.144 195.341V205.626H462.86V215.906H473.144V205.626L483.428 205.626L483.428 226.185H514.286V205.626H504.002V185.061H514.286V195.341H524.575V185.061H545.144V195.341L534.86 195.341V205.626H524.575V226.185H534.86V205.626L545.144 205.626V236.465H534.86V246.75H545.144V236.465H565.717V226.185H555.428V205.626H565.717L565.717 215.906H576.001V205.626H586.286L586.286 226.185H576.002V236.465H586.286V246.75H606.86V236.465H586.286V226.185H627.427V236.465H617.144V246.75H627.427V257.03H606.859V267.31H596.575V257.03H586.286V267.31H596.575V277.595H576.001V267.31H565.717V277.595H555.427V257.03H576.001V246.75H555.427V257.03H545.144V277.595H555.427V287.875H565.717V277.595H576.001L576.001 287.875H596.575L596.575 277.595H606.86L606.859 267.31L627.427 267.31V257.03L647.997 257.03L648.001 267.31L637.717 267.31V277.595L648.001 277.595V287.875L637.717 287.875V298.154L648.001 298.154V308.434L627.427 308.434V318.719H617.144V308.434H596.575V318.719H586.286V328.999H596.575V339.279H606.859V328.999L596.575 328.999V318.719H617.144V328.999H627.427V318.719L648.001 318.719V328.999L637.717 328.999V339.279H627.428V349.564H637.717L637.717 339.279L648.001 339.279V359.844L637.717 359.844V370.123L648.001 370.123V390.688L668.571 390.686L668.575 400.968H648.001V431.813H627.427L627.427 452.372L606.86 452.371ZM133.719 452.372H123.43V462.656H133.719V452.372ZM288.002 133.658H298.287V154.217H308.576V133.658H298.287V123.373H288.002V133.658ZM606.859 298.154H627.427V277.595H617.144V287.875H606.859V298.154ZM534.86 411.248H545.144V400.968H534.86V411.248ZM514.286 411.248H524.575V390.688H514.286L514.286 411.248ZM514.286 359.844H524.575V370.123H534.86V359.844H545.144V349.564H534.86V359.844L524.575 359.844V349.564H514.286L514.286 359.844ZM534.86 339.279V328.999H524.575V339.279L534.86 339.279ZM473.145 380.403H483.428V390.687H493.717V400.967H504.001V390.687H493.717L493.717 380.403H504.001V370.123H493.717V380.403L483.428 380.403L483.428 370.123H473.144L473.145 380.403ZM493.717 349.564V359.844H504.001V349.564L493.717 349.564ZM504.002 328.998V318.719H493.717V328.998H504.002ZM473.145 349.564V359.844H483.428V349.564L473.145 349.564V328.999H483.428V318.719H473.145V328.999H462.86V349.564L473.145 349.564ZM452.575 380.403V390.687H462.86V380.403L452.575 380.403ZM421.718 411.248H432.002V400.967H442.286V411.248H452.575V421.532H462.86V411.248H452.575V400.967H442.286V390.687H432.002V400.967H421.718V411.248ZM442.286 339.279H452.575V328.999H442.286V339.279ZM432.002 349.564V370.123H442.286V349.564L432.002 349.564ZM421.718 370.123V359.844H411.428V370.123L421.718 370.123ZM421.718 339.279V328.999H411.428V339.279H421.718ZM390.861 483.213L390.86 493.501H411.428V514.06H390.86V524.34H411.428V514.06H421.718V493.501H411.428L411.424 483.213L421.718 483.216V452.372H401.145L401.143 462.659L390.86 462.656L390.861 472.936L380.576 472.937V483.216L390.861 483.213ZM339.429 349.564V359.844H349.718V370.123H360.002V359.844H349.718V349.564H360.002V339.279H349.718V349.564L339.429 349.564ZM339.429 287.875V308.434H349.718V287.875L339.429 287.875ZM349.718 267.31V257.03H339.429V267.31H349.718ZM298.287 287.875V277.595H277.718V287.875L298.287 287.875ZM277.718 308.434V318.719H288.002V308.434H277.718ZM288.003 328.999V339.279H298.287V328.999L288.003 328.999ZM288.003 370.123V380.403H298.287V370.123H288.003ZM298.287 308.435H308.576V298.155H298.287V308.435ZM298.287 390.688V400.968H308.576V390.688H298.287ZM308.576 267.311H318.861V257.031H308.576V267.311ZM308.576 339.279V349.564H318.861V339.279L308.576 339.279ZM308.576 452.372V462.657H329.145V452.372H349.718V442.092H360.002V431.812H339.428V442.092H329.145V431.812H318.86V442.092H329.145L329.145 452.372H308.576ZM380.576 462.657V452.372H390.86V442.092H401.145V431.812H390.86V421.533H380.576V431.812H370.287V442.092H380.576V452.372L360.002 452.372V472.937H370.287V462.657L380.576 462.657ZM380.576 400.968V411.248H390.86V400.968H401.145V390.688H390.86V400.968H380.576V390.688H360.002V400.968H380.576ZM401.145 380.403V370.123H390.86V380.403H401.145ZM390.86 328.999V308.434H380.576V328.999H390.86ZM329.145 411.248V400.968H318.861V411.248H329.145ZM318.861 390.688H339.429V380.403H318.861V390.688ZM360.002 318.719H370.287V308.434H360.003L360.002 318.719ZM380.576 267.31V257.03H370.287V267.31H380.576ZM370.287 359.844V370.123H380.576V359.844H370.287ZM380.576 287.875H401.145V277.595H380.576L380.576 287.875ZM390.86 339.279V349.564H401.145V339.279H390.86ZM401.145 318.719H411.428V308.434H401.145V318.719ZM360.002 524.34H370.287V514.06H380.576V493.501H370.287V503.781H360.003L360.002 524.34ZM277.718 524.34H288.002V514.06H298.287V503.781H308.576V483.216H318.861V493.501H329.145V483.216H349.718V493.501H339.429V514.06H349.718V493.501H360.002V483.216H349.718V472.936H329.145V483.216H318.861V472.936H308.576V483.216H298.287V503.781H288.002V514.06H277.718L277.718 524.34ZM277.718 493.501H288.002V472.936H298.287V462.656H288.002V472.936H277.718L277.718 493.501ZM277.718 452.371H298.287V431.812H277.718V452.371ZM277.718 411.247H288.002V400.967H277.718L277.718 411.247ZM277.718 380.402V370.122H267.429V380.402H277.718ZM267.429 400.967V390.687H257.146V400.967H267.429ZM257.146 431.812V442.091H267.429V431.812H257.146ZM257.146 514.06H267.429V493.501H257.146V514.06ZM257.146 462.656V472.936H267.429V452.371H246.861V442.092H236.576V452.372L246.861 452.371V462.656L257.146 462.656ZM236.576 483.216V524.34H246.861V483.216L236.576 483.216V472.937H226.287V483.216L236.576 483.216ZM226.287 411.247V400.967H216.003V411.247H226.287V421.532H216.003V431.812H236.577V411.247L226.287 411.247ZM236.576 390.687V380.403H226.287V390.688L236.576 390.687ZM205.719 442.092V452.372H226.287V442.092H205.719ZM216.003 524.34H226.287V514.06H216.003V524.34ZM216.003 503.781H226.287V493.501H216.003V503.781ZM195.429 514.06H205.719V503.781H195.429L195.429 514.06ZM195.429 493.501H205.719V483.216H195.429L195.429 493.501ZM195.429 472.936H216.003V462.656H195.429V472.936ZM195.429 452.371V431.812H185.146V452.372L195.429 452.371ZM174.861 514.06H185.146V503.781H174.861V514.06ZM154.287 524.34H164.576V514.06H154.288L154.287 524.34ZM144.003 452.371V462.656H154.288V472.936H164.577V483.216H154.288V493.501H164.577V483.216L174.862 483.216V493.501H185.146V483.216H174.862V472.936L164.577 472.936V462.656L154.288 462.656V452.371L144.003 452.371ZM164.577 421.532V431.812H174.862V421.532H185.146V400.967H174.862V421.532H164.577ZM164.577 442.091V452.371H174.862V442.092L164.577 442.091ZM154.288 411.247H164.577V400.967H154.288L154.288 411.247ZM133.719 400.967H144.003V390.687H133.719V400.967ZM133.719 370.122V380.402H154.288V390.687H164.577V380.403L154.288 380.402V370.123L133.719 370.122ZM174.862 257.03H164.577V267.31H174.862V257.03ZM195.429 267.31H185.146V277.595H174.862V298.154H164.577V287.875H154.288V298.154H164.577L164.577 318.719H174.862L174.862 298.154H185.146V287.875H195.43L195.429 267.31ZM195.429 328.999H174.862V339.279H164.577V328.999H154.288V339.279H164.577L164.577 349.564H144.003V359.844H164.577V349.564L174.862 349.564L174.862 339.279H195.429V328.999ZM205.719 349.564H185.146V359.844H174.862V370.123H185.146V380.403H174.862V390.688H185.146V380.403L195.429 380.403V370.123L185.146 370.123V359.844H205.719V349.564ZM226.287 339.279V349.564H216.003V370.123H205.719V390.688H195.429V411.248H205.719V390.688L216.003 390.688V370.123L226.287 370.123V349.564L236.576 349.564V339.279H226.287ZM236.576 318.719V328.999H246.861V318.719H236.576ZM246.861 287.875V298.154H257.146V287.875H246.861ZM267.429 246.75H257.146V267.31H267.429V246.75ZM267.429 339.279V328.999H257.146V339.279H267.429V349.564H277.718V339.279H267.429ZM308.576 215.906H298.287V205.626H288.002V185.061H277.718V205.626H288.002V215.906H298.287V226.185H308.576V215.906ZM298.287 236.465V246.75H318.861V236.465H298.287ZM329.145 215.906H318.861V226.185H329.145V215.906ZM329.145 277.595H318.861V287.875H329.145V277.595ZM329.145 328.999V339.279H339.429V328.999L329.145 328.999ZM360.002 205.626H339.428V226.185H360.002V205.626ZM360.002 236.465H339.428V246.75H360.002V236.465ZM360.002 277.596V287.876H370.287V277.595L360.002 277.596ZM390.86 215.907H370.287V226.186H390.86V215.907ZM390.86 236.466H380.576V246.751H390.86V236.466ZM390.86 257.031V267.311H401.145V257.031H390.86ZM421.718 236.466H401.145V246.751H421.718V236.466ZM421.718 257.031H411.428V267.311H421.718V257.031ZM421.718 277.596H411.428V287.876H421.718V277.596ZM421.718 298.155V308.435H442.286V298.155H421.718ZM442.286 236.466H432.002V246.751H442.286V236.466ZM452.575 267.311H442.286V277.595H432.002V287.875H442.286V277.595H452.575V267.311ZM483.428 267.311H462.86V277.595H483.428V267.311ZM504.001 236.465H493.717V246.75H504.001V236.465ZM504.001 267.31H493.717V277.595H504.001V267.31ZM483.427 287.875V298.154H473.144V287.875H462.859V298.154H452.575V308.434H462.859V298.154H473.144V308.434H483.427V298.154H504.001V308.434H514.286V318.719H524.575V308.434H514.286V287.875H524.575V277.595H514.286V287.875L483.427 287.875ZM534.859 257.03H524.575V236.465H514.286V257.03H524.575V267.31H534.86L534.859 257.03ZM555.427 298.154H545.144V287.875H534.859V298.154H545.144V318.719H555.427V298.154ZM555.427 328.999H545.144V339.279H555.427V328.999ZM555.427 370.123H545.144V380.403H534.859V390.688H545.144V380.403L555.427 380.403V370.123ZM555.427 400.968V411.248H565.716V400.968H576.001V411.248H586.286V400.968H576.001L576.002 390.688H586.286V380.403H576.002V390.688L565.717 390.688L565.716 400.968H555.427ZM576.001 370.123V359.844H565.717V370.123L576.001 370.123ZM586.286 298.154H565.717V308.434H586.286V298.154ZM586.286 339.279H576.002V328.999H565.717V349.564H586.286V339.279ZM627.428 359.844H617.144V349.564H606.86V359.844L617.144 359.844V370.123H627.428V359.844ZM637.717 400.968V390.688H617.144V380.403H606.86V370.123H596.575V359.844H586.286V370.123L596.575 370.123V380.403L606.86 380.403V400.968H596.575V411.248H606.86V400.968L637.717 400.968ZM627.428 421.533V411.248H617.144V421.533H627.428Z" fill="#DAFF8C"/>
<path d="M514.283 534.62H524.575V544.905L514.286 544.905L514.283 534.62Z" fill="#DAFF8C"/>
<path d="M647.997 493.501H668.571V514.055H658.289V503.778H647.997V493.501Z" fill="#DAFF8C"/>
<path d="M534.857 534.62L545.144 534.625V544.905L534.86 544.905L534.857 534.62Z" fill="#DAFF8C"/>
<path d="M545.144 514.06L555.431 514.055L555.428 503.781L565.712 503.778L565.717 483.217L586.286 483.213L586.286 493.501L576.005 493.501V514.055H565.712V524.343H576.005V514.055L586.286 514.06L586.286 524.343H596.578L596.575 514.06L606.86 514.055V524.343H627.423V514.055H637.715L637.717 534.625H545.144V514.06Z" fill="#DAFF8C"/>
<path d="M637.717 503.781L647.997 503.778L648.001 514.06L637.715 514.055L637.717 503.781Z" fill="#DAFF8C"/>
<path d="M750.859 400.968H761.143V411.248H750.859V400.968Z" fill="#DAFF8C"/>
<path d="M750.859 411.248L750.856 421.529H761.148V431.817H740.574V411.252L750.859 411.248Z" fill="#DAFF8C"/>
<path d="M730.282 390.686H750.856L750.859 400.968L740.574 400.964V411.252H730.282V390.686Z" fill="#DAFF8C"/>
<path d="M761.143 411.248H771.427V421.533L761.148 421.529L761.143 411.248Z" fill="#DAFF8C"/>
<path d="M740.574 359.844H750.859V370.123H740.574V359.844Z" fill="#DAFF8C"/>
<path d="M648.001 431.813L658.285 431.812V452.372H648.001V431.813Z" fill="#DAFF8C"/>
<path d="M750.859 370.123L771.427 370.123V390.688L750.856 390.686L750.859 370.123Z" fill="#DAFF8C"/>
<path d="M658.289 411.252H668.571L668.575 400.968L689.144 400.968L689.145 411.252H678.863V421.529H668.571V431.817L658.285 431.812L658.289 411.252Z" fill="#DAFF8C"/>
<path d="M709.719 421.529H720V411.252H730.282V431.817H709.719V421.529Z" fill="#DAFF8C"/>
<path d="M689.145 421.529V411.252H709.719V421.529H699.426V431.817H678.863V421.529H689.145Z" fill="#DAFF8C"/>
<path d="M699.426 431.817H709.719L709.716 442.092H699.427L699.426 431.817Z" fill="#DAFF8C"/>
<path d="M421.718 555.185H442.286V565.47H421.718V555.185Z" fill="#DAFF8C"/>
<path d="M205.719 575.75H216.003V596.309L205.717 596.305L205.719 575.75Z" fill="#DAFF8C"/>
<path d="M30.8663 627.158H41.1478V637.435L30.8621 637.439L30.8663 627.158Z" fill="#DAFF8C"/>
<path d="M216.003 596.309H226.287V606.594L215.999 606.593L216.003 596.309Z" fill="#DAFF8C"/>
<path d="M257.146 616.874L267.428 616.87L267.429 637.439H257.146V616.874Z" fill="#DAFF8C"/>
<path d="M236.573 596.305H246.865V606.593H257.147L257.146 616.874L236.573 616.87V596.305Z" fill="#DAFF8C"/>
<path d="M246.861 575.75H257.146L257.147 596.305H246.865L246.861 575.75Z" fill="#DAFF8C"/>
<path d="M185.146 586.029H195.429L195.425 596.305H185.144L185.146 586.029Z" fill="#DAFF8C"/>
<path d="M72.0032 586.028H61.7217V575.75H72.0032V565.473H92.5772V575.75H82.2849V596.305H92.5772V575.75H113.151V565.473H123.433V555.185H133.718L133.714 575.75H123.433V586.028H133.714V596.305H113.151V586.028H102.859V596.305H113.151V606.593H92.5772V616.87H82.2849V606.593H72.0032V586.028Z" fill="#DAFF8C"/>
<path d="M154.288 575.75H164.581V586.028H174.862V596.305H154.288V575.75Z" fill="#DAFF8C"/>
<path d="M154.288 606.593L164.577 606.594V616.874L154.288 616.87V606.593Z" fill="#DAFF8C"/>
<path d="M164.577 616.874L174.862 616.87L174.862 627.154H164.577L164.577 616.874Z" fill="#DAFF8C"/>
<path d="M226.287 616.874L236.573 616.87L236.576 627.154L226.291 627.158L226.287 616.874Z" fill="#DAFF8C"/>
<path d="M349.718 606.594H360.002L360.006 616.87L349.718 616.874V606.594Z" fill="#DAFF8C"/>
<path d="M380.576 606.594H390.86L390.861 616.87H380.579L380.576 606.594Z" fill="#DAFF8C"/>
<path d="M349.718 627.154L360.006 627.158L360.002 637.439H349.718L349.718 627.154Z" fill="#DAFF8C"/>
<path d="M401.143 596.305H421.716V606.593H411.424V616.87H401.143V596.305Z" fill="#DAFF8C"/>
<path d="M411.424 616.87L421.718 616.874V627.154L411.424 627.158V616.87Z" fill="#DAFF8C"/>
<path d="M318.861 606.594H339.429V616.874H318.861L318.861 606.594Z" fill="#DAFF8C"/>
<path d="M288.003 596.309H298.287V606.594L288.002 606.593L288.003 596.309Z" fill="#DAFF8C"/>
<path d="M298.287 606.594H308.576V616.874L298.284 616.87L298.287 606.594Z" fill="#DAFF8C"/>
<path d="M277.718 586.029H288.003L288.003 596.309L277.721 596.305L277.718 586.029Z" fill="#DAFF8C"/>
<path d="M339.429 616.874H349.718V627.154H339.429V616.874Z" fill="#DAFF8C"/>
<path d="M72.0036 472.937L82.2849 472.936L82.2881 483.217L72.0032 483.213L72.0036 472.937Z" fill="#DAFF8C"/>
<path d="M30.8621 287.875H41.1465V308.434H30.8621V287.875Z" fill="#DAFF8C"/>
<path d="M30.8621 339.279H41.1465V349.564L30.8663 349.567L30.8621 339.279Z" fill="#DAFF8C"/>
<path d="M30.8621 318.719H41.1465V328.999H30.8621V318.719Z" fill="#DAFF8C"/>
<path d="M41.1478 390.686V380.399H51.4294L51.43 359.844H72.0036V370.123L61.7217 370.121L61.7193 390.688L51.4294 390.686L51.43 400.968H30.8621L30.8663 390.686H41.1478Z" fill="#DAFF8C"/>
<path d="M30.8663 370.121L41.1465 370.123L41.1478 380.399H30.8663V370.121Z" fill="#DAFF8C"/>
<path d="M20.5775 277.595H30.8621V287.875H20.5775V277.595Z" fill="#DAFF8C"/>
<path d="M30.8621 226.185H51.43V236.465H30.8621V226.185Z" fill="#DAFF8C"/>
<path d="M61.7217 246.753V257.03L51.43 257.03V236.465L61.7217 236.465V226.187H72.0032V246.753H61.7217Z" fill="#DAFF8C"/>
<path d="M30.8621 267.31L20.5739 267.307V246.753H10.2924V236.465L30.8621 236.465L30.8621 267.31Z" fill="#DAFF8C"/>
<path d="M51.43 411.248V421.533L41.1478 421.529V431.817L30.8621 431.812V411.248H51.43Z" fill="#DAFF8C"/>
<path d="M10.2885 267.31L20.5739 267.307L20.5775 277.595H10.2885V267.31Z" fill="#DAFF8C"/>
<path d="M51.4294 442.094H61.7217L61.7193 431.813L72.0032 431.817V442.094L92.5772 442.092V452.371H82.2849V462.659H72.0032V452.371H51.4294V442.094Z" fill="#DAFF8C"/>
<path d="M30.8663 503.778L41.1465 503.781V514.06L30.8663 514.055V503.778Z" fill="#DAFF8C"/>
<path d="M41.1478 493.501H51.4294L51.43 503.781H41.1465L41.1478 493.501Z" fill="#DAFF8C"/>
<path d="M61.7217 555.185V544.908H92.5772V534.62H102.859V524.343H92.5772V493.501L102.862 493.501L102.859 514.055L113.146 514.061L113.151 524.343L123.43 524.341L123.428 534.625L113.151 534.62V544.908H102.859V555.185H72.0032V565.473H51.4294V555.185H61.7217Z" fill="#DAFF8C"/>
<path d="M72.0032 524.343H92.5772V534.62H61.7217V524.343H51.4294V534.62H41.1478L41.1465 514.06L51.4294 514.055L51.43 503.781L61.7217 503.778V514.055H72.0032V524.343Z" fill="#DAFF8C"/>
<path d="M51.4294 534.62H61.7217V544.908H51.4294V534.62Z" fill="#DAFF8C"/>
<path d="M41.1478 431.817L51.43 431.813L51.4294 442.094H41.1478V431.817Z" fill="#DAFF8C"/>
<path d="M61.7193 462.656L72.0032 462.659L72.0036 472.937L61.7217 472.936L61.7193 462.656Z" fill="#DAFF8C"/>
<path d="M51.4294 565.473V586.028H61.7217V596.305H51.4294V606.593H41.1478V616.87H30.8663V596.305H41.1478V586.028H30.8663V565.473H51.4294Z" fill="#DAFF8C"/>
<path d="M421.716 606.593L432.002 606.594V616.874H421.718L421.716 606.593Z" fill="#DAFF8C"/>
<path d="M82.2881 483.217L92.5772 483.213V493.501H82.2849L82.2881 483.217Z" fill="#DAFF8C"/>
<path d="M462.864 575.75H483.427V586.028H473.146V596.305H462.864V575.75Z" fill="#DAFF8C"/>
<path d="M308.576 596.309H318.861L318.861 606.594H308.576V596.309Z" fill="#DAFF8C"/>
<path d="M339.429 596.309H349.718L349.718 606.594H339.429V596.309Z" fill="#DAFF8C"/>
<path d="M360.002 575.75H370.287V586.029H360.002V575.75Z" fill="#DAFF8C"/>
<path d="M288.002 575.75H308.576V596.309H298.287L298.284 586.028L288.003 586.029L288.002 575.75Z" fill="#DAFF8C"/>
<path d="M360.002 596.309H370.287V606.594H360.002V596.309Z" fill="#DAFF8C"/>
<path d="M370.287 586.029L380.576 586.029V596.309H370.287V586.029Z" fill="#DAFF8C"/>
<path d="M226.287 575.75H236.576L236.573 596.305L226.287 596.309V575.75Z" fill="#DAFF8C"/>
<path d="M216.003 565.47H226.287V575.75H216.003V565.47Z" fill="#DAFF8C"/>
<path d="M257.146 565.47H267.429V575.75H257.146V565.47Z" fill="#DAFF8C"/>
<path d="M267.429 575.75H277.718V586.029L267.429 586.029V575.75Z" fill="#DAFF8C"/>
<path d="M236.576 565.47H246.861V575.75H236.576V565.47Z" fill="#DAFF8C"/>
<path d="M401.145 565.47H411.428V575.75H401.145V565.47Z" fill="#DAFF8C"/>
<path d="M185.144 565.473H195.425V555.185H215.999L216.003 565.47L205.717 565.473L205.719 575.75L185.144 575.75V565.473Z" fill="#DAFF8C"/>
<path d="M390.86 575.75H401.145L401.143 596.305L390.86 596.309V575.75Z" fill="#DAFF8C"/>
<path d="M113.151 544.908L123.428 544.905L123.433 555.185L113.146 555.185L113.151 544.908Z" fill="#DAFF8C"/>
<path d="M411.428 575.75H421.718V586.029H411.428V575.75Z" fill="#DAFF8C"/>
<path d="M339.432 575.75V565.473H349.713V555.185H380.579V565.473H360.006L360.002 575.75L339.432 575.75Z" fill="#DAFF8C"/>
<path d="M380.579 565.473L390.86 565.47L390.86 575.75H380.576L380.579 565.473Z" fill="#DAFF8C"/>
<path d="M329.145 575.75L339.432 575.75L339.429 596.309H329.145V575.75Z" fill="#DAFF8C"/>
<path d="M349.718 586.029L360.002 586.029V596.309H349.718L349.718 586.029Z" fill="#DAFF8C"/>
<path d="M308.576 565.47H318.861V575.75L308.576 575.75V565.47Z" fill="#DAFF8C"/>
<path d="M277.718 565.47H288.003L288.002 575.75L277.718 575.75V565.47Z" fill="#DAFF8C"/>
<path d="M102.859 555.185L113.146 555.185L113.151 565.473L102.862 565.47L102.859 555.185Z" fill="#DAFF8C"/>
<path d="M390.86 544.905L401.145 544.905V565.47H390.86L390.86 544.905Z" fill="#DAFF8C"/>
<path d="M298.287 555.185H308.576V565.47H298.287L298.287 555.185Z" fill="#DAFF8C"/>
<path d="M709.716 400.968H720.001L720 411.252H709.719L709.716 400.968Z" fill="#DAFF8C"/>
<path d="M339.429 544.905L349.718 544.905L349.713 555.185L339.429 555.185V544.905Z" fill="#DAFF8C"/>
<path d="M318.861 555.185L339.429 555.185L339.432 565.473L318.861 565.47V555.185Z" fill="#DAFF8C"/>
<path d="M432.002 524.34L452.572 524.343L452.576 514.06H462.86L462.864 534.62H452.572V544.908H442.29V534.62H431.998L432.002 524.34Z" fill="#DAFF8C"/>
<path d="M411.428 544.905L421.718 544.905L421.718 555.185H411.428V544.905Z" fill="#DAFF8C"/>
<path d="M72.0032 246.753L82.2881 246.75V267.31H72.0036L72.0032 246.753Z" fill="#DAFF8C"/>
<path d="M442.286 596.309L462.864 596.305V606.593L442.286 606.594V596.309Z" fill="#DAFF8C"/>
<path d="M421.718 586.029L431.998 586.028V575.75H442.29L442.286 596.309L421.716 596.305L421.718 586.029Z" fill="#DAFF8C"/>
<path d="M442.286 565.47H462.86L462.864 575.75H442.29L442.286 565.47Z" fill="#DAFF8C"/>
<path d="M267.429 555.185L277.718 555.185V565.47H267.429V555.185Z" fill="#DAFF8C"/>
<path d="M144.002 555.185H154.286L154.288 575.75L144.003 575.75L144.002 555.185Z" fill="#DAFF8C"/>
<path d="M174.86 555.185L185.146 555.185L185.144 565.473L174.861 565.47L174.86 555.185Z" fill="#DAFF8C"/>
<path d="M185.146 544.905H195.428L195.425 555.185L185.146 555.185V544.905Z" fill="#DAFF8C"/>
<path d="M133.714 575.75L144.003 575.75V586.029L133.714 586.028V575.75Z" fill="#DAFF8C"/>
<path d="M164.577 565.47H174.861L174.862 575.75L164.581 575.75L164.577 565.47Z" fill="#DAFF8C"/>
<path d="M174.862 575.75L185.144 575.75L185.146 586.029L174.862 586.028L174.862 575.75Z" fill="#DAFF8C"/>
<path d="M257.145 544.905H267.429L267.429 555.185H257.146L257.145 544.905Z" fill="#DAFF8C"/>
<path d="M216.002 544.905H226.287V555.185L215.999 555.185L216.002 544.905Z" fill="#DAFF8C"/>
<path d="M246.861 555.185L257.146 555.185V565.47H246.861L246.861 555.185Z" fill="#DAFF8C"/>
<path d="M226.287 555.185L236.576 555.185L236.576 565.47H226.287V555.185Z" fill="#DAFF8C"/>
<path d="M421.718 534.625L431.998 534.62L432.002 544.905L421.718 544.905V534.625Z" fill="#DAFF8C"/>
<path d="M709.716 349.564H720.001V359.844H709.716V349.564Z" fill="#DAFF8C"/>
<path d="M658.285 370.123L668.574 370.123L668.571 380.399L658.285 380.403L658.285 370.123Z" fill="#DAFF8C"/>
<path d="M720.001 359.844H730.285V370.123H720.001L720.001 359.844Z" fill="#DAFF8C"/>
<path d="M668.571 267.307L678.859 267.31V277.595H668.574L668.571 267.307Z" fill="#DAFF8C"/>
<path d="M699.427 318.719H709.716V328.999H699.427V318.719Z" fill="#DAFF8C"/>
<path d="M658.285 339.279H668.574V349.564H658.285L658.285 339.279Z" fill="#DAFF8C"/>
<path d="M658.285 277.595H668.574V287.875H658.285V277.595Z" fill="#DAFF8C"/>
<path d="M678.863 349.567V339.279H689.145V349.567H699.426V359.844L709.716 359.844L709.719 370.121H689.145V359.844H678.863V370.121L668.574 370.123V349.564L678.863 349.567Z" fill="#DAFF8C"/>
<path d="M565.717 174.781H576.001V185.061H565.717V174.781Z" fill="#DAFF8C"/>
<path d="M658.285 318.719L668.574 318.719V328.999L658.285 328.999V318.719Z" fill="#DAFF8C"/>
<path d="M689.144 308.434H699.427V318.719L689.144 318.719V308.434Z" fill="#DAFF8C"/>
<path d="M709.716 328.999L720.001 328.999V339.279H709.716V328.999Z" fill="#DAFF8C"/>
<path d="M678.859 318.719L689.144 318.719V328.999H678.859V318.719Z" fill="#DAFF8C"/>
<path d="M606.859 195.342L617.144 195.341V205.626H606.859L606.859 195.342Z" fill="#DAFF8C"/>
<path d="M678.859 298.154H689.144V308.434L678.859 308.434V298.154Z" fill="#DAFF8C"/>
<path d="M576.001 185.061H586.286V195.341H576.001V185.061Z" fill="#DAFF8C"/>
<path d="M699.427 339.279H709.716V349.564L699.426 349.567L699.427 339.279Z" fill="#DAFF8C"/>
<path d="M596.575 205.626H606.859L606.859 215.906H596.575V205.626Z" fill="#DAFF8C"/>
<path d="M668.574 308.434L678.859 308.434V318.719H668.574V308.434Z" fill="#DAFF8C"/>
<path d="M668.574 287.875H678.859V298.154H668.574V287.875Z" fill="#DAFF8C"/>
<path d="M689.144 328.999H699.427V339.279L689.145 339.279L689.144 328.999Z" fill="#DAFF8C"/>
<path d="M668.574 328.999H678.859L678.863 339.279L668.574 339.279V328.999Z" fill="#DAFF8C"/>
<path d="M658.285 298.154H668.574V308.434H658.285V298.154Z" fill="#DAFF8C"/>
<path d="M689.144 287.875H699.427V298.154H689.144V287.875Z" fill="#DAFF8C"/>
<path d="M709.716 308.434L720.001 308.434L720.001 318.719L709.716 318.719V308.434Z" fill="#DAFF8C"/>
<path d="M699.427 298.154H709.716V308.434H699.427V298.154Z" fill="#DAFF8C"/>
<path d="M678.859 277.595H689.144V287.875H678.859V277.595Z" fill="#DAFF8C"/>
<path d="M689.144 267.31H709.716V277.595H689.144V267.31Z" fill="#DAFF8C"/>
<path d="M709.716 277.595H720.001V287.875H709.716V277.595Z" fill="#DAFF8C"/>
<path d="M730.285 370.123H740.574V380.403H730.285V370.123Z" fill="#DAFF8C"/>
<path d="M709.719 370.121L720.001 370.123L720 380.399L730.285 380.403L730.282 390.686L709.716 390.688L709.719 370.121Z" fill="#DAFF8C"/>
<path d="M720.001 318.719H730.285L730.282 329.002L720.001 328.999V318.719Z" fill="#DAFF8C"/>
<path d="M720.001 339.279L730.282 339.279L730.285 349.564H720.001V339.279Z" fill="#DAFF8C"/>
<path d="M730.285 349.564L740.574 349.567V359.844H730.285V349.564Z" fill="#DAFF8C"/>
<path d="M720.001 246.75H730.285V257.03H720.001L720.001 246.75Z" fill="#DAFF8C"/>
<path d="M720.001 267.31H730.285V277.595H720.001L720.001 267.31Z" fill="#DAFF8C"/>
<path d="M678.859 246.75H689.144V267.31H678.859V246.75Z" fill="#DAFF8C"/>
<path d="M648.001 236.465L647.997 215.91H658.289V226.187H668.571V236.465L648.001 236.465Z" fill="#DAFF8C"/>
<path d="M658.285 205.626H668.574L668.571 215.91H658.289L658.285 205.626Z" fill="#DAFF8C"/>
<path d="M637.715 205.622L648.001 205.626L647.997 215.91L637.717 215.906L637.715 205.622Z" fill="#DAFF8C"/>
<path d="M668.571 236.465L678.859 236.465V246.75L668.571 246.753V236.465Z" fill="#DAFF8C"/>
<path d="M730.285 257.03H740.574V267.31H730.285V257.03Z" fill="#DAFF8C"/>
<path d="M709.716 257.03H720.001V267.31H709.716V257.03Z" fill="#DAFF8C"/>
<path d="M617.144 205.626L627.423 205.622L627.427 215.906L617.144 215.906V205.626Z" fill="#DAFF8C"/>
<path d="M699.427 246.75H709.716V257.03H699.427V246.75Z" fill="#DAFF8C"/>
<path d="M462.864 133.661L473.145 133.658V143.938L462.864 143.938V133.661Z" fill="#DAFF8C"/>
<path d="M154.288 195.342L164.577 195.341V205.626L154.288 205.626L154.288 195.342Z" fill="#DAFF8C"/>
<path d="M113.146 205.626H123.43V215.906L113.146 215.906V205.626Z" fill="#DAFF8C"/>
<path d="M555.428 164.497H565.717L565.717 174.781H555.428V164.497Z" fill="#DAFF8C"/>
<path d="M123.43 195.341L144.003 195.342L144.004 205.626H123.43L123.43 195.341Z" fill="#DAFF8C"/>
<path d="M205.719 205.626H216.003V215.906H205.719V205.626Z" fill="#DAFF8C"/>
<path d="M133.714 143.938V133.661H123.433V123.373H144.007V143.938H133.714Z" fill="#DAFF8C"/>
<path d="M133.719 174.781H144.003V185.061H133.719V174.781Z" fill="#DAFF8C"/>
<path d="M123.43 143.938L133.714 143.938L133.719 154.217H123.43V143.938Z" fill="#DAFF8C"/>
<path d="M113.146 133.658L123.433 133.661L123.43 143.938H113.146V133.658Z" fill="#DAFF8C"/>
<path d="M123.43 164.497H133.719L133.719 174.781H123.43V164.497Z" fill="#DAFF8C"/>
<path d="M133.719 154.217L144.003 154.217V164.497H133.719V154.217Z" fill="#DAFF8C"/>
<path d="M164.577 205.626L174.862 205.626L174.862 226.185L164.577 226.185L164.577 205.626Z" fill="#DAFF8C"/>
<path d="M92.5772 287.875H102.862L102.862 298.154H92.5772V287.875Z" fill="#DAFF8C"/>
<path d="M164.581 185.057H185.144V195.345H195.425V205.622L174.862 205.626L174.862 195.345L164.577 195.341L164.581 185.057Z" fill="#DAFF8C"/>
<path d="M82.2882 277.595H92.5772V287.875H82.2882V277.595Z" fill="#DAFF8C"/>
<path d="M72.0036 287.875H82.2882V298.154H72.0037L72.0036 287.875Z" fill="#DAFF8C"/>
<path d="M154.288 174.781H164.577L164.581 185.057L154.288 185.061V174.781Z" fill="#DAFF8C"/>
<path d="M216.003 195.341H226.287V205.626L216.003 205.626V195.341Z" fill="#DAFF8C"/>
<path d="M216.003 195.341L195.425 195.345V185.057H205.717V174.78L216.003 174.781L216.003 195.341Z" fill="#DAFF8C"/>
<path d="M195.429 154.217H216.003L216.003 164.497H195.429V154.217Z" fill="#DAFF8C"/>
<path d="M195.425 185.057H185.144V174.78H174.862V164.492L195.429 164.497L195.425 185.057Z" fill="#DAFF8C"/>
<path d="M144.003 164.497H154.288V174.781H144.003V164.497Z" fill="#DAFF8C"/>
<path d="M226.287 205.626L236.576 205.626V215.906H226.287V205.626Z" fill="#DAFF8C"/>
<path d="M493.717 143.938H504.002V154.217L493.717 154.217V143.938Z" fill="#DAFF8C"/>
<path d="M61.7193 287.875L61.7217 277.595L51.43 277.595V267.31L72.0036 267.31V287.875H61.7193Z" fill="#DAFF8C"/>
<path d="M473.145 143.938H483.428V154.217L473.146 154.215L473.145 143.938Z" fill="#DAFF8C"/>
<path d="M504.002 154.217L514.286 154.217V164.497H504.002V154.217Z" fill="#DAFF8C"/>
<path d="M144.007 143.938L154.288 143.938V154.217L144.003 154.217L144.007 143.938Z" fill="#DAFF8C"/>
<path d="M534.86 164.497H545.144V174.781H534.86V164.497Z" fill="#DAFF8C"/>
<path d="M555.431 143.938H565.712L565.717 154.217L555.428 154.217L555.431 143.938Z" fill="#DAFF8C"/>
<path d="M534.86 164.497H524.575V154.215L514.286 154.217L514.283 143.938H534.857L534.86 164.497Z" fill="#DAFF8C"/>
<path d="M504.002 133.658H514.286L514.283 143.938L504.002 143.938L504.002 133.658Z" fill="#DAFF8C"/>
<path d="M483.428 133.658H493.717V143.938H483.428V133.658Z" fill="#DAFF8C"/>
<path d="M493.717 123.373L504.001 123.373L504.002 133.658H493.717V123.373Z" fill="#DAFF8C"/>
<path d="M545.144 154.217L555.428 154.217V164.497H545.144V154.217Z" fill="#DAFF8C"/>
<path d="M195.429 133.658H216.003V143.938H195.429V133.658Z" fill="#DAFF8C"/>
<path d="M432.002 154.217L442.29 154.215V164.492H431.998L432.002 154.217Z" fill="#DAFF8C"/>
<path d="M689.145 226.187L699.427 226.185V236.465H689.144L689.145 226.187Z" fill="#DAFF8C"/>
<path d="M555.428 185.061H565.717V195.341H555.428V185.061Z" fill="#DAFF8C"/>
<path d="M154.288 154.217L174.862 154.217L174.862 164.492L154.288 164.497V154.217Z" fill="#DAFF8C"/>
<path d="M174.862 143.938H195.429V154.217H174.862V143.938Z" fill="#DAFF8C"/>
<path d="M421.716 154.215H401.143V143.938H390.861V133.661H380.579V123.373H401.143V133.661H411.424V143.938H421.716V154.215Z" fill="#DAFF8C"/>
<path d="M411.428 123.373H421.718L421.716 133.661H411.424L411.428 123.373Z" fill="#DAFF8C"/>
<path d="M421.718 113.093H432.002L431.998 123.373L421.718 123.373V113.093Z" fill="#DAFF8C"/>
<path d="M411.424 113.096L411.428 123.373L401.143 123.373L401.145 102.813L421.716 102.808L421.718 113.093L411.424 113.096Z" fill="#DAFF8C"/>
</svg>
