<svg  viewBox="0 0 346 334" fill="none" xmlns="http://www.w3.org/2000/svg">
<path d="M155.103 208.747H149.139V220.678H155.103V208.747Z" fill="currentColor"/>
<path d="M184.933 250.501H190.897V244.534H184.933V250.501Z" fill="currentColor"/>
<path d="M232.655 208.747V220.678H238.623V208.747H232.655Z" fill="currentColor"/>
<path d="M190.897 232.608V244.534H196.865V232.608H190.897Z" fill="currentColor"/>
<path d="M208.794 226.641V232.608H214.762V226.641H208.794Z" fill="currentColor"/>
<path d="M155.103 250.501V244.534H149.139V250.501H155.103Z" fill="currentColor"/>
<path d="M196.865 71.5686H190.897V77.5359H196.865V71.5686Z" fill="currentColor"/>
<path d="M202.83 65.6057H196.865V71.5686H202.83V65.6057Z" fill="currentColor"/>
<path d="M214.762 71.5686V65.6057H208.794V71.5686H214.762Z" fill="currentColor"/>
<path d="M280.381 137.179V125.248H274.417V137.179H280.381Z" fill="currentColor"/>
<path d="M244.587 77.5359V71.5686H238.623V77.5359H244.587Z" fill="currentColor"/>
<path d="M250.552 202.784V208.747H256.52V202.784H250.552Z" fill="currentColor"/>
<path d="M161.072 125.248H155.103V137.179H161.072V125.248Z" fill="currentColor"/>
<path d="M155.103 226.641H149.139V232.608H155.103V226.641Z" fill="currentColor"/>
<path d="M220.726 232.608H226.691V226.641H220.726V232.608Z" fill="currentColor"/>
<path d="M274.417 125.248V119.285H268.448V125.248H274.417Z" fill="currentColor"/>
<path d="M167.036 119.285H161.072V125.248H167.036V119.285Z" fill="currentColor"/>
<path d="M178.968 256.464H184.933V250.501H178.968V256.464Z" fill="currentColor"/>
<path d="M268.448 119.285V101.392H262.484V119.285H268.448Z" fill="currentColor"/>
<path d="M262.484 149.105V155.072H268.448V149.105H262.484Z" fill="currentColor"/>
<path d="M238.623 71.5686V65.6057H232.655V71.5686H238.623Z" fill="currentColor"/>
<path d="M143.175 250.501V256.464H149.139V250.501H143.175Z" fill="currentColor"/>
<path d="M262.484 101.392V77.5359H256.52V101.392H262.484Z" fill="currentColor"/>
<path d="M226.691 202.784V208.747H232.655V202.784H226.691Z" fill="currentColor"/>
<path d="M256.52 202.784H262.484V178.928H256.52V202.784Z" fill="currentColor"/>
<path d="M214.762 232.608V244.534H220.726V232.608H214.762Z" fill="currentColor"/>
<path d="M178.968 77.5359H173V101.392H178.968V77.5359Z" fill="currentColor"/>
<path d="M161.072 178.928V166.998H155.103V178.928H161.072Z" fill="currentColor"/>
<path d="M155.103 250.501V256.464H161.072V250.501H155.103Z" fill="currentColor"/>
<path d="M226.691 244.534H232.655V232.608H226.691V244.534Z" fill="currentColor"/>
<path d="M238.623 202.784V208.747H244.587V202.784H238.623Z" fill="currentColor"/>
<path d="M226.691 226.641H232.655V220.678H226.691V226.641Z" fill="currentColor"/>
<path d="M220.726 220.678H226.691V208.747H220.726V220.678Z" fill="currentColor"/>
<path d="M274.417 155.072H280.381V149.105H274.417V155.072Z" fill="currentColor"/>
<path d="M167.036 250.501V256.464H173V250.501H167.036Z" fill="currentColor"/>
<path d="M155.103 178.928H149.139V202.784H155.103V178.928Z" fill="currentColor"/>
<path d="M256.52 77.5359V71.5686H250.552V77.5359H256.52Z" fill="currentColor"/>
<path d="M220.726 53.6754H214.762V65.6057H220.726V53.6754Z" fill="currentColor"/>
<path d="M202.83 232.608V244.534H208.794V232.608H202.83Z" fill="currentColor"/>
<path d="M161.072 149.105H155.103V155.072H161.072V149.105Z" fill="currentColor"/>
<path d="M256.52 166.998H262.484V155.072H256.52V166.998Z" fill="currentColor"/>
<path d="M190.897 101.392V77.5359H184.933V101.392H190.897Z" fill="currentColor"/>
<path d="M173 101.392H167.036V119.285H173V101.392Z" fill="currentColor"/>
<path d="M232.655 65.6057V53.6754H226.691V65.6057H232.655Z" fill="currentColor"/>
<path d="M178.968 5.96295H173V11.9259H178.968V5.96295Z" fill="currentColor"/>
<path d="M131.242 322.07H137.206V316.107H131.242V322.07Z" fill="currentColor"/>
<path d="M155.103 322.07H161.072V316.107H155.103V322.07Z" fill="currentColor"/>
<path d="M220.726 304.176H214.762V310.144H220.726V304.176Z" fill="currentColor"/>
<path d="M71.5874 280.32H77.5516V268.394H71.5874V280.32Z" fill="currentColor"/>
<path d="M178.968 322.07H184.933V316.107H178.968V322.07Z" fill="currentColor"/>
<path d="M214.762 316.107V310.144H208.794V316.107H214.762Z" fill="currentColor"/>
<path d="M113.345 298.214H119.314V280.32H113.345V298.214Z" fill="currentColor"/>
<path d="M119.314 304.176V310.144H125.278V304.176H119.314Z" fill="currentColor"/>
<path d="M23.8654 232.608V238.571H29.8296V232.608H23.8654Z" fill="currentColor"/>
<path d="M280.381 250.501H286.345V244.534H280.381V250.501Z" fill="currentColor"/>
<path d="M125.278 47.7124H119.314V65.6057H125.278V47.7124Z" fill="currentColor"/>
<path d="M35.7937 274.357H41.7622V268.394H35.7937V274.357Z" fill="currentColor"/>
<path d="M310.211 125.248V119.285H304.242V125.248H310.211Z" fill="currentColor"/>
<path d="M11.9327 274.357H17.8969V268.394H11.9327V274.357Z" fill="currentColor"/>
<path d="M208.794 11.9259H202.83V17.8889H208.794V11.9259Z" fill="currentColor"/>
<path d="M17.8969 268.394H23.8654V262.427H17.8969V268.394Z" fill="currentColor"/>
<path d="M322.139 202.784V178.928H316.175V202.784H322.139Z" fill="currentColor"/>
<path d="M244.587 11.9259H238.623V17.8889H244.587V11.9259Z" fill="currentColor"/>
<path d="M220.726 298.214H226.691V280.32H220.726V298.214Z" fill="currentColor"/>
<path d="M262.484 286.288V280.32H256.52V286.288H262.484Z" fill="currentColor"/>
<path d="M328.103 137.179V125.248H322.139V137.179H328.103Z" fill="currentColor"/>
<path d="M11.9327 232.608V238.571H17.8969V232.608H11.9327Z" fill="currentColor"/>
<path d="M256.52 137.179V125.248H250.552V137.179H256.52Z" fill="currentColor"/>
<path d="M196.865 166.998H190.897V178.928H196.865V166.998Z" fill="currentColor"/>
<path d="M184.933 178.928V202.784H190.897V178.928H184.933Z" fill="currentColor"/>
<path d="M220.726 101.392H214.762V119.285H220.726V101.392Z" fill="currentColor"/>
<path d="M167.036 226.641H173V220.678H167.036V226.641Z" fill="currentColor"/>
<path d="M196.865 202.784H202.83V178.928H196.865V202.784Z" fill="currentColor"/>
<path d="M226.691 137.179H220.726V149.105H226.691V137.179Z" fill="currentColor"/>
<path d="M196.865 166.998H202.83V155.072H196.865V166.998Z" fill="currentColor"/>
<path d="M214.762 149.105V155.072H220.726V149.105H214.762Z" fill="currentColor"/>
<path d="M202.83 149.105V155.072H208.794V149.105H202.83Z" fill="currentColor"/>
<path d="M101.417 244.534V250.501H107.381V244.534H101.417Z" fill="currentColor"/>
<path d="M274.417 149.105V137.179H268.448V149.105H274.417Z" fill="currentColor"/>
<path d="M286.345 190.858H280.381V202.784H286.345V190.858Z" fill="currentColor"/>
<path d="M280.381 184.891H286.345V178.928H280.381V184.891Z" fill="currentColor"/>
<path d="M274.417 220.678V208.747H268.448V220.678H274.417Z" fill="currentColor"/>
<path d="M89.4843 244.534V250.501H95.4484V244.534H89.4843Z" fill="currentColor"/>
<path d="M143.175 280.32H149.139V268.394H143.175V280.32Z" fill="currentColor"/>
<path d="M173 268.394H178.968V256.464H173V268.394Z" fill="currentColor"/>
<path d="M226.691 65.6057H220.726V71.5686H226.691V65.6057Z" fill="currentColor"/>
<path d="M286.345 149.105V137.179H280.381V149.105H286.345Z" fill="currentColor"/>
<path d="M208.794 47.7124H202.83V65.6057H208.794V47.7124Z" fill="currentColor"/>
<path d="M244.587 208.747V220.678H250.552V208.747H244.587Z" fill="currentColor"/>
<path d="M226.691 5.96295H220.726V11.9259H226.691V5.96295Z" fill="currentColor"/>
<path d="M190.897 0H184.933V11.9259H190.897V0Z" fill="currentColor"/>
<path d="M53.6906 286.288H59.6547V280.32H53.6906V286.288Z" fill="currentColor"/>
<path d="M167.036 5.96295H161.072V11.9259H167.036V5.96295Z" fill="currentColor"/>
<path d="M226.691 149.105V155.072H232.655V149.105H226.691Z" fill="currentColor"/>
<path d="M340.036 113.318V101.392H334.072V113.318H340.036Z" fill="currentColor"/>
<path d="M244.587 0H238.623V5.96295H244.587V0Z" fill="currentColor"/>
<path d="M328.103 59.6427H322.139V65.6057H328.103V59.6427Z" fill="currentColor"/>
<path d="M286.345 17.8889H280.381V23.8562H286.345V17.8889Z" fill="currentColor"/>
<path d="M262.484 5.96295H256.52V11.9259H262.484V5.96295Z" fill="currentColor"/>
<path d="M208.794 0H202.83V5.96295H208.794V0Z" fill="currentColor"/>
<path d="M107.381 29.8192H101.417V35.7821H107.381V29.8192Z" fill="currentColor"/>
<path d="M95.4484 328.037H101.417V322.07H95.4484V328.037Z" fill="currentColor"/>
<path d="M47.7264 304.176H53.6906V298.214H47.7264V304.176Z" fill="currentColor"/>
<path d="M59.6547 77.5359H53.6906V83.4989H59.6547V77.5359Z" fill="currentColor"/>
<path d="M101.417 35.7821H95.4484V41.7495H101.417V35.7821Z" fill="currentColor"/>
<path d="M53.6906 298.214H59.6547V292.251H53.6906V298.214Z" fill="currentColor"/>
<path d="M95.4484 41.7495H89.4843V47.7124H95.4484V41.7495Z" fill="currentColor"/>
<path d="M65.6233 71.5686H59.6547V77.5359H65.6233V71.5686Z" fill="currentColor"/>
<path d="M77.5516 59.6427H71.5874V65.6057H77.5516V59.6427Z" fill="currentColor"/>
<path d="M89.4843 47.7124H83.5201V53.6754H89.4843V47.7124Z" fill="currentColor"/>
<path d="M149.139 11.9259H143.175V17.8889H149.139V11.9259Z" fill="currentColor"/>
<path d="M155.103 334H161.072V328.037H155.103V334Z" fill="currentColor"/>
<path d="M178.968 334H184.933V328.037H178.968V334Z" fill="currentColor"/>
<path d="M131.242 334H137.206V328.037H131.242V334Z" fill="currentColor"/>
<path d="M196.865 328.037H202.83V322.07H196.865V328.037Z" fill="currentColor"/>
<path d="M208.794 328.037H214.762V322.07H208.794V328.037Z" fill="currentColor"/>
<path d="M83.5201 304.176V310.144H89.4843V304.176H83.5201Z" fill="currentColor"/>
<path d="M71.5874 304.176H77.5516V298.214H71.5874V304.176Z" fill="currentColor"/>
<path d="M334.072 101.392V77.5359H328.103V101.392H334.072Z" fill="currentColor"/>
<path d="M238.623 304.176H244.587V298.214H238.623V304.176Z" fill="currentColor"/>
<path d="M89.4843 316.107H95.4484V310.144H89.4843V316.107Z" fill="currentColor"/>
<path d="M113.345 328.037H119.314V322.07H113.345V328.037Z" fill="currentColor"/>
<path d="M334.072 161.035H328.103V166.998H334.072V161.035Z" fill="currentColor"/>
<path d="M256.52 298.214H262.484V292.251H256.52V298.214Z" fill="currentColor"/>
<path d="M346 149.105V137.179H340.036V149.105H346Z" fill="currentColor"/>
<path d="M334.072 155.072H340.036V149.105H334.072V155.072Z" fill="currentColor"/>
<path d="M310.211 250.501V244.534H304.242V250.501H310.211Z" fill="currentColor"/>
<path d="M340.036 178.928V166.998H334.072V178.928H340.036Z" fill="currentColor"/>
<path d="M274.417 286.288V280.32H268.448V286.288H274.417Z" fill="currentColor"/>
<path d="M280.381 274.357H274.417V280.32H280.381V274.357Z" fill="currentColor"/>
<path d="M286.345 268.394H292.314V262.427H286.345V268.394Z" fill="currentColor"/>
<path d="M274.417 268.394H280.381V262.427H274.417V268.394Z" fill="currentColor"/>
<path d="M196.865 125.248H190.897V137.179H196.865V125.248Z" fill="currentColor"/>
<path d="M232.655 178.928V202.784H238.623V178.928H232.655Z" fill="currentColor"/>
<path d="M244.587 178.928V202.784H250.552V178.928H244.587Z" fill="currentColor"/>
<path d="M220.726 178.928V202.784H226.691V178.928H220.726Z" fill="currentColor"/>
<path d="M214.762 208.747H220.726V202.784H214.762V208.747Z" fill="currentColor"/>
<path d="M214.762 226.641H220.726V220.678H214.762V226.641Z" fill="currentColor"/>
<path d="M262.484 125.248V119.285H256.52V125.248H262.484Z" fill="currentColor"/>
<path d="M268.448 137.179V125.248H262.484V137.179H268.448Z" fill="currentColor"/>
<path d="M256.52 137.179V149.105H262.484V137.179H256.52Z" fill="currentColor"/>
<path d="M202.83 220.678V226.641H208.794V220.678H202.83Z" fill="currentColor"/>
<path d="M250.552 155.072H256.52V149.105H250.552V155.072Z" fill="currentColor"/>
<path d="M250.552 178.928H256.52V166.998H250.552V178.928Z" fill="currentColor"/>
<path d="M173 166.998H167.036V178.928H173V166.998Z" fill="currentColor"/>
<path d="M173 208.747V202.784H167.036V208.747H173Z" fill="currentColor"/>
<path d="M178.968 137.179H173V149.105H178.968V137.179Z" fill="currentColor"/>
<path d="M190.897 220.678V226.641H196.865V220.678H190.897Z" fill="currentColor"/>
<path d="M167.036 208.747H161.072V220.678H167.036V208.747Z" fill="currentColor"/>
<path d="M173 149.105H167.036V155.072H173V149.105Z" fill="currentColor"/>
<path d="M167.036 226.641H161.072V232.608H167.036V226.641Z" fill="currentColor"/>
<path d="M178.968 220.678V226.641H184.933V220.678H178.968Z" fill="currentColor"/>
<path d="M173 232.608H178.968V226.641H173V232.608Z" fill="currentColor"/>
<path d="M167.036 244.534H173V232.608H167.036V244.534Z" fill="currentColor"/>
<path d="M161.072 220.678H155.103V226.641H161.072V220.678Z" fill="currentColor"/>
<path d="M184.933 125.248H178.968V137.179H184.933V125.248Z" fill="currentColor"/>
<path d="M161.072 202.784H155.103V208.747H161.072V202.784Z" fill="currentColor"/>
<path d="M256.52 119.285V101.392H250.552V119.285H256.52Z" fill="currentColor"/>
<path d="M167.036 202.784V178.928H161.072V202.784H167.036Z" fill="currentColor"/>
<path d="M161.072 232.608H155.103V244.534H161.072V232.608Z" fill="currentColor"/>
<path d="M167.036 137.179H161.072V149.105H167.036V137.179Z" fill="currentColor"/>
<path d="M184.933 226.641V232.608H190.897V226.641H184.933Z" fill="currentColor"/>
<path d="M161.072 244.534V250.501H167.036V244.534H161.072Z" fill="currentColor"/>
<path d="M178.968 244.534H184.933V232.608H178.968V244.534Z" fill="currentColor"/>
<path d="M173 250.501H178.968V244.534H173V250.501Z" fill="currentColor"/>
<path d="M167.036 155.072H161.072V166.998H167.036V155.072Z" fill="currentColor"/>
<path d="M208.794 71.5686H202.83V77.5359H208.794V71.5686Z" fill="currentColor"/>
<path d="M232.655 77.5359V71.5686H226.691V77.5359H232.655Z" fill="currentColor"/>
<path d="M220.726 77.5359V71.5686H214.762V77.5359H220.726Z" fill="currentColor"/>
<path d="M250.552 101.392V77.5359H244.587V101.392H250.552Z" fill="currentColor"/>
<path d="M238.623 101.392V77.5359H232.655V101.392H238.623Z" fill="currentColor"/>
<path d="M173 125.248H167.036V137.179H173V125.248Z" fill="currentColor"/>
<path d="M178.968 119.285H173V125.248H178.968V119.285Z" fill="currentColor"/>
<path d="M184.933 101.392H178.968V119.285H184.933V101.392Z" fill="currentColor"/>
<path d="M196.865 119.285V101.392H190.897V119.285H196.865Z" fill="currentColor"/>
<path d="M202.83 77.5359H196.865V101.392H202.83V77.5359Z" fill="currentColor"/>
<path d="M214.762 166.998V178.928H220.726V166.998H214.762Z" fill="currentColor"/>
<path d="M232.655 155.072V166.998H238.623V155.072H232.655Z" fill="currentColor"/>
<path d="M238.623 155.072H244.587V149.105H238.623V155.072Z" fill="currentColor"/>
<path d="M208.794 155.072V166.998H214.762V155.072H208.794Z" fill="currentColor"/>
<path d="M244.587 137.179V125.248H238.623V137.179H244.587Z" fill="currentColor"/>
<path d="M220.726 155.072V166.998H226.691V155.072H220.726Z" fill="currentColor"/>
<path d="M238.623 125.248V119.285H232.655V125.248H238.623Z" fill="currentColor"/>
<path d="M208.794 137.179V125.248H202.83V137.179H208.794Z" fill="currentColor"/>
<path d="M202.83 178.928H208.794V166.998H202.83V178.928Z" fill="currentColor"/>
<path d="M190.897 119.285H184.933V125.248H190.897V119.285Z" fill="currentColor"/>
<path d="M226.691 125.248V119.285H220.726V125.248H226.691Z" fill="currentColor"/>
<path d="M202.83 137.179H196.865V149.105H202.83V137.179Z" fill="currentColor"/>
<path d="M214.762 149.105V137.179H208.794V149.105H214.762Z" fill="currentColor"/>
<path d="M196.865 226.641V232.608H202.83V226.641H196.865Z" fill="currentColor"/>
<path d="M202.83 208.747H208.794V202.784H202.83V208.747Z" fill="currentColor"/>
<path d="M220.726 125.248H214.762V137.179H220.726V125.248Z" fill="currentColor"/>
<path d="M196.865 149.105H190.897V155.072H196.865V149.105Z" fill="currentColor"/>
<path d="M232.655 137.179V125.248H226.691V137.179H232.655Z" fill="currentColor"/>
<path d="M178.968 202.784V208.747H184.933V202.784H178.968Z" fill="currentColor"/>
<path d="M190.897 202.784V208.747H196.865V202.784H190.897Z" fill="currentColor"/>
<path d="M184.933 166.998H178.968V178.928H184.933V166.998Z" fill="currentColor"/>
<path d="M190.897 155.072H184.933V166.998H190.897V155.072Z" fill="currentColor"/>
<path d="M214.762 119.285H208.794V125.248H214.762V119.285Z" fill="currentColor"/>
<path d="M238.623 166.998V178.928H244.587V166.998H238.623Z" fill="currentColor"/>
<path d="M250.552 125.248V119.285H244.587V125.248H250.552Z" fill="currentColor"/>
<path d="M244.587 119.285V101.392H238.623V119.285H244.587Z" fill="currentColor"/>
<path d="M244.587 166.998H250.552V155.072H244.587V166.998Z" fill="currentColor"/>
<path d="M244.587 149.105H250.552V137.179H244.587V149.105Z" fill="currentColor"/>
<path d="M190.897 137.179H184.933V149.105H190.897V137.179Z" fill="currentColor"/>
<path d="M202.83 125.248V119.285H196.865V125.248H202.83Z" fill="currentColor"/>
<path d="M208.794 101.392H202.83V119.285H208.794V101.392Z" fill="currentColor"/>
<path d="M214.762 77.5359H208.794V101.392H214.762V77.5359Z" fill="currentColor"/>
<path d="M226.691 101.392V77.5359H220.726V101.392H226.691Z" fill="currentColor"/>
<path d="M232.655 119.285V101.392H226.691V119.285H232.655Z" fill="currentColor"/>
<path d="M184.933 208.747V220.678H190.897V208.747H184.933Z" fill="currentColor"/>
<path d="M173 208.747V220.678H178.968V208.747H173Z" fill="currentColor"/>
<path d="M178.968 178.928H173V202.784H178.968V178.928Z" fill="currentColor"/>
<path d="M226.691 166.998V178.928H232.655V166.998H226.691Z" fill="currentColor"/>
<path d="M184.933 149.105H178.968V155.072H184.933V149.105Z" fill="currentColor"/>
<path d="M178.968 155.072H173V166.998H178.968V155.072Z" fill="currentColor"/>
<path d="M208.794 202.784H214.762V178.928H208.794V202.784Z" fill="currentColor"/>
<path d="M238.623 149.105V137.179H232.655V149.105H238.623Z" fill="currentColor"/>
<path d="M196.865 208.747V220.678H202.83V208.747H196.865Z" fill="currentColor"/>
<path d="M208.794 220.678H214.762V208.747H208.794V220.678Z" fill="currentColor"/>
<path d="M184.933 17.8889V11.9259H178.968V17.8889H184.933Z" fill="currentColor"/>
<path d="M322.139 101.392V77.5359H316.175V101.392H322.139Z" fill="currentColor"/>
<path d="M316.175 125.248H322.139V119.285H316.175V125.248Z" fill="currentColor"/>
<path d="M316.175 77.5359V71.5686H310.211V77.5359H316.175Z" fill="currentColor"/>
<path d="M316.175 149.105H322.139V137.179H316.175V149.105Z" fill="currentColor"/>
<path d="M310.211 155.072H316.175V149.105H310.211V155.072Z" fill="currentColor"/>
<path d="M298.278 53.6754V41.7495H292.314V53.6754H298.278Z" fill="currentColor"/>
<path d="M292.314 41.7495V35.7821H286.345V41.7495H292.314Z" fill="currentColor"/>
<path d="M286.345 35.7821V29.8192H280.381V35.7821H286.345Z" fill="currentColor"/>
<path d="M310.211 178.928H316.175V166.998H310.211V178.928Z" fill="currentColor"/>
<path d="M310.211 71.5686V65.6057H304.242V71.5686H310.211Z" fill="currentColor"/>
<path d="M304.242 65.6057V53.6754H298.278V65.6057H304.242Z" fill="currentColor"/>
<path d="M286.345 256.464H292.314V250.501H286.345V256.464Z" fill="currentColor"/>
<path d="M268.448 244.534V250.501H274.417V244.534H268.448Z" fill="currentColor"/>
<path d="M256.52 244.534V250.501H262.484V244.534H256.52Z" fill="currentColor"/>
<path d="M274.417 250.501V256.464H280.381V250.501H274.417Z" fill="currentColor"/>
<path d="M310.211 208.747H316.175V202.784H310.211V208.747Z" fill="currentColor"/>
<path d="M250.552 256.464H256.52V250.501H250.552V256.464Z" fill="currentColor"/>
<path d="M250.552 280.32H256.52V268.394H250.552V280.32Z" fill="currentColor"/>
<path d="M298.278 226.641H304.242V220.678H298.278V226.641Z" fill="currentColor"/>
<path d="M274.417 35.7821V29.8192H268.448V35.7821H274.417Z" fill="currentColor"/>
<path d="M304.242 220.678H310.211V208.747H304.242V220.678Z" fill="currentColor"/>
<path d="M292.314 250.501H298.278V244.534H292.314V250.501Z" fill="currentColor"/>
<path d="M292.314 232.608H298.278V226.641H292.314V232.608Z" fill="currentColor"/>
<path d="M214.762 23.8562V17.8889H208.794V23.8562H214.762Z" fill="currentColor"/>
<path d="M107.381 71.5686V77.5359H113.345V71.5686H107.381Z" fill="currentColor"/>
<path d="M125.278 71.5686H119.314V77.5359H125.278V71.5686Z" fill="currentColor"/>
<path d="M119.314 71.5686V65.6057H113.345V71.5686H119.314Z" fill="currentColor"/>
<path d="M256.52 208.747V220.678H262.484V208.747H256.52Z" fill="currentColor"/>
<path d="M137.206 35.7821H131.242V65.6057H137.206V35.7821Z" fill="currentColor"/>
<path d="M125.278 137.179V125.248H119.314V137.179H125.278Z" fill="currentColor"/>
<path d="M131.242 77.5359H125.278V101.392H131.242V77.5359Z" fill="currentColor"/>
<path d="M119.314 149.105V137.179H113.345V149.105H119.314Z" fill="currentColor"/>
<path d="M268.448 29.8192V23.8562H262.484V29.8192H268.448Z" fill="currentColor"/>
<path d="M143.175 29.8192H137.206V35.7821H143.175V29.8192Z" fill="currentColor"/>
<path d="M131.242 125.248V119.285H125.278V125.248H131.242Z" fill="currentColor"/>
<path d="M113.345 149.105H107.381V155.072H113.345V149.105Z" fill="currentColor"/>
<path d="M149.139 23.8562H143.175V29.8192H149.139V23.8562Z" fill="currentColor"/>
<path d="M244.587 280.32V286.288H250.552V280.32H244.587Z" fill="currentColor"/>
<path d="M226.691 23.8562V17.8889H220.726V23.8562H226.691Z" fill="currentColor"/>
<path d="M250.552 23.8562V17.8889H244.587V23.8562H250.552Z" fill="currentColor"/>
<path d="M262.484 23.8562V17.8889H256.52V23.8562H262.484Z" fill="currentColor"/>
<path d="M238.623 23.8562V17.8889H232.655V23.8562H238.623Z" fill="currentColor"/>
<path d="M161.072 29.8192V23.8562H155.103V29.8192H161.072Z" fill="currentColor"/>
<path d="M167.036 17.8889H161.072V23.8562H167.036V17.8889Z" fill="currentColor"/>
<path d="M202.83 23.8562V17.8889H196.865V23.8562H202.83Z" fill="currentColor"/>
<path d="M190.897 23.8562V17.8889H184.933V23.8562H190.897Z" fill="currentColor"/>
<path d="M178.968 23.8562V17.8889H173V23.8562H178.968Z" fill="currentColor"/>
<path d="M29.8296 238.571V250.501H35.7937V238.571H29.8296Z" fill="currentColor"/>
<path d="M125.278 226.641V220.678H119.314V226.641H125.278Z" fill="currentColor"/>
<path d="M131.242 220.678V208.747H125.278V220.678H131.242Z" fill="currentColor"/>
<path d="M113.345 226.641V220.678H107.381V226.641H113.345Z" fill="currentColor"/>
<path d="M131.242 178.928H125.278V202.784H131.242V178.928Z" fill="currentColor"/>
<path d="M131.242 155.072H125.278V166.998H131.242V155.072Z" fill="currentColor"/>
<path d="M89.4843 238.571V232.608H83.5201V238.571H89.4843Z" fill="currentColor"/>
<path d="M65.6233 238.571V232.608H59.6547V238.571H65.6233Z" fill="currentColor"/>
<path d="M77.5516 238.571V232.608H71.5874V238.571H77.5516Z" fill="currentColor"/>
<path d="M125.278 149.105H119.314V155.072H125.278V149.105Z" fill="currentColor"/>
<path d="M95.4484 232.608V226.641H89.4843V232.608H95.4484Z" fill="currentColor"/>
<path d="M53.6906 238.571V232.608H47.7264V238.571H53.6906Z" fill="currentColor"/>
<path d="M107.381 232.608V226.641H101.417V232.608H107.381Z" fill="currentColor"/>
<path d="M173 23.8562H167.036V29.8192H173V23.8562Z" fill="currentColor"/>
<path d="M155.103 29.8192H149.139V35.7821H155.103V29.8192Z" fill="currentColor"/>
<path d="M167.036 35.7821V29.8192H161.072V35.7821H167.036Z" fill="currentColor"/>
<path d="M131.242 149.105V137.179H125.278V149.105H131.242Z" fill="currentColor"/>
<path d="M196.865 29.8192V23.8562H190.897V29.8192H196.865Z" fill="currentColor"/>
<path d="M184.933 29.8192V23.8562H178.968V29.8192H184.933Z" fill="currentColor"/>
<path d="M137.206 137.179V125.248H131.242V137.179H137.206Z" fill="currentColor"/>
<path d="M149.139 35.7821H143.175V65.6057H149.139V35.7821Z" fill="currentColor"/>
<path d="M238.623 268.394V280.32H244.587V268.394H238.623Z" fill="currentColor"/>
<path d="M137.206 71.5686H131.242V77.5359H137.206V71.5686Z" fill="currentColor"/>
<path d="M143.175 65.6057H137.206V71.5686H143.175V65.6057Z" fill="currentColor"/>
<path d="M137.206 101.392H131.242V119.285H137.206V101.392Z" fill="currentColor"/>
<path d="M161.072 310.144V316.107H167.036V310.144H161.072Z" fill="currentColor"/>
<path d="M173 310.144V316.107H178.968V310.144H173Z" fill="currentColor"/>
<path d="M137.206 310.144V316.107H143.175V310.144H137.206Z" fill="currentColor"/>
<path d="M149.139 310.144V316.107H155.103V310.144H149.139Z" fill="currentColor"/>
<path d="M184.933 310.144V316.107H190.897V310.144H184.933Z" fill="currentColor"/>
<path d="M214.762 268.394V280.32H220.726V268.394H214.762Z" fill="currentColor"/>
<path d="M125.278 310.144V316.107H131.242V310.144H125.278Z" fill="currentColor"/>
<path d="M196.865 310.144V316.107H202.83V310.144H196.865Z" fill="currentColor"/>
<path d="M226.691 268.394V280.32H232.655V268.394H226.691Z" fill="currentColor"/>
<path d="M208.794 298.214H214.762V280.32H208.794V298.214Z" fill="currentColor"/>
<path d="M202.83 310.144H208.794V298.214H202.83V310.144Z" fill="currentColor"/>
<path d="M119.314 155.072H113.345V166.998H119.314V155.072Z" fill="currentColor"/>
<path d="M77.5516 256.464V268.394H83.5201V256.464H77.5516Z" fill="currentColor"/>
<path d="M53.6906 256.464V268.394H59.6547V256.464H53.6906Z" fill="currentColor"/>
<path d="M113.345 310.144V316.107H119.314V310.144H113.345Z" fill="currentColor"/>
<path d="M41.7622 238.571V232.608H35.7937V238.571H41.7622Z" fill="currentColor"/>
<path d="M59.6547 250.501V238.571H53.6906V244.534H47.7264V238.571H41.7622V250.501H47.7264V256.464H53.6906V250.501H59.6547Z" fill="currentColor"/>
<path d="M65.6233 256.464V268.394H71.5874V256.464H65.6233Z" fill="currentColor"/>
<path d="M101.417 280.32V298.214H107.381V280.32H101.417Z" fill="currentColor"/>
<path d="M107.381 298.214V310.144H113.345V298.214H107.381Z" fill="currentColor"/>
<path d="M89.4843 256.464V268.394H95.4484V256.464H89.4843Z" fill="currentColor"/>
<path d="M95.4484 268.394V280.32H101.417V268.394H95.4484Z" fill="currentColor"/>
<path d="M322.139 71.5686V65.6057H316.175V71.5686H322.139Z" fill="currentColor"/>
<path d="M328.103 77.5359V71.5686H322.139V77.5359H328.103Z" fill="currentColor"/>
<path d="M316.175 65.6057V53.6754H310.211V65.6057H316.175Z" fill="currentColor"/>
<path d="M208.794 29.8192V23.8562H202.83V29.8192H208.794Z" fill="currentColor"/>
<path d="M340.036 137.179V125.248H334.072V137.179H340.036Z" fill="currentColor"/>
<path d="M334.072 125.248V119.285H328.103V125.248H334.072Z" fill="currentColor"/>
<path d="M322.139 119.285H328.103V101.392H322.139V119.285Z" fill="currentColor"/>
<path d="M292.314 29.8192V23.8562H286.345V29.8192H292.314Z" fill="currentColor"/>
<path d="M280.381 29.8192V23.8562H274.417V29.8192H280.381Z" fill="currentColor"/>
<path d="M310.211 53.6754V41.7495H304.242V53.6754H310.211Z" fill="currentColor"/>
<path d="M298.278 35.7821V29.8192H292.314V35.7821H298.278Z" fill="currentColor"/>
<path d="M304.242 41.7495V35.7821H298.278V41.7495H304.242Z" fill="currentColor"/>
<path d="M328.103 202.784H334.072V178.928H328.103V202.784Z" fill="currentColor"/>
<path d="M316.175 220.678H322.139V208.747H316.175V220.678Z" fill="currentColor"/>
<path d="M304.242 232.608H310.211V226.641H304.242V232.608Z" fill="currentColor"/>
<path d="M310.211 226.641H316.175V220.678H310.211V226.641Z" fill="currentColor"/>
<path d="M328.103 137.179V149.105H334.072V137.179H328.103Z" fill="currentColor"/>
<path d="M298.278 256.464H304.242V250.501H298.278V256.464Z" fill="currentColor"/>
<path d="M298.278 244.534H304.242V232.608H298.278V244.534Z" fill="currentColor"/>
<path d="M322.139 155.072H328.103V149.105H322.139V155.072Z" fill="currentColor"/>
<path d="M322.139 208.747H328.103V202.784H322.139V208.747Z" fill="currentColor"/>
<path d="M316.175 166.998H322.139V155.072H316.175V166.998Z" fill="currentColor"/>
<path d="M125.278 166.998H119.314V178.928H125.278V166.998Z" fill="currentColor"/>
<path d="M328.103 178.928V166.998H322.139V178.928H328.103Z" fill="currentColor"/>
<path d="M143.175 17.8889H137.206V23.8562H143.175V17.8889Z" fill="currentColor"/>
<path d="M155.103 23.8562V17.8889H149.139V23.8562H155.103Z" fill="currentColor"/>
<path d="M119.314 41.7495H113.345V47.7124H119.314V41.7495Z" fill="currentColor"/>
<path d="M125.278 35.7821H119.314V41.7495H125.278V35.7821Z" fill="currentColor"/>
<path d="M292.314 262.427H298.278V256.464H292.314V262.427Z" fill="currentColor"/>
<path d="M137.206 23.8562H131.242V29.8192H137.206V23.8562Z" fill="currentColor"/>
<path d="M131.242 29.8192H125.278V35.7821H131.242V29.8192Z" fill="currentColor"/>
<path d="M11.9327 226.641H5.96854V232.608H11.9327V226.641Z" fill="currentColor"/>
<path d="M23.8654 149.105H17.8969V155.072H23.8654V149.105Z" fill="currentColor"/>
<path d="M5.96854 244.534V232.608H0V244.534H5.96854Z" fill="currentColor"/>
<path d="M17.8969 220.678H11.9327V226.641H17.8969V220.678Z" fill="currentColor"/>
<path d="M17.8981 178.928H23.8635V172.963H29.8292V178.928H23.8635V184.892H17.8981V178.928ZM17.8981 196.821H11.9323V190.856H17.8981V196.821ZM35.7946 202.785V196.821H41.7603V202.785H35.7946V208.749H29.8292V202.785H35.7946ZM41.7603 172.963H47.7257V184.892H41.7603V172.963ZM41.7603 149.106H53.691V155.07H47.7257V161.035H41.7603V149.106ZM53.691 202.785H47.7257V196.821H53.691V202.785ZM23.8635 196.821V190.856H29.8292V196.821H23.8635ZM59.6567 190.856H65.6221V196.821H59.6567V190.856ZM59.6567 161.035H65.6221V166.999H59.6567V161.035ZM59.6567 137.178H65.6221V143.142H59.6567V137.178ZM65.6221 113.32H71.5878V119.285H65.6221V113.32ZM71.5878 95.4273H77.5532V101.391H71.5878V95.4273ZM77.5532 83.4986H83.5189V89.4627H77.5532V83.4986ZM89.4843 137.178H83.5189V131.213H89.4843V137.178ZM89.4843 113.32H95.4496V119.285H89.4843V113.32ZM95.4496 83.4986H101.415V89.4627H95.4496L95.4496 83.4986ZM107.381 95.4273V101.391H101.415V95.4273H107.381ZM107.381 119.285H101.415V113.32H107.381L107.381 119.285ZM107.381 131.213H101.415V125.249H107.381L107.381 131.213ZM95.4496 184.892H89.4843V178.928H95.4496V184.892ZM95.4496 196.821H89.4843V190.856H95.4496V196.821ZM83.5189 166.999V161.035H89.4843V166.999H83.5189ZM77.5532 119.285V113.32H83.5189V119.285H77.5532ZM83.5189 149.106V155.07H77.5532V149.106H83.5189ZM83.5189 190.856H77.5532V184.892H83.5189V190.856ZM71.5878 178.928V172.963H77.5532V178.928H71.5878ZM71.5878 214.713H65.6221V208.749H71.5878V214.713ZM23.8635 214.713H29.8292V220.678H35.7946V226.642H41.7603V214.713H47.7257V226.642H53.691V220.678H59.6567V226.642H65.6221V220.678H71.5878V226.642H77.5532V220.678H83.5189V208.749H77.5532V202.785H83.5189V208.749H89.4843V220.678H95.4496V208.749H101.415V196.821H107.381V190.856H113.346V196.821H107.381V208.749H113.346V202.785H119.312L119.314 178.928L113.346 178.928V184.892H107.381V178.928H113.346L113.345 166.998L107.381 166.999V172.963H95.4496V166.999H107.381L107.381 155.072L101.415 155.07V149.106H95.4496V143.142H101.415V149.106L107.381 149.105L107.381 137.178L113.345 137.179L113.346 125.249L119.314 125.248L119.312 119.285H113.346V113.32H119.312V119.285L125.278 119.285V101.392L119.312 101.391V107.356H113.346V101.391L119.312 101.391L119.314 77.5359H113.345L113.346 89.4627H107.381L107.381 77.5359L101.415 77.5344V65.6057H113.345V47.7124H107.381V59.6412H89.4843V65.6057H83.5189V71.5699H95.4496V77.5344H71.5878V83.4986H65.6221V89.4627H59.6567V95.4273H53.691V107.356H59.6567V101.391H65.6221V107.356H59.6567V125.249H53.691V107.356H47.7257V113.32H41.7603V119.285H47.7257V137.178H41.7603V119.285H35.7946V131.213H29.8292V137.178H23.8635L23.8654 149.105L29.8292 149.106V161.035H17.8981L17.8969 155.072L11.9323 155.07V184.892H5.96701V214.713H11.9323V208.749H17.8981L17.8969 220.678L23.8635 220.678V214.713Z" fill="currentColor"/>
<path d="M161.072 11.9259H155.103V17.8889H161.072V11.9259Z" fill="currentColor"/>
<path d="M238.623 5.96295H232.655V11.9259H238.623V5.96295Z" fill="currentColor"/>
<path d="M268.448 17.8889V11.9259H262.484V17.8889H268.448Z" fill="currentColor"/>
<path d="M250.552 11.9259V5.96295H244.587V11.9259H250.552Z" fill="currentColor"/>
<path d="M220.726 17.8889V11.9259H214.762V17.8889H220.726Z" fill="currentColor"/>
<path d="M256.52 17.8889V11.9259H250.552V17.8889H256.52Z" fill="currentColor"/>
<path d="M232.655 17.8889V11.9259H226.691V17.8889H232.655Z" fill="currentColor"/>
<path d="M196.865 17.8889V11.9259H190.897V17.8889H196.865Z" fill="currentColor"/>
<path d="M214.762 11.9259V5.96295H208.794V11.9259H214.762Z" fill="currentColor"/>
<path d="M173 17.8889V11.9259H167.036V17.8889H173Z" fill="currentColor"/>
<path d="M202.83 5.96295H196.865V11.9259H202.83V5.96295Z" fill="currentColor"/>
<path d="M274.417 23.8562V17.8889H268.448V23.8562H274.417Z" fill="currentColor"/>
<path d="M23.8654 226.641H17.8969V232.608H23.8654V226.641Z" fill="currentColor"/>
<path d="M47.7264 268.394V280.32H53.6906V268.394H47.7264Z" fill="currentColor"/>
<path d="M59.6547 268.394V280.32H65.6233V268.394H59.6547Z" fill="currentColor"/>
<path d="M41.7622 256.464V250.501H35.7937V256.464H29.8296V250.501H23.8654V262.427H29.8296V268.394H35.7937V262.427H41.7622V268.394H47.7264V256.464H41.7622Z" fill="currentColor"/>
<path d="M17.8969 238.571V250.501H23.8654V238.571H17.8969Z" fill="currentColor"/>
<path d="M65.6233 280.32V298.214H71.5874V280.32H65.6233Z" fill="currentColor"/>
<path d="M101.417 310.144V316.107H107.381V310.144H101.417Z" fill="currentColor"/>
<path d="M77.5516 298.214H83.5201V280.32H77.5516V298.214Z" fill="currentColor"/>
<path d="M95.4484 298.214V310.144H101.417V298.214H95.4484Z" fill="currentColor"/>
<path d="M83.5201 268.394V280.32H89.4843V268.394H83.5201Z" fill="currentColor"/>
<path d="M89.4843 280.32V298.214H95.4484V280.32H89.4843Z" fill="currentColor"/>
<path d="M83.5201 232.608V226.641L77.5532 226.642L77.5516 232.608H83.5201Z" fill="currentColor"/>
<path d="M101.417 226.641V220.678L95.4496 220.678L95.4484 226.641H101.417Z" fill="currentColor"/>
<path d="M89.4843 226.641V220.678H83.5189L83.5201 226.641H89.4843Z" fill="currentColor"/>
<path d="M107.381 220.678L107.381 208.749H101.415L101.417 220.678H107.381Z" fill="currentColor"/>
<path d="M119.314 220.678V208.747L113.346 208.749L113.345 220.678H119.314Z" fill="currentColor"/>
<path d="M280.381 256.464V262.427H286.345V256.464H280.381Z" fill="currentColor"/>
<path d="M125.278 208.747V202.784L119.312 202.785L119.314 208.747H125.278Z" fill="currentColor"/>
<path d="M47.7264 232.608L47.7257 226.642H41.7603L41.7622 232.608H47.7264Z" fill="currentColor"/>
<path d="M107.381 316.107V322.07H113.345V316.107H107.381Z" fill="currentColor"/>
<path d="M29.8296 232.608H35.7937L35.7946 226.642L29.8296 226.641V232.608Z" fill="currentColor"/>
<path d="M59.6547 232.608L59.6567 226.642H53.691L53.6906 232.608H59.6547Z" fill="currentColor"/>
<path d="M71.5874 232.608L71.5878 226.642H65.6221L65.6233 232.608H71.5874Z" fill="currentColor"/>
<path d="M29.8292 220.678H23.8635L23.8654 226.641H29.8296L29.8292 220.678Z" fill="currentColor"/>
<path d="M119.314 316.107V322.07H125.278V316.107H119.314Z" fill="currentColor"/>
<path d="M232.655 280.32V298.214H238.623V280.32H232.655Z" fill="currentColor"/>
<path d="M220.726 316.107H226.691V310.144H220.726V316.107Z" fill="currentColor"/>
<path d="M250.552 286.288V292.251H256.52V286.288H250.552Z" fill="currentColor"/>
<path d="M226.691 310.144H232.655V298.214H226.691V310.144Z" fill="currentColor"/>
<path d="M262.484 250.501V256.464H268.448V250.501H262.484Z" fill="currentColor"/>
<path d="M268.448 256.464V262.427H274.417V256.464H268.448Z" fill="currentColor"/>
<path d="M214.762 322.07H220.726V316.107H214.762V322.07Z" fill="currentColor"/>
<path d="M256.52 268.394H262.484V256.464H256.52V268.394Z" fill="currentColor"/>
<path d="M268.448 280.32V268.394H262.484V280.32H268.448Z" fill="currentColor"/>
<path d="M262.484 292.251H268.448V286.288H262.484V292.251Z" fill="currentColor"/>
<path d="M244.587 298.214H250.552V292.251H244.587V298.214Z" fill="currentColor"/>
<path d="M161.072 328.037H167.036V322.07H161.072V328.037Z" fill="currentColor"/>
<path d="M143.175 316.107V322.07H149.139V316.107H143.175Z" fill="currentColor"/>
<path d="M202.83 316.107V322.07H208.794V316.107H202.83Z" fill="currentColor"/>
<path d="M137.206 328.037H143.175V322.07H137.206V328.037Z" fill="currentColor"/>
<path d="M125.278 322.07V328.037H131.242V322.07H125.278Z" fill="currentColor"/>
<path d="M149.139 322.07V328.037H155.103V322.07H149.139Z" fill="currentColor"/>
<path d="M190.897 316.107V322.07H196.865V316.107H190.897Z" fill="currentColor"/>
<path d="M184.933 328.037H190.897V322.07H184.933V328.037Z" fill="currentColor"/>
<path d="M167.036 316.107V322.07H173V316.107H167.036Z" fill="currentColor"/>
<path d="M173 322.07V328.037H178.968V322.07H173Z" fill="currentColor"/>
<path d="M131.242 71.5686V65.6057H125.278V71.5686H131.242Z" fill="currentColor"/>
<path d="M256.52 65.6057V53.6754H250.552V65.6057H256.52Z" fill="currentColor"/>
<path d="M250.552 53.6754V41.7495H244.587V53.6754H250.552Z" fill="currentColor"/>
<path d="M268.448 65.6057V53.6754H262.484V65.6057H268.448Z" fill="currentColor"/>
<path d="M274.417 71.5686V65.6057H268.448V71.5686H274.417Z" fill="currentColor"/>
<path d="M184.933 35.7821H178.968V65.6057H184.933V35.7821Z" fill="currentColor"/>
<path d="M208.794 41.7495V35.7821H202.83V41.7495H208.794Z" fill="currentColor"/>
<path d="M286.345 101.392V77.5359H280.381V101.392H286.345Z" fill="currentColor"/>
<path d="M196.865 41.7495V35.7821H190.897V41.7495H196.865Z" fill="currentColor"/>
<path d="M232.655 41.7495V35.7821H226.691V41.7495H232.655Z" fill="currentColor"/>
<path d="M244.587 41.7495V35.7821H238.623V41.7495H244.587Z" fill="currentColor"/>
<path d="M220.726 41.7495V35.7821H214.762V41.7495H220.726Z" fill="currentColor"/>
<path d="M280.381 77.5359V71.5686H274.417V77.5359H280.381Z" fill="currentColor"/>
<path d="M274.417 226.641H280.381V220.678H274.417V226.641Z" fill="currentColor"/>
<path d="M292.314 119.285V101.392H286.345V119.285H292.314Z" fill="currentColor"/>
<path d="M250.552 220.678V226.641H256.52V220.678H250.552Z" fill="currentColor"/>
<path d="M262.484 220.678V226.641H268.448V220.678H262.484Z" fill="currentColor"/>
<path d="M268.448 202.784H274.417V178.928H268.448V202.784Z" fill="currentColor"/>
<path d="M220.726 29.8192V23.8562H214.762V29.8192H220.726Z" fill="currentColor"/>
<path d="M274.417 166.998V178.928H280.381V166.998H274.417Z" fill="currentColor"/>
<path d="M292.314 149.105H298.278V137.179H292.314V149.105Z" fill="currentColor"/>
<path d="M298.278 125.248V119.285H292.314V125.248H298.278Z" fill="currentColor"/>
<path d="M292.314 166.998H298.278V155.072H292.314V166.998Z" fill="currentColor"/>
<path d="M286.345 178.928H292.314V166.998H286.345V178.928Z" fill="currentColor"/>
<path d="M149.139 125.248H143.175V137.179H149.139V125.248Z" fill="currentColor"/>
<path d="M184.933 298.214H190.897V280.32H184.933V298.214Z" fill="currentColor"/>
<path d="M125.278 256.464V268.394H131.242V256.464H125.278Z" fill="currentColor"/>
<path d="M107.381 250.501V256.464H113.345V250.501H107.381Z" fill="currentColor"/>
<path d="M119.314 250.501V244.534H113.345V250.501H119.314Z" fill="currentColor"/>
<path d="M131.242 268.394V280.32H137.206V268.394H131.242Z" fill="currentColor"/>
<path d="M125.278 244.534V232.608H119.314V244.534H125.278Z" fill="currentColor"/>
<path d="M161.072 280.32V298.214H167.036V280.32H161.072Z" fill="currentColor"/>
<path d="M173 280.32V298.214H178.968V280.32H173Z" fill="currentColor"/>
<path d="M137.206 280.32V298.214H143.175V280.32H137.206Z" fill="currentColor"/>
<path d="M178.968 71.5686V65.6057H173V71.5686H178.968Z" fill="currentColor"/>
<path d="M149.139 298.214H155.103V280.32H149.139V298.214Z" fill="currentColor"/>
<path d="M155.103 268.394V280.32H161.072V268.394H155.103Z" fill="currentColor"/>
<path d="M149.139 101.392H143.175V119.285H149.139V101.392Z" fill="currentColor"/>
<path d="M155.103 77.5359H149.139V101.392H155.103V77.5359Z" fill="currentColor"/>
<path d="M238.623 220.678V226.641H244.587V220.678H238.623Z" fill="currentColor"/>
<path d="M137.206 244.534V232.608H131.242V244.534H137.206Z" fill="currentColor"/>
<path d="M161.072 71.5686H155.103V77.5359H161.072V71.5686Z" fill="currentColor"/>
<path d="M167.036 65.6057H161.072V71.5686H167.036V65.6057Z" fill="currentColor"/>
<path d="M149.139 155.072V149.105H143.175V155.072H149.139Z" fill="currentColor"/>
<path d="M143.175 208.747H137.206V220.678H143.175V208.747Z" fill="currentColor"/>
<path d="M143.175 232.608V226.641H137.206V232.608H143.175Z" fill="currentColor"/>
<path d="M143.175 178.928H137.206V202.784H143.175V178.928Z" fill="currentColor"/>
<path d="M143.175 155.072H137.206V166.998H143.175V155.072Z" fill="currentColor"/>
<path d="M113.345 256.464V268.394H119.314V256.464H113.345Z" fill="currentColor"/>
<path d="M226.691 53.6754V41.7495H220.726V53.6754H226.691Z" fill="currentColor"/>
<path d="M202.83 41.7495H196.865V47.7124H202.83V41.7495Z" fill="currentColor"/>
<path d="M214.762 47.7124V41.7495H208.794V47.7124H214.762Z" fill="currentColor"/>
<path d="M244.587 65.6057V53.6754H238.623V65.6057H244.587Z" fill="currentColor"/>
<path d="M161.072 101.392H155.103V119.285H161.072V101.392Z" fill="currentColor"/>
<path d="M190.897 65.6057H184.933V71.5686H190.897V65.6057Z" fill="currentColor"/>
<path d="M196.865 47.7124H190.897V65.6057H196.865V47.7124Z" fill="currentColor"/>
<path d="M167.036 77.5359H161.072V101.392H167.036V77.5359Z" fill="currentColor"/>
<path d="M173 71.5686H167.036V77.5359H173V71.5686Z" fill="currentColor"/>
<path d="M250.552 71.5686V65.6057H244.587V71.5686H250.552Z" fill="currentColor"/>
<path d="M184.933 77.5359V71.5686H178.968V77.5359H184.933Z" fill="currentColor"/>
<path d="M238.623 53.6754V41.7495H232.655V53.6754H238.623Z" fill="currentColor"/>
<path d="M280.381 166.998H286.345V155.072H280.381V166.998Z" fill="currentColor"/>
<path d="M268.448 155.072V166.998H274.417V155.072H268.448Z" fill="currentColor"/>
<path d="M232.655 232.608H238.623V226.641H232.655V232.608Z" fill="currentColor"/>
<path d="M262.484 208.747H268.448V202.784H262.484V208.747Z" fill="currentColor"/>
<path d="M262.484 71.5686V65.6057H256.52V71.5686H262.484Z" fill="currentColor"/>
<path d="M286.345 155.072H292.314V149.105H286.345V155.072Z" fill="currentColor"/>
<path d="M268.448 77.5359V71.5686H262.484V77.5359H268.448Z" fill="currentColor"/>
<path d="M274.417 101.392V77.5359H268.448V101.392H274.417Z" fill="currentColor"/>
<path d="M292.314 137.179V125.248H286.345V137.179H292.314Z" fill="currentColor"/>
<path d="M280.381 119.285V101.392H274.417V119.285H280.381Z" fill="currentColor"/>
<path d="M286.345 125.248V119.285H280.381V125.248H286.345Z" fill="currentColor"/>
<path d="M262.484 178.928H268.448V166.998H262.484V178.928Z" fill="currentColor"/>
<path d="M167.036 268.394V280.32H173V268.394H167.036Z" fill="currentColor"/>
<path d="M184.933 268.394H190.897V256.464H184.933V268.394Z" fill="currentColor"/>
<path d="M178.968 280.32H184.933V268.394H178.968V280.32Z" fill="currentColor"/>
<path d="M161.072 256.464V268.394H167.036V256.464H161.072Z" fill="currentColor"/>
<path d="M137.206 256.464V268.394H143.175V256.464H137.206Z" fill="currentColor"/>
<path d="M149.139 256.464V268.394H155.103V256.464H149.139Z" fill="currentColor"/>
<path d="M232.655 250.501H238.623V244.534H232.655V250.501Z" fill="currentColor"/>
<path d="M190.897 256.464H196.865V250.501H190.897V256.464Z" fill="currentColor"/>
<path d="M220.726 244.534V250.501H226.691V244.534H220.726Z" fill="currentColor"/>
<path d="M208.794 244.534V250.501H214.762V244.534H208.794Z" fill="currentColor"/>
<path d="M196.865 244.534V250.501H202.83V244.534H196.865Z" fill="currentColor"/>
<path d="M131.242 250.501V256.464H137.206V250.501H131.242Z" fill="currentColor"/>
<path d="M155.103 119.285H149.139V125.248H155.103V119.285Z" fill="currentColor"/>
<path d="M149.139 166.998H143.175V178.928H149.139V166.998Z" fill="currentColor"/>
<path d="M149.139 202.784H143.175V208.747H149.139V202.784Z" fill="currentColor"/>
<path d="M155.103 137.179H149.139V149.105H155.103V137.179Z" fill="currentColor"/>
<path d="M155.103 166.998V155.072H149.139V166.998H155.103Z" fill="currentColor"/>
<path d="M149.139 220.678H143.175V226.641H149.139V220.678Z" fill="currentColor"/>
<path d="M119.314 250.501V256.464H125.278V250.501H119.314Z" fill="currentColor"/>
<path d="M131.242 250.501V244.534H125.278V250.501H131.242Z" fill="currentColor"/>
<path d="M143.175 250.501V244.534H137.206V250.501H143.175Z" fill="currentColor"/>
<path d="M149.139 244.534V232.608H143.175V244.534H149.139Z" fill="currentColor"/>
<path d="M280.381 208.747V202.784H274.417V208.747H280.381Z" fill="currentColor"/>
<path d="M196.865 298.214H202.83V280.32H196.865V298.214Z" fill="currentColor"/>
<path d="M155.103 304.176V310.144H161.072V304.176H155.103Z" fill="currentColor"/>
<path d="M202.83 280.32H208.794V268.394H202.83V280.32Z" fill="currentColor"/>
<path d="M167.036 298.214V310.144H173V298.214H167.036Z" fill="currentColor"/>
<path d="M178.968 298.214V310.144H184.933V298.214H178.968Z" fill="currentColor"/>
<path d="M190.897 304.176V310.144H196.865V304.176H190.897Z" fill="currentColor"/>
<path d="M208.794 256.464V268.394H214.762V256.464H208.794Z" fill="currentColor"/>
<path d="M250.552 232.608V244.534H256.52V232.608H250.552Z" fill="currentColor"/>
<path d="M244.587 250.501H250.552V244.534H244.587V250.501Z" fill="currentColor"/>
<path d="M232.655 256.464V268.394H238.623V256.464H232.655Z" fill="currentColor"/>
<path d="M220.726 256.464V268.394H226.691V256.464H220.726Z" fill="currentColor"/>
<path d="M244.587 268.394H250.552V256.464H244.587V268.394Z" fill="currentColor"/>
<path d="M83.5201 250.501V256.464H89.4843V250.501H83.5201Z" fill="currentColor"/>
<path d="M71.5874 250.501V256.464H77.5516V250.501H71.5874Z" fill="currentColor"/>
<path d="M59.6547 250.501V256.464H65.6233V250.501H59.6547Z" fill="currentColor"/>
<path d="M71.5874 250.501V238.571H65.6233V250.501H71.5874Z" fill="currentColor"/>
<path d="M95.4484 250.501V256.464H101.417V250.501H95.4484Z" fill="currentColor"/>
<path d="M131.242 304.176V310.144H137.206V304.176H131.242Z" fill="currentColor"/>
<path d="M143.175 298.214V310.144H149.139V298.214H143.175Z" fill="currentColor"/>
<path d="M131.242 280.32H125.278V304.176H131.242V280.32Z" fill="currentColor"/>
<path d="M119.314 268.394V280.32H125.278V268.394H119.314Z" fill="currentColor"/>
<path d="M107.381 268.394V280.32H113.345V268.394H107.381Z" fill="currentColor"/>
<path d="M190.897 280.32H196.865V268.394H190.897V280.32Z" fill="currentColor"/>
<path d="M286.345 53.6754V41.7495H280.381V53.6754H286.345Z" fill="currentColor"/>
<path d="M280.381 41.7495V35.7821H274.417V41.7495H280.381Z" fill="currentColor"/>
<path d="M310.211 101.392V77.5359H304.242V101.392H310.211Z" fill="currentColor"/>
<path d="M83.5201 250.501V238.571H77.5516V250.501H83.5201Z" fill="currentColor"/>
<path d="M298.278 71.5686V65.6057H292.314V71.5686H298.278Z" fill="currentColor"/>
<path d="M304.242 77.5359V71.5686H298.278V77.5359H304.242Z" fill="currentColor"/>
<path d="M292.314 65.6057V53.6754H286.345V65.6057H292.314Z" fill="currentColor"/>
<path d="M244.587 29.8192V23.8562H238.623V29.8192H244.587Z" fill="currentColor"/>
<path d="M232.655 29.8192V23.8562H226.691V29.8192H232.655Z" fill="currentColor"/>
<path d="M262.484 35.7821V29.8192H256.52V35.7821H262.484Z" fill="currentColor"/>
<path d="M256.52 29.8192V23.8562H250.552V29.8192H256.52Z" fill="currentColor"/>
<path d="M268.448 41.7495V35.7821H262.484V41.7495H268.448Z" fill="currentColor"/>
<path d="M292.314 220.678H298.278V208.747H292.314V220.678Z" fill="currentColor"/>
<path d="M262.484 232.608V244.534H268.448V232.608H262.484Z" fill="currentColor"/>
<path d="M298.278 208.747H304.242V202.784H298.278V208.747Z" fill="currentColor"/>
<path d="M286.345 226.641H292.314V220.678H286.345V226.641Z" fill="currentColor"/>
<path d="M286.345 244.534H292.314V232.608H286.345V244.534Z" fill="currentColor"/>
<path d="M274.417 232.608V244.534H280.381V232.608H274.417Z" fill="currentColor"/>
<path d="M304.242 166.998H310.211V155.072H304.242V166.998Z" fill="currentColor"/>
<path d="M310.211 137.179H316.175V125.248H310.211V137.179Z" fill="currentColor"/>
<path d="M304.242 149.105H310.211V137.179H304.242V149.105Z" fill="currentColor"/>
<path d="M316.175 119.285V101.392H310.211V119.285H316.175Z" fill="currentColor"/>
<path d="M304.242 202.784H310.211V178.928H304.242V202.784Z" fill="currentColor"/>
<path d="M101.417 256.464V268.394H107.381V256.464H101.417Z" fill="currentColor"/>
<path d="M286.345 208.747H292.314V202.784H286.345V208.747Z" fill="currentColor"/>
<path d="M298.278 137.179H304.242V125.248H298.278V137.179Z" fill="currentColor"/>
<path d="M298.278 155.072H304.242V149.105H298.278V155.072Z" fill="currentColor"/>
<path d="M292.314 202.784H298.278V178.928H292.314V202.784Z" fill="currentColor"/>
<path d="M298.278 178.928H304.242V166.998H298.278V178.928Z" fill="currentColor"/>
<path d="M304.242 119.285V101.392H298.278V119.285H304.242Z" fill="currentColor"/>
<path d="M298.278 101.392V77.5359H292.314V101.392H298.278Z" fill="currentColor"/>
<path d="M280.381 65.6057V53.6754H274.417V65.6057H280.381Z" fill="currentColor"/>
<path d="M274.417 53.6754V41.7495H268.448V53.6754H274.417Z" fill="currentColor"/>
<path d="M292.314 77.5359V71.5686H286.345V77.5359H292.314Z" fill="currentColor"/>
<path d="M286.345 71.5686V65.6057H280.381V71.5686H286.345Z" fill="currentColor"/>
<path d="M268.448 226.641V232.608H274.417V226.641H268.448Z" fill="currentColor"/>
<path d="M226.691 250.501V256.464H232.655V250.501H226.691Z" fill="currentColor"/>
<path d="M214.762 250.501V256.464H220.726V250.501H214.762Z" fill="currentColor"/>
<path d="M196.865 268.394H202.83V256.464H196.865V268.394Z" fill="currentColor"/>
<path d="M238.623 256.464H244.587V250.501H238.623V256.464Z" fill="currentColor"/>
<path d="M202.83 250.501V256.464H208.794V250.501H202.83Z" fill="currentColor"/>
<path d="M262.484 53.6754V41.7495H256.52V53.6754H262.484Z" fill="currentColor"/>
<path d="M280.381 232.608H286.345V226.641H280.381V232.608Z" fill="currentColor"/>
<path d="M280.381 220.678H286.345V208.747H280.381V220.678Z" fill="currentColor"/>
<path d="M244.587 226.641V232.608H250.552V226.641H244.587Z" fill="currentColor"/>
<path d="M256.52 226.641V232.608H262.484V226.641H256.52Z" fill="currentColor"/>
<path d="M238.623 244.534H244.587V232.608H238.623V244.534Z" fill="currentColor"/>
<path d="M143.175 119.285H137.206V125.248H143.175V119.285Z" fill="currentColor"/>
<path d="M143.175 149.105V137.179H137.206V149.105H143.175Z" fill="currentColor"/>
<path d="M149.139 71.5686H143.175V77.5359H149.139V71.5686Z" fill="currentColor"/>
<path d="M137.206 166.998H131.242V178.928H137.206V166.998Z" fill="currentColor"/>
<path d="M101.417 244.534V232.608H95.4484V244.534H101.417Z" fill="currentColor"/>
<path d="M143.175 77.5359H137.206V101.392H143.175V77.5359Z" fill="currentColor"/>
<path d="M137.206 149.105H131.242V155.072H137.206V149.105Z" fill="currentColor"/>
<path d="M137.206 202.784H131.242V208.747H137.206V202.784Z" fill="currentColor"/>
<path d="M119.314 232.608V226.641H113.345V232.608H119.314Z" fill="currentColor"/>
<path d="M113.345 244.534V232.608H107.381V244.534H113.345Z" fill="currentColor"/>
<path d="M131.242 232.608V226.641H125.278V232.608H131.242Z" fill="currentColor"/>
<path d="M137.206 226.641V220.678H131.242V226.641H137.206Z" fill="currentColor"/>
<path d="M173 65.6057V35.7821H167.036V65.6057H173Z" fill="currentColor"/>
<path d="M155.103 65.6057H149.139V71.5686H155.103V65.6057Z" fill="currentColor"/>
<path d="M202.83 35.7821V29.8192H196.865V35.7821H202.83Z" fill="currentColor"/>
<path d="M214.762 35.7821V29.8192H208.794V35.7821H214.762Z" fill="currentColor"/>
<path d="M238.623 35.7821V29.8192H232.655V35.7821H238.623Z" fill="currentColor"/>
<path d="M250.552 35.7821V29.8192H244.587V35.7821H250.552Z" fill="currentColor"/>
<path d="M226.691 35.7821V29.8192H220.726V35.7821H226.691Z" fill="currentColor"/>
<path d="M190.897 35.7821V29.8192H184.933V35.7821H190.897Z" fill="currentColor"/>
<path d="M161.072 35.7821H155.103V65.6057H161.072V35.7821Z" fill="currentColor"/>
<path d="M256.52 41.7495V35.7821H250.552V41.7495H256.52Z" fill="currentColor"/>
<path d="M178.968 29.8192H173V35.7821H178.968V29.8192Z" fill="currentColor"/>
</svg>
