<svg  viewBox="0 0 24 24" fill="none" xmlns="http://www.w3.org/2000/svg">
<path d="M8.53478 7C9.02317 7 9.47487 7.03821 9.88759 7.15133C10.3011 7.227 10.6397 7.37833 10.94 7.56711C11.2412 7.75666 11.4666 8.02111 11.6164 8.36122C11.767 8.70133 11.8427 9.11788 11.8427 9.57111C11.8427 10.1008 11.7296 10.554 11.4666 10.8941C11.2412 11.235 10.8651 11.5369 10.4142 11.7639C11.0532 11.9534 11.5415 12.2935 11.8427 12.7475C12.143 13.2008 12.3311 13.7679 12.3311 14.4107C12.3311 14.9403 12.2179 15.3935 12.0299 15.7719C11.8427 16.1502 11.5415 16.4903 11.203 16.7173C10.8352 16.9606 10.4286 17.1395 10.0007 17.2462C9.54977 17.3601 9.09884 17.4358 8.6479 17.4358H3.6104V7H8.53478ZM8.23365 11.2342C8.64714 11.2342 8.98572 11.1211 9.24864 10.9323C9.51156 10.7435 9.62468 10.4027 9.62468 9.98689C9.62468 9.75989 9.58646 9.53365 9.51156 9.38232C9.43666 9.23099 9.32354 9.11711 9.17374 9.00399C9.02317 8.92833 8.8726 8.85266 8.68459 8.81521C8.49657 8.777 8.30931 8.777 8.08308 8.777H5.9033V11.235H8.23441L8.23365 11.2342ZM8.34677 15.6962C8.57223 15.6962 8.7977 15.658 8.98572 15.6205C9.17374 15.5823 9.36176 15.5074 9.51156 15.3935C9.66471 15.2829 9.79284 15.1412 9.88759 14.9778C9.9625 14.789 10.0382 14.562 10.0382 14.2975C10.0382 13.7679 9.88759 13.3895 9.58722 13.1251C9.28609 12.8981 8.8726 12.785 8.38422 12.785H5.9033V15.697L8.34677 15.6962ZM15.6015 15.658C15.9019 15.9607 16.3528 16.112 16.9543 16.112C17.3678 16.112 17.7438 15.9989 18.0442 15.8101C18.3453 15.5831 18.5334 15.3561 18.6083 15.1299H20.4502C20.1491 16.0363 19.6982 16.6791 19.0974 17.0956C18.4951 17.4732 17.7813 17.7002 16.9169 17.7002C16.3638 17.7019 15.8154 17.5992 15.3004 17.3975C14.837 17.2238 14.4237 16.9381 14.0974 16.566C13.7483 16.2179 13.4903 15.7893 13.3461 15.3179C13.158 14.8264 13.0824 14.2975 13.0824 13.6922C13.0824 13.1251 13.158 12.5962 13.3461 12.104C13.5271 11.6304 13.7949 11.1947 14.1356 10.8192C14.4788 10.4667 14.8871 10.1841 15.3378 9.98689C15.8397 9.78516 16.3759 9.68238 16.9169 9.68422C17.5558 9.68422 18.1199 9.7981 18.6083 10.0626C19.0974 10.327 19.4727 10.6297 19.7731 11.0837C20.0742 11.4994 20.3004 11.9909 20.4502 12.5205C20.5251 13.0494 20.5626 13.5791 20.5251 14.1837H15.0749C15.0749 14.789 15.3004 15.3561 15.6015 15.6588V15.658ZM17.9693 11.6882C17.7064 11.4238 17.2929 11.2724 16.8037 11.2724C16.4659 11.2724 16.2022 11.3489 15.9768 11.462C15.7513 11.5751 15.6015 11.7264 15.4509 11.8778C15.3123 12.0239 15.2205 12.208 15.1873 12.4067C15.1498 12.5962 15.1124 12.7475 15.1124 12.8981H18.4951C18.4202 12.331 18.2322 11.9534 17.9693 11.6882ZM14.6614 7.71844H18.8712V8.73955H14.6622V7.71844H14.6614Z" fill="currentColor"/>
</svg>
