<svg  viewBox="0 0 455 452" fill="none" xmlns="http://www.w3.org/2000/svg">
<path d="M359.522 277.631L355.394 273.503L351.263 277.635L355.39 281.762L359.522 277.631Z" fill="currentColor"/>
<path d="M392.561 285.883L388.434 281.756L384.305 285.886L388.432 290.013L392.561 285.883Z" fill="currentColor"/>
<path d="M421.486 248.704L417.355 244.574L409.091 252.838L413.222 256.969L421.486 248.704Z" fill="currentColor"/>
<path d="M363.674 199.155L359.547 195.028L351.284 203.29L355.411 207.418L363.674 199.155Z" fill="currentColor"/>
<path d="M351.257 285.895L347.13 281.768L343 285.897L347.128 290.024L351.257 285.895Z" fill="currentColor"/>
<path d="M309.96 277.645L305.83 273.514L297.566 281.779L301.696 285.909L309.96 277.645Z" fill="currentColor"/>
<path d="M351.263 277.635L347.132 273.504L342.999 277.637L347.13 281.768L351.263 277.635Z" fill="currentColor"/>
<path d="M388.435 273.494L384.304 269.364L376.043 277.624L380.174 281.755L388.435 273.494Z" fill="currentColor"/>
<path d="M351.263 269.373L347.136 265.246L343.005 269.377L347.132 273.504L351.263 269.373Z" fill="currentColor"/>
<path d="M400.831 252.837L396.704 248.71L392.571 252.843L396.698 256.97L400.831 252.837Z" fill="currentColor"/>
<path d="M400.846 211.536L396.715 207.405L392.583 211.538L396.713 215.669L400.846 211.536Z" fill="currentColor"/>
<path d="M388.44 248.712L384.313 244.585L380.181 248.716L384.309 252.844L388.44 248.712Z" fill="currentColor"/>
<path d="M413.225 240.443L409.098 236.316L404.966 240.447L409.094 244.574L413.225 240.443Z" fill="currentColor"/>
<path d="M380.182 240.454L376.055 236.327L371.924 240.458L376.051 244.586L380.182 240.454Z" fill="currentColor"/>
<path d="M334.755 236.335L326.497 228.078L322.364 232.211L330.622 240.468L334.755 236.335Z" fill="currentColor"/>
<path d="M400.84 219.796L396.713 215.669L388.451 223.931L392.578 228.059L400.84 219.796Z" fill="currentColor"/>
<path d="M326.486 252.858L322.359 248.731L318.226 252.864L322.353 256.991L326.486 252.858Z" fill="currentColor"/>
<path d="M326.49 244.6L322.36 240.469L318.229 244.6L322.359 248.731L326.49 244.6Z" fill="currentColor"/>
<path d="M347.148 223.942L338.891 215.684L334.758 219.817L343.015 228.075L347.148 223.942Z" fill="currentColor"/>
<path d="M400.828 261.101L396.698 256.97L392.567 261.101L396.697 265.232L400.828 261.101Z" fill="currentColor"/>
<path d="M400.833 244.58L396.703 240.45L392.573 244.579L396.704 248.71L400.833 244.58Z" fill="currentColor"/>
<path d="M388.446 240.452L384.315 236.321L380.182 240.454L384.313 244.585L388.446 240.452Z" fill="currentColor"/>
<path d="M400.836 236.317L396.708 232.189L392.575 236.322L396.703 240.45L400.836 236.317Z" fill="currentColor"/>
<path d="M400.828 269.363L396.697 265.232L392.568 269.361L396.698 273.492L400.828 269.363Z" fill="currentColor"/>
<path d="M355.409 215.681L351.278 211.551L347.147 215.682L351.278 219.812L355.409 215.681Z" fill="currentColor"/>
<path d="M409.092 261.098L404.961 256.968L400.828 261.101L404.959 265.231L409.092 261.098Z" fill="currentColor"/>
<path d="M359.528 261.109L355.401 256.982L351.268 261.114L355.395 265.242L359.528 261.109Z" fill="currentColor"/>
<path d="M380.168 298.277L376.04 294.15L371.909 298.281L376.036 302.408L380.168 298.277Z" fill="currentColor"/>
<path d="M239.72 372.659L247.981 364.397L243.851 360.267L252.113 352.005L247.986 347.879L243.857 352.008L239.727 347.877L235.594 352.01L239.725 356.14L235.592 360.273L231.461 356.143L227.332 360.272L235.589 368.529L231.457 372.661L239.718 380.922L243.85 376.789L239.72 372.659Z" fill="currentColor"/>
<path d="M388.429 298.276L384.299 294.146L380.168 298.277L384.298 302.408L388.429 298.276Z" fill="currentColor"/>
<path d="M371.909 298.281L367.779 294.15L363.646 298.283L367.776 302.414L371.909 298.281Z" fill="currentColor"/>
<path d="M342.994 302.419L338.864 298.289L334.734 302.418L338.865 306.549L342.994 302.419Z" fill="currentColor"/>
<path d="M342.992 310.676L338.865 306.549L334.732 310.682L338.859 314.809L342.992 310.676Z" fill="currentColor"/>
<path d="M380.167 306.539L376.036 302.408L371.903 306.541L376.034 310.672L380.167 306.539Z" fill="currentColor"/>
<path d="M260.372 360.264L256.245 356.137L247.981 364.397L252.108 368.528L260.372 360.264Z" fill="currentColor"/>
<path d="M342.995 294.157L338.867 290.03L334.736 294.161L338.864 298.289L342.995 294.157Z" fill="currentColor"/>
<path d="M351.239 368.499L359.496 376.756L363.625 372.628L359.494 368.497L363.627 364.364L351.244 351.981L347.111 356.114L355.368 364.371L351.239 368.499Z" fill="currentColor"/>
<path d="M421.456 347.828L417.325 343.697L413.192 347.83L417.323 351.961L421.456 347.828Z" fill="currentColor"/>
<path d="M429.718 347.827L425.587 343.696L421.456 347.828L425.586 351.958L429.718 347.827Z" fill="currentColor"/>
<path d="M413.192 347.83L409.065 343.703L404.936 347.832L409.063 351.959L413.192 347.83Z" fill="currentColor"/>
<path d="M243.857 343.748L239.726 339.618L235.595 343.749L239.727 347.877L243.857 343.748Z" fill="currentColor"/>
<path d="M442.112 327.172L437.981 323.041L429.721 331.302L433.851 335.432L442.112 327.172Z" fill="currentColor"/>
<path d="M268.63 368.522L264.503 364.394L260.372 368.526L264.499 372.653L268.63 368.522Z" fill="currentColor"/>
<path d="M380.146 364.36L376.019 360.233L367.758 368.495L376.015 376.752L380.147 372.619L376.017 368.488L380.146 364.36Z" fill="currentColor"/>
<path d="M392.536 368.486L384.278 360.229L380.146 364.36L388.405 372.618L392.536 368.486Z" fill="currentColor"/>
<path d="M400.799 368.484L396.669 364.353L392.536 368.486L396.666 372.617L400.799 368.484Z" fill="currentColor"/>
<path d="M355.359 397.409L347.101 389.151L342.968 393.284L351.226 401.542L355.359 397.409Z" fill="currentColor"/>
<path d="M260.381 335.485L256.251 331.355L252.121 335.484L256.252 339.615L260.381 335.485Z" fill="currentColor"/>
<path d="M285.16 335.476L281.033 331.349L272.771 339.612L276.898 343.739L285.16 335.476Z" fill="currentColor"/>
<path d="M268.639 352.001L272.768 347.872L268.638 343.741L272.771 339.612L268.64 335.478L260.378 343.74L268.639 352.001Z" fill="currentColor"/>
<path d="M260.378 343.74L256.252 339.615L252.119 343.748L256.246 347.875L260.378 343.74Z" fill="currentColor"/>
<path d="M281.028 347.869L276.898 343.739L272.768 347.872L276.897 352.001L281.028 347.869Z" fill="currentColor"/>
<path d="M289.286 356.127L285.156 351.997L281.024 356.128L285.155 360.259L289.286 356.127Z" fill="currentColor"/>
<path d="M301.691 310.691L297.56 306.561L293.429 310.692L297.56 314.822L301.691 310.691Z" fill="currentColor"/>
<path d="M301.687 318.95L297.56 314.822L293.427 318.955L297.554 323.083L301.687 318.95Z" fill="currentColor"/>
<path d="M330.601 306.551L326.473 302.424L322.342 306.555L326.47 310.683L330.601 306.551Z" fill="currentColor"/>
<path d="M309.96 269.385L305.832 265.258L301.703 269.387L305.83 273.514L309.96 269.385Z" fill="currentColor"/>
<path d="M322.343 298.293L318.216 294.166L309.955 302.427L314.082 306.554L322.343 298.293Z" fill="currentColor"/>
<path d="M235.599 335.491L231.469 331.36L227.337 335.491L231.468 339.622L235.599 335.491Z" fill="currentColor"/>
<path d="M256.257 314.833L252.127 310.702L247.994 314.835L252.124 318.966L256.257 314.833Z" fill="currentColor"/>
<path d="M309.955 302.427L301.697 294.169L297.564 298.302L305.822 306.56L309.955 302.427Z" fill="currentColor"/>
<path d="M235.6 327.229L231.473 323.102L227.342 327.233L231.469 331.36L235.6 327.229Z" fill="currentColor"/>
<path d="M260.382 327.223L252.124 318.966L247.993 323.097L256.251 331.355L260.382 327.223Z" fill="currentColor"/>
<path d="M330.606 298.291L326.476 294.16L322.343 298.293L326.473 302.424L330.606 298.291Z" fill="currentColor"/>
<path d="M235.599 335.491L239.726 339.618L243.858 335.485L247.989 339.616L252.121 335.484L243.865 327.226L235.599 335.491Z" fill="currentColor"/>
<path d="M334.727 318.94L330.6 314.813L326.471 318.943L330.598 323.07L334.727 318.94Z" fill="currentColor"/>
<path d="M281.02 372.647L276.894 368.521L281.027 364.388L276.896 360.257L268.63 368.522L276.887 376.78L281.02 372.647Z" fill="currentColor"/>
<path d="M429.761 199.14L433.894 195.007L429.763 190.877L433.892 186.748L429.761 182.617L425.633 186.746L421.502 182.616L425.631 178.487L417.374 170.23L409.112 178.492L429.761 199.14Z" fill="currentColor"/>
<path d="M433.886 203.267L429.761 199.14L425.627 203.271L429.754 207.398L433.886 203.267Z" fill="currentColor"/>
<path d="M272.767 356.13L268.639 352.001L260.372 360.264L264.503 364.394L272.767 356.13Z" fill="currentColor"/>
<path d="M417.367 203.269L413.24 199.142L409.107 203.275L413.234 207.402L417.367 203.269Z" fill="currentColor"/>
<path d="M289.283 372.646L285.152 368.515L281.02 372.647L285.15 376.779L289.283 372.646Z" fill="currentColor"/>
<path d="M425.627 203.271L421.496 199.14L417.367 203.269L421.497 207.4L425.627 203.271Z" fill="currentColor"/>
<path d="M297.541 380.904L293.414 376.777L289.281 380.91L293.408 385.037L297.541 380.904Z" fill="currentColor"/>
<path d="M400.856 170.235L404.988 166.102L409.115 170.228L413.244 166.1L404.987 157.843L396.725 166.104L400.856 170.235Z" fill="currentColor"/>
<path d="M305.802 372.643L301.675 368.516L297.543 372.647L301.67 376.774L305.802 372.643Z" fill="currentColor"/>
<path d="M305.801 380.905L301.67 376.774L297.541 380.904L301.671 385.034L305.801 380.905Z" fill="currentColor"/>
<path d="M281.024 356.128L276.897 352.001L272.767 356.13L276.896 360.257L281.024 356.128Z" fill="currentColor"/>
<path d="M289.282 364.386L285.155 360.259L281.027 364.388L285.152 368.515L289.282 364.386Z" fill="currentColor"/>
<path d="M297.544 364.385L293.413 360.254L289.282 364.386L293.412 368.517L297.544 364.385Z" fill="currentColor"/>
<path d="M392.594 178.496L396.72 182.623L400.849 178.494L404.98 182.625L409.112 178.492L400.856 170.235L392.594 178.496Z" fill="currentColor"/>
<path d="M429.75 223.918L425.623 219.791L421.491 223.922L425.618 228.049L429.75 223.918Z" fill="currentColor"/>
<path d="M421.493 215.661L425.623 219.791L429.756 215.659L433.882 219.785L438.011 215.656L429.754 207.398L421.493 215.661Z" fill="currentColor"/>
<path d="M446.274 215.655L442.143 211.525L438.011 215.656L442.143 219.786L446.274 215.655Z" fill="currentColor"/>
<path d="M392.594 178.496L388.463 174.366L384.33 178.499L388.461 182.629L392.594 178.496Z" fill="currentColor"/>
<path d="M438.013 223.916L433.882 219.785L429.75 223.918L433.88 228.049L438.013 223.916Z" fill="currentColor"/>
<path d="M450.4 228.044L442.143 219.786L438.013 223.916L446.271 232.174L450.4 228.044Z" fill="currentColor"/>
<path d="M297.543 372.647L293.412 368.517L289.283 372.646L293.414 376.777L297.543 372.647Z" fill="currentColor"/>
<path d="M297.546 356.122L293.419 351.995L289.286 356.127L293.413 360.254L297.546 356.122Z" fill="currentColor"/>
<path d="M314.065 372.641L309.934 368.51L305.802 372.643L309.932 376.773L314.065 372.641Z" fill="currentColor"/>
<path d="M367.788 252.848L363.661 248.721L359.53 252.852L363.657 256.979L367.788 252.848Z" fill="currentColor"/>
<path d="M314.059 389.163L309.928 385.032L305.798 389.161L309.929 393.292L314.059 389.163Z" fill="currentColor"/>
<path d="M409.107 203.275L400.849 195.018L396.718 199.149L404.976 207.407L409.107 203.275Z" fill="currentColor"/>
<path d="M396.718 190.887L388.461 182.629L384.329 186.761L392.587 195.018L396.718 190.887Z" fill="currentColor"/>
<path d="M305.807 364.383L301.677 360.252L297.544 364.385L301.675 368.516L305.807 364.383Z" fill="currentColor"/>
<path d="M305.798 389.161L301.671 385.034L297.538 389.167L301.665 393.294L305.798 389.161Z" fill="currentColor"/>
<path d="M404.981 190.884L409.108 195.01L413.237 190.881L404.98 182.625L396.718 190.887L400.849 195.018L404.981 190.884Z" fill="currentColor"/>
<path d="M351.232 385.02L342.974 376.762L338.843 380.893L347.101 389.151L351.232 385.02Z" fill="currentColor"/>
<path d="M347.12 323.07L342.989 318.94L326.464 335.465L330.595 339.595L347.12 323.07Z" fill="currentColor"/>
<path d="M322.334 339.594L314.077 331.337L309.944 335.47L314.071 339.597L309.938 343.729L314.068 347.86L322.334 339.594Z" fill="currentColor"/>
<path d="M334.722 343.722L330.595 339.595L326.464 343.727L330.591 347.854L334.722 343.722Z" fill="currentColor"/>
<path d="M314.08 314.818L309.949 310.687L305.818 314.818L309.949 318.949L314.08 314.818Z" fill="currentColor"/>
<path d="M318.207 327.207L309.949 318.949L305.817 323.08L314.077 331.337L318.207 327.207Z" fill="currentColor"/>
<path d="M334.721 351.984L330.591 347.854L326.458 351.987L330.588 356.117L334.721 351.984Z" fill="currentColor"/>
<path d="M326.465 327.203L322.338 323.076L318.207 327.207L322.334 331.334L326.465 327.203Z" fill="currentColor"/>
<path d="M347.104 372.633L342.973 368.502L338.844 372.632L342.974 376.762L347.104 372.633Z" fill="currentColor"/>
<path d="M326.458 351.987L322.331 347.86L318.201 351.989L322.328 356.116L326.458 351.987Z" fill="currentColor"/>
<path d="M342.968 393.284L338.837 389.153L334.708 393.283L338.838 397.414L342.968 393.284Z" fill="currentColor"/>
<path d="M355.353 405.669L351.226 401.542L347.096 405.672L351.223 409.799L355.353 405.669Z" fill="currentColor"/>
<path d="M421.493 215.661L417.364 211.533L413.233 215.664L417.361 219.792L421.493 215.661Z" fill="currentColor"/>
<path d="M322.34 314.812L318.213 310.685L314.08 314.818L318.207 318.945L322.34 314.812Z" fill="currentColor"/>
<path d="M347.096 405.672L342.966 401.541L338.833 405.674L342.964 409.805L347.096 405.672Z" fill="currentColor"/>
<path d="M359.489 385.018L355.362 380.89L351.232 385.02L355.359 389.147L359.489 385.018Z" fill="currentColor"/>
<path d="M392.588 203.278L388.458 199.148L380.194 207.412L384.324 211.542L392.588 203.278Z" fill="currentColor"/>
<path d="M264.514 314.83L260.387 310.703L256.257 314.833L260.384 318.96L264.514 314.83Z" fill="currentColor"/>
<path d="M371.942 182.632L367.812 178.502L363.679 182.635L367.809 186.765L371.942 182.632Z" fill="currentColor"/>
<path d="M380.199 182.63L376.072 178.503L371.942 182.632L376.069 186.759L380.199 182.63Z" fill="currentColor"/>
<path d="M380.2 190.89L376.069 186.759L367.805 195.024L371.936 199.154L380.2 190.89Z" fill="currentColor"/>
<path d="M260.377 352.006L256.246 347.875L252.113 352.005L256.245 356.137L260.377 352.006Z" fill="currentColor"/>
<path d="M380.194 207.412L371.936 199.154L367.805 203.285L376.062 211.543L380.194 207.412Z" fill="currentColor"/>
<path d="M252.119 343.748L247.989 339.616L243.857 343.748L247.986 347.879L252.119 343.748Z" fill="currentColor"/>
<path d="M359.563 145.465L355.432 141.334L351.299 145.467L355.43 149.598L359.563 145.465Z" fill="currentColor"/>
<path d="M305.812 331.341L301.684 327.213L297.555 331.343L301.682 335.47L305.812 331.341Z" fill="currentColor"/>
<path d="M289.302 306.565L285.171 302.434L281.038 306.567L285.169 310.698L289.302 306.565Z" fill="currentColor"/>
<path d="M289.296 314.825L285.169 310.698L281.04 314.827L285.167 318.954L289.296 314.825Z" fill="currentColor"/>
<path d="M293.434 294.172L285.176 285.914L276.914 294.176L285.171 302.434L293.434 294.172Z" fill="currentColor"/>
<path d="M347.172 141.34L343.041 137.21L338.91 141.341L343.041 145.472L347.172 141.34Z" fill="currentColor"/>
<path d="M347.159 182.639L343.031 178.512L338.898 182.645L343.026 186.772L347.159 182.639Z" fill="currentColor"/>
<path d="M314.059 380.9L309.932 376.773L305.801 380.905L309.928 385.032L314.059 380.9Z" fill="currentColor"/>
<path d="M404.956 281.75L400.825 277.619L396.692 281.752L400.823 285.883L404.956 281.75Z" fill="currentColor"/>
<path d="M359.505 335.455L355.378 331.328L338.853 347.853L342.98 351.98L359.505 335.455Z" fill="currentColor"/>
<path d="M380.162 323.059L376.032 318.928L371.899 323.061L376.029 327.192L380.162 323.059Z" fill="currentColor"/>
<path d="M363.647 306.543L359.516 302.413L355.383 306.546L359.514 310.676L363.647 306.543Z" fill="currentColor"/>
<path d="M371.899 323.061L367.772 318.934L359.511 327.195L363.638 331.322L371.899 323.061Z" fill="currentColor"/>
<path d="M367.779 285.889L363.652 281.762L355.388 290.026L359.515 294.153L367.779 285.889Z" fill="currentColor"/>
<path d="M359.51 318.935L355.383 314.808L351.253 318.937L355.38 323.065L359.51 318.935Z" fill="currentColor"/>
<path d="M355.383 306.546L351.253 302.415L347.121 306.546L351.252 310.677L355.383 306.546Z" fill="currentColor"/>
<path d="M446.266 256.955L442.135 252.825L438.002 256.958L442.133 261.088L446.266 256.955Z" fill="currentColor"/>
<path d="M413.233 215.664L409.103 211.534L404.973 215.663L409.104 219.794L413.233 215.664Z" fill="currentColor"/>
<path d="M380.156 339.581L376.025 335.45L371.895 339.58L376.026 343.711L380.156 339.581Z" fill="currentColor"/>
<path d="M400.82 302.401L396.69 298.27L388.425 306.535L392.556 310.665L400.82 302.401Z" fill="currentColor"/>
<path d="M438.002 256.958L433.875 252.831L421.479 265.226L425.607 269.353L438.002 256.958Z" fill="currentColor"/>
<path d="M388.425 314.796L384.294 310.666L380.161 314.799L384.292 318.929L388.425 314.796Z" fill="currentColor"/>
<path d="M413.214 290.007L409.083 285.877L404.95 290.01L409.081 294.14L413.214 290.007Z" fill="currentColor"/>
<path d="M343.012 244.593L338.882 240.463L334.749 244.595L338.879 248.726L343.012 244.593Z" fill="currentColor"/>
<path d="M318.218 285.903L314.091 281.776L305.827 290.04L309.954 294.167L318.218 285.903Z" fill="currentColor"/>
<path d="M351.27 252.851L347.143 248.724L343.01 252.857L347.137 256.984L351.27 252.851Z" fill="currentColor"/>
<path d="M334.742 269.379L326.484 261.122L322.354 265.251L330.612 273.509L334.742 269.379Z" fill="currentColor"/>
<path d="M338.879 256.988L334.748 252.857L330.617 256.989L334.747 261.119L338.879 256.988Z" fill="currentColor"/>
<path d="M376.046 261.106L371.919 256.979L363.658 265.239L367.786 269.367L376.046 261.106Z" fill="currentColor"/>
<path d="M334.737 285.899L330.61 281.772L326.479 285.904L330.606 290.031L334.737 285.899Z" fill="currentColor"/>
<path d="M334.743 277.639L330.612 273.509L326.479 277.642L330.61 281.772L334.743 277.639Z" fill="currentColor"/>
<path d="M367.765 343.713L371.895 339.58L367.771 335.454L359.506 343.719L371.889 356.103L376.022 351.97L367.765 343.713Z" fill="currentColor"/>
<path d="M384.32 219.801L380.193 215.674L371.93 223.937L376.057 228.064L384.32 219.801Z" fill="currentColor"/>
<path d="M322.352 273.515L318.221 269.384L314.09 273.515L318.221 277.646L322.352 273.515Z" fill="currentColor"/>
<path d="M371.929 215.676L363.672 207.418L359.542 211.548L367.8 219.806L371.929 215.676Z" fill="currentColor"/>
<path d="M318.224 261.12L314.097 256.993L309.964 261.126L314.091 265.253L318.224 261.12Z" fill="currentColor"/>
<path d="M363.664 240.457L355.406 232.199L351.273 236.332L359.531 244.59L363.664 240.457Z" fill="currentColor"/>
<path d="M367.797 228.069L363.667 223.939L359.535 228.07L363.666 232.201L367.797 228.069Z" fill="currentColor"/>
<path d="M421.477 273.483L417.35 269.356L409.086 277.62L413.213 281.747L421.477 273.483Z" fill="currentColor"/>
<path d="M442.128 269.347L438.001 265.22L433.87 269.351L437.997 273.478L442.128 269.347Z" fill="currentColor"/>
<path d="M384.268 401.531L380.141 397.404L376.008 401.537L380.135 405.664L384.268 401.531Z" fill="currentColor"/>
<path d="M454.523 265.213L450.393 261.083L446.26 265.216L450.39 269.346L454.523 265.213Z" fill="currentColor"/>
<path d="M437.995 281.742L433.864 277.611L429.735 281.741L433.865 285.871L437.995 281.742Z" fill="currentColor"/>
<path d="M429.735 281.741L425.607 277.614L421.474 281.747L425.602 285.874L429.735 281.741Z" fill="currentColor"/>
<path d="M334.696 434.587L330.565 430.457L326.434 434.588L330.565 438.719L334.696 434.587Z" fill="currentColor"/>
<path d="M446.255 281.736L442.128 277.609L437.995 281.742L442.122 285.869L446.255 281.736Z" fill="currentColor"/>
<path d="M442.149 203.264L438.019 199.134L433.886 203.267L438.016 207.397L442.149 203.264Z" fill="currentColor"/>
<path d="M384.284 351.968L380.153 347.838L376.022 351.97L380.151 356.101L384.284 351.968Z" fill="currentColor"/>
<path d="M450.402 236.304L446.271 232.174L442.138 236.307L446.269 240.437L450.402 236.304Z" fill="currentColor"/>
<path d="M417.362 228.052L409.104 219.794L404.971 223.927L413.229 232.185L417.362 228.052Z" fill="currentColor"/>
<path d="M429.747 232.181L425.618 236.31L421.488 232.179L417.355 236.312L425.616 244.573L433.878 236.312L429.747 232.181Z" fill="currentColor"/>
<path d="M429.732 290.004L425.602 285.874L421.47 290.005L425.601 294.136L429.732 290.004Z" fill="currentColor"/>
<path d="M442.138 236.307L438.011 232.179L433.878 236.312L438.007 240.438L442.138 236.307Z" fill="currentColor"/>
<path d="M442.137 244.568L438.007 240.438L433.877 244.567L438.008 248.698L442.137 244.568Z" fill="currentColor"/>
<path d="M454.526 248.695L446.269 240.437L442.137 244.568L450.395 252.826L454.526 248.695Z" fill="currentColor"/>
<path d="M409.067 335.439L404.94 331.312L400.807 335.445L404.934 339.572L409.067 335.439Z" fill="currentColor"/>
<path d="M417.329 335.439L413.199 331.308L409.067 335.439L413.198 339.57L417.329 335.439Z" fill="currentColor"/>
<path d="M392.549 327.187L388.419 323.057L384.289 327.186L388.42 331.317L392.549 327.187Z" fill="currentColor"/>
<path d="M417.33 327.177L413.203 323.049L409.071 327.181L413.199 331.308L417.33 327.177Z" fill="currentColor"/>
<path d="M392.547 335.444L388.42 331.317L384.287 335.45L388.414 339.577L392.547 335.444Z" fill="currentColor"/>
<path d="M421.472 298.265L417.341 294.134L413.208 298.267L417.339 302.398L421.472 298.265Z" fill="currentColor"/>
<path d="M413.205 314.786L409.078 310.659L400.814 318.923L404.941 323.05L413.205 314.786Z" fill="currentColor"/>
<path d="M404.93 356.092L400.803 351.965L396.672 356.097L400.799 360.224L404.93 356.092Z" fill="currentColor"/>
<path d="M437.99 298.262L433.859 294.132L429.728 298.263L433.859 302.393L437.99 298.262Z" fill="currentColor"/>
<path d="M450.38 294.127L446.253 289.999L437.99 298.262L442.117 302.39L450.38 294.127Z" fill="currentColor"/>
<path d="M425.596 310.656L421.466 306.525L417.334 310.656L421.465 314.787L425.596 310.656Z" fill="currentColor"/>
<path d="M433.854 318.914L429.724 314.783L425.592 318.914L429.723 323.045L433.854 318.914Z" fill="currentColor"/>
<path d="M396.672 356.097L392.541 351.966L388.411 356.096L392.542 360.226L396.672 356.097Z" fill="currentColor"/>
<path d="M400.805 343.702L396.678 339.574L392.545 343.707L396.672 347.835L400.805 343.702Z" fill="currentColor"/>
<path d="M347.106 364.369L338.849 356.111L334.716 360.244L342.973 368.502L347.106 364.369Z" fill="currentColor"/>
<path d="M136.499 252.915L132.366 257.048L128.236 252.918L124.107 257.046L132.368 265.307L140.63 257.046L136.499 252.915Z" fill="currentColor"/>
<path d="M206.722 215.722L202.594 211.595L198.463 215.726L202.59 219.853L206.722 215.722Z" fill="currentColor"/>
<path d="M148.891 248.782L144.76 244.652L140.629 248.783L144.76 252.914L148.891 248.782Z" fill="currentColor"/>
<path d="M206.725 207.463L202.595 203.333L198.464 207.464L202.594 211.595L206.725 207.463Z" fill="currentColor"/>
<path d="M157.149 248.778L153.022 244.651L148.891 248.782L153.018 252.909L157.149 248.778Z" fill="currentColor"/>
<path d="M186.064 236.378L177.807 228.122L169.545 236.383L173.676 240.514L177.808 236.381L181.935 240.507L186.064 236.378Z" fill="currentColor"/>
<path d="M173.67 248.774L165.412 240.516L161.282 244.645L169.54 252.903L173.67 248.774Z" fill="currentColor"/>
<path d="M190.201 223.988L186.07 219.858L181.939 223.989L186.069 228.119L190.201 223.988Z" fill="currentColor"/>
<path d="M198.457 223.986L194.33 219.859L190.201 223.988L194.328 228.116L198.457 223.986Z" fill="currentColor"/>
<path d="M153.025 236.387L148.894 232.257L144.761 236.39L148.892 240.52L153.025 236.387Z" fill="currentColor"/>
<path d="M144.761 236.39L140.634 232.263L136.503 236.394L140.63 240.521L144.761 236.39Z" fill="currentColor"/>
<path d="M124.107 257.046L119.978 252.919L115.845 257.052L119.972 261.179L124.107 257.046Z" fill="currentColor"/>
<path d="M169.548 219.864L165.417 215.733L157.155 223.996L161.285 228.126L169.548 219.864Z" fill="currentColor"/>
<path d="M124.102 265.31L119.972 261.179L115.842 265.308L119.973 269.439L124.102 265.31Z" fill="currentColor"/>
<path d="M136.498 244.652L132.371 240.525L128.238 244.658L132.365 248.785L136.498 244.652Z" fill="currentColor"/>
<path d="M161.29 211.606L157.16 207.476L153.03 211.605L157.16 215.736L161.29 211.606Z" fill="currentColor"/>
<path d="M165.403 273.556L157.145 265.299L153.012 269.432L161.27 277.689L165.403 273.556Z" fill="currentColor"/>
<path d="M210.857 195.07L202.599 186.813L198.47 190.942L206.728 199.2L210.857 195.07Z" fill="currentColor"/>
<path d="M219.119 195.07L214.988 190.939L210.857 195.07L214.988 199.201L219.119 195.07Z" fill="currentColor"/>
<path d="M219.115 203.328L214.988 199.201L210.858 203.33L214.986 207.458L219.115 203.328Z" fill="currentColor"/>
<path d="M153.028 219.869L144.77 211.611L140.639 215.743L148.896 224L153.028 219.869Z" fill="currentColor"/>
<path d="M194.332 211.595L186.075 203.337L181.942 207.47L190.199 215.728L194.332 211.595Z" fill="currentColor"/>
<path d="M173.684 199.213L169.553 195.082L165.424 199.212L169.554 203.342L173.684 199.213Z" fill="currentColor"/>
<path d="M186.075 195.076L181.948 190.948L173.684 199.213L177.811 203.34L186.075 195.076Z" fill="currentColor"/>
<path d="M198.468 199.206L190.206 190.944L186.075 195.076L194.336 203.337L198.468 199.206Z" fill="currentColor"/>
<path d="M153.017 261.171L148.887 257.041L144.754 261.174L148.884 265.304L153.017 261.171Z" fill="currentColor"/>
<path d="M173.665 265.294L169.538 261.167L165.407 265.298L169.534 269.425L173.665 265.294Z" fill="currentColor"/>
<path d="M165.407 257.036L161.28 252.909L157.149 257.04L161.276 261.167L165.407 257.036Z" fill="currentColor"/>
<path d="M181.943 215.73L177.812 211.6L173.681 215.731L177.812 219.862L181.943 215.73Z" fill="currentColor"/>
<path d="M181.927 257.032L177.8 252.904L173.671 257.034L177.798 261.161L181.927 257.032Z" fill="currentColor"/>
<path d="M161.271 285.949L153.013 277.692L148.882 281.823L157.14 290.081L161.271 285.949Z" fill="currentColor"/>
<path d="M177.791 277.683L173.664 273.556L165.4 281.82L169.527 285.947L177.791 277.683Z" fill="currentColor"/>
<path d="M140.636 223.999L136.509 219.872L132.376 224.005L136.503 228.132L140.636 223.999Z" fill="currentColor"/>
<path d="M74.5612 190.981L70.4305 186.85L66.3011 190.98L70.4317 195.11L74.5612 190.981Z" fill="currentColor"/>
<path d="M66.3035 182.723L62.1728 178.593L53.9122 186.853L58.0428 190.984L66.3035 182.723Z" fill="currentColor"/>
<path d="M70.4368 170.329L74.5672 174.46L78.7 170.327L82.8265 174.453L86.9593 170.321L78.7024 162.064L70.4368 170.329Z" fill="currentColor"/>
<path d="M62.1699 195.111L58.0428 190.984L53.9098 195.117L58.0369 199.244L62.1699 195.111Z" fill="currentColor"/>
<path d="M82.8212 190.975L78.6941 186.848L74.5612 190.981L78.6882 195.108L82.8212 190.975Z" fill="currentColor"/>
<path d="M99.3526 157.928L91.0949 149.671L86.9622 153.803L95.22 162.061L99.3526 157.928Z" fill="currentColor"/>
<path d="M107.615 149.665L99.3577 141.408L95.2247 145.541L103.482 153.798L107.615 149.665Z" fill="currentColor"/>
<path d="M115.876 141.405L111.749 137.278L107.62 141.407L111.747 145.534L115.876 141.405Z" fill="currentColor"/>
<path d="M95.2167 178.58L91.0896 174.453L82.8254 182.717L86.9525 186.844L95.2167 178.58Z" fill="currentColor"/>
<path d="M161.328 79.4374L157.201 75.3103L153.07 79.4416L157.197 83.5686L161.328 79.4374Z" fill="currentColor"/>
<path d="M45.6521 186.859L41.5215 182.729L33.2608 190.989L37.3914 195.12L45.6521 186.859Z" fill="currentColor"/>
<path d="M136.551 71.1873L140.682 75.3177L144.815 71.1849L148.941 75.3113L157.203 67.0497L153.076 62.9233L148.943 67.0561L144.813 62.9257L136.551 71.1873Z" fill="currentColor"/>
<path d="M161.327 87.6993L157.197 83.5686L153.064 87.7016L157.195 91.8323L161.327 87.6993Z" fill="currentColor"/>
<path d="M120.028 71.1906L115.897 67.06L111.766 71.1912L115.897 75.3218L120.028 71.1906Z" fill="currentColor"/>
<path d="M128.29 62.9282L124.16 58.7975L120.03 62.927L124.161 67.0576L128.29 62.9282Z" fill="currentColor"/>
<path d="M136.551 71.1873L132.418 67.0556L128.288 71.185L132.419 75.3156L136.551 71.1873Z" fill="currentColor"/>
<path d="M124.118 224.009L119.987 219.879L115.856 224.01L119.987 228.14L124.118 224.009Z" fill="currentColor"/>
<path d="M144.775 195.091L140.644 190.96L132.382 199.223L136.512 203.353L144.775 195.091Z" fill="currentColor"/>
<path d="M115.854 232.273L111.723 228.143L107.594 232.272L111.724 236.403L115.854 232.273Z" fill="currentColor"/>
<path d="M53.9064 211.634L58.0328 215.761L62.1657 211.628L53.9088 203.371L45.6431 211.637L49.7736 215.767L53.9064 211.634Z" fill="currentColor"/>
<path d="M136.52 178.57L132.392 174.442L128.259 178.575L132.387 182.703L136.52 178.57Z" fill="currentColor"/>
<path d="M124.108 240.528L119.981 236.401L111.72 244.661L115.847 248.788L124.108 240.528Z" fill="currentColor"/>
<path d="M132.376 224.005L128.249 219.878L124.118 224.009L128.245 228.136L132.376 224.005Z" fill="currentColor"/>
<path d="M165.424 199.212L161.297 195.084L157.166 199.216L161.293 203.343L165.424 199.212Z" fill="currentColor"/>
<path d="M136.517 186.833L132.387 182.703L128.257 186.832L132.387 190.963L136.517 186.833Z" fill="currentColor"/>
<path d="M107.599 207.49L103.471 203.363L95.2072 211.627L99.3346 215.754L107.599 207.49Z" fill="currentColor"/>
<path d="M70.4222 228.151L62.1645 219.893L58.0315 224.026L66.2892 232.284L70.4222 228.151Z" fill="currentColor"/>
<path d="M128.251 211.614L124.121 207.484L119.988 211.617L124.118 215.747L128.251 211.614Z" fill="currentColor"/>
<path d="M58.0315 224.026L49.7736 215.767L45.6441 219.898L53.9018 228.156L58.0315 224.026Z" fill="currentColor"/>
<path d="M119.988 211.617L115.861 207.49L111.729 211.621L115.857 215.748L119.988 211.617Z" fill="currentColor"/>
<path d="M111.725 219.879L107.598 215.752L103.465 219.885L107.592 224.012L111.725 219.879Z" fill="currentColor"/>
<path d="M99.3358 224.015L95.2052 219.884L91.074 224.015L95.2046 228.146L99.3358 224.015Z" fill="currentColor"/>
<path d="M330.57 422.197L326.439 418.066L322.306 422.199L318.18 418.073L309.918 426.334L314.045 430.461L309.912 434.593L305.785 430.467L301.657 434.596L297.526 430.465L301.655 426.337L305.785 430.467L309.918 426.334L305.788 422.204L314.049 413.942L309.923 409.816L314.056 405.683L309.925 401.552L305.793 405.685L301.666 401.559L297.537 405.688L305.794 413.944L297.529 422.21L293.398 418.08L289.269 422.208L293.4 426.339L289.267 430.472L297.524 438.729L293.395 442.857L297.521 446.984L301.65 442.855L305.781 446.985L314.042 438.724L318.169 442.85L322.302 438.717L318.175 434.591L326.437 426.329L330.565 430.457L334.696 426.323L338.827 430.454L342.959 426.321L334.702 418.064L330.57 422.197Z" fill="currentColor"/>
<path d="M124.095 298.349L115.837 290.091L111.704 294.224L119.962 302.482L124.095 298.349Z" fill="currentColor"/>
<path d="M140.613 306.607L136.482 302.477L132.353 306.606L136.483 310.737L140.613 306.607Z" fill="currentColor"/>
<path d="M132.353 306.606L128.225 302.479L124.092 306.612L128.22 310.739L132.353 306.606Z" fill="currentColor"/>
<path d="M111.703 302.486L107.572 298.355L103.441 302.486L107.572 306.617L111.703 302.486Z" fill="currentColor"/>
<path d="M330.574 405.678L334.707 401.545L326.45 393.288L322.317 397.421L326.444 401.548L322.315 405.676L318.189 401.55L314.056 405.683L318.182 409.809L314.049 413.942L318.18 418.073L326.446 409.807L334.702 418.064L338.831 413.935L330.574 405.678Z" fill="currentColor"/>
<path d="M111.71 285.964L107.579 281.833L103.446 285.966L107.577 290.097L111.71 285.964Z" fill="currentColor"/>
<path d="M285.135 434.601L289.267 430.472L281.007 422.214L289.271 413.95L293.398 418.08L297.528 413.948L293.401 409.82L297.537 405.688L289.276 397.43L285.143 401.563L289.27 405.69L285.141 409.819L281.013 405.692L285.143 401.563L281.012 397.432L272.752 405.693L268.625 401.566L264.492 405.699L268.619 409.826L264.489 413.955L268.62 418.086L264.489 422.217L268.616 426.344L272.747 422.213L276.878 426.343L268.613 434.607L260.356 426.35L264.489 422.217L260.358 418.087L264.489 413.955L260.362 409.828L264.492 405.699L260.361 401.568L252.1 409.829L247.97 405.698L243.837 409.831L239.71 405.704L243.843 401.571L247.97 405.698L256.23 397.437L260.361 401.568L264.494 397.435L268.625 401.566L276.885 393.305L268.624 385.044L260.363 393.304L252.106 385.047L256.237 380.916L260.367 385.046L264.497 380.917L268.624 385.044L272.757 380.911L264.499 372.653L260.366 376.786L252.108 368.528L243.85 376.789L247.978 380.919L243.845 385.052L247.973 389.179L235.579 401.573L231.452 397.446L243.845 385.052L239.718 380.922L235.585 385.051L223.201 372.666L227.33 368.537L223.199 364.406L227.332 360.272L223.202 356.143L227.333 352.012L231.461 356.143L235.594 352.01L231.463 347.882L235.595 343.749L231.468 339.622L223.206 347.885L219.075 343.754L223.205 339.625L219.077 335.497L210.817 343.758L219.075 352.016L214.942 356.149L219.069 360.276L214.939 364.405L219.07 368.536L210.806 376.8L206.675 372.669L202.545 376.799L194.288 368.541L190.155 372.674L186.028 368.547L190.16 364.414L194.288 368.541L198.417 364.412L206.675 372.669L214.939 364.405L206.681 356.147L210.811 352.018L206.684 347.891L210.817 343.758L206.686 339.628L202.553 343.76L198.426 339.633L194.297 343.763L190.166 339.632L194.296 335.503L190.168 331.375L194.301 327.242L198.428 331.37L194.296 335.503L198.426 339.633L202.559 335.5L206.686 339.628L214.947 331.366L219.077 335.497L227.342 327.233L223.211 323.102L227.342 318.971L231.473 323.102L235.606 318.968L243.865 327.226L247.993 323.097L239.735 314.84L248 306.575L252.127 310.702L260.39 302.44L264.52 306.57L268.651 302.439L260.394 294.181L256.262 298.313L252.132 294.182L256.263 290.051L260.394 294.181L264.523 290.052L268.65 294.179L276.914 285.915L272.787 281.787L276.918 277.656L281.045 281.783L285.178 277.651L281.051 273.523L285.181 269.394L289.308 273.521L285.178 277.651L289.309 281.781L297.57 273.52L289.312 265.263L297.575 257L293.445 252.869L297.576 248.738L305.834 256.996L309.966 252.863L301.709 244.605L318.233 228.081L314.106 223.953L326.5 211.56L322.369 207.429L330.632 199.167L326.504 195.039L338.898 182.645L330.64 174.387L343.036 161.992L334.778 153.734L338.911 149.601L334.781 145.471L338.91 141.341L334.78 137.211L343.044 128.946L334.786 120.689L343.047 112.428L338.919 108.301L334.788 112.432L330.658 108.302L334.789 104.17L338.919 108.301L343.052 104.168L338.922 100.037L343.051 95.9079L338.924 91.7806L330.662 100.043L326.531 95.9126L334.794 87.6502L338.924 91.7806L343.056 87.6491L334.798 79.391L330.666 83.5226L326.536 79.3921L330.667 75.2605L322.409 67.0027L326.542 62.8698L322.412 58.7392L318.279 62.872L314.152 58.745L310.02 62.8765L305.89 58.7461L297.627 67.0085L293.5 62.8813L301.762 54.6188L305.89 58.7461L310.021 54.6143L314.152 58.745L318.284 54.6119L305.9 42.2273L301.767 46.3602L297.636 42.2297L301.769 38.0969L293.511 29.839L289.379 33.9719L276.99 21.5831L272.858 25.7147L268.728 21.5842L272.859 17.4527L268.732 13.3254L264.601 17.457L256.343 9.1993L252.213 13.3287L248.083 9.19825L243.95 13.3311L235.692 5.07337L231.561 9.20458L227.434 5.07734L223.304 9.20694L215.047 0.949239L210.914 5.08227L206.783 0.951812L198.523 9.21244L194.392 5.08161L186.128 13.3458L177.87 5.08783L169.605 13.352L165.478 9.22484L153.084 21.6189L148.957 17.492L144.828 21.6214L140.697 17.4909L128.304 29.8845L132.434 34.015L128.301 38.148L124.171 34.0176L128.304 29.8845L124.173 25.754L107.645 42.2825L103.517 38.1551L45.6781 95.9942L49.8052 100.121L45.6754 104.251L41.5484 100.124L37.4155 104.257L41.5426 108.384L29.1486 120.778L33.2791 124.908L20.8837 137.304L25.0141 141.434L16.7534 149.695L20.8807 153.822L16.7479 157.955L12.6209 153.828L8.49149 157.958L12.6184 162.084L8.48722 166.216L12.6143 170.343L8.4815 174.476L12.612 178.606L4.34916 186.869L8.47657 190.996L4.34512 195.128L8.47578 199.258L0.213348 207.521L4.34381 211.651L8.475 207.52L12.6021 211.647L8.47089 215.778L4.34381 211.651L0.213 215.783L4.34009 219.91L0.208881 224.041L4.33934 228.172L0.206513 232.305L4.33359 236.432L0.204156 240.561L8.46186 248.819L4.33066 252.95L8.46111 257.08L4.32827 261.213L12.586 269.471L8.45474 273.602L20.8431 285.991L16.7119 290.122L29.097 302.507L24.9656 306.638L41.481 323.154L45.6123 319.022L49.7427 323.153L45.6115 327.284L53.8692 335.542L58.0004 331.411L66.2581 339.668L70.3893 335.537L74.5198 339.668L70.3886 343.799L74.516 347.926L78.6472 343.795L91.0356 356.183L95.1668 352.052L99.2939 356.179L95.1626 360.31L103.42 368.568L107.552 364.437L115.813 372.698L119.946 368.565L140.589 389.208L144.72 385.077L148.85 389.207L144.719 393.339L148.846 397.466L152.977 393.334L161.235 401.592L165.364 397.463L169.496 401.594L165.367 405.724L169.494 409.851L173.623 405.721L190.142 422.24L194.275 418.107L210.791 434.623L214.922 430.492L227.31 442.88L231.441 438.749L239.699 447.007L243.83 442.875L247.957 447.003L252.089 442.871L247.962 438.744L252.093 434.613L256.22 438.74L252.089 442.871L256.219 447.002L260.35 442.871L268.608 451.128L276.871 442.865L272.74 438.735L276.873 434.602L281.004 438.733L276.871 442.865L280.998 446.993L285.131 442.86L289.261 446.99L293.395 442.857L285.135 434.601ZM276.876 418.084L272.749 413.956L276.882 409.824L281.009 413.951L276.876 418.084ZM206.689 323.109L202.562 318.981L206.694 314.849L210.822 318.976L206.689 323.109ZM219.084 318.975L214.953 314.845L219.084 310.713L214.957 306.586L219.09 302.453L223.218 306.58L219.084 310.713L223.215 314.844L219.084 318.975ZM231.477 306.581L227.347 302.451L231.478 298.319L235.609 302.45L231.477 306.581ZM276.923 261.136L268.66 269.398L264.53 265.268L272.792 257.005L276.923 261.136ZM276.924 252.874L281.056 248.741L285.187 252.872L281.054 257.005L276.924 252.874ZM256.265 281.794L252.136 285.923L248.005 281.793L252.134 277.663L256.265 281.794ZM247.999 298.314L243.869 302.444L239.742 298.317L243.872 294.188L247.999 298.314ZM297.581 240.478L293.448 244.611L289.318 240.48L293.451 236.347L297.581 240.478ZM301.713 228.085L297.58 232.218L293.453 228.09L297.586 223.957L301.713 228.085ZM301.717 211.564L305.851 207.431L309.981 211.562L305.848 215.695L301.717 211.564ZM318.241 203.301L314.11 207.432L309.98 203.302L314.111 199.171L318.241 203.301ZM314.117 190.911L318.246 186.781L322.373 190.908L318.244 195.038L314.117 190.911L309.984 195.044L305.853 190.913L309.986 186.78L314.117 190.911ZM322.38 174.386L318.247 178.519L314.12 174.392L318.253 170.259L322.38 174.386ZM326.516 153.735L330.647 157.865L326.516 161.996L322.385 157.866L326.516 153.735ZM322.395 124.826L326.522 128.953L322.392 133.082L318.265 128.955L322.395 124.826ZM301.737 145.484L305.869 141.351L309.997 145.478L301.734 153.741L293.476 145.483L297.606 141.353L301.737 145.484ZM305.877 116.567L310.007 120.697L314.137 116.568L310.006 112.437L318.271 104.173L322.401 108.304L314.137 116.568L318.264 120.695L314.134 124.824L310.007 120.697L305.874 124.83L301.744 120.7L305.877 116.567ZM293.481 128.962L297.612 133.093L289.349 141.355L285.219 137.225L293.481 128.962ZM268.692 153.752L264.561 157.883L260.433 153.755L264.565 149.624L260.434 145.494L268.696 137.231L272.827 141.362L264.565 149.624L268.692 153.752ZM276.961 128.967L281.09 124.837L285.221 128.968L281.091 133.097L276.961 128.967ZM293.485 120.703L289.354 124.835L285.223 120.704L289.355 116.573L293.485 120.703ZM310.015 87.6584L314.142 91.7856L310.012 95.915L305.885 91.7879L310.015 87.6584ZM305.885 75.2659L310.015 79.3967L305.884 83.5279L301.753 79.3972L305.885 75.2659ZM297.624 83.5265L301.755 87.6573L293.491 95.9215L289.36 91.7909L297.624 83.5265ZM272.835 108.316L281.097 100.053L285.228 104.184L276.966 112.446L272.835 108.316L268.702 112.449L264.575 108.322L268.708 104.189L272.835 108.316ZM252.181 120.716L256.312 116.585L252.182 112.454L256.315 108.321L260.445 112.451L256.312 116.585L260.439 120.712L264.572 116.578L268.703 120.709L260.439 128.973L252.181 120.716ZM252.179 128.972L248.045 133.105L243.918 128.978L248.052 124.845L252.179 128.972ZM281.102 83.5333L285.233 87.6637L281.103 91.793L276.973 87.6626L281.102 83.5333ZM272.84 91.7957L268.708 95.9269L264.581 91.7999L268.713 87.6687L272.84 91.7957ZM243.923 112.458L248.05 116.585L243.921 120.715L239.794 116.587L243.923 112.458ZM243.927 104.2L248.06 100.067L252.187 104.194L248.054 108.327L243.927 104.2ZM276.982 62.8842L285.239 71.1419L281.106 75.2749L272.849 67.0172L276.982 62.8842ZM264.588 75.2778L268.718 79.4083L272.848 75.2789L276.975 79.4061L272.846 83.5355L268.718 79.4083L264.586 83.5415L260.455 79.411L264.588 75.2778ZM252.193 87.6733L260.45 95.931L256.317 100.064L248.06 91.8061L252.193 87.6733ZM239.797 100.069L235.665 104.2L227.408 95.9427L231.539 91.8115L239.797 100.069ZM215.014 108.336L210.885 112.466L206.754 108.335L210.884 104.206L206.756 100.078L215.02 91.8139L210.89 87.6833L215.019 83.5539L219.15 87.6846L215.02 91.8139L227.405 104.199L223.272 108.332L215.015 100.074L210.884 104.206L215.014 108.336ZM223.283 75.2896L227.413 71.1599L231.544 75.2905L235.677 71.1577L239.804 75.2851L235.671 79.4179L231.544 75.2905L227.414 79.4203L223.283 75.2896ZM252.193 79.4114L248.062 83.5426L243.935 79.4156L248.066 75.2844L243.935 71.1537L248.067 67.0225L252.197 71.1532L248.066 75.2844L252.193 79.4114ZM243.929 87.6756L239.799 91.8054L235.672 87.6783L239.802 83.5486L243.929 87.6756ZM281.118 42.2328L285.245 46.3599L281.112 50.4927L276.985 46.3657L281.118 42.2328ZM264.591 58.7595L260.46 62.8907L256.329 58.7601L260.46 54.6288L264.591 58.7595ZM264.595 42.239L268.723 46.3664L264.593 50.4958L260.466 46.3684L264.595 42.239ZM264.598 25.7135L268.729 29.8439L264.596 33.9768L260.465 29.8463L264.598 25.7135ZM239.811 50.5008L243.941 54.6312L248.071 50.5018L252.201 54.6325L243.939 62.8949L235.678 54.6338L239.811 50.5008ZM227.415 62.8962L223.283 67.0291L219.156 62.902L223.288 58.7692L227.415 62.8962ZM202.631 71.1656L210.888 79.4233L206.759 83.5527L198.501 75.295L202.631 71.1656ZM202.635 62.9073L206.768 58.7742L210.895 62.9013L206.762 67.0343L202.635 62.9073ZM243.947 29.8494L248.077 33.9799L243.944 38.1129L239.814 33.9825L243.947 29.8494ZM235.683 38.1137L239.813 42.2441L235.684 46.3735L231.553 42.2431L235.683 38.1137ZM219.162 46.3802L223.293 42.249L227.42 46.3761L219.158 54.6385L210.9 46.3808L215.031 42.2496L219.162 46.3802ZM177.858 46.3925L181.989 42.2613L190.247 50.519L186.115 54.6502L177.858 46.3925ZM181.986 58.7796L177.853 62.9126L169.595 54.655L173.728 50.5218L181.986 58.7796ZM190.252 42.2589L194.382 38.129L198.509 42.2561L202.642 38.1233L206.773 42.2541L202.64 46.3869L198.509 42.2561L194.38 46.3862L190.252 42.2589ZM202.637 54.6437L198.504 58.7767L194.377 54.6498L198.51 50.5167L202.637 54.6437ZM190.246 58.781L198.504 67.0387L194.374 71.1681L186.117 62.9104L190.246 58.781ZM235.692 13.3355L239.819 17.4626L235.689 21.5919L231.562 17.4648L235.692 13.3355ZM223.299 17.4675L227.429 21.5979L223.298 25.7291L219.167 21.5987L223.299 17.4675ZM210.91 13.341L215.04 17.4714L210.911 21.6008L215.038 25.7278L210.905 29.8609L206.778 25.7336L210.911 21.6008L206.78 17.4701L210.91 13.341ZM190.258 25.7388L194.385 29.8658L190.252 33.9987L186.125 29.8713L190.258 25.7388ZM173.736 17.4829L177.864 21.6103L181.997 17.4775L186.127 21.6081L181.994 25.741L177.864 21.6103L173.734 25.7397L169.606 21.6123L173.736 17.4829ZM136.556 46.4025L140.689 42.2696L144.819 46.4L136.555 54.6643L128.297 46.4061L132.428 42.275L136.556 46.4025ZM140.695 25.7547L144.822 29.8812L140.691 34.0124L136.564 29.8854L140.695 25.7547ZM99.3825 50.545L103.513 54.6754L99.3818 58.8066L95.2513 54.6762L99.3825 50.545ZM78.7279 71.1996L82.8572 67.0703L86.9877 71.2007L82.8582 75.3302L78.7279 71.1996ZM41.543 124.906L37.4126 120.776L41.542 116.646L45.6724 120.777L41.543 124.906ZM66.3307 100.118L62.2002 95.9879L66.3296 91.8585L70.4601 95.9889L66.3307 100.118ZM29.1393 153.818L25.0121 149.691L29.1415 145.561L33.2686 149.688L29.1393 153.818ZM25.0037 174.47L20.8763 170.342L25.0057 166.213L29.1331 170.34L25.0037 174.47ZM16.7338 207.516L12.6067 203.389L16.7379 199.258L20.865 203.385L16.7338 207.516ZM16.729 224.036L20.8602 219.905L24.991 224.036L20.8598 228.167L16.729 224.036ZM20.8549 244.687L16.7244 240.557L12.5916 244.69L8.46454 240.563L12.5974 236.43L16.7244 240.557L20.8557 236.426L24.9861 240.556L20.8549 244.687ZM29.1074 277.727L24.9767 273.596L29.1079 269.465L24.9774 265.335L20.8462 269.466L16.719 265.339L20.8502 261.207L16.7197 257.077L20.8492 252.947L24.9797 257.078L20.8502 261.207L24.9774 265.335L29.1068 261.205L33.2372 265.335L29.1079 269.465L33.2385 273.595L29.1074 277.727ZM41.4925 290.112L37.3654 285.985L41.4966 281.854L45.6236 285.981L41.4925 290.112ZM45.6166 310.765L41.4895 306.638L45.6207 302.506L41.4903 298.376L45.6231 294.243L49.7535 298.374L45.6207 302.506L49.7478 306.633L45.6166 310.765ZM53.8838 285.982L58.0166 281.849L62.1471 285.98L58.0142 290.113L53.8838 285.982ZM62.132 327.28L58.0013 323.149L62.1326 319.018L58.0055 314.891L62.1383 310.758L66.2654 314.885L62.1326 319.018L66.2632 323.149L62.132 327.28ZM70.3992 302.497L74.532 298.365L78.659 302.492L74.5262 306.625L70.3992 302.497ZM86.9203 310.753L82.7875 314.886L78.657 310.755L86.9213 302.491L95.179 310.749L91.0478 314.88L86.9203 310.753ZM82.7844 331.404L78.6539 327.274L82.7851 323.143L86.9156 327.273L82.7844 331.404ZM95.1725 327.271L91.045 323.144L95.1778 319.011L99.3053 323.138L95.1725 327.271ZM91.0365 347.922L86.9094 343.795L91.0423 339.663L95.1693 343.79L91.0365 347.922ZM107.561 339.659L111.693 335.526L107.563 331.396L111.694 327.265L115.825 331.395L111.693 335.526L115.821 339.654L111.688 343.786L107.561 339.659ZM107.558 356.178L103.427 352.047L107.558 347.916L111.689 352.046L107.558 356.178ZM128.214 335.522L124.083 331.391L128.215 327.26L132.345 331.39L128.214 335.522ZM148.87 314.865L140.607 323.128L136.477 318.997L140.61 314.865L136.483 310.737L132.35 314.87L128.22 310.739L124.088 314.871L128.219 319.001L124.088 323.133L119.957 319.002L115.826 323.133L111.699 319.006L107.567 323.137L103.437 319.007L107.568 314.876L111.699 319.006L115.83 314.875L119.957 319.002L124.088 314.871L119.961 310.744L124.092 306.612L119.962 302.482L111.699 310.744L107.572 306.617L103.441 310.748L99.3102 306.618L103.441 302.486L95.1835 294.229L91.0523 298.36L86.9216 294.229L82.7904 298.36L74.5327 290.103L66.2685 298.367L62.1415 294.24L70.4058 285.975L74.5327 290.103L78.664 285.971L86.9216 294.229L91.0529 290.098L95.1835 294.229L103.446 285.966L99.3154 281.835L95.1841 285.967L91.057 281.84L86.9258 285.971L78.6681 277.713L74.5369 281.844L70.4098 277.717L66.2786 281.849L62.1481 277.718L66.2794 273.587L70.4098 277.717L74.541 273.586L66.2797 265.325L62.1485 269.456L58.0215 265.329L53.8902 269.46L58.0173 273.587L49.7531 281.851L45.6261 277.724L53.8902 269.46L49.7597 265.329L53.8909 261.198L49.7635 257.071L41.501 265.333L37.3704 261.203L41.5016 257.071L37.3712 252.941L45.6336 244.678L41.5064 240.551L33.2439 248.814L29.1135 244.683L37.3759 236.421L29.1182 228.163L33.2493 224.032L29.1223 219.905L33.2534 215.774L24.9957 207.516L29.1286 203.383L33.2557 207.51L37.3857 203.38L29.128 195.122L33.2608 190.989L29.1336 186.862L25.0007 190.995L20.8703 186.865L25.0031 182.732L29.1336 186.862L33.2648 182.731L29.1343 178.601L33.264 174.471L37.3944 178.602L41.5272 174.469L29.1386 162.08L33.2698 157.949L41.5278 166.207L45.6574 162.077L37.3994 153.819L45.6636 145.555L41.5331 141.425L53.9268 129.031L49.7994 124.904L78.7201 95.9828L74.5931 91.8559L78.7243 87.7247L86.9785 95.9788L82.8473 100.11L86.9777 104.241L95.2402 95.9781L82.8555 83.5935L86.9884 79.4606L91.1153 83.5876L99.3762 75.3268L95.2492 71.1998L99.382 67.067L107.636 75.3212L111.766 71.1912L107.639 67.0639L111.77 62.9327L115.897 67.06L120.03 62.927L115.903 58.7999L120.033 54.6703L124.16 58.7975L128.293 54.6646L132.423 58.795L128.29 62.9282L132.418 67.0556L140.682 58.7911L144.813 62.9257L153.077 54.6575L148.946 50.5271L153.076 46.3977L157.206 50.5284L165.471 42.2641L161.34 38.1335L157.207 42.2665L153.079 38.1391L157.213 34.0061L161.34 38.1335L165.469 34.0041L169.6 38.1348L165.471 42.2641L169.601 46.3947L161.337 54.6589L157.206 50.5284L153.077 54.6575L161.335 62.9156L157.203 67.0497L165.459 75.3063L161.328 79.4374L165.459 83.5683L161.327 87.6993L165.455 91.8266L161.322 95.9594L165.452 100.09L173.716 91.8257L169.586 87.6953L173.717 83.5642L169.59 79.4371L173.723 75.304L165.465 67.0463L169.595 62.9169L177.853 71.1746L173.723 75.304L177.85 79.431L173.717 83.5642L177.848 87.6946L173.716 91.8257L177.843 95.9529L186.108 87.6886L181.981 83.5615L186.11 79.4321L181.98 75.3016L186.111 71.1704L194.369 79.4281L186.108 87.6886L190.238 91.8192L181.974 100.083L186.101 104.211L181.97 108.342L186.1 112.472L190.232 108.341L194.362 112.472L198.493 108.341L190.232 100.079L202.626 87.6858L206.756 91.8162L198.496 100.077L202.626 104.207L198.493 108.341L202.621 112.468L198.49 116.599L202.62 120.73L206.752 116.599L210.879 120.726L215.012 116.593L219.142 120.723L227.403 112.463L239.788 124.847L235.656 128.978L239.787 133.109L231.524 141.371L239.782 149.629L256.309 133.102L260.439 137.233L243.913 153.76L239.782 149.629L235.651 153.76L239.781 157.891L231.517 166.155L235.645 170.283L239.778 166.15L243.908 170.28L248.039 166.149L243.909 162.019L252.173 153.754L260.431 162.012L256.298 166.145L260.429 170.276L264.562 166.143L268.689 170.27L276.95 162.009L272.823 157.882L276.956 153.749L272.825 149.619L276.954 145.489L285.212 153.747L276.95 162.009L281.08 166.14L293.474 153.746L301.732 162.004L309.994 153.741L314.122 157.868L301.727 170.262L305.858 174.393L301.728 178.522L305.859 182.653L293.465 195.046L297.593 199.174L293.46 203.307L297.59 207.437L281.065 223.962L285.192 228.089L272.798 240.483L276.929 244.614L272.796 248.746L268.665 244.616L264.534 248.747L268.665 252.878L231.483 290.059L227.353 285.928L206.695 306.586L202.568 302.46L190.174 314.853L186.044 310.722L181.913 314.854L177.786 310.727L169.523 318.989L165.393 314.859L161.261 318.99L157.131 314.859L152.998 318.992L161.259 327.254L152.997 335.516L148.866 331.386L152.999 327.253L148.869 323.123L152.998 318.992L148.87 314.865ZM186.037 327.245L181.908 331.374L177.781 327.247L181.91 323.117L186.037 327.245ZM165.387 339.641L161.254 343.774L157.123 339.643L161.256 335.51L165.387 339.641ZM119.947 360.304L115.816 356.174L119.946 352.044L124.076 356.174L119.947 360.304ZM128.21 343.78L132.341 339.649L140.602 347.91L136.471 352.041L128.21 343.78ZM128.205 368.562L124.078 364.435L128.207 360.305L132.334 364.432L128.205 368.562ZM140.593 380.95L136.462 376.82L140.592 372.69L144.722 376.821L140.593 380.95ZM152.987 368.557L144.729 360.299L148.86 356.168L144.729 352.037L148.861 347.906L152.991 352.036L148.86 356.168L157.118 364.425L152.987 368.557ZM165.376 364.422L169.508 360.29L165.38 356.163L161.249 360.294L157.119 356.164L161.25 352.032L165.38 356.163L169.511 352.032L173.639 356.159L169.508 360.29L173.638 364.421L169.507 368.552L165.376 364.422ZM157.108 389.206L152.98 385.079L157.113 380.946L161.24 385.073L157.108 389.206ZM165.372 380.942L161.245 376.815L165.376 372.683L169.503 376.81L165.372 380.942ZM181.897 364.417L177.77 360.29L181.902 356.157L186.029 360.284L181.897 364.417ZM181.902 347.896L177.772 352.026L173.644 347.899L177.774 343.769L181.902 347.896L186.035 343.763L194.292 352.021L198.424 347.89L202.554 352.02L194.29 360.285L181.902 347.896ZM173.629 397.461L169.499 393.331L173.63 389.2L177.76 393.33L173.629 397.461ZM194.281 385.063L190.154 380.936L186.023 385.068L181.892 380.937L177.761 385.068L173.634 380.941L177.765 376.81L181.892 380.937L186.023 376.806L190.154 380.936L194.285 376.805L198.412 380.932L194.281 385.063ZM214.936 380.931L227.321 393.316L223.191 397.445L210.806 385.06L214.936 380.931ZM202.543 385.063L206.674 389.194L202.542 393.325L198.412 389.194L202.543 385.063ZM198.407 405.714L194.28 401.587L190.149 405.718L186.018 401.588L194.28 393.325L202.538 401.583L198.407 405.714ZM210.8 401.583L206.669 397.452L210.8 393.32L214.931 397.451L210.8 401.583ZM206.664 422.234L202.534 418.104L206.665 413.972L210.795 418.103L206.664 422.234ZM227.317 409.837L223.189 405.709L219.057 409.84L223.185 413.967L219.054 418.099L214.926 413.971L219.057 409.84L214.927 405.71L219.058 401.578L223.189 405.709L227.322 401.576L231.449 405.703L227.317 409.837ZM223.181 430.488L219.053 426.361L223.184 422.229L227.311 426.356L223.181 430.488ZM235.574 418.094L231.447 413.967L235.58 409.834L239.707 413.961L235.574 418.094ZM239.7 438.745L235.573 434.618L239.704 430.486L243.831 434.614L239.7 438.745ZM252.096 426.35L247.968 422.222L243.835 426.355L239.705 422.225L243.838 418.092L247.968 422.222L252.098 418.092L256.225 422.219L252.096 426.35Z" fill="currentColor"/>
<path d="M161.322 95.9594L157.195 91.8323L153.065 95.9617L157.192 100.089L161.322 95.9594Z" fill="currentColor"/>
<path d="M45.6375 236.42L41.5069 232.289L37.3759 236.421L41.5064 240.551L45.6375 236.42Z" fill="currentColor"/>
<path d="M351.223 409.799L347.091 413.929L342.964 409.805L338.831 413.935L351.219 426.322L355.351 422.19L351.221 418.059L355.354 413.926L351.223 409.799Z" fill="currentColor"/>
<path d="M45.6382 228.158L37.3805 219.9L33.2493 224.032L41.5069 232.289L45.6382 228.158Z" fill="currentColor"/>
<path d="M49.7641 248.812L58.0298 240.547L49.7689 232.286L45.6375 236.42L49.7665 240.549L45.6336 244.678L49.7641 248.812Z" fill="currentColor"/>
<path d="M41.5135 215.767L37.3864 211.64L33.2534 215.774L37.3805 219.9L41.5135 215.767Z" fill="currentColor"/>
<path d="M74.5423 257.062L70.4152 252.935L62.1528 261.198L66.2797 265.325L74.5423 257.062Z" fill="currentColor"/>
<path d="M82.7994 273.582L78.6723 269.455L74.541 273.586L78.6681 277.713L82.7994 273.582Z" fill="currentColor"/>
<path d="M62.1528 261.198L58.0221 257.067L53.8909 261.198L58.0215 265.329L62.1528 261.198Z" fill="currentColor"/>
<path d="M53.8947 252.94L49.7641 248.812L45.6328 252.94L49.7635 257.071L53.8947 252.94Z" fill="currentColor"/>
<path d="M359.548 186.766L355.42 182.639L351.289 186.77L355.416 190.897L359.548 186.766Z" fill="currentColor"/>
<path d="M367.747 409.797L363.617 405.667L355.354 413.926L359.485 418.06L367.747 409.797Z" fill="currentColor"/>
<path d="M359.552 178.508L351.294 170.249L347.162 174.381L355.42 182.639L359.552 178.508Z" fill="currentColor"/>
<path d="M421.451 364.348L417.324 360.221L413.191 364.354L417.318 368.481L421.451 364.348Z" fill="currentColor"/>
<path d="M343.021 203.293L338.893 199.166L334.762 203.297L338.889 207.424L343.021 203.293Z" fill="currentColor"/>
<path d="M413.191 364.354L409.06 360.223L404.929 364.354L409.06 368.485L413.191 364.354Z" fill="currentColor"/>
<path d="M409.057 376.742L404.93 372.615L400.797 376.748L404.924 380.875L409.057 376.742Z" fill="currentColor"/>
<path d="M363.686 157.855L359.556 153.724L355.423 157.857L347.166 149.6L343.037 153.729L355.425 166.116L363.686 157.855Z" fill="currentColor"/>
<path d="M376.008 401.537L371.877 397.406L367.748 401.536L371.878 405.666L376.008 401.537Z" fill="currentColor"/>
<path d="M343.026 195.033L338.896 190.902L334.763 195.035L338.893 199.166L343.026 195.033Z" fill="currentColor"/>
<path d="M376.006 409.793L371.878 405.666L367.747 409.797L371.874 413.924L376.006 409.793Z" fill="currentColor"/>
<path d="M355.359 397.409L363.617 405.667L367.748 401.536L363.614 397.405L367.747 393.273L363.62 389.146L355.359 397.409Z" fill="currentColor"/>
<path d="M367.753 385.015L363.622 380.885L359.489 385.018L363.62 389.146L367.753 385.015Z" fill="currentColor"/>
<path d="M392.535 385.006L396.664 380.877L392.533 376.747L384.271 385.009L392.532 393.269L396.665 389.137L392.535 385.006Z" fill="currentColor"/>
<path d="M380.141 380.878L376.008 385.011L371.882 380.884L367.753 385.015L376.01 393.27L384.271 385.009L380.141 380.878Z" fill="currentColor"/>
<path d="M107.61 166.186L103.483 162.059L99.3506 166.192L103.478 170.319L107.61 166.186Z" fill="currentColor"/>
<path d="M95.2102 195.102L91.0831 190.974L86.9518 195.106L91.0789 199.233L95.2102 195.102Z" fill="currentColor"/>
<path d="M107.604 182.708L103.477 178.581L99.3473 182.71L103.474 186.837L107.604 182.708Z" fill="currentColor"/>
<path d="M78.6829 219.89L74.5523 215.759L70.4229 219.889L74.5535 224.02L78.6829 219.89Z" fill="currentColor"/>
<path d="M119.997 186.838L115.866 182.707L111.734 186.839L115.865 190.969L119.997 186.838Z" fill="currentColor"/>
<path d="M91.0777 215.756L86.9471 211.626L78.6829 219.89L82.8135 224.021L91.0777 215.756Z" fill="currentColor"/>
<path d="M49.7804 199.246L45.6497 195.116L41.5185 199.247L45.6491 203.378L49.7804 199.246Z" fill="currentColor"/>
<path d="M74.5582 207.499L70.4276 203.369L66.2946 207.502L70.4252 211.632L74.5582 207.499Z" fill="currentColor"/>
<path d="M86.946 203.366L82.8189 199.239L74.5582 207.499L78.6853 211.626L86.946 203.366Z" fill="currentColor"/>
<path d="M148.917 157.917L144.786 153.787L140.655 157.918L144.786 162.048L148.917 157.917Z" fill="currentColor"/>
<path d="M153.038 178.567L148.911 174.44L144.781 178.569L148.908 182.696L153.038 178.567Z" fill="currentColor"/>
<path d="M153.039 186.827L148.908 182.696L144.777 186.827L148.908 190.958L153.039 186.827Z" fill="currentColor"/>
<path d="M144.78 170.309L140.653 166.182L136.523 170.311L140.651 174.438L144.78 170.309Z" fill="currentColor"/>
<path d="M157.175 166.175L153.044 162.045L144.78 170.309L148.911 174.44L157.175 166.175Z" fill="currentColor"/>
<path d="M124.123 199.227L115.865 190.969L111.736 195.099L119.994 203.357L124.123 199.227Z" fill="currentColor"/>
<path d="M128.271 137.271L124.14 133.141L120.009 137.272L124.14 141.402L128.271 137.271Z" fill="currentColor"/>
<path d="M157.176 157.914L153.048 153.786L148.917 157.917L153.044 162.045L157.176 157.914Z" fill="currentColor"/>
<path d="M165.433 182.693L161.3 186.826L165.426 190.952L173.688 182.691L165.431 174.434L161.302 178.563L165.433 182.693Z" fill="currentColor"/>
<path d="M62.1858 145.549L58.0552 141.418L53.9222 145.551L58.0529 149.682L62.1858 145.549Z" fill="currentColor"/>
<path d="M58.0458 174.466L53.9151 170.335L45.6545 178.596L49.7851 182.726L58.0458 174.466Z" fill="currentColor"/>
<path d="M58.0523 157.944L53.9216 153.813L49.7904 157.944L53.921 162.075L58.0523 157.944Z" fill="currentColor"/>
<path d="M70.4436 153.807L66.3165 149.679L58.0523 157.944L62.1794 162.071L70.4436 153.807Z" fill="currentColor"/>
<path d="M107.618 133.147L103.491 129.02L99.3618 133.15L103.489 137.277L107.618 133.147Z" fill="currentColor"/>
<path d="M82.8372 141.413L78.7101 137.286L74.5775 141.418L78.7046 145.546L82.8372 141.413Z" fill="currentColor"/>
<path d="M91.0976 141.414L86.967 137.283L82.8372 141.413L86.9679 145.543L91.0976 141.414Z" fill="currentColor"/>
<path d="M86.9729 129.023L82.8423 124.892L78.7093 129.025L82.84 133.156L86.9729 129.023Z" fill="currentColor"/>
<path d="M120.013 129.014L115.883 124.883L111.751 129.014L115.882 133.145L120.013 129.014Z" fill="currentColor"/>
<path d="M132.402 133.139L136.535 129.006L132.404 124.876L136.533 120.747L132.407 116.62L124.145 124.882L132.402 133.139Z" fill="currentColor"/>
<path d="M148.923 124.873L140.665 116.616L136.533 120.747L144.792 129.005L148.923 124.873Z" fill="currentColor"/>
<path d="M148.922 133.135L144.792 129.005L140.662 133.134L144.793 137.265L148.922 133.135Z" fill="currentColor"/>
<path d="M78.7155 112.503L74.5849 108.372L66.3206 116.637L70.4513 120.767L78.7155 112.503Z" fill="currentColor"/>
<path d="M74.5795 133.155L70.4489 129.025L66.3162 133.157L70.4468 137.288L74.5795 133.155Z" fill="currentColor"/>
<path d="M62.1846 137.289L58.0572 133.161L53.9278 137.291L58.0552 141.418L62.1846 137.289Z" fill="currentColor"/>
<path d="M124.134 149.66L115.872 157.921L124.133 166.182L128.262 162.054L124.132 157.923L128.264 153.79L124.134 149.66Z" fill="currentColor"/>
<path d="M103.462 236.403L99.3317 232.273L95.1987 236.406L99.3293 240.536L103.462 236.403Z" fill="currentColor"/>
<path d="M95.1987 236.406L91.0717 232.279L78.678 244.672L82.8051 248.8L95.1987 236.406Z" fill="currentColor"/>
<path d="M111.714 252.921L99.3293 240.536L95.1999 244.666L107.585 257.051L111.714 252.921Z" fill="currentColor"/>
<path d="M66.2901 240.544L62.1595 236.413L58.0298 240.547L62.1571 244.677L66.2901 240.544Z" fill="currentColor"/>
<path d="M82.8035 265.324L78.6729 261.193L74.5417 265.324L78.6723 269.455L82.8035 265.324Z" fill="currentColor"/>
<path d="M82.8059 257.06L78.6753 252.929L74.5423 257.062L78.6729 261.193L82.8059 257.06Z" fill="currentColor"/>
<path d="M66.2845 248.805L62.1571 244.677L53.8947 252.94L58.0221 257.067L66.2845 248.805Z" fill="currentColor"/>
<path d="M103.452 261.18L99.3254 257.053L95.1926 261.186L103.449 269.443L111.715 261.178L107.585 257.051L103.452 261.18Z" fill="currentColor"/>
<path d="M78.678 244.672L74.5473 240.542L66.2845 248.805L70.4152 252.935L78.678 244.672Z" fill="currentColor"/>
<path d="M95.1926 261.186L86.9357 252.93L82.8059 257.06L91.0636 265.318L95.1926 261.186Z" fill="currentColor"/>
<path d="M82.8115 232.278L78.6841 228.15L70.4199 236.414L74.5473 240.542L82.8115 232.278Z" fill="currentColor"/>
<path d="M351.313 95.9068L347.183 91.7761L343.051 95.9079L347.182 100.038L351.313 95.9068Z" fill="currentColor"/>
<path d="M148.873 306.601L144.746 302.474L140.613 306.607L144.74 310.734L148.873 306.601Z" fill="currentColor"/>
<path d="M119.972 277.701L115.842 273.57L111.709 277.703L115.839 281.834L119.972 277.701Z" fill="currentColor"/>
<path d="M351.309 104.165L347.182 100.038L343.052 104.168L347.18 108.295L351.309 104.165Z" fill="currentColor"/>
<path d="M144.751 277.692L136.493 269.434L128.231 277.697L136.489 285.955L144.751 277.692Z" fill="currentColor"/>
<path d="M128.231 277.697L124.104 273.57L119.972 277.701L124.099 281.828L128.231 277.697Z" fill="currentColor"/>
<path d="M256.298 166.145L252.171 162.018L248.039 166.149L252.167 170.276L256.298 166.145Z" fill="currentColor"/>
<path d="M256.298 174.407L252.167 170.276L248.036 174.408L252.167 178.538L256.298 174.407Z" fill="currentColor"/>
<path d="M161.262 310.728L157.135 306.601L153.004 310.732L157.131 314.859L161.262 310.728Z" fill="currentColor"/>
<path d="M91.0577 273.578L86.9306 269.451L82.7994 273.582L86.9264 277.709L91.0577 273.578Z" fill="currentColor"/>
<path d="M186.088 162.039L181.958 157.908L177.826 162.039L181.957 166.17L186.088 162.039Z" fill="currentColor"/>
<path d="M177.826 162.039L169.569 153.782L161.306 162.044L169.564 170.302L177.826 162.039Z" fill="currentColor"/>
<path d="M231.509 190.934L227.382 186.807L223.252 190.937L227.379 195.064L231.509 190.934Z" fill="currentColor"/>
<path d="M161.267 302.472L165.393 306.598L169.526 302.465L161.269 294.208L157.136 298.341L148.876 290.08L144.747 294.209L157.135 306.601L161.267 302.472Z" fill="currentColor"/>
<path d="M111.709 277.703L103.449 269.443L99.3213 273.575L107.579 281.833L111.709 277.703Z" fill="currentColor"/>
<path d="M144.747 294.209L140.619 290.085L132.355 298.35L136.482 302.477L144.747 294.209Z" fill="currentColor"/>
<path d="M99.3213 273.575L95.1907 269.445L91.0577 273.578L95.1883 277.708L99.3213 273.575Z" fill="currentColor"/>
<path d="M111.704 294.224L107.577 290.097L103.445 294.228L107.572 298.355L111.704 294.224Z" fill="currentColor"/>
<path d="M132.355 298.35L128.225 294.219L124.095 298.349L128.225 302.479L132.355 298.35Z" fill="currentColor"/>
<path d="M119.966 285.961L115.839 281.834L111.71 285.964L115.837 290.091L119.966 285.961Z" fill="currentColor"/>
<path d="M132.358 290.086L128.23 285.959L124.097 290.092L128.225 294.219L132.358 290.086Z" fill="currentColor"/>
<path d="M322.317 397.421L318.186 393.29L314.056 397.419L318.189 401.55L322.317 397.421Z" fill="currentColor"/>
<path d="M318.201 351.989L314.068 347.86L305.807 356.123L309.937 360.253L318.201 351.989Z" fill="currentColor"/>
<path d="M305.807 356.123L301.676 351.992L297.546 356.122L301.677 360.252L305.807 356.123Z" fill="currentColor"/>
<path d="M334.717 368.504L326.459 360.247L322.328 364.378L330.586 372.636L334.717 368.504Z" fill="currentColor"/>
<path d="M322.328 364.378L318.197 360.247L314.064 364.38L318.195 368.511L322.328 364.378Z" fill="currentColor"/>
<path d="M169.579 104.217L165.452 100.09L161.323 104.219L165.45 108.346L169.579 104.217Z" fill="currentColor"/>
<path d="M289.295 331.344L285.16 335.476L289.293 339.608L297.555 331.343L285.167 318.954L281.034 323.084L289.295 331.344Z" fill="currentColor"/>
<path d="M293.418 343.734L289.293 339.608L281.028 347.869L285.156 351.997L293.418 343.734Z" fill="currentColor"/>
<path d="M305.809 347.859L297.551 339.601L293.418 343.734L301.676 351.992L305.809 347.859Z" fill="currentColor"/>
<path d="M314.064 364.38L309.937 360.253L305.807 364.383L309.934 368.51L314.064 364.38Z" fill="currentColor"/>
<path d="M186.084 170.297L181.957 166.17L177.828 170.299L181.955 174.427L186.084 170.297Z" fill="currentColor"/>
<path d="M314.056 397.419L309.929 393.292L305.796 397.425L309.925 401.552L314.056 397.419Z" fill="currentColor"/>
<path d="M305.796 397.425L301.665 393.294L297.534 397.426L301.666 401.559L305.796 397.425Z" fill="currentColor"/>
<path d="M338.843 380.893L330.586 372.636L326.453 376.769L334.71 385.026L338.843 380.893Z" fill="currentColor"/>
<path d="M330.58 389.156L326.45 385.025L322.317 389.158L326.45 393.288L330.58 389.156Z" fill="currentColor"/>
<path d="M318.195 368.511L314.065 372.641L318.192 376.764L314.059 380.9L318.193 385.031L326.453 376.769L318.195 368.511Z" fill="currentColor"/>
<path d="M322.317 389.158L318.193 385.031L314.059 389.163L318.186 393.29L322.317 389.158Z" fill="currentColor"/>
<path d="M376.077 153.721L371.95 149.593L367.82 153.723L371.948 157.85L376.077 153.721Z" fill="currentColor"/>
<path d="M388.475 133.068L384.344 128.938L380.213 133.069L384.343 137.2L388.475 133.068Z" fill="currentColor"/>
<path d="M380.209 157.854L363.686 174.377L367.812 178.502L380.207 166.109L384.337 170.24L388.466 166.111L380.209 157.854Z" fill="currentColor"/>
<path d="M396.725 166.104L392.597 161.978L388.466 166.111L392.593 170.236L396.725 166.104Z" fill="currentColor"/>
<path d="M376.081 145.46L380.211 149.591L384.344 145.458L388.475 149.588L384.342 153.721L392.597 161.978L400.86 153.716L384.343 137.2L376.081 145.46Z" fill="currentColor"/>
<path d="M355.437 124.816L359.567 128.946L363.7 124.813L367.826 128.94L371.955 124.811L363.698 116.554L355.437 124.816Z" fill="currentColor"/>
<path d="M380.213 133.069L376.086 128.942L371.956 133.071L376.083 137.199L380.213 133.069Z" fill="currentColor"/>
<path d="M380.217 124.81L376.087 120.68L371.955 124.811L376.086 128.942L380.217 124.81Z" fill="currentColor"/>
<path d="M276.909 310.697L272.778 306.566L268.647 310.697L272.778 314.828L276.909 310.697Z" fill="currentColor"/>
<path d="M359.567 128.946L355.434 133.079L351.304 128.949L347.175 133.077L355.432 141.334L363.693 133.073L359.567 128.946Z" fill="currentColor"/>
<path d="M355.437 124.816L351.304 120.686L347.173 124.817L351.304 128.949L355.437 124.816Z" fill="currentColor"/>
<path d="M276.908 302.437L272.781 298.309L268.651 302.439L272.778 306.566L276.908 302.437Z" fill="currentColor"/>
<path d="M355.441 108.297L351.312 112.426L347.18 108.295L343.047 112.428L351.304 120.686L359.568 112.424L363.698 116.554L367.831 112.421L355.444 100.034L351.309 104.165L355.441 108.297Z" fill="currentColor"/>
<path d="M371.956 133.071L367.826 128.94L363.693 133.073L367.823 137.204L371.956 133.071Z" fill="currentColor"/>
<path d="M384.342 153.721L380.211 149.591L376.077 153.721L380.209 157.854L384.342 153.721Z" fill="currentColor"/>
<path d="M376.081 145.46L367.823 137.204L363.692 141.336L371.95 149.593L376.081 145.46Z" fill="currentColor"/>
<path d="M260.382 327.223L264.513 331.352L272.775 323.09L276.902 327.216L281.034 323.084L272.778 314.828L260.382 327.223Z" fill="currentColor"/>
<path d="M161.315 120.74L157.184 116.609L161.317 112.476L157.191 108.35L148.929 116.612L157.186 124.869L161.315 120.74Z" fill="currentColor"/>
<path d="M161.323 104.219L157.192 100.089L153.059 104.222L157.191 108.35L161.323 104.219Z" fill="currentColor"/>
<path d="M153.059 104.222L148.932 100.095L140.671 108.356L144.798 112.483L153.059 104.222Z" fill="currentColor"/>
<path d="M144.801 95.9641L140.674 91.837L132.413 100.098L136.54 104.225L144.801 95.9641Z" fill="currentColor"/>
<path d="M140.671 108.356L136.54 104.225L132.407 108.358L136.538 112.489L140.671 108.356Z" fill="currentColor"/>
<path d="M157.186 124.869L153.053 129.001L157.184 133.132L153.051 137.265L157.181 141.395L165.447 133.129L157.186 124.869Z" fill="currentColor"/>
<path d="M177.833 145.518L169.575 137.259L165.442 141.392L173.7 149.651L177.833 145.518Z" fill="currentColor"/>
<path d="M186.09 145.514L190.222 141.382L186.096 137.255L177.833 145.518L186.091 153.774L190.22 149.645L186.09 145.514Z" fill="currentColor"/>
<path d="M177.836 128.998L173.705 124.868L165.447 133.129L169.575 137.259L177.836 128.998Z" fill="currentColor"/>
<path d="M120.024 79.4492L115.897 75.3218L111.767 79.4516L115.894 83.579L120.024 79.4492Z" fill="currentColor"/>
<path d="M144.807 87.704L140.677 83.5734L136.544 87.7064L140.674 91.837L144.807 87.704Z" fill="currentColor"/>
<path d="M128.288 71.185L124.161 67.0576L120.028 71.1906L124.155 75.318L128.288 71.185Z" fill="currentColor"/>
<path d="M120.025 87.7096L115.894 83.579L111.761 87.712L115.892 91.8426L120.025 87.7096Z" fill="currentColor"/>
<path d="M136.544 87.7064L132.417 83.5793L128.285 87.7105L132.413 91.8376L136.544 87.7064Z" fill="currentColor"/>
<path d="M120.026 95.9738L115.892 91.8426L107.634 100.105L111.764 104.235L115.893 100.107L120.019 104.233L128.285 95.9674L124.159 91.841L120.026 95.9738Z" fill="currentColor"/>
<path d="M128.285 87.7105L124.155 83.5799L120.025 87.7096L124.159 91.841L128.285 87.7105Z" fill="currentColor"/>
<path d="M227.401 120.725L223.272 124.854L227.399 128.98L219.133 137.246L215.007 133.119L206.745 141.381L210.871 145.507L215.004 141.375L219.131 145.501L223.259 141.372L227.39 145.503L231.524 141.371L227.392 137.239L235.656 128.978L227.401 120.725Z" fill="currentColor"/>
<path d="M136.55 79.4463L132.419 75.3156L128.286 79.4487L132.417 83.5793L136.55 79.4463Z" fill="currentColor"/>
<path d="M227.39 145.503L223.261 149.631L227.392 153.762L223.259 157.895L227.389 162.025L235.651 153.76L227.39 145.503Z" fill="currentColor"/>
<path d="M231.517 166.155L227.389 162.025L223.258 166.154L227.388 170.285L231.517 166.155Z" fill="currentColor"/>
<path d="M223.272 124.854L219.142 120.723L210.878 128.988L215.007 133.119L223.272 124.854Z" fill="currentColor"/>
<path d="M169.579 104.217L177.84 112.476L181.97 108.342L177.842 104.213L181.974 100.083L177.843 95.9529L169.579 104.217Z" fill="currentColor"/>
<path d="M186.101 120.737L194.358 128.994L198.49 124.861L194.36 120.73L198.49 116.599L194.362 112.472L186.101 120.737Z" fill="currentColor"/>
<path d="M198.49 124.861L202.617 128.987L198.484 133.12L202.615 137.25L210.878 128.988L202.62 120.73L198.49 124.861Z" fill="currentColor"/>
<path d="M231.517 174.411L235.648 178.541L231.515 182.674L235.641 186.801L243.903 178.539L235.645 170.283L231.517 174.411Z" fill="currentColor"/>
<path d="M210.863 170.288L206.736 166.161L202.606 170.291L206.733 174.418L210.863 170.288Z" fill="currentColor"/>
<path d="M194.348 162.031L190.215 166.163L194.342 170.29L190.209 174.423L194.339 178.553L202.606 170.291L194.348 162.031Z" fill="currentColor"/>
<path d="M198.478 157.903L194.351 153.776L190.221 157.906L194.348 162.031L198.478 157.903Z" fill="currentColor"/>
<path d="M198.482 149.645L194.352 145.514L190.22 149.645L194.351 153.776L198.482 149.645Z" fill="currentColor"/>
<path d="M210.864 178.548L206.733 174.418L202.6 178.551L206.731 182.681L210.864 178.548Z" fill="currentColor"/>
<path d="M231.515 182.674L227.382 178.545L223.251 182.676L227.382 186.807L231.515 182.674Z" fill="currentColor"/>
<path d="M219.125 178.55L223.258 174.417L219.128 170.287L210.864 178.548L219.123 186.805L223.251 182.676L219.125 178.55Z" fill="currentColor"/>
<path d="M198.469 182.682L194.339 178.553L190.212 182.684L194.339 186.811L198.469 182.682Z" fill="currentColor"/>
<path d="M144.806 79.4439L140.682 75.3177L136.55 79.4463L140.677 83.5734L144.806 79.4439Z" fill="currentColor"/>
<path d="M161.311 145.524L157.181 141.395L153.051 145.522L157.181 149.653L161.311 145.524Z" fill="currentColor"/>
<path d="M91.1047 108.365L82.839 116.631L86.9735 120.765L91.1063 116.632L95.2368 120.763L99.3696 116.63L91.1047 108.365Z" fill="currentColor"/>
<path d="M128.283 104.231L120.021 112.492L115.89 108.362L111.758 112.495L120.015 120.752L132.407 108.358L128.283 104.231Z" fill="currentColor"/>
<path d="M107.634 100.105L103.501 95.9727L99.3677 100.106L103.498 104.236L107.634 100.105Z" fill="currentColor"/>
<path d="M107.629 108.367L103.498 104.236L99.3672 108.368L103.498 112.498L107.629 108.367Z" fill="currentColor"/>
<path d="M107.63 91.8432L103.503 87.7158L99.3733 91.8453L103.501 95.9727L107.63 91.8432Z" fill="currentColor"/>
<path d="M107.634 83.5846L103.503 79.454L99.3721 83.5852L103.503 87.7158L107.634 83.5846Z" fill="currentColor"/>
<path d="M111.755 120.756L103.498 112.498L99.3696 116.63L107.624 124.887L111.755 120.756Z" fill="currentColor"/>
<path d="M128.261 170.312L124.133 166.182L119.998 170.314L124.128 174.445L128.261 170.312Z" fill="currentColor"/>
<path d="M115.872 157.921L111.746 153.796L107.613 157.929L111.74 162.056L115.872 157.921Z" fill="currentColor"/>
<path d="M190.212 182.684L181.955 174.427L177.822 178.56L186.079 186.817L190.212 182.684Z" fill="currentColor"/>
<path d="M136.528 137.265L128.267 145.527L132.397 149.657L136.526 145.529L140.656 149.659L144.789 145.526L136.528 137.265Z" fill="currentColor"/>
<path d="M153.051 145.522L148.92 141.392L144.789 145.526L148.918 149.655L153.051 145.522Z" fill="currentColor"/>
<path d="M297.538 389.167L293.408 385.037L289.275 389.167L285.148 385.041L289.281 380.91L285.15 376.779L281.018 380.91L276.887 376.78L272.757 380.911L281.019 389.17L276.885 393.305L281.012 397.432L285.146 393.296L289.276 397.43L297.538 389.167Z" fill="currentColor"/>
<path d="M136.524 153.787L132.397 149.657L128.264 153.79L132.391 157.92L136.524 153.787Z" fill="currentColor"/>
<path d="M99.3606 124.889L95.2368 120.763L91.1041 124.892L95.2312 129.019L99.3606 124.889Z" fill="currentColor"/>
<path d="M161.317 112.476L173.705 124.868L177.841 120.735L181.972 124.866L186.101 120.737L177.84 112.476L173.711 116.605L165.45 108.346L161.317 112.476Z" fill="currentColor"/>
<path d="M198.484 133.12L194.358 128.994L190.227 133.124L194.354 137.251L198.484 133.12Z" fill="currentColor"/>
<path d="M128.286 79.4487L124.155 75.318L120.024 79.4492L124.155 83.5799L128.286 79.4487Z" fill="currentColor"/>
<path d="M153.07 79.4416L148.941 75.3113L144.806 79.4439L148.937 83.5745L153.07 79.4416Z" fill="currentColor"/>
<path d="M206.745 141.381L202.615 137.25L198.485 141.381L202.615 145.512L206.745 141.381Z" fill="currentColor"/>
<path d="M153.065 95.9617L148.934 91.8311L144.801 95.9641L148.932 100.095L153.065 95.9617Z" fill="currentColor"/>
<path d="M153.064 87.7016L148.937 83.5745L144.807 87.704L148.934 91.8311L153.064 87.7016Z" fill="currentColor"/>
<path d="M214.999 149.637L210.871 145.507L206.742 149.639L210.869 153.766L214.999 149.637Z" fill="currentColor"/>
<path d="M206.742 149.639L202.615 145.512L198.482 149.645L202.609 153.772L206.742 149.639Z" fill="currentColor"/>
<path d="M198.485 141.381L194.354 137.251L190.222 141.382L194.352 145.514L198.485 141.381Z" fill="currentColor"/>
<path d="M190.227 133.124L181.972 124.866L177.836 128.998L186.096 137.255L190.227 133.124Z" fill="currentColor"/>
<path d="M223.261 149.631L219.131 145.501L214.999 149.637L219.129 153.767L223.261 149.631Z" fill="currentColor"/>
<path d="M206.736 157.899L202.609 153.772L198.478 157.903L202.605 162.03L206.736 157.899Z" fill="currentColor"/>
<path d="M219.129 153.767L210.867 162.026L219.128 170.287L223.258 166.154L219.13 162.024L223.259 157.895L219.129 153.767Z" fill="currentColor"/>
<path d="M231.517 174.411L227.388 170.285L223.258 174.417L227.382 178.545L231.517 174.411Z" fill="currentColor"/>
</svg>
