<svg  viewBox="0 0 24 24" fill="none" xmlns="http://www.w3.org/2000/svg">
<path d="M14.25 12C14.25 13.243 13.243 14.25 12 14.25C10.757 14.25 9.75 13.243 9.75 12C9.75 10.757 10.757 9.75 12 9.75C13.243 9.75 14.25 10.757 14.25 12Z" fill="currentColor"/>
<path fill-rule="evenodd" clip-rule="evenodd" d="M6.38323 6.38323C6.75915 6.00732 7.13506 5.77683 7.57957 5.60396C8.00762 5.43659 8.49878 5.32134 9.22043 5.29116C9.93933 5.25823 10.1698 5.25 12.0027 5.25C13.8357 5.25 14.0662 5.25823 14.7851 5.29116C15.504 5.32409 15.9951 5.43659 16.4232 5.60396C16.8677 5.77683 17.2436 6.00732 17.6195 6.38323C17.9927 6.7564 18.2232 7.13506 18.396 7.57683C18.5607 8.00488 18.6759 8.49604 18.7088 9.21494C18.7418 9.93384 18.75 10.1643 18.75 11.9973C18.75 13.8302 18.7418 14.0607 18.7088 14.7796C18.6759 15.4985 18.5634 15.9896 18.396 16.4177C18.2232 16.8622 17.9927 17.2381 17.6168 17.614C17.2409 17.9899 16.8649 18.2204 16.4204 18.3933C15.9924 18.5579 15.5012 18.6732 14.7823 18.7061C14.0634 18.739 13.8329 18.7473 12 18.7473C10.1671 18.7473 9.93659 18.739 9.21768 18.7061C8.49878 18.6732 8.00762 18.5607 7.57957 18.3933C7.13506 18.2204 6.75915 17.9899 6.38323 17.614C6.00732 17.2381 5.77683 16.8622 5.60396 16.4177C5.43933 15.9896 5.32409 15.4985 5.29116 14.7796C5.25823 14.0607 5.25 13.8302 5.25 11.9973C5.25 10.1643 5.25823 9.93384 5.29116 9.21494C5.32409 8.49604 5.43659 8.00488 5.60396 7.57683C5.77683 7.13506 6.00732 6.7564 6.38323 6.38323ZM15.6055 9.2067C16.0525 9.2067 16.4149 8.8443 16.4149 8.39725C16.4149 7.9502 16.0525 7.5878 15.6055 7.5878C15.1584 7.5878 14.796 7.9502 14.796 8.39725C14.796 8.8443 15.1584 9.2067 15.6055 9.2067ZM8.53445 12C8.53445 13.9152 10.0875 15.4656 12 15.4656C13.9125 15.4656 15.4656 13.9125 15.4656 12C15.4656 10.0875 13.9152 8.53445 12 8.53445C10.0848 8.53445 8.53445 10.0848 8.53445 12Z" fill="currentColor"/>
</svg>
