<svg  viewBox="0 0 24 24" fill="none" xmlns="http://www.w3.org/2000/svg">
<path fill-rule="evenodd" clip-rule="evenodd" d="M5.00024 6.16964C5.00024 5.85943 5.12347 5.56193 5.34282 5.34258C5.56217 5.12323 5.85967 5 6.16988 5H17.8293C17.9831 4.99975 18.1353 5.02982 18.2774 5.0885C18.4195 5.14717 18.5486 5.2333 18.6574 5.34194C18.7662 5.45059 18.8524 5.57962 18.9113 5.72164C18.9701 5.86367 19.0003 6.01591 19.0002 6.16964V17.8291C19.0004 17.9829 18.9703 18.1351 18.9115 18.2772C18.8528 18.4193 18.7666 18.5484 18.6579 18.6572C18.5492 18.766 18.4201 18.8522 18.2781 18.911C18.136 18.9698 17.9837 19.0001 17.83 19H6.16988C6.01623 19 5.86408 18.9697 5.72213 18.9109C5.58018 18.8521 5.45122 18.7659 5.3426 18.6572C5.23398 18.5485 5.14784 18.4195 5.08909 18.2775C5.03035 18.1355 5.00016 17.9834 5.00024 17.8297V6.16964ZM10.5417 10.3378H12.4374V11.2898C12.7111 10.7425 13.4111 10.25 14.463 10.25C16.4796 10.25 16.9575 11.3401 16.9575 13.3402V17.0451H14.9167V13.7958C14.9167 12.6567 14.6431 12.014 13.9482 12.014C12.9841 12.014 12.5832 12.707 12.5832 13.7958V17.0451H10.5417V10.3378ZM7.0417 16.9579H9.08315V10.25H7.0417V16.9573V16.9579ZM9.37524 8.06218C9.37909 8.23697 9.34799 8.41077 9.28376 8.57338C9.21953 8.73599 9.12347 8.88413 9.00121 9.00911C8.87895 9.13409 8.73296 9.23339 8.57181 9.30119C8.41065 9.36898 8.23758 9.4039 8.06274 9.4039C7.88791 9.4039 7.71484 9.36898 7.55368 9.30119C7.39253 9.23339 7.24654 9.13409 7.12428 9.00911C7.00202 8.88413 6.90596 8.73599 6.84173 8.57338C6.7775 8.41077 6.7464 8.23697 6.75024 8.06218C6.7578 7.71909 6.8994 7.3926 7.14472 7.15262C7.39004 6.91264 7.71957 6.77827 8.06274 6.77827C8.40592 6.77827 8.73545 6.91264 8.98077 7.15262C9.22609 7.3926 9.36769 7.71909 9.37524 8.06218Z" fill="currentColor"/>
</svg>
