<svg  viewBox="0 0 24 24" fill="none" xmlns="http://www.w3.org/2000/svg">
<path d="M17.4321 7.20156C16.3966 7.21978 15.3988 7.59401 14.6067 8.26133C13.8146 8.92865 13.2765 9.84836 13.0827 10.8658C12.1102 9.35438 11.3485 7.71735 10.8186 6H8.57437V11.9581C8.57437 12.5217 8.35048 13.0623 7.95195 13.4608C7.55343 13.8593 7.01291 14.0832 6.4493 14.0832C5.8857 14.0832 5.34518 13.8593 4.94665 13.4608C4.54812 13.0623 4.32423 12.5217 4.32423 11.9581V6L2.07007 6.04965V12.0078C2.07665 13.1666 2.5433 14.2753 3.36736 15.0901C4.19142 15.9048 5.30539 16.3589 6.4642 16.3523C7.62301 16.3457 8.73174 15.879 9.54649 15.055C10.3612 14.2309 10.8153 13.117 10.8087 11.9581V10.9651C11.2851 11.8996 11.8329 12.796 12.4472 13.6463L11.0768 20.2102H13.3806L14.3736 15.4337C15.294 16.0252 16.3681 16.3325 17.4619 16.3175C18.6655 16.3175 19.8198 15.8394 20.6709 14.9883C21.5219 14.1373 22.0001 12.983 22.0001 11.7794C22.0001 10.5758 21.5219 9.42153 20.6709 8.57046C19.8198 7.7194 18.6655 7.24128 17.4619 7.24128L17.4321 7.20156ZM17.4321 13.9839C16.499 13.9538 15.6048 13.6031 14.8999 12.9909L15.1283 12.0872V12.0376C15.2872 11.0446 15.7837 9.45572 17.4619 9.45572C17.7562 9.4531 18.048 9.50863 18.3208 9.61912C18.5935 9.72961 18.8417 9.89289 19.0512 10.0996C19.2606 10.3063 19.4272 10.5523 19.5413 10.8235C19.6554 11.0947 19.7148 11.3858 19.7161 11.6801C19.6948 12.2759 19.4519 12.8423 19.035 13.2684C18.6181 13.6945 18.0571 13.9497 17.4619 13.9839H17.4321Z" fill="currentColor"/>
</svg>
